<?xml version="1.0" encoding="UTF-8" standalone="no"?>
<svg
   xmlns:dc="http://purl.org/dc/elements/1.1/"
   xmlns:cc="http://creativecommons.org/ns#"
   xmlns:rdf="http://www.w3.org/1999/02/22-rdf-syntax-ns#"
   xmlns:svg="http://www.w3.org/2000/svg"
   xmlns="http://www.w3.org/2000/svg"
   xmlns:sodipodi="http://sodipodi.sourceforge.net/DTD/sodipodi-0.dtd"
   xmlns:inkscape="http://www.inkscape.org/namespaces/inkscape"
   version="1.0"
   width="101.63mm"
   height="76.190002mm"
   id="svg3501"
   inkscape:version="0.92.3 (2405546, 2018-03-11)"
   viewBox="0 0 101.63 76.190002"
   sodipodi:docname="Directory_relative.svg">
  <metadata
     id="metadata3610">
    <rdf:RDF>
      <cc:Work
         rdf:about="">
        <dc:format>image/svg+xml</dc:format>
        <dc:type
           rdf:resource="http://purl.org/dc/dcmitype/StillImage" />
        <dc:title />
      </cc:Work>
    </rdf:RDF>
  </metadata>
  <sodipodi:namedview
     pagecolor="#ffffff"
     bordercolor="#666666"
     borderopacity="1"
     objecttolerance="10"
     gridtolerance="10"
     guidetolerance="10"
     inkscape:pageopacity="0"
     inkscape:pageshadow="2"
     inkscape:window-width="1920"
     inkscape:window-height="1046"
     id="namedview3608"
     inkscape:document-units="mm"
     showgrid="false"
     inkscape:zoom="2.2856371"
     inkscape:cx="104.28341"
     inkscape:cy="99.009995"
     inkscape:window-x="-11"
     inkscape:window-y="-11"
     inkscape:window-maximized="1"
     inkscape:current-layer="svg3501" />
  <defs
     id="defs3503">
    <pattern
       id="EMFhbasepattern"
       patternUnits="userSpaceOnUse"
       width="6"
       height="6"
       x="0"
       y="0" />
  </defs>
  <path
     style="fill:#ffffff;fill-opacity:1;fill-rule:evenodd;stroke:none"
     d="m 0.02117511,0.02117511 0,76.23047189 101.64063489,0 0,-76.23047189 -101.64063489,0 z"
     id="path3506"
     inkscape:connector-curvature="0" />
  <text
     xml:space="preserve"
     style="font-style:normal;font-variant:normal;font-weight:normal;font-stretch:normal;font-size:4.23333331px;line-height:0%;font-family:Arial;-inkscape-font-specification:'Arial, Normal';font-variant-ligatures:normal;font-variant-caps:normal;font-variant-numeric:normal;font-feature-settings:normal;text-align:start;letter-spacing:0px;word-spacing:0px;writing-mode:lr;text-anchor:start;fill:#000000;fill-opacity:1;stroke:none;"
     x="7.8937511"
     y="54.801842"
     id="text3508"
     transform="scale(0.81798682,1.2225136)"><tspan
       sodipodi:role="line"
       x="7.8937511"
       y="54.801842"
       id="tspan3510"
       style="font-style:normal;font-variant:normal;font-weight:normal;font-stretch:normal;font-size:4.23333331px;line-height:1.25;font-family:Arial;-inkscape-font-specification:'Arial, Normal';font-variant-ligatures:normal;font-variant-caps:normal;font-variant-numeric:normal;font-feature-settings:normal;text-align:start;writing-mode:lr;text-anchor:start;"><tspan
         dx="0"
         dy="0"
         style="font-style:normal;font-variant:normal;font-weight:normal;font-stretch:normal;font-size:4.23333331px;font-family:Arial;-inkscape-font-specification:'Arial, Normal';font-variant-ligatures:normal;font-variant-caps:normal;font-variant-numeric:normal;font-feature-settings:normal;text-align:start;writing-mode:lr;text-anchor:start;fill:#ff0000;"
         id="tspan3512">The map document looks for files relative to its location.</tspan></tspan></text>
  <text
     xml:space="preserve"
     style="font-style:normal;font-variant:normal;font-weight:400;line-height:0%;font-family:Calibri;text-align:start;letter-spacing:0px;word-spacing:0px;text-anchor:start;fill:#000000;fill-opacity:1;stroke:none"
     x="38.674389"
     y="33.059956"
     id="text3514"><tspan
       sodipodi:role="line"
       x="38.674389"
       y="33.059956"
       id="tspan3516"
       style="font-size:2.83986092px;line-height:1.25"><tspan
         dx="0"
         dy="0"
         style="font-style:normal;font-variant:normal;font-weight:400;font-size:2.83986115px;font-family:Calibri;fill:#000000"
         id="tspan3518">HW05/</tspan></tspan></text>
  <text
     xml:space="preserve"
     style="font-style:normal;font-variant:normal;font-weight:400;line-height:0%;font-family:Calibri;text-align:start;letter-spacing:0px;word-spacing:0px;text-anchor:start;fill:#000000;fill-opacity:1;stroke:none"
     x="20.012199"
     y="48.542156"
     id="text3520"><tspan
       sodipodi:role="line"
       x="20.012199"
       y="48.542156"
       id="tspan3522"
       style="font-size:2.83986092px;line-height:1.25"><tspan
         dx="0"
         dy="0"
         style="font-style:normal;font-variant:normal;font-weight:400;font-size:2.83986115px;font-family:Calibri;fill:#000000"
         id="tspan3524">Map.mxd</tspan></tspan></text>
  <text
     xml:space="preserve"
     style="font-style:normal;font-variant:normal;font-weight:400;line-height:0%;font-family:Calibri;text-align:start;letter-spacing:0px;word-spacing:0px;text-anchor:start;fill:#000000;fill-opacity:1;stroke:none"
     x="45.789253"
     y="48.54213"
     id="text3526"><tspan
       sodipodi:role="line"
       x="45.789253"
       y="48.54213"
       id="tspan3528"
       style="font-size:2.83986092px;line-height:1.25"><tspan
         dx="0"
         dy="0"
         style="font-style:normal;font-variant:normal;font-weight:400;font-size:2.83986115px;font-family:Calibri;fill:#000000"
         id="tspan3530">Roads.shp</tspan></tspan></text>
  <text
     xml:space="preserve"
     style="font-style:normal;font-variant:normal;font-weight:400;line-height:0%;font-family:Calibri;text-align:start;letter-spacing:0px;word-spacing:0px;text-anchor:start;fill:#000000;fill-opacity:1;stroke:none"
     x="72.214226"
     y="48.542156"
     id="text3532"><tspan
       sodipodi:role="line"
       x="72.214226"
       y="48.542156"
       id="tspan3534"
       style="font-size:2.83986092px;line-height:1.25"><tspan
         dx="0"
         dy="0"
         style="font-style:normal;font-variant:normal;font-weight:400;font-size:2.83986115px;font-family:Calibri;fill:#000000"
         id="tspan3536">Cities.shp</tspan></tspan></text>
  <path
     style="fill:#7f7f7f;fill-opacity:1;fill-rule:nonzero;stroke:#7f7f7f;stroke-width:0.00264689px;stroke-linecap:butt;stroke-linejoin:round;stroke-miterlimit:4;stroke-dasharray:none;stroke-opacity:1"
     d="m 44.044164,40.073862 -18.480503,0 c -0.09796,0 -0.177349,0.07931 -0.177349,0.177236 l 0,4.026182 0.352044,0 0,-4.026182 -0.174695,0.177518 18.480503,0 z m -19.867484,2.173111 1.386981,2.379698 1.386953,-2.379698 c 0.05029,-0.08213 0.02117,-0.1905 -0.06353,-0.240735 -0.08469,-0.0477 -0.193209,-0.02117 -0.240848,0.0635 l -1.236105,2.117513 0.304376,0 -1.233424,-2.117513 c -0.05029,-0.08467 -0.158834,-0.111196 -0.240876,-0.0635 -0.08469,0.05023 -0.11382,0.158609 -0.06353,0.240735 z"
     id="path3538"
     inkscape:connector-curvature="0" />
  <path
     style="fill:#7f7f7f;fill-opacity:1;fill-rule:nonzero;stroke:#7f7f7f;stroke-width:0.00264689px;stroke-linecap:butt;stroke-linejoin:round;stroke-miterlimit:4;stroke-dasharray:none;stroke-opacity:1"
     d="m 44.044164,40.073862 7.718496,0 c 0.09793,0 0.177236,0.07931 0.177236,0.177236 l 0,4.026182 -0.351932,0 0,-4.026182 0.174696,0.177518 -7.718496,0 z m 9.107876,2.173111 -1.38938,2.379698 -1.387122,-2.379698 c -0.05024,-0.08213 -0.02117,-0.1905 0.0635,-0.240735 0.08467,-0.0477 0.193322,-0.02117 0.241018,0.0635 l 1.236133,2.117513 -0.304518,0 1.233593,-2.117513 c 0.05024,-0.08467 0.158609,-0.111196 0.243276,-0.0635 0.08213,0.05023 0.111196,0.158609 0.0635,0.240735 z"
     id="path3540"
     inkscape:connector-curvature="0" />
  <path
     style="fill:#7f7f7f;fill-opacity:1;fill-rule:nonzero;stroke:#7f7f7f;stroke-width:0.00264689px;stroke-linecap:butt;stroke-linejoin:round;stroke-miterlimit:4;stroke-dasharray:none;stroke-opacity:1"
     d="m 44.044164,40.073862 35.28314,0 c 0.09793,0 0.177236,0.07931 0.177236,0.177236 l 0,4.026182 -0.351931,0 0,-4.026182 0.174695,0.177518 -35.28314,0 z m 36.672803,2.173111 -1.389663,2.379698 -1.387122,-2.379698 c -0.05023,-0.08213 -0.02117,-0.1905 0.0635,-0.240735 0.08495,-0.0477 0.193322,-0.02117 0.241018,0.0635 l 1.236133,2.117513 -0.304517,0 1.233593,-2.117513 c 0.05024,-0.08467 0.158609,-0.111196 0.243558,-0.0635 0.08184,0.05023 0.110913,0.158609 0.0635,0.240735 z"
     id="path3542"
     inkscape:connector-curvature="0" />
  <text
     xml:space="preserve"
     style="font-style:normal;font-variant:normal;font-weight:400;line-height:0%;font-family:Calibri;text-align:start;letter-spacing:0px;word-spacing:0px;text-anchor:start;fill:#000000;fill-opacity:1;stroke:none"
     x="41.58477"
     y="11.477714"
     id="text3544"><tspan
       sodipodi:role="line"
       x="41.58477"
       y="11.477714"
       id="tspan3546"
       style="font-size:2.83986092px;line-height:1.25"><tspan
         dx="0"
         dy="0"
         style="font-style:normal;font-variant:normal;font-weight:400;font-size:2.83986115px;font-family:Calibri;fill:#000000"
         id="tspan3548">D:</tspan></tspan></text>
  <text
     xml:space="preserve"
     style="font-style:normal;font-variant:normal;font-weight:400;line-height:0%;font-family:Calibri;text-align:start;letter-spacing:0px;word-spacing:0px;text-anchor:start;fill:#000000;fill-opacity:1;stroke:none"
     x="36.306084"
     y="20.537601"
     id="text3550"><tspan
       sodipodi:role="line"
       x="36.306084"
       y="20.537601"
       id="tspan3552"
       style="font-size:2.83986092px;line-height:1.25"><tspan
         dx="0"
         dy="0"
         style="font-style:normal;font-variant:normal;font-weight:400;font-size:2.83986115px;font-family:Calibri;fill:#000000"
         id="tspan3554">Username/</tspan></tspan></text>
  <path
     style="fill:none;stroke:#7f7f7f;stroke-width:0.08734732px;stroke-linecap:butt;stroke-linejoin:round;stroke-miterlimit:4;stroke-dasharray:none;stroke-opacity:1"
     d="m 42.821296,12.771233 0,2.305445 0,0 0,2.308098"
     id="path3556"
     inkscape:connector-curvature="0" />
  <path
     style="fill:none;stroke:#7f7f7f;stroke-width:0.08734732px;stroke-linecap:butt;stroke-linejoin:round;stroke-miterlimit:4;stroke-dasharray:none;stroke-opacity:1"
     d="m 42.821296,21.831526 0,7.313281"
     id="path3558"
     inkscape:connector-curvature="0" />
  <path
     style="fill:none;stroke:#7f7f7f;stroke-width:0.08734732px;stroke-linecap:butt;stroke-linejoin:round;stroke-miterlimit:4;stroke-dasharray:none;stroke-opacity:1"
     d="m 42.821296,35.129611 0,5.121487"
     id="path3560"
     inkscape:connector-curvature="0" />
  <path
     style="fill:#ff0000;fill-opacity:1;fill-rule:nonzero;stroke:#ff0000;stroke-width:0.00264689px;stroke-linecap:butt;stroke-linejoin:round;stroke-miterlimit:4;stroke-dasharray:none;stroke-opacity:1"
     d="m 28.176135,52.196718 0.07149,0.325402 0.08721,0.307058 0.111195,0.296615 0.127,0.288431 0.150989,0.280529 0.169334,0.270087 0.18796,0.261902 0.203764,0.254282 0.222391,0.246098 0.241018,0.235656 0.25654,0.227471 0.272627,0.214489 0.592949,0.412891 0.651086,0.370558 0.701605,0.330764 0.751557,0.293793 0.794174,0.25146 0.831144,0.211949 0.865576,0.166511 0.897184,0.127283 0.918634,0.08184 0.939517,0.03979 0.955605,-0.0054 0.963506,-0.05024 0.971409,-0.09793 0.968587,-0.142805 0.966047,-0.190782 0.953064,-0.238196 0.94488,-0.285891 0.923713,-0.336126 0.897467,-0.386363 0.873478,-0.431517 0.839047,-0.484294 0.799253,-0.537351 0.762282,-0.585047 0.709507,-0.637822 0.661529,-0.69088 0.383822,-0.471029 0.275449,0.222391 -0.402449,0.494736 -0.682978,0.706684 -0.730391,0.653909 -0.778369,0.600851 -0.82042,0.547794 -0.860213,0.495018 -0.889282,0.44196 -0.918634,0.392006 -0.939518,0.341207 -0.960966,0.291253 -0.973949,0.243558 -0.982133,0.1905 -0.984674,0.148167 -0.987213,0.09793 -0.979311,0.05052 -0.971409,0.0051 -0.955605,-0.03951 -0.939517,-0.08467 L 35.399416,57.789516 34.512673,57.61736 33.660362,57.400331 32.845304,57.143791 32.072298,56.839273 31.344447,56.492422 30.669371,56.10606 30.058078,55.682727 29.769647,55.452433 29.5021,55.213956 29.24556,54.962778 29.012444,54.700593 28.792876,54.430507 28.594473,54.1528 28.414416,53.861547 28.250162,53.557029 28.11526,53.247431 l -0.119126,-0.320322 -0.09528,-0.328225 -0.07146,-0.325402 z m 21.400149,0.730391 2.5781,-0.968587 -0.426155,2.720905 c -0.01609,0.09793 -0.105833,0.161431 -0.201225,0.148166 -0.09793,-0.0158 -0.164253,-0.105833 -0.148166,-0.201224 l 0.37846,-2.421749 0.238195,0.1905 -2.294749,0.863036 c -0.09285,0.03443 -0.193322,-0.01073 -0.227753,-0.103294 -0.03443,-0.09003 0.01073,-0.193322 0.103293,-0.227753 z"
     id="path3562"
     inkscape:connector-curvature="0" />
  <path
     style="fill:#ff0000;fill-opacity:1;fill-rule:nonzero;stroke:#ff0000;stroke-width:0.00264689px;stroke-linecap:butt;stroke-linejoin:round;stroke-miterlimit:4;stroke-dasharray:none;stroke-opacity:1"
     d="m 26.889738,52.543287 0.13764,0.603673 0.190585,0.558518 0.246154,0.529166 0.301752,0.50292 0.352016,0.479214 0.402364,0.449862 0.455224,0.428978 0.50292,0.399626 0.547794,0.381 0.598311,0.352214 0.635282,0.328224 0.680156,0.309598 1.479691,0.542713 1.622495,0.449863 1.752318,0.360115 1.868593,0.280529 1.966807,0.1905 2.051191,0.113736 2.125416,0.03979 2.178473,-0.03697 2.220807,-0.103294 2.247053,-0.172155 2.2606,-0.235656 2.257778,-0.293793 2.236611,-0.346569 2.207542,-0.404989 2.162387,-0.452684 2.098886,-0.497558 2.024945,-0.539891 1.932375,-0.579685 1.8288,-0.616937 1.707445,-0.648265 1.5748,-0.677615 1.424093,-0.698783 0.648547,-0.360115 0.605931,-0.365196 0.56388,-0.365195 0.518724,-0.37338 0.465949,-0.373098 0.418254,-0.37592 0.365195,-0.37846 0.08721,-0.108656 0.272627,0.225214 -0.108374,0.12954 -0.381282,0.394546 -0.434058,0.391725 -0.481753,0.383822 -0.529167,0.37846 -0.574604,0.37592 -0.616656,0.370558 -0.664351,0.365195 -1.439898,0.709225 -1.590886,0.682978 -1.717605,0.653909 -1.839806,0.616655 -1.942818,0.585047 -2.035387,0.539891 -2.109611,0.50292 -2.170289,0.452684 -2.215444,0.404707 -2.247336,0.352213 -2.26822,0.293794 -2.265962,0.235655 -2.257778,0.171874 -2.231249,0.103293 -2.194278,0.03697 -2.135857,-0.03951 -2.067278,-0.114018 -1.982611,-0.195862 -1.88976,-0.280529 -1.773485,-0.365196 -1.651564,-0.460586 -1.50368,-0.553156 -0.69596,-0.31496 -0.656449,-0.338949 -0.614116,-0.367735 -0.56896,-0.391725 -0.524086,-0.421075 -0.476674,-0.449862 -0.423389,-0.476392 -0.373211,-0.505742 -0.317613,-0.534529 -0.262043,-0.56642 -0.198515,-0.595489 -0.13764,-0.603673 z m 49.729644,-0.907909 2.583462,-0.955322 -0.44196,2.718364 c -0.01609,0.09793 -0.105833,0.161431 -0.201224,0.145344 -0.09793,-0.01298 -0.161431,-0.105833 -0.145627,-0.200942 l 0.391725,-2.419209 0.235655,0.19304 -2.300111,0.849771 c -0.09257,0.03443 -0.193322,-0.01326 -0.227753,-0.103293 -0.03161,-0.09257 0.01326,-0.193322 0.105833,-0.227753 z"
     id="path3564"
     inkscape:connector-curvature="0" />
  <text
     xml:space="preserve"
     style="font-style:normal;font-variant:normal;font-weight:400;line-height:0%;font-family:'Architects Daughter';text-align:start;letter-spacing:0px;word-spacing:0px;text-anchor:start;fill:#000000;fill-opacity:1;stroke:none"
     x="104.81678"
     y="18.746916"
     id="text3566"><tspan
       sodipodi:role="line"
       x="104.81678"
       y="18.746916"
       id="tspan3568"
       style="font-size:2.45180607px;line-height:1.25"><tspan
         dx="0"
         dy="0"
         style="font-style:normal;font-variant:normal;font-weight:400;font-size:2.45180559px;font-family:'Architects Daughter';fill:#ff0000"
         id="tspan3570">The map </tspan></tspan></text>
  <text
     xml:space="preserve"
     style="font-style:normal;font-variant:normal;font-weight:400;line-height:0%;font-family:'Architects Daughter';text-align:start;letter-spacing:0px;word-spacing:0px;text-anchor:start;fill:#000000;fill-opacity:1;stroke:none"
     x="104.81678"
     y="21.711432"
     id="text3572"><tspan
       sodipodi:role="line"
       x="104.81678"
       y="21.711432"
       id="tspan3574"
       style="font-size:2.45180607px;line-height:1.25"><tspan
         dx="0"
         dy="0"
         style="font-style:normal;font-variant:normal;font-weight:400;font-size:2.45180559px;font-family:'Architects Daughter';fill:#ff0000"
         id="tspan3576">document </tspan></tspan></text>
  <text
     xml:space="preserve"
     style="font-style:normal;font-variant:normal;font-weight:400;line-height:0%;font-family:'Architects Daughter';text-align:start;letter-spacing:0px;word-spacing:0px;text-anchor:start;fill:#000000;fill-opacity:1;stroke:none"
     x="104.81678"
     y="24.675947"
     id="text3578"><tspan
       sodipodi:role="line"
       x="104.81678"
       y="24.675947"
       id="tspan3580"
       style="font-size:2.45180607px;line-height:1.25"><tspan
         dx="0"
         dy="0"
         style="font-style:normal;font-variant:normal;font-weight:400;font-size:2.45180559px;font-family:'Architects Daughter';fill:#ff0000"
         id="tspan3582">looks for </tspan></tspan></text>
  <text
     xml:space="preserve"
     style="font-style:normal;font-variant:normal;font-weight:400;line-height:0%;font-family:'Architects Daughter';text-align:start;letter-spacing:0px;word-spacing:0px;text-anchor:start;fill:#000000;fill-opacity:1;stroke:none"
     x="104.81678"
     y="27.640463"
     id="text3584"><tspan
       sodipodi:role="line"
       x="104.81678"
       y="27.640463"
       id="tspan3586"
       style="font-size:2.45180607px;line-height:1.25"><tspan
         dx="0"
         dy="0"
         style="font-style:normal;font-variant:normal;font-weight:400;font-size:2.45180559px;font-family:'Architects Daughter';fill:#ff0000"
         id="tspan3588">files </tspan></tspan></text>
  <text
     xml:space="preserve"
     style="font-style:normal;font-variant:normal;font-weight:400;line-height:0%;font-family:'Architects Daughter';text-align:start;letter-spacing:0px;word-spacing:0px;text-anchor:start;fill:#000000;fill-opacity:1;stroke:none"
     x="104.81678"
     y="30.604977"
     id="text3590"><tspan
       sodipodi:role="line"
       x="104.81678"
       y="30.604977"
       id="tspan3592"
       style="font-size:2.45180607px;line-height:1.25"><tspan
         dx="0"
         dy="0"
         style="font-style:normal;font-variant:normal;font-weight:400;font-size:2.45180559px;font-family:'Architects Daughter';fill:#ff0000"
         id="tspan3594">starting at </tspan></tspan></text>
  <text
     xml:space="preserve"
     style="font-style:normal;font-variant:normal;font-weight:400;line-height:0%;font-family:'Architects Daughter';text-align:start;letter-spacing:0px;word-spacing:0px;text-anchor:start;fill:#000000;fill-opacity:1;stroke:none"
     x="104.81678"
     y="33.569492"
     id="text3596"><tspan
       sodipodi:role="line"
       x="104.81678"
       y="33.569492"
       id="tspan3598"
       style="font-size:2.45180607px;line-height:1.25"><tspan
         dx="0"
         dy="0"
         style="font-style:normal;font-variant:normal;font-weight:400;font-size:2.45180559px;font-family:'Architects Daughter';fill:#ff0000"
         id="tspan3600">the root </tspan></tspan></text>
  <text
     xml:space="preserve"
     style="font-style:normal;font-variant:normal;font-weight:400;line-height:0%;font-family:'Architects Daughter';text-align:start;letter-spacing:0px;word-spacing:0px;text-anchor:start;fill:#000000;fill-opacity:1;stroke:none"
     x="104.81678"
     y="36.534008"
     id="text3602"><tspan
       sodipodi:role="line"
       x="104.81678"
       y="36.534008"
       id="tspan3604"
       style="font-size:2.45180607px;line-height:1.25"><tspan
         dx="0"
         dy="0"
         style="font-style:normal;font-variant:normal;font-weight:400;font-size:2.45180559px;font-family:'Architects Daughter';fill:#ff0000"
         id="tspan3606">level</tspan></tspan></text>
</svg>
