<?xml version="1.0" encoding="UTF-8" standalone="no"?>
<!-- Created with Inkscape (http://www.inkscape.org/) -->

<svg
   xmlns:dc="http://purl.org/dc/elements/1.1/"
   xmlns:cc="http://creativecommons.org/ns#"
   xmlns:rdf="http://www.w3.org/1999/02/22-rdf-syntax-ns#"
   xmlns:svg="http://www.w3.org/2000/svg"
   xmlns="http://www.w3.org/2000/svg"
   xmlns:sodipodi="http://sodipodi.sourceforge.net/DTD/sodipodi-0.dtd"
   xmlns:inkscape="http://www.inkscape.org/namespaces/inkscape"
   id="svg2"
   version="1.1"
   inkscape:version="0.91 r13725"
   xml:space="preserve"
   width="151.54166"
   height="63.597073"
   viewBox="0 0 151.54165 63.597073"
   sodipodi:docname="Fonts.svg"><metadata
     id="metadata8"><rdf:RDF><cc:Work
         rdf:about=""><dc:format>image/svg+xml</dc:format><dc:type
           rdf:resource="http://purl.org/dc/dcmitype/StillImage" /><dc:title></dc:title></cc:Work></rdf:RDF></metadata><defs
     id="defs6"><clipPath
       clipPathUnits="userSpaceOnUse"
       id="clipPath16"><path
         d="M 72,0 0,0 0,144 72,144 72,0 Z"
         id="path18"
         inkscape:connector-curvature="0"
         style="clip-rule:evenodd" /></clipPath><clipPath
       clipPathUnits="userSpaceOnUse"
       id="clipPath22"><path
         d="m 0,144.03 72,0 0,-144 -72,0 0,144 z"
         id="path24"
         inkscape:connector-curvature="0" /></clipPath></defs><sodipodi:namedview
     pagecolor="#ffffff"
     bordercolor="#666666"
     borderopacity="1"
     objecttolerance="10"
     gridtolerance="10"
     guidetolerance="10"
     inkscape:pageopacity="0"
     inkscape:pageshadow="2"
     inkscape:window-width="992"
     inkscape:window-height="497"
     id="namedview4"
     showgrid="false"
     fit-margin-top="0"
     fit-margin-left="0"
     fit-margin-right="0"
     fit-margin-bottom="0"
     inkscape:zoom="1.4721298"
     inkscape:cx="89.788145"
     inkscape:cy="68.651212"
     inkscape:window-x="0"
     inkscape:window-y="0"
     inkscape:window-maximized="0"
     inkscape:current-layer="g10" /><g
     id="g10"
     inkscape:groupmode="layer"
     inkscape:label="Fonts"
     transform="matrix(0,1.25,1.25,0,-10.875,-18.782297)"><text
       transform="matrix(0,1,1,0,48.18,13.2)"
       style="font-variant:normal;font-weight:normal;font-stretch:normal;font-size:43.97999954px;font-family:'Times New Roman';-inkscape-font-specification:TimesNewRomanPSMT;writing-mode:lr-tb;fill:#000000;fill-opacity:1;fill-rule:nonzero;stroke:none"
       id="text28"><tspan
         x="0 31.757957 53.752357"
         y="0"
         sodipodi:role="line"
         id="tspan30">Ab </tspan></text>
<text
       transform="matrix(0,1,1,0,48.18,77.93856)"
       style="font-variant:normal;font-weight:normal;font-stretch:normal;font-size:43.97999954px;font-family:Arial;-inkscape-font-specification:ArialMT;writing-mode:lr-tb;fill:#000000;fill-opacity:1;fill-rule:nonzero;stroke:none"
       id="text32"><tspan
         x="0 29.339058"
         y="0"
         sodipodi:role="line"
         id="tspan34">Ab</tspan></text>
<text
       transform="matrix(0,1,1,0,65.82,31.2)"
       style="font-variant:normal;font-weight:normal;font-stretch:normal;font-size:9px;font-family:Calibri;-inkscape-font-specification:Calibri;writing-mode:lr-tb;fill:#7e7e7e;fill-opacity:1;fill-rule:nonzero;stroke:none"
       id="text36"><tspan
         x="0 4.1265001 8.6040001 11.7405 13.797"
         y="0"
         sodipodi:role="line"
         id="tspan38">Serif</tspan><tspan
         x="57.840302 61.980301 66.300301 71.034302"
         y="-0.18000001"
         sodipodi:role="line"
         id="tspan40">Sans</tspan></text>
<text
       transform="matrix(0,1,1,0,65.64,105.7803)"
       style="font-variant:normal;font-weight:normal;font-stretch:normal;font-size:9px;font-family:Calibri;-inkscape-font-specification:Calibri;writing-mode:lr-tb;fill:#7e7e7e;fill-opacity:1;fill-rule:nonzero;stroke:none"
       id="text42"><tspan
         x="0"
         y="0"
         id="tspan44"> </tspan></text>
<text
       transform="matrix(0,1,1,0,65.64,107.6406)"
       style="font-variant:normal;font-weight:normal;font-stretch:normal;font-size:9px;font-family:Calibri;-inkscape-font-specification:Calibri;writing-mode:lr-tb;fill:#7e7e7e;fill-opacity:1;fill-rule:nonzero;stroke:none"
       id="text46"><tspan
         x="0 4.1265001 8.6040001 11.7405 13.797"
         y="0"
         sodipodi:role="line"
         id="tspan48">Serif</tspan></text>
<g
       id="g50"
       transform="translate(19.68,41.46)"><path
         d="M 0,0 -0.48,0 -0.9,0.06 c -4.994,1.152 -4.997,7.979 -0.06,9.18 l 0.48,0.06 0.42,0 C 5.328,9.255 6.462,1.938 1.38,0.18 L 0.96,0.06 0.48,0 0,0 Z M 0.36,1.02 1.08,1.14 C 4.855,2.388 4.325,7.761 0.42,8.28 L 0,8.34 -0.36,8.28 C -4.509,7.902 -4.84,1.975 -0.78,1.08 l 0.72,-0.12"
         style="fill:#ff0000;fill-opacity:1;fill-rule:nonzero;stroke:none"
         id="path52"
         inkscape:connector-curvature="0" /></g><g
       id="g54"
       transform="translate(19.68,41.46)"><path
         d="M 0,0 -0.48,0 -0.9,0.06 c -4.994,1.152 -4.997,7.979 -0.06,9.18 l 0.48,0.06 0.42,0 C 5.328,9.255 6.462,1.938 1.38,0.18 L 0.96,0.06 0.48,0 0,0 Z M 0.36,1.02 1.08,1.14 C 4.855,2.388 4.325,7.761 0.42,8.28 L 0,8.34 -0.36,8.28 C -4.509,7.902 -4.84,1.975 -0.78,1.08 l 0.72,-0.12"
         style="fill:#ff0000;fill-opacity:1;fill-rule:nonzero;stroke:none"
         id="path56"
         inkscape:connector-curvature="0" /></g><g
       id="g58"
       transform="translate(47.16,8.7)"><path
         d="m 0,0 -0.96,0.12 c -4.987,1.0832 -4.961,8.033 0,9.12 l 0.42,0.06 0.48,0.06 C 5.354,9.157 6.435,2.048 1.38,0.24 L 0.96,0.12 0.48,0.06 0,0 Z M 0.3,1.02 0.72,1.08 1.02,1.2 C 4.844,2.414 4.355,7.812 0.36,8.34 l -0.72,0 C -4.576,7.8 -4.863,2.113 -0.78,1.08 l 0.36,-0.06 0.36,0"
         style="fill:#ff0000;fill-opacity:1;fill-rule:nonzero;stroke:none"
         id="path60"
         inkscape:connector-curvature="0" /></g><g
       id="g62"
       transform="translate(47.16,8.7)"><path
         d="m 0,0 -0.96,0.12 c -4.987,1.0832 -4.961,8.033 0,9.12 l 0.42,0.06 0.48,0.06 C 5.354,9.157 6.435,2.048 1.38,0.24 L 0.96,0.12 0.48,0.06 0,0 Z M 0.3,1.02 0.72,1.08 1.02,1.2 C 4.844,2.414 4.355,7.812 0.36,8.34 l -0.72,0 C -4.576,7.8 -4.863,2.113 -0.78,1.08 l 0.36,-0.06 0.36,0"
         style="fill:#ff0000;fill-opacity:1;fill-rule:nonzero;stroke:none"
         id="path64"
         inkscape:connector-curvature="0" /></g></g></svg>