<?xml version="1.0" encoding="UTF-8" standalone="no"?>
<!-- Created with Inkscape (http://www.inkscape.org/) -->

<svg
   xmlns:dc="http://purl.org/dc/elements/1.1/"
   xmlns:cc="http://creativecommons.org/ns#"
   xmlns:rdf="http://www.w3.org/1999/02/22-rdf-syntax-ns#"
   xmlns:svg="http://www.w3.org/2000/svg"
   xmlns="http://www.w3.org/2000/svg"
   xmlns:sodipodi="http://sodipodi.sourceforge.net/DTD/sodipodi-0.dtd"
   xmlns:inkscape="http://www.inkscape.org/namespaces/inkscape"
   width="2.2957103in"
   height="1.9754007in"
   viewBox="0 0 206.61393 177.78607"
   id="svg2"
   version="1.1"
   inkscape:version="0.91 r13725"
   sodipodi:docname="g_function.svg"
   inkscape:export-filename="D:\mgimond\GitHub\ES214\img\g_function.png"
   inkscape:export-xdpi="150"
   inkscape:export-ydpi="150">
  <defs
     id="defs4">
    <pattern
       y="0"
       x="0"
       height="6"
       width="6"
       patternUnits="userSpaceOnUse"
       id="EMFhbasepattern" />
  </defs>
  <sodipodi:namedview
     id="base"
     pagecolor="#ffffff"
     bordercolor="#666666"
     borderopacity="1.0"
     inkscape:pageopacity="0.0"
     inkscape:pageshadow="2"
     inkscape:zoom="1.7376953"
     inkscape:cx="82.699798"
     inkscape:cy="128.20426"
     inkscape:document-units="px"
     inkscape:current-layer="layer1"
     showgrid="false"
     fit-margin-top="0"
     fit-margin-left="0"
     fit-margin-right="0"
     fit-margin-bottom="0"
     units="in"
     inkscape:window-width="2560"
     inkscape:window-height="1418"
     inkscape:window-x="-8"
     inkscape:window-y="-8"
     inkscape:window-maximized="1" />
  <metadata
     id="metadata7">
    <rdf:RDF>
      <cc:Work
         rdf:about="">
        <dc:format>image/svg+xml</dc:format>
        <dc:type
           rdf:resource="http://purl.org/dc/dcmitype/StillImage" />
        <dc:title></dc:title>
      </cc:Work>
    </rdf:RDF>
  </metadata>
  <g
     inkscape:label="Layer 1"
     inkscape:groupmode="layer"
     id="layer1"
     transform="translate(-32.216117,-445.0378)">
    <path
       inkscape:connector-curvature="0"
       id="path4143"
       d="m 61.494245,596.72028 165.087015,0"
       style="fill:none;stroke:#000000;stroke-width:0.35274997px;stroke-linecap:round;stroke-linejoin:round;stroke-miterlimit:10;stroke-dasharray:none;stroke-opacity:1" />
    <path
       inkscape:connector-curvature="0"
       id="path4145"
       d="m 61.494245,596.72028 0,3.17471"
       style="fill:none;stroke:#000000;stroke-width:0.35274997px;stroke-linecap:round;stroke-linejoin:round;stroke-miterlimit:10;stroke-dasharray:none;stroke-opacity:1" />
    <path
       inkscape:connector-curvature="0"
       id="path4147"
       d="m 89.008936,596.72028 0,3.17471"
       style="fill:none;stroke:#000000;stroke-width:0.35274997px;stroke-linecap:round;stroke-linejoin:round;stroke-miterlimit:10;stroke-dasharray:none;stroke-opacity:1" />
    <path
       inkscape:connector-curvature="0"
       id="path4149"
       d="m 116.52335,596.72028 0,3.17471"
       style="fill:none;stroke:#000000;stroke-width:0.35274997px;stroke-linecap:round;stroke-linejoin:round;stroke-miterlimit:10;stroke-dasharray:none;stroke-opacity:1" />
    <path
       inkscape:connector-curvature="0"
       id="path4151"
       d="m 144.03775,596.72028 0,3.17471"
       style="fill:none;stroke:#000000;stroke-width:0.35274997px;stroke-linecap:round;stroke-linejoin:round;stroke-miterlimit:10;stroke-dasharray:none;stroke-opacity:1" />
    <path
       inkscape:connector-curvature="0"
       id="path4153"
       d="m 171.55244,596.72028 0,3.17471"
       style="fill:none;stroke:#000000;stroke-width:0.35274997px;stroke-linecap:round;stroke-linejoin:round;stroke-miterlimit:10;stroke-dasharray:none;stroke-opacity:1" />
    <path
       inkscape:connector-curvature="0"
       id="path4155"
       d="m 199.06685,596.72028 0,3.17471"
       style="fill:none;stroke:#000000;stroke-width:0.35274997px;stroke-linecap:round;stroke-linejoin:round;stroke-miterlimit:10;stroke-dasharray:none;stroke-opacity:1" />
    <path
       inkscape:connector-curvature="0"
       id="path4157"
       d="m 226.58126,596.72028 0,3.17471"
       style="fill:none;stroke:#000000;stroke-width:0.35274997px;stroke-linecap:round;stroke-linejoin:round;stroke-miterlimit:10;stroke-dasharray:none;stroke-opacity:1" />
    <text
       sodipodi:linespacing="125%"
       id="text4159"
       y="605.00403"
       x="59.777756"
       style="font-style:normal;font-variant:normal;font-weight:400;font-size:5.64444447px;line-height:125%;font-family:Arial;text-align:start;letter-spacing:0px;word-spacing:0px;text-anchor:start;fill:#000000;fill-opacity:1;stroke:none"
       xml:space="preserve"><tspan
         id="tspan4161"
         y="605.00403"
         x="59.777756"
         sodipodi:role="line"><tspan
           id="tspan4163"
           style="font-style:normal;font-variant:normal;font-weight:400;font-size:5.64444447px;font-family:Arial;fill:#000000"
           dy="0"
           dx="0">0</tspan></tspan></text>
    <text
       sodipodi:linespacing="125%"
       id="text4165"
       y="605.55072"
       x="87.169014"
       style="font-style:normal;font-variant:normal;font-weight:normal;font-stretch:normal;font-size:5.64450026px;line-height:125%;font-family:Arial;-inkscape-font-specification:'Arial, Normal';text-align:start;letter-spacing:0px;word-spacing:0px;writing-mode:lr-tb;text-anchor:start;fill:#000000;fill-opacity:1;stroke:none"
       xml:space="preserve"><tspan
         sodipodi:role="line"
         id="tspan4368"
         x="87.169014"
         y="605.55072">5</tspan></text>
    <text
       sodipodi:linespacing="125%"
       id="text4171"
       y="605.05853"
       x="113.21013"
       style="font-style:normal;font-variant:normal;font-weight:normal;font-stretch:normal;font-size:5.64450026px;line-height:125%;font-family:Arial;-inkscape-font-specification:'Arial, Normal';text-align:start;letter-spacing:0px;word-spacing:0px;writing-mode:lr-tb;text-anchor:start;fill:#000000;fill-opacity:1;stroke:none"
       xml:space="preserve"><tspan
         sodipodi:role="line"
         id="tspan4366"
         x="113.21013"
         y="605.05853">10</tspan></text>
    <text
       sodipodi:linespacing="125%"
       id="text4177"
       y="605.08673"
       x="140.84016"
       style="font-style:normal;font-variant:normal;font-weight:normal;font-stretch:normal;font-size:5.64450026px;line-height:125%;font-family:Arial;-inkscape-font-specification:'Arial, Normal';text-align:start;letter-spacing:0px;word-spacing:0px;writing-mode:lr-tb;text-anchor:start;fill:#000000;fill-opacity:1;stroke:none"
       xml:space="preserve"><tspan
         sodipodi:role="line"
         id="tspan4370"
         x="140.84016"
         y="605.08673">15</tspan></text>
    <text
       sodipodi:linespacing="125%"
       id="text4183"
       y="605.30884"
       x="168.57674"
       style="font-style:normal;font-variant:normal;font-weight:normal;font-stretch:normal;font-size:5.64450026px;line-height:125%;font-family:Arial;-inkscape-font-specification:'Arial, Normal';text-align:start;letter-spacing:0px;word-spacing:0px;writing-mode:lr-tb;text-anchor:start;fill:#000000;fill-opacity:1;stroke:none"
       xml:space="preserve"><tspan
         sodipodi:role="line"
         id="tspan4372"
         x="168.57674"
         y="605.30884">20</tspan></text>
    <text
       sodipodi:linespacing="125%"
       id="text4189"
       y="605.30884"
       x="196.09123"
       style="font-style:normal;font-variant:normal;font-weight:normal;font-stretch:normal;font-size:5.64450026px;line-height:125%;font-family:Arial;-inkscape-font-specification:'Arial, Normal';text-align:start;letter-spacing:0px;word-spacing:0px;writing-mode:lr-tb;text-anchor:start;fill:#000000;fill-opacity:1;stroke:none"
       xml:space="preserve"><tspan
         sodipodi:role="line"
         id="tspan4374"
         x="196.09123"
         y="605.30884">25</tspan></text>
    <text
       sodipodi:linespacing="125%"
       id="text4195"
       y="605.27417"
       x="223.57382"
       style="font-style:normal;font-variant:normal;font-weight:normal;font-stretch:normal;font-size:5.64450026px;line-height:125%;font-family:Arial;-inkscape-font-specification:'Arial, Normal';text-align:start;letter-spacing:0px;word-spacing:0px;writing-mode:lr-tb;text-anchor:start;fill:#000000;fill-opacity:1;stroke:none"
       xml:space="preserve"><tspan
         sodipodi:role="line"
         id="tspan4376"
         x="223.57382"
         y="605.27417">30</tspan></text>
    <path
       inkscape:connector-curvature="0"
       id="path4201"
       d="m 64.316467,603.42249 m 27.514409,0 m 27.514414,0 m 27.51468,0 m 27.51441,0 m 27.51441,0 m 27.51469,0 m -174.611363,-11.99332 0,-117.46596"
       style="fill:none;stroke:#000000;stroke-width:0.35274997px;stroke-linecap:round;stroke-linejoin:round;stroke-miterlimit:10;stroke-dasharray:none;stroke-opacity:1" />
    <path
       inkscape:connector-curvature="0"
       id="path4203"
       d="m 54.792117,591.42917 -3.174746,0"
       style="fill:none;stroke:#000000;stroke-width:0.35274997px;stroke-linecap:round;stroke-linejoin:round;stroke-miterlimit:10;stroke-dasharray:none;stroke-opacity:1" />
    <path
       inkscape:connector-curvature="0"
       id="path4205"
       d="m 54.792117,552.27366 -3.174746,0"
       style="fill:none;stroke:#000000;stroke-width:0.35274997px;stroke-linecap:round;stroke-linejoin:round;stroke-miterlimit:10;stroke-dasharray:none;stroke-opacity:1" />
    <path
       inkscape:connector-curvature="0"
       id="path4207"
       d="m 54.792117,513.11844 -3.174746,0"
       style="fill:none;stroke:#000000;stroke-width:0.35274997px;stroke-linecap:round;stroke-linejoin:round;stroke-miterlimit:10;stroke-dasharray:none;stroke-opacity:1" />
    <path
       inkscape:connector-curvature="0"
       id="path4209"
       d="m 54.792117,473.96321 -3.174746,0"
       style="fill:none;stroke:#000000;stroke-width:0.35274997px;stroke-linecap:round;stroke-linejoin:round;stroke-miterlimit:10;stroke-dasharray:none;stroke-opacity:1" />
    <text
       sodipodi:linespacing="125%"
       id="text4211"
       y="593.89832"
       x="40.243324"
       style="font-style:normal;font-variant:normal;font-weight:400;font-size:5.64444447px;line-height:125%;font-family:Arial;text-align:start;letter-spacing:0px;word-spacing:0px;text-anchor:start;fill:#000000;fill-opacity:1;stroke:none"
       xml:space="preserve"><tspan
         id="tspan4213"
         y="593.89832"
         x="40.243324"
         sodipodi:role="line"><tspan
           id="tspan4215"
           style="font-style:normal;font-variant:normal;font-weight:400;font-size:5.64444447px;font-family:Arial;fill:#000000"
           dy="0"
           dx="0">0.0</tspan></tspan></text>
    <text
       sodipodi:linespacing="125%"
       id="text4217"
       y="554.74304"
       x="40.243324"
       style="font-style:normal;font-variant:normal;font-weight:400;font-size:5.64444447px;line-height:125%;font-family:Arial;text-align:start;letter-spacing:0px;word-spacing:0px;text-anchor:start;fill:#000000;fill-opacity:1;stroke:none"
       xml:space="preserve"><tspan
         id="tspan4219"
         y="554.74304"
         x="40.243324"
         sodipodi:role="line"><tspan
           id="tspan4221"
           style="font-style:normal;font-variant:normal;font-weight:400;font-size:5.64444447px;font-family:Arial;fill:#000000"
           dy="0"
           dx="0">0.5</tspan></tspan></text>
    <text
       sodipodi:linespacing="125%"
       id="text4223"
       y="515.94055"
       x="40.243324"
       style="font-style:normal;font-variant:normal;font-weight:400;font-size:5.64444447px;line-height:125%;font-family:Arial;text-align:start;letter-spacing:0px;word-spacing:0px;text-anchor:start;fill:#000000;fill-opacity:1;stroke:none"
       xml:space="preserve"><tspan
         id="tspan4225"
         y="515.94055"
         x="40.243324"
         sodipodi:role="line"><tspan
           id="tspan4227"
           style="font-style:normal;font-variant:normal;font-weight:400;font-size:5.64444447px;font-family:Arial;fill:#000000"
           dy="0"
           dx="0">1.0</tspan></tspan></text>
    <text
       sodipodi:linespacing="125%"
       id="text4229"
       y="476.78531"
       x="40.243324"
       style="font-style:normal;font-variant:normal;font-weight:400;font-size:5.64444447px;line-height:125%;font-family:Arial;text-align:start;letter-spacing:0px;word-spacing:0px;text-anchor:start;fill:#000000;fill-opacity:1;stroke:none"
       xml:space="preserve"><tspan
         id="tspan4231"
         y="476.78531"
         x="40.243324"
         sodipodi:role="line"><tspan
           id="tspan4233"
           style="font-style:normal;font-variant:normal;font-weight:400;font-size:5.64444447px;font-family:Arial;fill:#000000"
           dy="0"
           dx="0">1.5</tspan></tspan></text>
    <path
       inkscape:connector-curvature="0"
       id="path4235"
       d="m 48.089875,593.89834 m 0,-39.15523 m 0,-38.80245 m 0,-39.15523 m 6.702242,119.93485 183.429963,0 0,-140.74724 -183.429963,0 0,140.74724"
       style="fill:none;stroke:#000000;stroke-width:0.35274997px;stroke-linecap:round;stroke-linejoin:round;stroke-miterlimit:10;stroke-dasharray:none;stroke-opacity:1" />
    <text
       sodipodi:linespacing="125%"
       id="text4243"
       y="676.15393"
       x="129.31917"
       style="font-style:italic;font-variant:normal;font-weight:400;font-size:9.99030018px;line-height:125%;font-family:Arial;text-align:start;letter-spacing:0px;word-spacing:0px;text-anchor:start;fill:#000000;fill-opacity:1;stroke:none"
       xml:space="preserve"
       transform="scale(1.0981172,0.9106496)"><tspan
         id="tspan4245"
         y="676.15393"
         x="129.31917"
         sodipodi:role="line"><tspan
           id="tspan4247"
           style="font-style:italic;font-variant:normal;font-weight:400;font-size:9.99030018px;font-family:Arial;fill:#000000"
           dy="0"
           dx="0">r</tspan></tspan></text>
    <text
       sodipodi:linespacing="125%"
       id="text4249"
       y="533.70581"
       x="33.62701"
       style="font-style:italic;font-variant:normal;font-weight:400;font-size:8.15353584px;line-height:125%;font-family:Arial;text-align:start;letter-spacing:0px;word-spacing:0px;text-anchor:start;fill:#000000;fill-opacity:1;stroke:none"
       xml:space="preserve"><tspan
         id="tspan4251"
         y="533.70581"
         x="33.62701"
         sodipodi:role="line"><tspan
           id="tspan4253"
           style="font-style:italic;font-variant:normal;font-weight:400;font-size:8.15353584px;font-family:Arial;fill:#000000"
           dy="0"
           dx="0">g</tspan></tspan></text>
    <path
       inkscape:connector-curvature="0"
       id="path4273"
       d="m 146.5072,445.0378 m -0.70556,177.78606 M 32.216117,531.81424 m 0,-3.88027 m 0,-2.46916 m 0,-2.11638 m 29.630906,68.08074 0.352778,0 0.352778,0 0.352777,0 0.352778,0 0.352778,0 0.352778,0 0.352777,0 0.352778,0 0.352496,0 0.352778,0 0.352777,0 0.352778,0 0.352778,0 0.352778,0 0.352777,0 0,0 0.352778,0 0.352778,0 0.352778,0 0.352495,0 0.352778,0 0.352778,0 0.352778,0 0.352777,0 0.352778,0 0.352778,0 0.352778,0 0.352778,-0.35277 0.352777,-0.70556 0.352778,-1.05833 0.352496,-1.05834 0.352777,-1.05805 0,-0.70555 0.352778,-1.05834 0.352778,-0.70555 0.352778,-0.70528 0.352778,-0.70555 0.352777,-0.70556 0.352778,-0.70555 0.352778,-1.41083 0.352778,-1.41111 0.352495,-1.05834 0.352778,-1.41082 0.352778,-1.76389 0.352778,-1.76361 0.352777,-1.76389 0.352778,-1.76361 0.352778,-1.41111 0,-1.41111 0.352778,-1.05805 0.352777,-1.41111 0.352778,-1.05833 0.352496,-1.05805 0.352778,-1.05834 0.352777,-0.70555 0.352778,-1.41083 0.352778,-1.41111 0.352778,-1.76389 0.352777,-2.11639 0.352778,-1.7636 0.352778,-1.76389 0.352778,-1.76361 0.352495,-2.11667 0.352778,-1.7636 0.352778,-1.76389 0,-1.76361 0.352778,-1.76389 0.352777,-1.41111 0.352778,-1.41083 0.352778,-1.76389 0.352778,-1.7636 0.352778,-1.76389 0.352777,-1.76361 0.352496,-1.76388 0.352778,-1.76361 0.352777,-1.76389 0.352778,-1.76361 0.352778,-1.76388 0.352778,-1.76361 0.352778,-1.76389 0.352777,-1.41083 0.352778,-1.76389 0,-1.41083 0.352778,-1.05833 0.352495,-1.41111 0.352778,-1.05805 0.352778,-1.05834 0.352778,-1.05833 0.352778,-0.70555 0.352777,-0.70528 0.352778,-0.70555 0.352778,-0.70556 0.352778,-0.70555 0.352777,-0.35278 0.352496,-0.35278 0.352778,-0.35278 0.352778,-0.35249 0.352777,-0.35278 0.352778,-0.35278 0,-0.35278 0.352778,-0.35277 0.352778,-0.35278 0.352777,-0.35278 0.352778,-0.35278 0.352778,0 0.352778,-0.35278 0.352495,0 0.352778,0 0.352778,-0.35277 0.352778,-0.3525 0.352777,-0.35278 0.352778,0 0.352778,-0.35277 0.352778,0 0.352779,0 0,0 0.35278,-0.35278 0.35249,0 0.35278,-0.35278 0.35278,0 0.35278,-0.35278 0.35277,-0.35278 0.35278,0 0.35278,0 0.35278,-0.35277 0.35277,-0.70556 0.35278,-0.70527 0.3525,-1.05834 0.35278,-1.41111 0.35277,-1.7636 0.35278,-1.76389 0.35278,-1.76361 0,-1.76389 0.35278,-1.41083 0.35277,-1.76389 0.35278,-1.41082 0.35278,-1.76389 0.35278,-1.05834 0.35249,-1.41083 0.35278,-1.05833 0.35278,-1.41111 0.35278,-1.05805 0.35277,-1.05833 0.35278,-0.70556 0.35278,-1.05833 0.35278,-1.05805 0.35278,-0.70556 0.35277,-0.70556 0.3525,-0.70555 0,-0.35278 0.35278,-0.70527 0.35277,-0.70556 0.35278,-0.70555 0.35278,-0.35278 0.35278,-0.70556 0.35278,-0.70527 0.35277,-0.35278 0.35278,-0.35278 0.35278,0 0.35249,-0.35277 0.35278,0 0.35278,0 0.35278,0 0.35278,0.35277 0.35277,0.35278 0.35278,0.35278 0,0 0.35278,0 0.35278,0.3525 0.35277,0 0.35278,0 0.3525,0 0.35278,0.35277 0.35277,0.35278 0.35278,0.35278 0.35278,0.35278 0.35278,0.35277 0.35277,0.35278 0.35278,0.35278 0.35278,0.35278 0.35278,0.70527 0.35249,0.35278 0,0.35278 0.35278,0 0.35278,0 0.35278,0 0.35277,0.35277 0.35278,0 0.35278,0 0.35278,0.35278 0.35278,0.35278 0.35277,0.35278 0.3525,0.35278 0.35278,0.35277 0.35277,0.35278 0.35278,0.3525 0.35278,0.35277 0.35277,0.35278 0.35278,0.35278 0,0.35278 0.35278,0.70555 0.35278,0 0.35278,0.35278 0.35249,0 0.35278,0 0.35278,0 0.35277,0 0.35278,0 0.35278,0.35278 0.35278,0 0.35278,0.35278 0.35277,0 0.35278,0 0.3525,0 0.35277,0 0.35278,0.35277 0,0 0.35278,0 0.35278,0 0.35278,0 0.35277,0 0.35278,0 0.35278,0.3525 0.35278,0 0.35249,0.35278 0.35278,0.35278 0.35278,0 0.35278,0.35277 0.35277,0 0.35278,0.35278 0.35278,0.35278 0.35278,0.35278 0.35277,0.35277 0,0.70556 0.35278,0.3525 0.35278,0.70555 0.3525,0.70556 0.35277,0.70555 0.35278,0.70556 0.35278,0.70527 0.35278,1.05833 0.35277,0.70556 0.35278,0.70556 0.35278,1.05805 0.35278,1.05833 0.35278,0.70556 0.35249,1.05833 0.35278,0.70527 0.35278,0.70556 0,1.05833 0.35277,0.70556 0.35278,0.70555 0.35278,0.3525 0.35278,0.70555 0.35278,0.35278 0.35277,0.35278 0.35278,0 0.3525,0 0.35277,0 0.35278,0 0.35278,-0.35278 0.35278,0 0.35278,0 0.35277,0.35278 0.35278,0 0.35278,-0.35278 0,0 0.35278,0 0.35249,-0.35278 0.35278,0 0.35278,-0.35277 0.35278,0 0.35277,-0.35278 0.35278,0 0.35278,0 0.35278,0 0.35277,0 0.35278,0 0.3525,-0.3525 0.35278,-0.35278 0.35277,0 0.35278,-0.35277 0.35278,0 0,0 0.35278,0 0.35277,-0.35278 0.35278,0 0.35278,0 0.35278,0 0.35249,0 0.35278,0.35278 0.35278,0 0.35278,0 0.35277,0.35277 0.35278,0 0.35278,0 0.35278,0 0.35278,0 0.35277,0 0.35278,0 0,0 0.3525,0 0.35277,0 0.35278,0 0.35278,0 0.35278,0 0.35278,0 0.35277,0.35278 0.35278,0.3525 0.35278,0 0.35278,0.35278 0.35249,0 0.35278,0.35277 0.35278,0.35278 0.35278,0.35278 0.35277,0 0,0.35278 0.35278,0 0.35278,0 0.35278,0 0.35277,0 0.35278,0 0.3525,0 0.35278,0.35277 0.35277,0 0.35278,0.35278 0.35278,0.35278 0.35278,0.35278 0.35277,0.35249 0.35278,0 0.35278,0.35278 0.35278,0 0.35249,0 0,0 0.35278,0 0.35278,0 0.35278,0.35278 0.35277,0 0.35278,0 0.35278,0 0.35278,0 0.35278,0 0.35277,-0.35278 0.3525,0 0.35278,-0.35278 0.35277,0 0.35278,0 0.35278,-0.35249 0.35278,0 0.35278,-0.35278 0,0 0.35277,0 0.35278,-0.35278 0.35278,-0.35278 0.35249,-0.35277 0.35278,-0.35278 0.35278,-0.70556 0.35278,-0.35277 0.35278,-0.35278 0.35277,-0.3525 0.35278,-0.35278 0.35278,0 0.35278,-0.35277 0.35277,0 0.3525,0 0.35278,0 0.35278,0 0,0 0.35277,-0.35278 0.35278,0 0.35278,-0.35278 0.35278,0 0.35277,-0.35278 0.35278,-0.35277 0.35278,-0.70556 0.35278,-0.35278 0.35249,-0.70527 0.35278,-0.35278 0.35278,-0.35278 0.35278,-0.35277 0.35277,-0.35278 0.35278,0 0.35278,0 0.35278,0 0,-0.35278 0.35278,0 0.35277,0 0.3525,0 0.35278,-0.35278 0.35277,-0.35278 0.35278,-0.35277 0.35278,0 0.35278,-0.3525 0.35278,-0.35278 0.35277,0 0.35278,-0.35277 0.35278,0 0.35249,0 0.35278,0 0.35278,0 0,0.35277 0.35278,0 0.35278,0.35278 0.35277,0.3525 0.35278,0 0.35278,0.35277 0.35278,0.35278 0.35277,0.35278 0.3525,0.35278 0.35278,0.35278 0.35278,0.35277 0.35277,0.35278 0.35278,0.35278 0.35278,0.70527 0.35278,0.35278 0.35277,0.35278 0.35278,0.70555 0,0.35278 0.35278,0.70556 0.3525,0.35277 0.35277,0.70528 0.35278,0.35278 0.35278,0.35277 0.35278,0.35278 0.35277,0.35278 0.35278,0 0.35278,0.35278 0.35278,0 0.35278,0.35277 0.35249,0 0.35278,0.35278 0.35278,0 0.35277,0.35278 0.35278,0 0,0 0.35278,0 0.35278,0.35278 0.35278,0.35249 0.35277,0.35278 0.35278,0.35278 0.35278,0.35278 0.35249,0.35277 0.35278,0 0.35278,0 0.35278,-0.35277 0.35278,0 0.35277,0 0.35278,-0.35278 0.35278,0 0.35278,0 0.35277,0 0,-0.35278 0.3525,0 0.35278,0 0.35278,0 0.35277,0 0.35278,0 0.35278,0 0.35278,-0.35278 0.35277,0 0.35278,0 0.35278,-0.35249 0.3525,0 0.35277,0.35249 0.35278,0 0.35278,0 0.35278,0 0,0.35278 0.35277,0 0.35278,0 0.35278,0.35278 0.35278,0.35278 0.35278,0.35277 0.35249,0.35278 0.35278,0.35278 0.35278,0.35278 0.35277,0.35278 0.35278,0.70555 0.35278,0.3525 0.35278,0.35277 0.35278,0.35278 0.35277,0.35278 0.35278,0 0.3525,0.35278 0,0 0.35277,0 0.35278,0.35278 0.35278,0 0.35278,0 0.35278,0.35277 0.35277,0.35278 0.35278,0 0.35278,0 0.35278,0 0.35249,0 0.35278,0 0.35278,0 0.35278,-0.35278 0.35277,-0.35277 0.35278,-0.35278 0.35278,-0.35278 0,-0.35278 0.35278,-0.35278 0.35277,-0.35277 0.35278,-0.70528 0.35278,0 0.3525,-0.35277 0.35277,-0.35278 0.35278,0 0.35278,0 0.35278,0"
       style="fill:none;stroke:#000000;stroke-width:0.35274997px;stroke-linecap:round;stroke-linejoin:round;stroke-miterlimit:10;stroke-dasharray:none;stroke-opacity:1" />
    <path
       inkscape:connector-curvature="0"
       id="path4275"
       d="m 61.494245,513.11844 0.352778,0 0.352778,0 0.352778,0 0.352777,0 0,0 m 0.352778,0 m 0.352778,0 m 0.352778,0 m 0.352777,0 m 0,0 0.352778,0 0.352496,0 0.352778,0 0.352777,0 0,0 m 0.352778,0 m 0.352778,0 m 0.352778,0 m 0.352777,0 m 0,0 0.352778,0 0.352778,0 0.352778,0 0.352495,0 0,0 m 0.352778,0 m 0.352778,0 m 0.352778,0 m 0.352777,0 m 0,0 0.352778,0 0.352778,0 0.352778,0 0.352778,0 0,0 m 0.352777,0 m 0.352778,0 m 0.352496,0 m 0.352777,0 m 0,0 0.352778,0 0.352778,0 0.352778,0 0.352778,0 0,0 m 0.352777,0 m 0.352778,0 m 0.352778,0 m 0.352778,0 m 0,0 0.352495,0 0.352778,0 0.352778,0 0.352778,0 0,0 m 0.352777,0 m 0.352778,0 m 0.352778,0 m 0.352778,0 m 0,0 0.352777,0 0.352778,0 0.352496,0 0.352778,0 0,0 m 0.352777,0 m 0.352778,0 m 0.352778,0 m 0.352778,0 m 0,0 0.352777,0 0.352778,0 0.352778,0 0.352778,0 0,0 m 0.352495,0 m 0.352778,0 m 0.352778,0 m 0.352778,0 m 0,0 0.352777,0 0.352778,0 0.352778,0 0.352778,0 0,0 m 0.352778,0 m 0.352777,0 m 0.352496,0 m 0.352778,0 m 0,0 0.352777,0 0.352778,0 0.352778,0 0.352778,0 0,0 m 0.352778,0 m 0.352777,0 m 0.352778,0 m 0.352778,0 m 0,0 0.352495,0 0.352778,0 0.352778,0 0.352778,0 0,0 m 0.352778,0 m 0.352777,0 m 0.352778,0 m 0.352778,0 m 0,0 0.352778,0 0.352777,0 0.352496,0 0.352778,0 0,0 m 0.352778,0 m 0.352777,0 m 0.352778,0 m 0.352778,0 m 0,0 0.352778,0 0.352777,0 0.352778,0 0.352778,0 0,0 m 0.352778,0 m 0.352495,0 m 0.352778,0 m 0.352778,0 m 0,0 0.352778,0 0.352777,0 0.352778,0 0.352778,0 0,0 m 0.352778,0 m 0.352779,0 m 0.35278,0 m 0.35249,0 m 0,0 0.35278,0 0.35278,0 0.35278,0 0.35277,0 0,0 m 0.35278,0 m 0.35278,0 m 0.35278,0 m 0.35277,0 m 0,0 0.35278,0 0.3525,0 0.35278,0 0.35277,0 0,0 m 0.35278,0 m 0.35278,0 m 0.35278,0 m 0.35277,0 m 0,0 0.35278,0 0.35278,0 0.35278,0 0.35249,0 0,0 m 0.35278,0 m 0.35278,0 m 0.35278,0 m 0.35277,0 m 0,0 0.35278,0 0.35278,0 0.35278,0 0.35278,0 0,0 m 0.35277,0 m 0.3525,0 m 0.35278,0 m 0.35277,0 m 0,0 0.35278,0 0.35278,0 0.35278,0 0.35278,0 0,0 m 0.35277,0 m 0.35278,0 m 0.35278,0 m 0.35249,0 m 0,0 0.35278,0 0.35278,0 0.35278,0 0.35278,0 0,0 m 0.35277,0 m 0.35278,0 m 0.35278,0 m 0.35278,0 m 0,0 0.35277,0 0.35278,0 0.3525,0 0.35278,0 0,0 m 0.35277,0 m 0.35278,0 m 0.35278,0 m 0.35278,0 m 0,0 0.35277,0 0.35278,0 0.35278,0 0.35278,0 0,0 m 0.35249,0 m 0.35278,0 m 0.35278,0 m 0.35278,0 m 0,0 0.35277,0 0.35278,0 0.35278,0 0.35278,0 0,0 m 0.35278,0 m 0.35277,0 m 0.3525,0 m 0.35278,0 m 0,0 0.35277,0 0.35278,0 0.35278,0 0.35277,0 0,0 m 0.35278,0 m 0.35278,0 m 0.35278,0 m 0.35278,0 m 0,0 0.35249,0 0.35278,0 0.35278,0 0.35277,0 0,0 m 0.35278,0 m 0.35278,0 m 0.35278,0 m 0.35278,0 m 0,0 0.35277,0 0.35278,0 0.3525,0 0.35277,0 0,0 m 0.35278,0 m 0.35278,0 m 0.35278,0 m 0.35278,0 m 0,0 0.35277,0 0.35278,0 0.35278,0 0.35278,0 0,0 m 0.35249,0 m 0.35278,0 m 0.35278,0 m 0.35278,0 m 0,0 0.35277,0 0.35278,0 0.35278,0 0.35278,0 0,0 m 0.35277,0 m 0.35278,0 m 0.35278,0 m 0.3525,0 m 0,0 0.35277,0 0.35278,0 0.35278,0 0.35278,0 0,0 m 0.35277,0 m 0.35278,0 m 0.35278,0 m 0.35278,0 m 0,0 0.35278,0 0.35249,0 0.35278,0 0.35278,0 0,0 m 0.35277,0 m 0.35278,0 m 0.35278,0 m 0.35278,0 m 0,0 0.35278,0 0.35277,0 0.35278,0 0.3525,0 0,0 m 0.35277,0 m 0.35278,0 m 0.35278,0 m 0.35278,0 m 0,0 0.35278,0 0.35277,0 0.35278,0 0.35278,0 0,0 m 0.35278,0 m 0.35249,0 m 0.35278,0 m 0.35278,0 m 0,0 0.35278,0 0.35277,0 0.35278,0 0.35278,0 0,0 m 0.35278,0 m 0.35277,0 m 0.35278,0 m 0.3525,0 m 0,0 0.35278,0 0.35277,0 0.35278,0 0.35278,0 0,0 m 0.35278,0 m 0.35277,0 m 0.35278,0 m 0.35278,0 m 0,0 0.35278,0 0.35249,0 0.35278,0 0.35278,0 0,0 m 0.35278,0 m 0.35277,0 m 0.35278,0 m 0.35278,0 m 0,0 0.35278,0 0.35278,0 0.35277,0 0.35278,0 0,0 m 0.3525,0 m 0.35277,0 m 0.35278,0 m 0.35278,0 m 0,0 0.35278,0 0.35278,0 0.35277,0 0.35278,0 0,0 m 0.35278,0 m 0.35278,0 m 0.35249,0 m 0.35278,0 m 0,0 0.35278,0 0.35278,0 0.35277,0 0.35278,0 0,0 m 0.35278,0 m 0.35278,0 m 0.35277,0 m 0.35278,0 m 0,0 0.3525,0 0.35278,0 0.35277,0 0.35278,0 0,0 m 0.35278,0 m 0.35278,0 m 0.35277,0 m 0.35278,0 m 0,0 0.35278,0 0.35278,0 0.35249,0 0.35278,0 0,0 m 0.35278,0 m 0.35278,0 m 0.35277,0 m 0.35278,0 m 0,0 0.35278,0 0.35278,0 0.35278,0 0.35277,0 0,0 m 0.3525,0 m 0.35278,0 m 0.35277,0 m 0.35278,0 m 0,0 0.35278,0 0.35278,0 0.35278,0 0.35277,0 0,0 m 0.35278,0 m 0.35278,0 m 0.35249,0 m 0.35278,0 m 0,0 0.35278,0 0.35278,0 0.35278,0 0.35277,0 0,0 m 0.35278,0 m 0.35278,0 m 0.35278,0 m 0.35277,0 m 0,0 0.3525,0 0.35278,0 0.35278,0 0.35277,0 0,0 m 0.35278,0 m 0.35278,0 m 0.35278,0 m 0.35277,0 m 0,0 0.35278,0 0.35278,0 0.35278,0 0.35249,0 0,0 m 0.35278,0 m 0.35278,0 m 0.35278,0 m 0.35277,0 m 0,0 0.35278,0 0.35278,0 0.35278,0 0.35278,0 0,0 m 0.35277,0 m 0.3525,0 m 0.35278,0 m 0.35277,0 m 0,0 0.35278,0 0.35278,0 0.35278,0 0.35278,0 0,0 m 0.35277,0 m 0.35278,0 m 0.35278,0 m 0.35249,0 m 0,0 0.35278,0 0.35278,0 0.35278,0 0.35278,0 0,0 m 0.35277,0 m 0.35278,0 m 0.35278,0 m 0.35278,0 m 0,0 0.35277,0 0.3525,0 0.35278,0 0.35278,0 0,0 m 0.35277,0 m 0.35278,0 m 0.35278,0 m 0.35278,0 m 0,0 0.35277,0 0.35278,0 0.35278,0 0.3525,0 0,0 m 0.35277,0 m 0.35278,0 m 0.35278,0 m 0.35278,0 m 0,0 0.35277,0 0.35278,0 0.35278,0 0.35278,0 0,0 m 0.35278,0 m 0.35249,0 m 0.35278,0 m 0.35278,0 m 0,0 0.35277,0 0.35278,0 0.35278,0 0.35278,0 0,0 m 0.35278,0 m 0.35277,0 m 0.35278,0 m 0.35278,0 m 0,0 0.35249,0 0.35278,0 0.35278,0 0.35278,0 0,0 m 0.35278,0 m 0.35277,0 m 0.35278,0 m 0.35278,0 m 0,0 0.35278,0 0.35277,0 0.3525,0 0.35278,0 0,0 m 0.35278,0 m 0.35277,0 m 0.35278,0 m 0.35278,0 m 0,0 0.35278,0 0.35277,0 0.35278,0 0.35278,0 0,0 m 0.3525,0 m 0.35277,0 m 0.35278,0 m 0.35278,0 m 0,0 0.35278,0 0.35277,0 0.35278,0 0.35278,0 0,0 m 0.35278,0 m 0.35278,0 m 0.35249,0 m 0.35278,0 m 0,0 0.35278,0 0.35277,0 0.35278,0 0.35278,0 0,0 m 0.35278,0 m 0.35278,0 m 0.35277,0 m 0.35278,0 m 0,0 0.3525,0 0.35277,0 0.35278,0 0.35278,0 0,0 m 0.35278,0 m 0.35278,0 m 0.35277,0 m 0.35278,0 m 0,0 0.35278,0 0.35278,0 0.35249,0 0.35278,0 0,0 m 0.35278,0 m 0.35278,0 m 0.35277,0 m 0.35278,0 m 0,0 0.35278,0 0.35278,0 0.35277,0 0.35278,0 0,0 m 0.35278,0 m 0.3525,0 m 0.35277,0 m 0.35278,0 m 0,0 0.35278,0 0.35278,0"
       style="fill:none;stroke:#ff0000;stroke-width:0.35274997px;stroke-linecap:round;stroke-linejoin:round;stroke-miterlimit:10;stroke-dasharray:none;stroke-opacity:1" />
    <text
       sodipodi:linespacing="125%"
       id="text4195-0"
       y="604.909"
       x="231.66969"
       style="font-style:normal;font-variant:normal;font-weight:normal;font-stretch:normal;font-size:5.64450026px;line-height:125%;font-family:Arial;-inkscape-font-specification:'Arial, Normal';text-align:start;letter-spacing:0px;word-spacing:0px;writing-mode:lr-tb;text-anchor:start;fill:#000000;fill-opacity:1;stroke:none"
       xml:space="preserve"><tspan
         sodipodi:role="line"
         id="tspan4396"
         x="231.66969"
         y="604.909">km</tspan></text>
    <text
       xml:space="preserve"
       style="font-style:normal;font-variant:normal;font-weight:normal;font-stretch:normal;font-size:6.40583706px;line-height:125%;font-family:Arial;-inkscape-font-specification:'Arial, Normal';text-align:start;letter-spacing:0px;word-spacing:0px;writing-mode:lr-tb;text-anchor:start;fill:#000000;fill-opacity:1;stroke:none;stroke-width:1px;stroke-linecap:butt;stroke-linejoin:miter;stroke-opacity:1"
       x="647.65509"
       y="-27.206379"
       id="text4398"
       sodipodi:linespacing="125%"
       transform="matrix(0,0.81249896,-1.2307708,0,0,0)"><tspan
         sodipodi:role="line"
         id="tspan4402"
         x="647.65509"
         y="-27.206379">&lt;</tspan></text>
  </g>
</svg>
