<?xml version="1.0" encoding="UTF-8" standalone="no"?>
<!-- Created with Inkscape (http://www.inkscape.org/) -->

<svg
   xmlns:dc="http://purl.org/dc/elements/1.1/"
   xmlns:cc="http://creativecommons.org/ns#"
   xmlns:rdf="http://www.w3.org/1999/02/22-rdf-syntax-ns#"
   xmlns:svg="http://www.w3.org/2000/svg"
   xmlns="http://www.w3.org/2000/svg"
   xmlns:sodipodi="http://sodipodi.sourceforge.net/DTD/sodipodi-0.dtd"
   xmlns:inkscape="http://www.inkscape.org/namespaces/inkscape"
   id="svg2"
   version="1.1"
   inkscape:version="0.91 r13725"
   xml:space="preserve"
   width="271.09"
   height="397.63599"
   viewBox="0 0 271.09 397.63599"
   sodipodi:docname="HH_LL_noP_map.svg"
   inkscape:export-filename="D:\mgimond\GitHub\ES214\img\HH_LL_noP_map.png"
   inkscape:export-xdpi="350"
   inkscape:export-ydpi="350"><metadata
     id="metadata8"><rdf:RDF><cc:Work
         rdf:about=""><dc:format>image/svg+xml</dc:format><dc:type
           rdf:resource="http://purl.org/dc/dcmitype/StillImage" /><dc:title></dc:title></cc:Work></rdf:RDF></metadata><defs
     id="defs6"><clipPath
       clipPathUnits="userSpaceOnUse"
       id="clipPath38"><path
         d="m 37.66,18 205.26,0 0,306 -205.26,0 0,-306 z"
         id="path40"
         inkscape:connector-curvature="0" /></clipPath><clipPath
       clipPathUnits="userSpaceOnUse"
       id="clipPath60"><path
         d="m 37.66,18 205.26,0 0,306 -205.26,0 0,-306 z"
         id="path62"
         inkscape:connector-curvature="0" /></clipPath></defs><sodipodi:namedview
     pagecolor="#ffffff"
     bordercolor="#666666"
     borderopacity="1"
     objecttolerance="10"
     gridtolerance="10"
     guidetolerance="10"
     inkscape:pageopacity="0"
     inkscape:pageshadow="2"
     inkscape:window-width="715"
     inkscape:window-height="480"
     id="namedview4"
     showgrid="false"
     inkscape:zoom="0.77202362"
     inkscape:cx="-25.719497"
     inkscape:cy="198.81799"
     inkscape:window-x="0"
     inkscape:window-y="0"
     inkscape:window-maximized="0"
     inkscape:current-layer="g10" /><g
     id="g10"
     inkscape:groupmode="layer"
     inkscape:label="HH_LL_noP_map"
     transform="matrix(1.25,0,0,-1.25,-37.63625,413.31875)"><g
       id="g12" /><g
       id="g14" /><g
       id="g16" /><g
       id="g18" /><g
       id="g20" /><g
       id="g22" /><g
       id="g24" /><g
       id="g26" /><g
       id="g28" /><g
       id="g30" /><g
       id="g32" /><g
       id="g34"><g
         id="g36"
         clip-path="url(#clipPath38)" /></g><g
       id="g42" /><g
       id="g44" /><g
       id="g46" /><g
       id="g48" /><g
       id="g50" /><g
       id="g52" /><g
       id="g54" /><g
       id="g56"><g
         id="g58"
         clip-path="url(#clipPath60)"><path
           d="m 150.04,249.71 -0.01,12.17 -43.54,0.23 -14.41,0.08 1.52,8.48 36.7,53.33 8.74,-2.22 0.49,-11.59 6.8,-5.28 18.19,8.14 5.91,-0.79 2.66,5.11 4.98,-0.32 21.35,-20.22 1.72,-78.36 1.25,-2.13 -1.88,-2.71 1.79,-3.54 -2.11,-2.37 0.1,-8.19 -11.84,-3.14 -10.51,-2.33 0.02,-0.68 -7.42,-1.64 -1.31,0.87 0.03,12.33 0.46,0.79 -0.96,22.64 -0.02,20.26 -12.55,0.21 -0.02,0.84 -6.13,0.03 z"
           style="fill:#0000ff;fill-opacity:1;fill-rule:nonzero;stroke:#000000;stroke-width:0.75;stroke-linecap:round;stroke-linejoin:round;stroke-miterlimit:10;stroke-dasharray:none;stroke-opacity:1"
           id="path64"
           inkscape:connector-curvature="0" /><path
           d="m 106.49,262.11 43.54,-0.23 0.01,-12.17 -0.17,-50.17 -6.23,-1.44 -0.68,-10.66 5.33,0.95 4.17,-19.82 -4.85,-1.04 0.98,-5.87 -24.86,-5.09 -7.06,-1.23 0.2,-1.72 -5.87,-1.19 -1.66,6.36 -0.38,-0.05 -2.76,13.37 0.46,0.17 -3.81,17.14 3.44,2.97 -0.11,2.07 0.76,0.38 -0.72,1.61 0.6,0.26 0.07,0.77 -2.08,0.24 0.2,1.25 -2.1,1.05 -0.77,2.52 -0.85,0.88 1.02,0.37 -0.12,0.81 0.79,1.47 0.63,-1.36 1.9,-0.04 -0.18,1.43 1.1,2.46 -0.52,1.12 0.81,0.79 -0.84,2.82 0.76,0.35 1.45,-2.24 1.27,0.9 -1.59,7.95 -2.24,-0.27 0.96,42.13 z"
           style="fill:#0000ff;fill-opacity:1;fill-rule:nonzero;stroke:#000000;stroke-width:0.75;stroke-linecap:round;stroke-linejoin:round;stroke-miterlimit:10;stroke-dasharray:none;stroke-opacity:1"
           id="path66"
           inkscape:connector-curvature="0" /><path
           d="m 64.72,198.6 7.77,4.18 -0.9,4.82 8.11,7.51 0.37,3.21 -3.06,1.74 1.58,5.92 -1.2,0.97 3.78,4.92 -2.59,3.75 4.67,10.1 7.12,6.33 1.71,10.14 14.41,-0.08 -0.96,-42.13 2.24,0.27 1.59,-7.95 -1.27,-0.9 -1.45,2.24 -0.76,-0.35 0.84,-2.82 -0.81,-0.79 0.52,-1.12 -1.1,-2.46 0.18,-1.43 -1.9,0.04 -0.63,1.36 -0.79,-1.47 0.12,-0.81 -1.02,-0.37 0.85,-0.88 0.77,-2.52 2.1,-1.05 -0.2,-1.25 2.08,-0.24 -0.07,-0.77 -0.6,-0.26 0.72,-1.61 -0.76,-0.38 0.11,-2.07 -3.44,-2.97 3.81,-17.14 -0.46,-0.17 2.76,-13.37 0.38,0.05 1.66,-6.36 5.87,1.19 -0.2,1.72 7.06,1.23 3.9,-18.76 -0.5,-0.32 0.83,-5.54 -2.92,-0.43 -1.03,2.6 -1.91,-0.13 -0.64,-0.57 -0.38,-2.88 -2.99,-0.48 -0.82,1.59 -7.36,-1.25 0.46,-2.75 1.95,-2.17 -0.12,-1.69 -1.2,-1.86 -8.84,1.85 -1.01,-2 -0.92,0.34 -0.31,2.04 -1.44,0.78 -3.5,-0.8 -0.97,2.27 -1.61,1.3 0.78,0.67 -0.08,0.81 -1.83,-0.29 -0.9,5.8 0.65,0.22 -0.76,3.84 -0.52,-0.14 -0.09,1.29 0.39,0.11 -0.36,2.24 -4.9,-0.63 -0.31,3.16 -0.55,-0.03 -0.18,1.42 0.48,-0.02 -0.1,1.64 1.85,0.35 -2.21,12.57 -6.72,-0.92 -0.86,3.72 -2.72,-0.27 0.12,-0.59 -2.86,-0.45 -4.84,25.96 0.71,0.05 -1.87,10.38 z"
           style="fill:#0000ff;fill-opacity:1;fill-rule:nonzero;stroke:#000000;stroke-width:0.75;stroke-linecap:round;stroke-linejoin:round;stroke-miterlimit:10;stroke-dasharray:none;stroke-opacity:1"
           id="path68"
           inkscape:connector-curvature="0" /><path
           d="m 123.73,156.57 24.86,5.09 -0.98,5.87 4.85,1.04 -4.17,19.82 -5.33,-0.95 0.68,10.66 6.23,1.44 0.17,50.17 6.13,-0.03 0.02,-0.84 12.55,-0.21 0.02,-20.26 0.96,-22.64 -0.46,-0.79 -0.03,-12.33 1.31,-0.87 7.42,1.64 -0.02,0.68 10.51,2.33 5.61,-25.78 -5.58,-0.94 -12.43,-2.26 1.33,-8.59 -5.93,-1.21 0.96,-6.41 -6.15,-1.13 2.83,-15.1 -8.02,-1.61 -2.2,-2.61 -1.75,1.05 -1.69,-1.49 -1.29,-2.43 -1.13,0.09 0.04,0.67 -1.54,0.75 -1.39,-0.05 -0.4,1.01 -1.55,-0.04 -1.46,-0.79 -0.28,0.3 -14.18,-3.43 -1.43,5.92 -2.86,-0.36 -0.83,5.54 0.5,0.32 -3.9,18.76 z"
           style="fill:#0000ff;fill-opacity:1;fill-rule:nonzero;stroke:#000000;stroke-width:0.75;stroke-linecap:round;stroke-linejoin:round;stroke-miterlimit:10;stroke-dasharray:none;stroke-opacity:1"
           id="path70"
           inkscape:connector-curvature="0" /><path
           d="m 233.38,161.02 4.52,-11.34 -3.98,-3.94 9.01,-5.13 -1.85,-3.43 -9.45,-9.14 -5.42,-0.14 -4.08,2.59 -9.04,-6.72 -2.33,-4.13 -9.69,0.82 -2.37,-1.3 -2,-5.91 -3.46,1.28 0.22,2.4 -1.15,-1.46 -1.33,7.27 0.82,0.25 -1.05,5.93 -0.88,-0.12 -3.37,18.69 5.73,1.09 -3.75,21.09 5.58,0.94 -5.61,25.78 11.84,3.14 2.51,-1.29 1.7,1.58 5.16,-5.27 8.7,-0.73 1.27,-6.24 -4.33,-1.33 4.39,-7.65 -2.82,-6.78 2.03,-6.34 4.77,-4.65 3.47,4.33 5.42,-1.74 0.82,-2.4 z"
           style="fill:#0000ff;fill-opacity:1;fill-rule:nonzero;stroke:#000000;stroke-width:0.75;stroke-linecap:round;stroke-linejoin:round;stroke-miterlimit:10;stroke-dasharray:none;stroke-opacity:1"
           id="path72"
           inkscape:connector-curvature="0" /><path
           d="m 39.81,102.15 -0.34,27.2 -1.81,44.59 6.43,2.47 3.93,-8.08 1.75,3.67 2.5,-18.58 -1.99,-0.43 0.69,-6.12 0.55,-0.03 0.75,-5.09 0.26,-7.96 7.54,3.86 5.24,-12.02 -1.57,-0.94 13.15,-2.65 -1.19,-2.38 1.06,0.01 0.54,-2.44 1.21,-0.42 0.77,-2.49 -2.12,-1.45 0.54,-5.4 -3.13,-10.52 -8.44,-12.79 -3.2,-1.73 -3.22,3.44 1.09,4.53 -1.05,2.49 -0.6,0.83 L 48.92,87.64 47,88.65 46.36,88.2 47.41,86.76 47.54,85.6 49.76,84.75 54,79.63 52.53,78.26 53.27,77 52.11,75.3 51.98,72.97 50.88,73 l -1.21,-0.84 0.77,-2.99 -6.46,-1.05 -1.6,-0.91 -2.18,0.38 -0.39,34.56 z"
           style="fill:#bebebe;fill-opacity:1;fill-rule:nonzero;stroke:#000000;stroke-width:0.75;stroke-linecap:round;stroke-linejoin:round;stroke-miterlimit:10;stroke-dasharray:none;stroke-opacity:1"
           id="path74"
           inkscape:connector-curvature="0" /><path
           d="m 49.77,172 1.62,5.35 -0.76,2.55 1.65,2.39 7.98,-2.51 -4.03,8.6 8.49,10.22 1.87,-10.38 -0.71,-0.05 4.84,-25.96 2.86,0.45 -0.12,0.59 2.72,0.27 0.86,-3.72 6.72,0.92 2.21,-12.57 -1.85,-0.35 0.1,-1.64 -0.48,0.02 0.18,-1.42 0.55,0.03 0.31,-3.16 4.9,0.63 0.36,-2.24 -0.39,-0.11 0.09,-1.29 0.52,0.14 0.76,-3.84 -0.65,-0.22 0.9,-5.8 1.83,0.29 0.08,-0.81 -0.78,-0.67 1.61,-1.3 0.97,-2.27 -1.5,-2.17 -3.89,0.85 -2.02,-3.84 1.98,-1.62 -0.68,-1.73 -4.19,0.04 -3.77,-0.44 -1.63,-0.91 -0.77,2.49 -1.21,0.42 -0.54,2.44 -1.06,-0.01 1.19,2.38 -13.15,2.65 1.57,0.94 -5.24,12.02 -7.54,-3.86 -0.26,7.96 -0.75,5.09 -0.55,0.03 -0.69,6.12 1.99,0.43 -2.5,18.58 z"
           style="fill:#0000ff;fill-opacity:1;fill-rule:nonzero;stroke:#000000;stroke-width:0.75;stroke-linecap:round;stroke-linejoin:round;stroke-miterlimit:10;stroke-dasharray:none;stroke-opacity:1"
           id="path76"
           inkscape:connector-curvature="0" /><path
           d="m 188.48,169.67 3.75,-21.09 -5.73,-1.09 3.37,-18.69 0.88,0.12 1.05,-5.93 -0.82,-0.25 1.33,-7.27 -1.42,-7.04 -2.92,-0.28 -3.19,6.56 -5.52,1.03 -5.91,-4.22 -3.28,2.37 -6.2,-4.7 1.15,-7.68 -1.47,-2.11 -9.16,6.04 -3.66,-1.34 -0.06,6.09 3.63,6.57 -0.2,3.16 -3.95,3.97 -0.02,3.89 -0.01,1.56 1.39,0.05 1.54,-0.75 -0.04,-0.67 1.13,-0.09 1.29,2.43 1.69,1.49 1.75,-1.05 2.2,2.61 8.02,1.61 -2.83,15.1 6.15,1.13 -0.96,6.41 5.93,1.21 -1.33,8.59 12.43,2.26 z m -16.32,-61.96 1.89,1.54 -0.28,2.1 5.88,0.66 3.8,-7.21 -7.04,-3.19 -0.77,-4.58 -4.18,3.19 0.7,7.49 z"
           style="fill:#bebebe;fill-opacity:1;fill-rule:nonzero;stroke:#000000;stroke-width:0.75;stroke-linecap:round;stroke-linejoin:round;stroke-miterlimit:10;stroke-dasharray:none;stroke-opacity:1"
           id="path78"
           inkscape:connector-curvature="0" /><path
           d="m 40.79,49.34 0.78,1.17 -0.33,1.08 -0.87,0.56 -0.17,15.44 2.18,-0.38 1.6,0.91 6.46,1.05 0.31,-0.85 1.18,-0.87 2.95,0.77 1.62,-1.12 0.86,-2 -0.25,-4.03 1.47,-0.27 0.7,-1.32 0.54,1 1.23,-0.58 0.92,1.9 4.47,-4.99 -1.42,-2.42 7.63,-5.48 L 71.29,41.58 66.52,35.97 62.3,35.08 55.45,18 l -7.83,2.33 -0.56,2.64 1.01,5.33 -4.45,3.32 -0.2,1.48 -3.18,4.6 -0.43,2.11 0.97,2.92 -0.42,2.27 0.66,3.24 -0.23,1.1 z"
           style="fill:#ff0000;fill-opacity:1;fill-rule:nonzero;stroke:#000000;stroke-width:0.75;stroke-linecap:round;stroke-linejoin:round;stroke-miterlimit:10;stroke-dasharray:none;stroke-opacity:1"
           id="path80"
           inkscape:connector-curvature="0" /><path
           d="m 84.68,115.67 4.19,-0.04 0.68,1.73 -1.98,1.62 2.02,3.84 3.89,-0.85 1.5,2.17 3.5,0.8 1.44,-0.78 0.31,-2.04 0.92,-0.34 1.01,2 8.84,-1.85 1.2,1.86 0.12,1.69 -1.95,2.17 -0.46,2.75 7.36,1.25 0.82,-1.59 -0.53,-0.1 -0.04,-1.35 2.05,-0.43 -1.43,-1.85 2.98,-0.51 -0.65,-6.04 2.27,-0.44 -1.23,-6.04 -2.4,0.42 -3.3,-8.56 -0.88,-3.87 -1.13,-1.64 -5.12,1.3 -1.08,-3.21 0.46,-7.57 -4.76,0.96 -0.26,1.17 -4.98,1.16 -1.07,-1.29 -1.1,-2.95 -5.2,1.14 -1.2,0.49 0.12,1.69 0.52,0 0.22,1.15 0.45,-0.19 0.23,0.7 -4.1,1.92 0.13,5.84 -2.3,5.8 0.98,0.75 -1.06,7.16 z"
           style="fill:#bebebe;fill-opacity:1;fill-rule:nonzero;stroke:#000000;stroke-width:0.75;stroke-linecap:round;stroke-linejoin:round;stroke-miterlimit:10;stroke-dasharray:none;stroke-opacity:1"
           id="path82"
           inkscape:connector-curvature="0" /><path
           d="m 50.44,69.17 -0.77,2.99 1.21,0.84 1.1,-0.03 0.13,2.33 1.16,1.7 -0.74,1.26 1.47,1.37 -4.24,5.12 -2.22,0.85 -0.13,1.16 -1.05,1.44 0.64,0.45 1.92,-1.01 10.23,6.08 0.6,-0.83 1.05,-2.49 -1.09,-4.53 3.22,-3.44 3.2,1.73 0.86,-1.11 3.14,-1.71 0.67,0.54 1.28,-0.9 2.74,3.38 5.99,-5.59 -0.23,-0.79 4.23,-2.31 1.12,1.44 0.84,-0.49 2,2.91 0.21,-0.88 2.79,-2.91 3.04,0.19 2.94,2.25 -0.19,-2.34 -1.38,-3.21 -0.9,-6.03 -3.57,-1.5 -1.34,1.24 0.67,4.17 -1.99,0.02 -6.68,-3.84 -4.15,-7.25 0.58,-7.65 -6.15,-2.88 -7.63,5.48 1.42,2.42 -4.47,4.99 -0.92,-1.9 -1.23,0.58 -0.54,-1 -0.7,1.32 -1.47,0.27 0.25,4.03 -0.86,2 -1.62,1.12 -2.95,-0.77 -1.18,0.87 -0.31,0.85 z"
           style="fill:#ff0000;fill-opacity:1;fill-rule:nonzero;stroke:#000000;stroke-width:0.75;stroke-linecap:round;stroke-linejoin:round;stroke-miterlimit:10;stroke-dasharray:none;stroke-opacity:1"
           id="path84"
           inkscape:connector-curvature="0" /><path
           d="m 120.36,104.38 -4.55,0.78 3.3,8.56 2.4,-0.42 1.23,6.04 -2.27,0.44 0.65,6.04 -2.98,0.51 1.43,1.85 -2.05,0.43 0.04,1.35 0.53,0.1 2.99,0.48 0.38,2.88 0.64,0.57 1.91,0.13 1.03,-2.6 2.92,0.43 2.86,0.36 1.43,-5.92 14.18,3.43 0.28,-0.3 1.46,0.79 1.55,0.04 0.4,-1.01 0.01,-1.56 -1.84,-3.74 2.65,-2.9 -0.17,-5.28 -7.43,-4.53 -1.3,-11.2 -1.84,-1.9 -0.89,0.59 -4.63,0.53 -6.71,7.41 -4.13,-3.63 -2.36,2.41 -1.12,-1.16 z"
           style="fill:#bebebe;fill-opacity:1;fill-rule:nonzero;stroke:#000000;stroke-width:0.75;stroke-linecap:round;stroke-linejoin:round;stroke-miterlimit:10;stroke-dasharray:none;stroke-opacity:1"
           id="path86"
           inkscape:connector-curvature="0" /><path
           d="m 90.69,90.36 -1.06,-5.88 -0.75,-1.14 0.57,-1.51 -0.86,-1.46 0.18,-0.84 -2,-2.91 -0.84,0.49 -1.12,-1.44 -4.23,2.31 0.23,0.79 -5.99,5.59 -2.74,-3.38 -1.28,0.9 -0.67,-0.54 -3.14,1.71 -0.86,1.11 8.44,12.79 3.13,10.52 -0.54,5.4 2.12,1.45 1.63,0.91 3.77,0.44 1.06,-7.16 -0.98,-0.75 2.3,-5.8 -0.13,-5.84 4.1,-1.92 -0.23,-0.7 -0.45,0.19 -0.22,-1.15 -0.52,0 -0.12,-1.69 1.2,-0.49 z"
           style="fill:#ff0000;fill-opacity:1;fill-rule:nonzero;stroke:#000000;stroke-width:0.75;stroke-linecap:round;stroke-linejoin:round;stroke-miterlimit:10;stroke-dasharray:none;stroke-opacity:1"
           id="path88"
           inkscape:connector-curvature="0" /><path
           d="m 100.69,83.15 1.71,1.45 -0.52,1.86 1.42,4.67 4.76,-0.96 -0.46,7.57 1.08,3.21 5.12,-1.3 1.13,1.64 0.88,3.87 4.55,-0.78 -0.21,-0.86 -1.08,0.28 -0.22,-1.05 0.25,-4.92 1.56,-1.01 0.22,-0.66 3.58,-0.25 1.75,-5.77 -0.22,-2.4 0.97,-1.72 -2.35,-4.14 -0.91,0.34 -2.43,0.66 -4.56,-9.68 -5.42,-2.94 -3.82,0.55 0.54,9 2.18,3.73 -5.52,-6.68 0.85,5.13 -4.83,1.16 z"
           style="fill:#ff0000;fill-opacity:1;fill-rule:nonzero;stroke:#000000;stroke-width:0.75;stroke-linecap:round;stroke-linejoin:round;stroke-miterlimit:10;stroke-dasharray:none;stroke-opacity:1"
           id="path90"
           inkscape:connector-curvature="0" /><path
           d="m 123.7,82.22 0.91,-0.34 2.35,4.14 -0.97,1.72 0.22,2.4 -1.75,5.77 -3.58,0.25 -0.22,0.66 -1.56,1.01 -0.25,4.92 0.22,1.05 1.08,-0.28 0.21,0.86 1.12,1.16 2.36,-2.41 4.13,3.63 6.71,-7.41 4.63,-0.53 0.89,-0.59 -2.69,-12.31 -7.36,-8.59 -3.78,-0.31 -2.67,5.2 z"
           style="fill:#ff0000;fill-opacity:1;fill-rule:nonzero;stroke:#000000;stroke-width:0.75;stroke-linecap:round;stroke-linejoin:round;stroke-miterlimit:10;stroke-dasharray:none;stroke-opacity:1"
           id="path92"
           inkscape:connector-curvature="0" /><path
           d="m 96.18,72.63 1.38,3.21 0.19,2.34 -2.94,-2.25 -3.04,-0.19 -2.79,2.91 -0.21,0.88 -0.18,0.84 0.86,1.46 -0.57,1.51 0.75,1.14 1.06,5.88 5.2,-1.14 1.1,2.95 1.07,1.29 4.98,-1.16 0.26,-1.17 -1.42,-4.67 -4.25,-5.17 3.31,-17.19 -2,-1.95 -1.08,1.16 0.36,6.89 -2.04,2.43 z m 4.51,10.52 4.83,-1.16 -0.85,-5.13 -1.45,-3.12 1.15,-7.67 -1.33,-1.59 -1.37,2.09 -0.98,16.58 z"
           style="fill:#ff0000;fill-opacity:1;fill-rule:nonzero;stroke:#000000;stroke-width:0.75;stroke-linecap:round;stroke-linejoin:round;stroke-miterlimit:10;stroke-dasharray:none;stroke-opacity:1"
           id="path94"
           inkscape:connector-curvature="0" /></g></g><g
       id="g96" /><g
       id="g98"><path
         d="m 37.66,18 205.26,0 0,306 -205.26,0 0,-306 z"
         style="fill:none;stroke:#000000;stroke-width:0.75;stroke-linecap:round;stroke-linejoin:round;stroke-miterlimit:10;stroke-dasharray:none;stroke-opacity:1"
         id="path100"
         inkscape:connector-curvature="0" /></g><g
       id="g102" /><g
       id="g104" /><g
       id="g106"><path
         d="m 248.93,18 17.28,0 0,102 -17.28,0 0,-102 z"
         style="fill:#0000ff;fill-opacity:1;fill-rule:nonzero;stroke:none"
         id="path108"
         inkscape:connector-curvature="0" /><path
         d="m 248.93,120 17.28,0 0,102 -17.28,0 0,-102 z"
         style="fill:#bebebe;fill-opacity:1;fill-rule:nonzero;stroke:none"
         id="path110"
         inkscape:connector-curvature="0" /><path
         d="m 248.93,222 17.28,0 0,102 -17.28,0 0,-102 z"
         style="fill:#ff0000;fill-opacity:1;fill-rule:nonzero;stroke:none"
         id="path112"
         inkscape:connector-curvature="0" /></g><g
       id="g114" /><g
       id="g116"><path
         d="m 248.93,18 17.28,0 0,306 -17.28,0 0,-306 z"
         style="fill:none;stroke:#000000;stroke-width:0.75;stroke-linecap:round;stroke-linejoin:round;stroke-miterlimit:10;stroke-dasharray:none;stroke-opacity:1"
         id="path118"
         inkscape:connector-curvature="0" /></g><g
       id="g120"><path
         d="m 266.21,18 4.32,0"
         style="fill:none;stroke:#000000;stroke-width:0.75;stroke-linecap:round;stroke-linejoin:round;stroke-miterlimit:10;stroke-dasharray:none;stroke-opacity:1"
         id="path122"
         inkscape:connector-curvature="0" /><path
         d="m 266.21,69 4.32,0"
         style="fill:none;stroke:#000000;stroke-width:0.75;stroke-linecap:round;stroke-linejoin:round;stroke-miterlimit:10;stroke-dasharray:none;stroke-opacity:1"
         id="path124"
         inkscape:connector-curvature="0" /><path
         d="m 266.21,120 4.32,0"
         style="fill:none;stroke:#000000;stroke-width:0.75;stroke-linecap:round;stroke-linejoin:round;stroke-miterlimit:10;stroke-dasharray:none;stroke-opacity:1"
         id="path126"
         inkscape:connector-curvature="0" /><path
         d="m 266.21,171 4.32,0"
         style="fill:none;stroke:#000000;stroke-width:0.75;stroke-linecap:round;stroke-linejoin:round;stroke-miterlimit:10;stroke-dasharray:none;stroke-opacity:1"
         id="path128"
         inkscape:connector-curvature="0" /><path
         d="m 266.21,222 4.32,0"
         style="fill:none;stroke:#000000;stroke-width:0.75;stroke-linecap:round;stroke-linejoin:round;stroke-miterlimit:10;stroke-dasharray:none;stroke-opacity:1"
         id="path130"
         inkscape:connector-curvature="0" /><path
         d="m 266.21,273 4.32,0"
         style="fill:none;stroke:#000000;stroke-width:0.75;stroke-linecap:round;stroke-linejoin:round;stroke-miterlimit:10;stroke-dasharray:none;stroke-opacity:1"
         id="path132"
         inkscape:connector-curvature="0" /><path
         d="m 266.21,324 4.32,0"
         style="fill:none;stroke:#000000;stroke-width:0.75;stroke-linecap:round;stroke-linejoin:round;stroke-miterlimit:10;stroke-dasharray:none;stroke-opacity:1"
         id="path134"
         inkscape:connector-curvature="0" /></g><g
       id="g136" /><g
       id="g138"><text
         transform="matrix(1,0,0,-1,274.85,14.41)"
         style="font-variant:normal;font-weight:normal;font-size:10px;font-family:Helvetica;-inkscape-font-specification:Helvetica;writing-mode:lr-tb;fill:#000000;fill-opacity:1;fill-rule:nonzero;stroke:none"
         id="text140"><tspan
           x="0 5.8400002 11.4 14.18"
           y="0"
           sodipodi:role="line"
           id="tspan142">−1.5</tspan></text>
<text
         transform="matrix(1,0,0,-1,274.85,65.41)"
         style="font-variant:normal;font-weight:normal;font-size:10px;font-family:Helvetica;-inkscape-font-specification:Helvetica;writing-mode:lr-tb;fill:#000000;fill-opacity:1;fill-rule:nonzero;stroke:none"
         id="text144"><tspan
           x="0 5.8400002 11.4 14.18"
           y="0"
           sodipodi:role="line"
           id="tspan146">−1.0</tspan></text>
<text
         transform="matrix(1,0,0,-1,274.85,116.41)"
         style="font-variant:normal;font-weight:normal;font-size:10px;font-family:Helvetica;-inkscape-font-specification:Helvetica;writing-mode:lr-tb;fill:#000000;fill-opacity:1;fill-rule:nonzero;stroke:none"
         id="text148"><tspan
           x="0 5.8400002 11.4 14.18"
           y="0"
           sodipodi:role="line"
           id="tspan150">−0.5</tspan></text>
<text
         transform="matrix(1,0,0,-1,274.85,167.41)"
         style="font-variant:normal;font-weight:normal;font-size:10px;font-family:Helvetica;-inkscape-font-specification:Helvetica;writing-mode:lr-tb;fill:#000000;fill-opacity:1;fill-rule:nonzero;stroke:none"
         id="text152"><tspan
           x="0 5.5599999 8.3400002"
           y="0"
           sodipodi:role="line"
           id="tspan154">0.0</tspan></text>
<text
         transform="matrix(1,0,0,-1,274.85,218.41)"
         style="font-variant:normal;font-weight:normal;font-size:10px;font-family:Helvetica;-inkscape-font-specification:Helvetica;writing-mode:lr-tb;fill:#000000;fill-opacity:1;fill-rule:nonzero;stroke:none"
         id="text156"><tspan
           x="0 5.5599999 8.3400002"
           y="0"
           sodipodi:role="line"
           id="tspan158">0.5</tspan></text>
<text
         transform="matrix(1,0,0,-1,274.85,269.41)"
         style="font-variant:normal;font-weight:normal;font-size:10px;font-family:Helvetica;-inkscape-font-specification:Helvetica;writing-mode:lr-tb;fill:#000000;fill-opacity:1;fill-rule:nonzero;stroke:none"
         id="text160"><tspan
           x="0 5.5599999 8.3400002"
           y="0"
           sodipodi:role="line"
           id="tspan162">1.0</tspan></text>
<text
         transform="matrix(1,0,0,-1,274.85,320.41)"
         style="font-variant:normal;font-weight:normal;font-size:10px;font-family:Helvetica;-inkscape-font-specification:Helvetica;writing-mode:lr-tb;fill:#000000;fill-opacity:1;fill-rule:nonzero;stroke:none"
         id="text164"><tspan
           x="0 5.5599999 8.3400002"
           y="0"
           sodipodi:role="line"
           id="tspan166">1.5</tspan></text>
</g><g
       id="g168" /><g
       id="g170" /><g
       id="g172" /><g
       id="g174" /><g
       id="g176" /><g
       id="g178" /></g></svg>