<?xml version="1.0" encoding="UTF-8" standalone="no"?>
<!-- Created with Inkscape (http://www.inkscape.org/) -->

<svg
   xmlns:dc="http://purl.org/dc/elements/1.1/"
   xmlns:cc="http://creativecommons.org/ns#"
   xmlns:rdf="http://www.w3.org/1999/02/22-rdf-syntax-ns#"
   xmlns:svg="http://www.w3.org/2000/svg"
   xmlns="http://www.w3.org/2000/svg"
   xmlns:sodipodi="http://sodipodi.sourceforge.net/DTD/sodipodi-0.dtd"
   xmlns:inkscape="http://www.inkscape.org/namespaces/inkscape"
   id="svg2"
   version="1.1"
   inkscape:version="0.91 r13725"
   xml:space="preserve"
   width="592.77875"
   height="857.02625"
   viewBox="0 0 592.77875 857.02625"
   sodipodi:docname="Maine_income.svg"
   inkscape:export-filename="D:\mgimond\GitHub\ES214\img\Maine_income.png"
   inkscape:export-xdpi="350"
   inkscape:export-ydpi="350"><metadata
     id="metadata8"><rdf:RDF><cc:Work
         rdf:about=""><dc:format>image/svg+xml</dc:format><dc:type
           rdf:resource="http://purl.org/dc/dcmitype/StillImage" /><dc:title></dc:title></cc:Work></rdf:RDF></metadata><defs
     id="defs6"><clipPath
       clipPathUnits="userSpaceOnUse"
       id="clipPath16"><path
         d="M 0,691.51181 0,0 l 1127.9906,0 0,691.51181 -1127.9906,0 z"
         id="path18"
         inkscape:connector-curvature="0"
         style="clip-rule:evenodd" /></clipPath><clipPath
       clipPathUnits="userSpaceOnUse"
       id="clipPath56"><path
         d="M 0,691.51181 0,0 l 1127.9906,0 0,691.51181 -1127.9906,0 z"
         id="path58"
         inkscape:connector-curvature="0"
         style="clip-rule:evenodd" /></clipPath><clipPath
       clipPathUnits="userSpaceOnUse"
       id="clipPath70"><path
         d="M 0,691.51181 0,0 l 1127.9906,0 0,691.51181 -1127.9906,0 z"
         id="path72"
         inkscape:connector-curvature="0"
         style="clip-rule:evenodd" /></clipPath></defs><sodipodi:namedview
     pagecolor="#ffffff"
     bordercolor="#666666"
     borderopacity="1"
     objecttolerance="10"
     gridtolerance="10"
     guidetolerance="10"
     inkscape:pageopacity="0"
     inkscape:pageshadow="2"
     inkscape:window-width="1074"
     inkscape:window-height="632"
     id="namedview4"
     showgrid="false"
     inkscape:zoom="0.16965393"
     inkscape:cx="-594.9082"
     inkscape:cy="323.57783"
     inkscape:window-x="0"
     inkscape:window-y="0"
     inkscape:window-maximized="0"
     inkscape:current-layer="g10" /><g
     id="g10"
     inkscape:groupmode="layer"
     inkscape:label="Maine_income"
     transform="matrix(1.25,0,0,-1.25,-423.4125,857.02625)"><g
       id="g12"><g
         id="g14"
         clip-path="url(#clipPath16)"><path
           d="m 603.57766,518.45927 0,27.36198 -97.43639,0.48004 -32.3988,0.24002 3.59986,18.96137 82.07696,119.28864 19.43928,-5.04036 1.19996,-25.92188 15.11944,-11.76085 40.79849,18.24132 13.19951,-1.68012 5.99978,11.28082 11.03959,-0.72006 47.99822,-45.12327 3.83986,-175.45271 2.6399,-4.80035 -4.07984,-6.00043 3.83985,-7.92058 -4.55983,-5.5204 0.23999,-18.24132 -26.63901,-6.9605 -23.51913,-5.28039 0,-1.4401 -16.55939,-3.84028 -2.87989,2.16016 0,27.602 1.19995,1.68012 -2.15992,50.64367 -0.23999,45.36329 -28.07896,0.48003 0,1.92014 -13.67949,0 z"
           style="fill:#a7cfb4;fill-opacity:1;fill-rule:evenodd;stroke:#ffffff;stroke-width:0.47997999;stroke-linecap:round;stroke-linejoin:round;stroke-miterlimit:10;stroke-dasharray:none;stroke-opacity:1"
           id="path20"
           inkscape:connector-curvature="0" /><path
           d="m 412.54473,403.97098 17.51935,9.36067 -2.15992,10.80079 18.23933,16.80121 0.71997,7.20053 -6.71975,4.08029 3.59987,13.20096 -2.8799,2.16015 8.63968,11.0408 -5.99978,8.40061 10.55961,22.56164 15.83942,14.16102 3.83986,22.80166 32.3988,-0.24002 -2.15992,-94.32684 5.03981,0.48004 3.59987,-17.76129 -2.8799,-1.92014 -3.35987,5.04037 -1.67994,-0.96007 1.91993,-6.24045 -1.91993,-1.68013 1.19995,-2.64019 -2.39991,-5.5204 0.47999,-3.12022 -4.31984,0 -1.43995,3.12022 -1.67994,-3.36024 0.23999,-1.68012 -2.39991,-0.96007 1.91993,-1.92014 1.67994,-5.5204 4.79982,-2.40018 -0.47998,-2.8802 4.79982,-0.48004 -0.23999,-1.68012 -1.43995,-0.72005 1.67994,-3.60026 -1.67994,-0.72006 0.23999,-4.80034 -7.67971,-6.48047 8.39969,-38.40279 -0.95997,-0.48003 6.23977,-29.76216 0.71998,0 3.83985,-14.16102 13.19951,2.64019 -0.47998,3.84028 15.83942,2.64019 8.63968,-42.00305 -1.19996,-0.72005 1.91993,-12.24089 -6.47976,-0.96007 -2.39991,5.76042 -4.31984,-0.24002 -1.43995,-1.4401 -0.71997,-6.24045 -6.71975,-1.20009 -1.91993,3.60026 -16.3194,-2.88021 0.95997,-6.00043 4.31984,-5.04037 -0.23999,-3.60026 -2.63991,-4.32031 -19.91926,4.32031 -2.15992,-4.56033 -2.15992,0.72005 -0.47998,4.56033 -3.35988,1.68013 -7.67971,-1.68013 -2.39991,5.04037 -3.59987,2.88021 1.91993,1.4401 -0.23999,1.92014 -4.07985,-0.72005 -2.15992,12.96094 1.67994,0.48003 -1.91993,8.64063 -0.95997,-0.24002 -0.23999,2.88021 0.71997,0.24002 -0.71997,5.04036 -11.03959,-1.4401 -0.71997,7.20052 -1.19996,-0.24002 -0.23999,3.36025 0.95996,-0.24002 -0.23999,3.84028 4.07985,0.72005 -4.79982,28.08204 -15.11944,-1.92014 -1.91993,8.16059 -5.99978,-0.48004 0.23999,-1.4401 -6.47976,-0.96007 -10.7996,58.08421 1.67994,0.24002 -4.31984,23.04167 z"
           style="fill:#a7cfb4;fill-opacity:1;fill-rule:evenodd;stroke:#ffffff;stroke-width:0.47997999;stroke-linecap:round;stroke-linejoin:round;stroke-miterlimit:10;stroke-dasharray:none;stroke-opacity:1"
           id="path22"
           inkscape:connector-curvature="0" /><path
           d="m 506.14127,546.30129 97.43639,-0.48004 0,-27.36198 -0.47998,-112.32814 -13.91949,-3.12022 -1.43994,-24.00174 11.99955,2.16015 9.35966,-44.40321 -11.0396,-2.16016 2.39991,-13.20096 -55.67793,-11.52083 -15.83942,-2.64019 0.47998,-3.84028 -13.19951,-2.64019 -3.83985,14.16102 -0.71998,0 -6.23977,29.76216 0.95997,0.48003 -8.39969,38.40279 7.67971,6.48047 -0.23999,4.80034 1.67994,0.72006 -1.67994,3.60026 1.43995,0.72005 0.23999,1.68012 -4.79982,0.48004 0.47998,2.8802 -4.79982,2.40018 -1.67994,5.5204 -1.91993,1.92014 2.39991,0.96007 -0.23999,1.68012 1.67994,3.36024 1.43995,-3.12022 4.31984,0 -0.47999,3.12022 2.39991,5.5204 -1.19995,2.64019 1.91993,1.68013 -1.91993,6.24045 1.67994,0.96007 3.35987,-5.04037 2.8799,1.92014 -3.59987,17.76129 -5.03981,-0.48004 2.15992,94.32684 z"
           style="fill:#dcf5e9;fill-opacity:1;fill-rule:evenodd;stroke:#ffffff;stroke-width:0.47997999;stroke-linecap:round;stroke-linejoin:round;stroke-miterlimit:10;stroke-dasharray:none;stroke-opacity:1"
           id="path24"
           inkscape:connector-curvature="0" /><path
           d="m 544.77984,309.88416 55.67793,11.52083 -2.39991,13.20096 11.0396,2.16016 -9.35966,44.40321 -11.99955,-2.16015 1.43994,24.00174 13.91949,3.12022 0.47998,112.32814 13.67949,0 0,-1.92014 28.07896,-0.48003 0.23999,-45.36329 2.15992,-50.64367 -1.19995,-1.68012 0,-27.602 2.87989,-2.16016 16.55939,3.84028 0,1.4401 23.51913,5.28039 12.71953,-57.84419 -12.47954,-1.92014 -27.83897,-5.04037 2.87989,-19.44141 -13.19951,-2.64019 2.15992,-14.40104 -13.91948,-2.40018 6.47976,-33.84245 -17.99934,-3.60026 -5.03981,-5.76042 -3.83986,2.16016 -3.83985,-3.36024 -2.8799,-5.28039 -2.39991,0.24002 0,1.44011 -3.35987,1.68012 -3.11989,-0.24002 -0.95996,2.40017 -3.35988,-0.24001 -3.35988,-1.68013 -0.71997,0.72006 -31.67883,-7.68056 -3.11988,13.20096 -6.47976,-0.72006 -1.91993,12.24089 1.19996,0.72005 -8.63968,42.00305 z"
           style="fill:#76a882;fill-opacity:1;fill-rule:evenodd;stroke:#ffffff;stroke-width:0.47997999;stroke-linecap:round;stroke-linejoin:round;stroke-miterlimit:10;stroke-dasharray:none;stroke-opacity:1"
           id="path26"
           inkscape:connector-curvature="0" /><path
           d="m 790.05076,319.96489 10.07962,-25.44185 -8.87967,-8.88064 20.15926,-11.28082 -4.07985,-7.68055 -21.11922,-20.6415 -12.23955,-0.24002 -9.11966,5.76042 -20.15925,-15.12109 -5.27981,-9.12067 -21.5992,1.92014 -5.2798,-3.12022 -4.55983,-13.20096 -7.67972,2.88021 0.47998,5.5204 -2.6399,-3.36024 -2.87989,16.32118 1.91993,0.48003 -2.39992,13.20096 -1.91993,-0.24002 -7.67971,42.00305 12.95952,2.40017 -8.39969,47.28343 12.47954,1.92014 -12.71953,57.84419 26.63901,6.9605 5.5198,-2.88021 3.83986,3.60026 11.51957,-11.76085 19.43928,-1.68012 2.87989,-13.92101 -9.59964,-3.12023 9.83964,-17.04123 -6.47976,-15.1211 4.55983,-14.40104 10.7996,-10.32075 7.67971,9.84072 12.23955,-4.0803 1.67994,-5.28038 z"
           style="fill:#dcf5e9;fill-opacity:1;fill-rule:evenodd;stroke:#ffffff;stroke-width:0.47997999;stroke-linecap:round;stroke-linejoin:round;stroke-miterlimit:10;stroke-dasharray:none;stroke-opacity:1"
           id="path28"
           inkscape:connector-curvature="0" /><path
           d="m 379.18597,344.44666 3.59986,12.00087 -1.67994,5.76042 3.59987,5.28038 17.99933,-5.5204 -9.11966,19.20139 18.9593,22.80166 4.31984,-23.04167 -1.67994,-0.24002 10.7996,-58.08421 6.47976,0.96007 -0.23999,1.4401 5.99978,0.48004 1.91993,-8.16059 15.11944,1.92014 4.79982,-28.08204 -4.07985,-0.72005 0.23999,-3.84028 -0.95996,0.24002 0.23999,-3.36025 1.19996,0.24002 0.71997,-7.20052 11.03959,1.4401 0.71997,-5.04036 -0.71997,-0.24002 0.23999,-2.88021 0.95997,0.24002 1.91993,-8.64063 -1.67994,-0.48003 2.15992,-12.96094 4.07985,0.72005 0.23999,-1.92014 -1.91993,-1.4401 3.59987,-2.88021 2.39991,-5.04037 -3.59987,-4.80034 -8.63968,1.92014 -4.55983,-8.64063 4.55983,-3.60026 -1.43995,-3.84028 -9.59964,0 -8.39969,-0.96007 -3.59987,-2.16016 -1.67994,5.76042 -2.6399,0.72005 -1.19995,5.5204 -2.39991,0 2.6399,5.28039 -29.51891,6.00043 3.59987,2.16016 -11.75957,26.88195 -16.79938,-8.64063 -0.71997,17.76129 -1.67994,11.52083 -1.19995,0 -1.43995,13.68099 4.31984,0.96007 -5.51979,41.52301 z"
           style="fill:#a7cfb4;fill-opacity:1;fill-rule:evenodd;stroke:#ffffff;stroke-width:0.47997999;stroke-linecap:round;stroke-linejoin:round;stroke-miterlimit:10;stroke-dasharray:none;stroke-opacity:1"
           id="path30"
           inkscape:connector-curvature="0" /><path
           d="m 356.86679,188.19534 -0.71997,60.7244 -4.07985,99.84723 14.39947,5.5204 8.63968,-18.0013 4.07985,8.16059 5.51979,-41.52301 -4.31984,-0.96007 1.43995,-13.68099 1.19995,0 1.67994,-11.52083 0.71997,-17.76129 16.79938,8.64063 11.75957,-26.88195 -3.59987,-2.16016 29.51891,-6.00043 -2.6399,-5.28039 2.39991,0 1.19995,-5.5204 2.6399,-0.72005 1.67994,-5.76042 -4.79982,-3.12022 1.19996,-12.24089 -6.95975,-23.5217 -18.9593,-28.56207 -6.95974,-3.84028 -7.19973,7.68056 2.39991,10.08073 -2.39991,5.5204 -1.43995,1.92014 -22.79915,-13.681 -4.31984,2.40018 -1.43995,-0.96007 2.39991,-3.36025 0.23999,-2.64019 5.03982,-1.68012 9.35965,-11.52083 -3.11989,-3.12023 1.43995,-2.88021 -2.39991,-3.84028 -0.47998,-5.04036 -2.39991,0 -2.63991,-1.92014 1.67994,-6.72049 -14.39947,-2.40017 -3.59986,-1.92014 -4.79982,0.72005 -0.95997,77.52562 z"
           style="fill:#76a882;fill-opacity:1;fill-rule:evenodd;stroke:#ffffff;stroke-width:0.47997999;stroke-linecap:round;stroke-linejoin:round;stroke-miterlimit:10;stroke-dasharray:none;stroke-opacity:1"
           id="path32"
           inkscape:connector-curvature="0" /><path
           d="m 537.10012,193.2357 -10.07963,1.68013 7.43973,19.20139 5.2798,-0.96007 2.6399,13.44097 -5.03981,0.96007 1.43995,13.68099 -6.47976,0.96007 3.11988,4.32032 -4.55983,0.96007 0,2.8802 1.19996,0.24002 6.71975,1.20009 0.71997,6.24045 1.43995,1.4401 4.31984,0.24002 2.39991,-5.76042 6.47976,0.96007 6.47976,0.72006 3.11988,-13.20096 31.67883,7.68056 0.71997,-0.72006 3.35988,1.68013 3.35988,0.24001 0.95996,-2.40017 0,-3.36024 -4.07985,-8.40061 5.75979,-6.48047 -0.23999,-11.76085 -16.55939,-10.32075 -3.11988,-24.96181 -4.07985,-4.32031 -1.91993,1.4401 -10.31962,1.20009 -15.11944,16.5612 -9.11966,-8.16059 -5.27981,5.28038 -2.6399,-2.40018 z"
           style="fill:#76a882;fill-opacity:1;fill-rule:evenodd;stroke:#ffffff;stroke-width:0.47997999;stroke-linecap:round;stroke-linejoin:round;stroke-miterlimit:10;stroke-dasharray:none;stroke-opacity:1"
           id="path34"
           inkscape:connector-curvature="0" /><path
           d="m 457.18308,218.43753 9.59964,0 1.43995,3.84028 -4.55983,3.60026 4.55983,8.64063 8.63968,-1.92014 3.59987,4.80034 7.67971,1.68013 3.35988,-1.68013 0.47998,-4.56033 2.15992,-0.72005 2.15992,4.56033 19.91926,-4.32031 2.63991,4.32031 0.23999,3.60026 -4.31984,5.04037 -0.95997,6.00043 16.3194,2.88021 1.91993,-3.60026 -1.19996,-0.24002 0,-2.8802 4.55983,-0.96007 -3.11988,-4.32032 6.47976,-0.96007 -1.43995,-13.68099 5.03981,-0.96007 -2.6399,-13.44097 -5.2798,0.96007 -7.43973,-19.20139 -1.91993,-8.64063 -2.6399,-3.84028 -11.51957,3.12023 -2.39991,-7.20052 0.95996,-17.04124 -10.55961,2.16016 -0.47998,2.64019 -11.27958,2.64019 -2.39991,-2.88021 -2.39991,-6.72049 -11.75957,2.6402 -2.6399,0.96007 0.23999,3.84027 1.19996,0 0.47998,2.6402 0.95996,-0.48004 0.71998,1.68012 -9.35966,4.32032 0.47998,12.96093 -5.2798,12.96094 2.15992,1.68013 -2.39991,16.08116 z"
           style="fill:#76a882;fill-opacity:1;fill-rule:evenodd;stroke:#ffffff;stroke-width:0.47997999;stroke-linecap:round;stroke-linejoin:round;stroke-miterlimit:10;stroke-dasharray:none;stroke-opacity:1"
           id="path36"
           inkscape:connector-curvature="0" /><path
           d="m 470.62258,161.79343 -2.15992,-13.20096 -1.67994,-2.64019 1.19996,-3.36025 -1.91993,-3.12022 0.47998,-1.92014 -4.55983,-6.48047 -1.91993,0.96007 -2.39991,-3.12023 -9.59964,5.04037 0.47998,1.92014 -13.4395,12.4809 -5.99978,-7.68055 -2.8799,2.16015 -1.43994,-1.20009 -7.19974,3.84028 -1.91993,2.40018 18.9593,28.56207 6.95975,23.5217 -1.19996,12.24089 4.79982,3.12022 3.59987,2.16016 8.39969,0.96007 2.39991,-16.08116 -2.15992,-1.68013 5.2798,-12.96094 -0.47998,-12.96093 9.35966,-4.32032 -0.71998,-1.68012 -0.95996,0.48004 -0.47998,-2.6402 -1.19996,0 -0.23999,-3.84027 2.6399,-0.96007 z"
           style="fill:#76a882;fill-opacity:1;fill-rule:evenodd;stroke:#ffffff;stroke-width:0.47997999;stroke-linecap:round;stroke-linejoin:round;stroke-miterlimit:10;stroke-dasharray:none;stroke-opacity:1"
           id="path38"
           inkscape:connector-curvature="0" /><path
           d="m 689.73447,339.4063 8.39969,-47.28343 -12.95952,-2.40017 7.67971,-42.00305 1.91993,0.24002 2.39992,-13.20096 -1.91993,-0.48003 2.87989,-16.32118 -3.11988,-15.84115 -6.47977,-0.48004 -7.19973,14.64106 -12.23955,2.40018 -13.4395,-9.6007 -7.19973,5.28038 -13.91949,-10.56076 2.63991,-17.04124 -3.35988,-4.80034 -20.39924,13.44097 -8.1597,-2.88021 -0.23999,13.68099 8.15969,14.64106 -0.47998,7.20053 -8.87967,8.88064 0,8.64063 0,3.36024 3.11989,0.24002 3.35987,-1.68012 0,-1.44011 2.39991,-0.24002 2.8799,5.28039 3.83985,3.36024 3.83986,-2.16016 5.03981,5.76042 17.99934,3.60026 -6.47976,33.84245 13.91948,2.40018 -2.15992,14.40104 13.19951,2.64019 -2.87989,19.44141 27.83897,5.04037 z m -36.71864,-138.73006 4.31984,3.36025 -0.71997,4.80034 13.19951,1.44011 8.63968,-16.08117 -15.83942,-7.20052 -1.67993,-10.32075 -9.35966,7.20053 1.43995,16.80121 z"
           style="fill:#4a8758;fill-opacity:1;fill-rule:evenodd;stroke:#ffffff;stroke-width:0.47997999;stroke-linecap:round;stroke-linejoin:round;stroke-miterlimit:10;stroke-dasharray:none;stroke-opacity:1"
           id="path40"
           inkscape:connector-curvature="0" /><path
           d="m 544.53984,143.5521 2.15992,-0.72005 5.27981,9.12066 -2.15992,3.84028 0.47998,5.5204 -4.07985,12.96094 -7.9197,0.48004 -0.47999,1.4401 -3.59986,2.16016 -0.47999,11.0408 0.47999,2.40017 2.39991,-0.48003 0.47998,1.92013 2.6399,2.40018 5.27981,-5.28038 9.11966,8.16059 15.11944,-16.5612 10.31962,-1.20009 1.91993,-1.4401 -5.99978,-27.602 -16.3194,-19.2014 -8.63968,-0.72005 -5.99978,11.76085 z"
           style="fill:#4a8758;fill-opacity:1;fill-rule:evenodd;stroke:#ffffff;stroke-width:0.47997999;stroke-linecap:round;stroke-linejoin:round;stroke-miterlimit:10;stroke-dasharray:none;stroke-opacity:1"
           id="path42"
           inkscape:connector-curvature="0" /><path
           d="m 493.18175,145.71226 3.83985,3.12023 -1.19995,4.08029 3.11988,10.56077 10.55961,-2.16016 -0.95996,17.04124 2.39991,7.20052 11.51957,-3.12023 2.6399,3.84028 1.91993,8.64063 10.07963,-1.68013 -0.47998,-1.92013 -2.39991,0.48003 -0.47999,-2.40017 0.47999,-11.0408 3.59986,-2.16016 0.47999,-1.4401 7.9197,-0.48004 4.07985,-12.96094 -0.47998,-5.5204 2.15992,-3.84028 -5.27981,-9.12066 -2.15992,0.72005 -5.2798,1.44011 -10.31962,-21.60157 -11.99955,-6.72048 -8.63968,1.20008 1.19995,20.16146 4.79982,8.40061 -12.23954,-14.88108 1.91993,11.52084 -10.7996,2.64019 z"
           style="fill:#4a8758;fill-opacity:1;fill-rule:evenodd;stroke:#ffffff;stroke-width:0.47997999;stroke-linecap:round;stroke-linejoin:round;stroke-miterlimit:10;stroke-dasharray:none;stroke-opacity:1"
           id="path44"
           inkscape:connector-curvature="0" /><path
           d="m 380.62591,114.26998 -1.67994,6.72049 2.63991,1.92014 2.39991,0 0.47998,5.04036 2.39991,3.84028 -1.43995,2.88021 3.11989,3.12023 -9.35965,11.52083 -5.03982,1.68012 -0.23999,2.64019 -2.39991,3.36025 1.43995,0.96007 4.31984,-2.40018 22.79915,13.681 1.43995,-1.92014 2.39991,-5.5204 -2.39991,-10.08073 7.19973,-7.68056 6.95974,3.84028 1.91993,-2.40018 7.19974,-3.84028 1.43994,1.20009 2.8799,-2.16015 5.99978,7.68055 13.4395,-12.4809 -0.47998,-1.92014 9.59964,-5.04037 2.39991,3.12023 1.91993,-0.96007 4.55983,6.48047 0.47998,-1.92014 5.99978,-6.72049 6.95974,0.48004 6.47976,5.04036 -0.23999,-5.28038 -3.11988,-6.9605 -2.15992,-13.681 -7.91971,-3.36024 -3.11988,2.88021 1.67994,9.36068 -4.55984,0 -14.87945,-8.64063 -9.35965,-16.32118 1.43995,-17.04124 -13.91949,-6.48047 -17.03937,12.24089 3.11989,5.5204 -9.83964,11.0408 -2.15992,-4.08029 -2.6399,1.20008 -1.19996,-2.16015 -1.67993,2.88021 -3.35988,0.72005 0.71997,8.88064 -1.91992,4.56033 -3.83986,2.40018 -6.47976,-1.68013 -2.6399,1.92014 -0.71998,1.92014 z"
           style="fill:#226633;fill-opacity:1;fill-rule:evenodd;stroke:#ffffff;stroke-width:0.47997999;stroke-linecap:round;stroke-linejoin:round;stroke-miterlimit:10;stroke-dasharray:none;stroke-opacity:1"
           id="path46"
           inkscape:connector-curvature="0" /><path
           d="m 483.10212,122.19056 3.11988,6.9605 0.23999,5.28038 -6.47976,-5.04036 -6.95974,-0.48004 -5.99978,6.72049 -0.47998,1.92014 -0.47998,1.92014 1.91993,3.12022 -1.19996,3.36025 1.67994,2.64019 2.15992,13.20096 11.75957,-2.6402 2.39991,6.72049 2.39991,2.88021 11.27958,-2.64019 0.47998,-2.64019 -3.11988,-10.56077 -9.59965,-11.52083 7.43973,-38.40279 -4.55983,-4.32031 -2.39991,2.40018 0.95996,15.60113 -4.55983,5.5204 z m 10.07963,23.5217 10.7996,-2.64019 -1.91993,-11.52084 -3.35988,-6.9605 2.6399,-17.28125 -2.87989,-3.60026 -3.11988,4.80034 -2.15992,37.2027 z"
           style="fill:#4a8758;fill-opacity:1;fill-rule:evenodd;stroke:#ffffff;stroke-width:0.47997999;stroke-linecap:round;stroke-linejoin:round;stroke-miterlimit:10;stroke-dasharray:none;stroke-opacity:1"
           id="path48"
           inkscape:connector-curvature="0" /><path
           d="m 359.02671,69.86676 1.67994,2.6402 -0.71997,2.40017 -1.91993,1.20009 -0.23999,34.5625 4.79982,-0.72005 3.59986,1.92014 14.39947,2.40017 0.71998,-1.92014 2.6399,-1.92014 6.47976,1.68013 3.83986,-2.40018 1.91992,-4.56033 -0.71997,-8.88064 3.35988,-0.72005 1.67993,-2.88021 1.19996,2.16015 2.6399,-1.20008 2.15992,4.08029 9.83964,-11.0408 -3.11989,-5.5204 17.03937,-12.24089 -2.87989,-16.32118 -10.7996,-12.4809 -9.35965,-2.16016 -15.35944,-38.16277 -17.51935,5.28039 -1.19995,5.76042 2.15992,12.00087 -10.07963,7.44053 -0.23999,3.36025 -7.19973,10.32075 -0.95997,4.56033 2.15992,6.72048 -0.95996,5.04037 1.43994,7.20052 -0.47998,2.40017 z"
           style="fill:#4a8758;fill-opacity:1;fill-rule:evenodd;stroke:#ffffff;stroke-width:0.47997999;stroke-linecap:round;stroke-linejoin:round;stroke-miterlimit:10;stroke-dasharray:none;stroke-opacity:1"
           id="path50"
           inkscape:connector-curvature="0" /></g></g><g
       id="g52"><g
         id="g54"
         clip-path="url(#clipPath56)"><path
           d="m 563.97913,173.07424 25.43905,-17.28125"
           style="fill:none;stroke:#000000;stroke-width:0.95995998;stroke-linecap:round;stroke-linejoin:round;stroke-miterlimit:10;stroke-dasharray:none;stroke-opacity:1"
           id="path60"
           inkscape:connector-curvature="0" /><path
           d="M 528.70043,148.35245 558.69932,121.4705"
           style="fill:none;stroke:#000000;stroke-width:0.95995998;stroke-linecap:round;stroke-linejoin:round;stroke-miterlimit:10;stroke-dasharray:none;stroke-opacity:1"
           id="path62"
           inkscape:connector-curvature="0" /><path
           d="M 483.82209,142.35202 515.9809,103.4692"
           style="fill:none;stroke:#000000;stroke-width:0.95995998;stroke-linecap:round;stroke-linejoin:round;stroke-miterlimit:10;stroke-dasharray:none;stroke-opacity:1"
           id="path64"
           inkscape:connector-curvature="0" /></g></g><g
       id="g66"><g
         id="g68"
         clip-path="url(#clipPath70)"><text
           transform="matrix(0.99989058,0,0,-1,564.5791,578.21868)"
           style="font-variant:normal;font-weight:normal;font-size:23.76172066px;font-family:Arial;-inkscape-font-specification:ArialMT;writing-mode:lr-tb;fill:#000000;fill-opacity:1;fill-rule:nonzero;stroke:none"
           id="text74"><tspan
             x="0 13.202487 26.644968 39.847454 46.568695 60.011173 73.213661"
             y="0"
             sodipodi:role="line"
             id="tspan76">$15,033</tspan></text>
<text
           transform="matrix(0.99989058,0,0,-1,511.54107,456.76988)"
           style="font-variant:normal;font-weight:normal;font-size:23.76172066px;font-family:Arial;-inkscape-font-specification:ArialMT;writing-mode:lr-tb;fill:#000000;fill-opacity:1;fill-rule:nonzero;stroke:none"
           id="text78"><tspan
             x="0 13.202487 26.644968 39.847454 46.568695 60.011173 73.213661"
             y="0"
             sodipodi:role="line"
             id="tspan80">$14,374</tspan></text>
<text
           transform="matrix(0.99989058,0,0,-1,609.69743,348.28202)"
           style="font-variant:normal;font-weight:normal;font-size:23.76172066px;font-family:Arial;-inkscape-font-specification:ArialMT;writing-mode:lr-tb;fill:#000000;fill-opacity:1;fill-rule:nonzero;stroke:none"
           id="text82"><tspan
             x="0 13.202487 26.644968 39.847454 46.568695 60.011173 73.213661"
             y="0"
             sodipodi:role="line"
             id="tspan84">$17,801</tspan></text>
<text
           transform="matrix(0.99989058,0,0,-1,702.21401,289.47776)"
           style="font-variant:normal;font-weight:normal;font-size:23.76172066px;font-family:Arial;-inkscape-font-specification:ArialMT;writing-mode:lr-tb;fill:#000000;fill-opacity:1;fill-rule:nonzero;stroke:none"
           id="text86"><tspan
             x="0 13.202487 26.644968 39.847454 46.568695 58.090752 71.533234"
             y="0"
             sodipodi:role="line"
             id="tspan88">$14,119</tspan></text>
<text
           transform="matrix(0.99989058,0,0,-1,413.86468,392.92525)"
           style="font-variant:normal;font-weight:normal;font-size:23.76172066px;font-family:Arial;-inkscape-font-specification:ArialMT;writing-mode:lr-tb;fill:#000000;fill-opacity:1;fill-rule:nonzero;stroke:none"
           id="text90"><tspan
             x="0 13.202487 26.644968 39.847454 46.568695 60.011173 73.213661"
             y="0"
             sodipodi:role="line"
             id="tspan92">$15,474</tspan></text>
<text
           transform="matrix(0.99989058,0,0,-1,352.66695,211.95214)"
           style="font-variant:normal;font-weight:normal;font-size:23.76172066px;font-family:Arial;-inkscape-font-specification:ArialMT;writing-mode:lr-tb;fill:#000000;fill-opacity:1;fill-rule:nonzero;stroke:none"
           id="text94"><tspan
             x="0 13.202487 26.644968 39.847454 46.568695 60.011173 73.213661"
             y="0"
             sodipodi:role="line"
             id="tspan96">$16,945</tspan></text>
<text
           transform="matrix(0.99989058,0,0,-1,378.346,287.07758)"
           style="font-variant:normal;font-weight:normal;font-size:23.76172066px;font-family:Arial;-inkscape-font-specification:ArialMT;writing-mode:lr-tb;fill:#000000;fill-opacity:1;fill-rule:nonzero;stroke:none"
           id="text98"><tspan
             x="0 13.202487 26.644968 39.847454 46.568695 60.011173 73.213661"
             y="0"
             sodipodi:role="line"
             id="tspan100">$15,796</tspan></text>
<text
           transform="matrix(0.99989057,0,0,-1,616.65718,230.81976)"
           style="font-variant:normal;font-weight:normal;font-size:19.92144012px;font-family:Arial;-inkscape-font-specification:ArialMT;writing-mode:lr-tb;fill:#000000;fill-opacity:1;fill-rule:nonzero;stroke:none"
           id="text102"><tspan
             x="0 11.042056 22.084112 33.366222 38.887249 49.929306 60.971359"
             y="0"
             sodipodi:role="line"
             id="tspan104">$19,809</tspan></text>
<text
           transform="matrix(0.99989057,0,0,-1,359.14671,56.56713)"
           style="font-variant:normal;font-weight:normal;font-size:19.92144012px;font-family:Arial;-inkscape-font-specification:ArialMT;writing-mode:lr-tb;fill:#000000;fill-opacity:1;fill-rule:nonzero;stroke:none"
           id="text106"><tspan
             x="0 11.042056 22.084112 33.366222 38.887249 49.929306 60.971359"
             y="0"
             sodipodi:role="line"
             id="tspan108">$21,225</tspan></text>
<text
           transform="matrix(0.99989057,0,0,-1,458.98301,196.73729)"
           style="font-variant:normal;font-weight:normal;font-size:19.92144012px;font-family:Arial;-inkscape-font-specification:ArialMT;writing-mode:lr-tb;fill:#000000;fill-opacity:1;fill-rule:nonzero;stroke:none"
           id="text110"><tspan
             x="0 11.042056 22.084112 33.366222 38.887249 49.929306 60.971359"
             y="0"
             sodipodi:role="line"
             id="tspan112">$18,520</tspan></text>
<text
           transform="matrix(0.99989057,0,0,-1,385.78572,112.25116)"
           style="font-variant:normal;font-weight:normal;font-size:19.92144012px;font-family:Arial;-inkscape-font-specification:ArialMT;writing-mode:lr-tb;fill:#000000;fill-opacity:1;fill-rule:nonzero;stroke:none"
           id="text114"><tspan
             x="0 11.042056 22.084112 33.366222 38.887249 49.929306 60.971359"
             y="0"
             sodipodi:role="line"
             id="tspan116">$23,949</tspan></text>
<text
           transform="matrix(0.99989057,0,0,-1,541.29996,215.45864)"
           style="font-variant:normal;font-weight:normal;font-size:19.92144012px;font-family:Arial;-inkscape-font-specification:ArialMT;writing-mode:lr-tb;fill:#000000;fill-opacity:1;fill-rule:nonzero;stroke:none"
           id="text118"><tspan
             x="0 11.042056 22.084112 33.366222 38.887249 49.929306 60.971359"
             y="0"
             sodipodi:role="line"
             id="tspan120">$17,438</tspan></text>
<text
           transform="matrix(0.99989057,0,0,-1,409.06486,154.97426)"
           style="font-variant:normal;font-weight:normal;font-size:19.92144012px;font-family:Arial;-inkscape-font-specification:ArialMT;writing-mode:lr-tb;fill:#000000;fill-opacity:1;fill-rule:nonzero;stroke:none"
           id="text122"><tspan
             x="0 11.042056 22.084112 33.366222 38.887249 49.929306 60.971359"
             y="0"
             sodipodi:role="line"
             id="tspan124">$18,734</tspan></text>
<text
           transform="matrix(0.99989058,0,0,-1,564.09912,112.34492)"
           style="font-variant:normal;font-weight:normal;font-size:23.76172066px;font-family:Arial;-inkscape-font-specification:ArialMT;writing-mode:lr-tb;fill:#000000;fill-opacity:1;fill-rule:nonzero;stroke:none"
           id="text126"><tspan
             x="0 13.202487 26.644968 39.847454 46.568695 60.011173 73.213661"
             y="0"
             sodipodi:role="line"
             id="tspan128">$20,760</tspan></text>
<text
           transform="matrix(0.99989058,0,0,-1,592.41807,147.38746)"
           style="font-variant:normal;font-weight:normal;font-size:23.76172066px;font-family:Arial;-inkscape-font-specification:ArialMT;writing-mode:lr-tb;fill:#000000;fill-opacity:1;fill-rule:nonzero;stroke:none"
           id="text130"><tspan
             x="0 13.202487 26.644968 39.847454 46.568695 60.011173 73.213661"
             y="0"
             sodipodi:role="line"
             id="tspan132">$19,981</tspan></text>
<text
           transform="matrix(0.99989058,0,0,-1,493.06175,81.14266)"
           style="font-variant:normal;font-weight:normal;font-size:23.76172066px;font-family:Arial;-inkscape-font-specification:ArialMT;writing-mode:lr-tb;fill:#000000;fill-opacity:1;fill-rule:nonzero;stroke:none"
           id="text134"><tspan
             x="0 13.202487 26.644968 39.847454 46.568695 60.011173 73.213661"
             y="0"
             sodipodi:role="line"
             id="tspan136">$20,378</tspan></text>
</g></g></g></svg>