<?xml version="1.0" encoding="UTF-8" standalone="no"?>
<!-- Created with Inkscape (http://www.inkscape.org/) -->

<svg
   xmlns:dc="http://purl.org/dc/elements/1.1/"
   xmlns:cc="http://creativecommons.org/ns#"
   xmlns:rdf="http://www.w3.org/1999/02/22-rdf-syntax-ns#"
   xmlns:svg="http://www.w3.org/2000/svg"
   xmlns="http://www.w3.org/2000/svg"
   xmlns:sodipodi="http://sodipodi.sourceforge.net/DTD/sodipodi-0.dtd"
   xmlns:inkscape="http://www.inkscape.org/namespaces/inkscape"
   id="svg2"
   version="1.1"
   inkscape:version="0.91 r13725"
   xml:space="preserve"
   width="596.25"
   height="371.25"
   viewBox="0 0 596.25 371.25"
   sodipodi:docname="MoranI_distance_band.svg"><metadata
     id="metadata8"><rdf:RDF><cc:Work
         rdf:about=""><dc:format>image/svg+xml</dc:format><dc:type
           rdf:resource="http://purl.org/dc/dcmitype/StillImage" /><dc:title></dc:title></cc:Work></rdf:RDF></metadata><defs
     id="defs6"><clipPath
       clipPathUnits="userSpaceOnUse"
       id="clipPath20"><path
         d="m 59.04,73.44 387.72,0 0,164.52 -387.72,0 0,-164.52 z"
         id="path22"
         inkscape:connector-curvature="0" /></clipPath><clipPath
       clipPathUnits="userSpaceOnUse"
       id="clipPath28"><path
         d="m 59.04,73.44 387.72,0 0,164.52 -387.72,0 0,-164.52 z"
         id="path30"
         inkscape:connector-curvature="0" /></clipPath><clipPath
       clipPathUnits="userSpaceOnUse"
       id="clipPath176"><path
         d="m 59.04,73.44 387.72,0 0,164.52 -387.72,0 0,-164.52 z"
         id="path178"
         inkscape:connector-curvature="0" /></clipPath></defs><sodipodi:namedview
     pagecolor="#ffffff"
     bordercolor="#666666"
     borderopacity="1"
     objecttolerance="10"
     gridtolerance="10"
     guidetolerance="10"
     inkscape:pageopacity="0"
     inkscape:pageshadow="2"
     inkscape:window-width="1511"
     inkscape:window-height="926"
     id="namedview4"
     showgrid="false"
     fit-margin-top="0"
     fit-margin-left="0"
     fit-margin-right="0"
     fit-margin-bottom="0"
     inkscape:zoom="0.16994414"
     inkscape:cx="793.14631"
     inkscape:cy="-48.116237"
     inkscape:window-x="0"
     inkscape:window-y="0"
     inkscape:window-maximized="0"
     inkscape:current-layer="g10" /><g
     id="g10"
     inkscape:groupmode="layer"
     inkscape:label="MoranI_distance_band"
     transform="matrix(1.25,0,0,-1.25,0,371.25)"><g
       id="g12"
       inkscape:export-xdpi="350"
       inkscape:export-ydpi="350"><path
         d="M 0,0 477,0 477,297 0,297 0,0 Z"
         style="fill:#ffffff;fill-opacity:1;fill-rule:nonzero;stroke:none"
         id="path14"
         inkscape:connector-curvature="0" /></g><g
       id="g16"><g
         id="g18"
         clip-path="url(#clipPath20)" /></g><g
       id="g24"
       inkscape:export-xdpi="350"
       inkscape:export-ydpi="350"><g
         id="g26"
         clip-path="url(#clipPath28)"><path
           d="M 124.02,227.53 157.4,202.36"
           style="fill:none;stroke:#aaaaaa;stroke-width:0.75;stroke-linecap:round;stroke-linejoin:round;stroke-miterlimit:10;stroke-dasharray:none;stroke-opacity:1"
           id="path32"
           inkscape:connector-curvature="0" /><path
           d="m 170.19,196.54 30.79,-6.52"
           style="fill:none;stroke:#aaaaaa;stroke-width:0.75;stroke-linecap:round;stroke-linejoin:round;stroke-miterlimit:10;stroke-dasharray:none;stroke-opacity:1"
           id="path34"
           inkscape:connector-curvature="0" /><path
           d="m 214.46,185.31 32,-16"
           style="fill:none;stroke:#aaaaaa;stroke-width:0.75;stroke-linecap:round;stroke-linejoin:round;stroke-miterlimit:10;stroke-dasharray:none;stroke-opacity:1"
           id="path36"
           inkscape:connector-curvature="0" /><path
           d="m 259.59,163.42 31.5,-12.58"
           style="fill:none;stroke:#aaaaaa;stroke-width:0.75;stroke-linecap:round;stroke-linejoin:round;stroke-miterlimit:10;stroke-dasharray:none;stroke-opacity:1"
           id="path38"
           inkscape:connector-curvature="0" /><path
           d="m 303.58,143.91 33.27,-24.43"
           style="fill:none;stroke:#aaaaaa;stroke-width:0.75;stroke-linecap:round;stroke-linejoin:round;stroke-miterlimit:10;stroke-dasharray:none;stroke-opacity:1"
           id="path40"
           inkscape:connector-curvature="0" /><path
           d="m 348.29,110.74 33.6,-26.73"
           style="fill:none;stroke:#aaaaaa;stroke-width:0.75;stroke-linecap:round;stroke-linejoin:round;stroke-miterlimit:10;stroke-dasharray:none;stroke-opacity:1"
           id="path42"
           inkscape:connector-curvature="0" /><path
           d="m 394.68,80.35 30.57,3.49"
           style="fill:none;stroke:#aaaaaa;stroke-width:0.75;stroke-linecap:round;stroke-linejoin:round;stroke-miterlimit:10;stroke-dasharray:none;stroke-opacity:1"
           id="path44"
           inkscape:connector-curvature="0" /><path
           d="m 115.57,231.87 c 0,1.48 1.22,2.7 2.7,2.7 1.49,0 2.7,-1.22 2.7,-2.7 0,-1.49 -1.21,-2.7 -2.7,-2.7 -1.48,0 -2.7,1.21 -2.7,2.7"
           style="fill:none;stroke:#aaaaaa;stroke-width:0.75;stroke-linecap:round;stroke-linejoin:round;stroke-miterlimit:10;stroke-dasharray:none;stroke-opacity:1"
           id="path46"
           inkscape:connector-curvature="0" /><path
           d="m 160.45,198.03 c 0,1.48 1.21,2.7 2.7,2.7 1.48,0 2.7,-1.22 2.7,-2.7 0,-1.49 -1.22,-2.7 -2.7,-2.7 -1.49,0 -2.7,1.21 -2.7,2.7"
           style="fill:none;stroke:#aaaaaa;stroke-width:0.75;stroke-linecap:round;stroke-linejoin:round;stroke-miterlimit:10;stroke-dasharray:none;stroke-opacity:1"
           id="path48"
           inkscape:connector-curvature="0" /><path
           d="m 205.32,188.53 c 0,1.49 1.22,2.7 2.7,2.7 1.49,0 2.7,-1.21 2.7,-2.7 0,-1.48 -1.21,-2.7 -2.7,-2.7 -1.48,0 -2.7,1.22 -2.7,2.7"
           style="fill:none;stroke:#aaaaaa;stroke-width:0.75;stroke-linecap:round;stroke-linejoin:round;stroke-miterlimit:10;stroke-dasharray:none;stroke-opacity:1"
           id="path50"
           inkscape:connector-curvature="0" /><path
           d="m 250.2,166.09 c 0,1.48 1.21,2.7 2.7,2.7 1.49,0 2.7,-1.22 2.7,-2.7 0,-1.49 -1.21,-2.7 -2.7,-2.7 -1.49,0 -2.7,1.21 -2.7,2.7"
           style="fill:none;stroke:#aaaaaa;stroke-width:0.75;stroke-linecap:round;stroke-linejoin:round;stroke-miterlimit:10;stroke-dasharray:none;stroke-opacity:1"
           id="path52"
           inkscape:connector-curvature="0" /><path
           d="m 295.07,148.17 c 0,1.49 1.22,2.7 2.7,2.7 1.49,0 2.7,-1.21 2.7,-2.7 0,-1.48 -1.21,-2.7 -2.7,-2.7 -1.48,0 -2.7,1.22 -2.7,2.7"
           style="fill:none;stroke:#aaaaaa;stroke-width:0.75;stroke-linecap:round;stroke-linejoin:round;stroke-miterlimit:10;stroke-dasharray:none;stroke-opacity:1"
           id="path54"
           inkscape:connector-curvature="0" /><path
           d="m 339.95,115.22 c 0,1.48 1.21,2.7 2.7,2.7 1.48,0 2.7,-1.22 2.7,-2.7 0,-1.49 -1.22,-2.7 -2.7,-2.7 -1.49,0 -2.7,1.21 -2.7,2.7"
           style="fill:none;stroke:#aaaaaa;stroke-width:0.75;stroke-linecap:round;stroke-linejoin:round;stroke-miterlimit:10;stroke-dasharray:none;stroke-opacity:1"
           id="path56"
           inkscape:connector-curvature="0" /><path
           d="m 384.82,79.53 c 0,1.49 1.22,2.7 2.7,2.7 1.49,0 2.7,-1.21 2.7,-2.7 0,-1.48 -1.21,-2.7 -2.7,-2.7 -1.48,0 -2.7,1.22 -2.7,2.7"
           style="fill:none;stroke:#aaaaaa;stroke-width:0.75;stroke-linecap:round;stroke-linejoin:round;stroke-miterlimit:10;stroke-dasharray:none;stroke-opacity:1"
           id="path58"
           inkscape:connector-curvature="0" /><path
           d="m 429.7,84.65 c 0,1.49 1.21,2.7 2.7,2.7 1.48,0 2.7,-1.21 2.7,-2.7 0,-1.48 -1.22,-2.7 -2.7,-2.7 -1.49,0 -2.7,1.22 -2.7,2.7"
           style="fill:none;stroke:#aaaaaa;stroke-width:0.75;stroke-linecap:round;stroke-linejoin:round;stroke-miterlimit:10;stroke-dasharray:none;stroke-opacity:1"
           id="path60"
           inkscape:connector-curvature="0" /></g></g><g
       id="g62"
       inkscape:export-xdpi="350"
       inkscape:export-ydpi="350"><path
         d="m 59.04,107.65 0,108.85"
         style="fill:none;stroke:#000000;stroke-width:0.75;stroke-linecap:round;stroke-linejoin:round;stroke-miterlimit:10;stroke-dasharray:none;stroke-opacity:1"
         id="path64"
         inkscape:connector-curvature="0" /><path
         d="m 59.04,107.65 -7.2,0"
         style="fill:none;stroke:#000000;stroke-width:0.75;stroke-linecap:round;stroke-linejoin:round;stroke-miterlimit:10;stroke-dasharray:none;stroke-opacity:1"
         id="path66"
         inkscape:connector-curvature="0" /><path
         d="m 59.04,143.94 -7.2,0"
         style="fill:none;stroke:#000000;stroke-width:0.75;stroke-linecap:round;stroke-linejoin:round;stroke-miterlimit:10;stroke-dasharray:none;stroke-opacity:1"
         id="path68"
         inkscape:connector-curvature="0" /><path
         d="m 59.04,180.22 -7.2,0"
         style="fill:none;stroke:#000000;stroke-width:0.75;stroke-linecap:round;stroke-linejoin:round;stroke-miterlimit:10;stroke-dasharray:none;stroke-opacity:1"
         id="path70"
         inkscape:connector-curvature="0" /><path
         d="m 59.04,216.5 -7.2,0"
         style="fill:none;stroke:#000000;stroke-width:0.75;stroke-linecap:round;stroke-linejoin:round;stroke-miterlimit:10;stroke-dasharray:none;stroke-opacity:1"
         id="path72"
         inkscape:connector-curvature="0" /><text
         transform="matrix(0,1,1,0,41.76,91.86)"
         style="font-variant:normal;font-weight:normal;font-size:16px;font-family:Helvetica;-inkscape-font-specification:Helvetica;writing-mode:lr-tb;fill:#000000;fill-opacity:1;fill-rule:nonzero;stroke:none"
         id="text74"><tspan
           x="0 9.3439999 18.24 22.688"
           y="0"
           sodipodi:role="line"
           id="tspan76">−1.0</tspan></text>
<text
         transform="matrix(0,1,1,0,41.76,169.1)"
         style="font-variant:normal;font-weight:normal;font-size:16px;font-family:Helvetica;-inkscape-font-specification:Helvetica;writing-mode:lr-tb;fill:#000000;fill-opacity:1;fill-rule:nonzero;stroke:none"
         id="text78"><tspan
           x="0 8.8959999 13.344"
           y="0"
           sodipodi:role="line"
           id="tspan80">0.0</tspan></text>
<text
         transform="matrix(0,1,1,0,41.76,205.38)"
         style="font-variant:normal;font-weight:normal;font-size:16px;font-family:Helvetica;-inkscape-font-specification:Helvetica;writing-mode:lr-tb;fill:#000000;fill-opacity:1;fill-rule:nonzero;stroke:none"
         id="text82"><tspan
           x="0 8.8959999 13.344"
           y="0"
           sodipodi:role="line"
           id="tspan84">0.5</tspan></text>
<path
         d="m 59.04,73.44 387.72,0 0,164.52 -387.72,0 0,-164.52"
         style="fill:none;stroke:#aaaaaa;stroke-width:0.75;stroke-linecap:round;stroke-linejoin:round;stroke-miterlimit:10;stroke-dasharray:none;stroke-opacity:1"
         id="path86"
         inkscape:connector-curvature="0" /></g><g
       id="g88"
       inkscape:export-xdpi="350"
       inkscape:export-ydpi="350"><text
         transform="matrix(1,0,0,-1,203.56,18.72)"
         style="font-variant:normal;font-weight:normal;font-size:16px;font-family:Helvetica;-inkscape-font-specification:Helvetica;writing-mode:lr-tb;fill:#000000;fill-opacity:1;fill-rule:nonzero;stroke:none"
         id="text90"><tspan
           x="0 11.552 15.104 23.104 27.552 36.448002 45.344002 53.344002 62.240002 66.688004 72.015999 80.015999 93.344002"
           y="0"
           sodipodi:role="line"
           id="tspan92">Distance (km)</tspan></text>
<text
         transform="matrix(0,1,1,0,12.96,128.66)"
         style="font-variant:normal;font-weight:normal;font-size:16px;font-family:Helvetica;-inkscape-font-specification:Helvetica;writing-mode:lr-tb;fill:#000000;fill-opacity:1;fill-rule:nonzero;stroke:none"
         id="text94"><tspan
           x="0 13.328 22.224001 27.392 36.287998 45.183998 49.632"
           y="0"
           sodipodi:role="line"
           id="tspan96">Moran I</tspan></text>
</g><g
       id="g98"
       inkscape:export-xdpi="350"
       inkscape:export-ydpi="350"><path
         d="m 95.84,73.44 350.92,0"
         style="fill:none;stroke:#aaaaaa;stroke-width:0.75;stroke-linecap:round;stroke-linejoin:round;stroke-miterlimit:10;stroke-dasharray:0, 3;stroke-dashoffset:0;stroke-opacity:1"
         id="path100"
         inkscape:connector-curvature="0" /><path
         d="m 95.84,73.44 0,164.52"
         style="fill:none;stroke:#aaaaaa;stroke-width:0.75;stroke-linecap:round;stroke-linejoin:round;stroke-miterlimit:10;stroke-dasharray:0, 3;stroke-dashoffset:0;stroke-opacity:1"
         id="path102"
         inkscape:connector-curvature="0" /><path
         d="m 140.71,73.44 0,164.52"
         style="fill:none;stroke:#aaaaaa;stroke-width:0.75;stroke-linecap:round;stroke-linejoin:round;stroke-miterlimit:10;stroke-dasharray:0, 3;stroke-dashoffset:0;stroke-opacity:1"
         id="path104"
         inkscape:connector-curvature="0" /><path
         d="m 185.59,73.44 0,164.52"
         style="fill:none;stroke:#aaaaaa;stroke-width:0.75;stroke-linecap:round;stroke-linejoin:round;stroke-miterlimit:10;stroke-dasharray:0, 3;stroke-dashoffset:0;stroke-opacity:1"
         id="path106"
         inkscape:connector-curvature="0" /><path
         d="m 230.46,73.44 0,164.52"
         style="fill:none;stroke:#aaaaaa;stroke-width:0.75;stroke-linecap:round;stroke-linejoin:round;stroke-miterlimit:10;stroke-dasharray:0, 3;stroke-dashoffset:0;stroke-opacity:1"
         id="path108"
         inkscape:connector-curvature="0" /><path
         d="m 275.34,73.44 0,164.52"
         style="fill:none;stroke:#aaaaaa;stroke-width:0.75;stroke-linecap:round;stroke-linejoin:round;stroke-miterlimit:10;stroke-dasharray:0, 3;stroke-dashoffset:0;stroke-opacity:1"
         id="path110"
         inkscape:connector-curvature="0" /><path
         d="m 320.21,73.44 0,164.52"
         style="fill:none;stroke:#aaaaaa;stroke-width:0.75;stroke-linecap:round;stroke-linejoin:round;stroke-miterlimit:10;stroke-dasharray:0, 3;stroke-dashoffset:0;stroke-opacity:1"
         id="path112"
         inkscape:connector-curvature="0" /><path
         d="m 365.09,73.44 0,164.52"
         style="fill:none;stroke:#aaaaaa;stroke-width:0.75;stroke-linecap:round;stroke-linejoin:round;stroke-miterlimit:10;stroke-dasharray:0, 3;stroke-dashoffset:0;stroke-opacity:1"
         id="path114"
         inkscape:connector-curvature="0" /><path
         d="m 409.96,73.44 0,164.52"
         style="fill:none;stroke:#aaaaaa;stroke-width:0.75;stroke-linecap:round;stroke-linejoin:round;stroke-miterlimit:10;stroke-dasharray:0, 3;stroke-dashoffset:0;stroke-opacity:1"
         id="path116"
         inkscape:connector-curvature="0" /><text
         transform="matrix(1,0,0,-1,91.39,47.52)"
         style="font-variant:normal;font-weight:normal;font-size:16px;font-family:Helvetica;-inkscape-font-specification:Helvetica;writing-mode:lr-tb;fill:#000000;fill-opacity:1;fill-rule:nonzero;stroke:none"
         id="text118"><tspan
           x="0"
           y="0"
           id="tspan120">0</tspan></text>
<text
         transform="matrix(1,0,0,-1,131.82,47.52)"
         style="font-variant:normal;font-weight:normal;font-size:16px;font-family:Helvetica;-inkscape-font-specification:Helvetica;writing-mode:lr-tb;fill:#000000;fill-opacity:1;fill-rule:nonzero;stroke:none"
         id="text122"><tspan
           x="0 8.8959999"
           y="0"
           sodipodi:role="line"
           id="tspan124">50</tspan></text>
<text
         transform="matrix(1,0,0,-1,172.24,47.52)"
         style="font-variant:normal;font-weight:normal;font-size:16px;font-family:Helvetica;-inkscape-font-specification:Helvetica;writing-mode:lr-tb;fill:#000000;fill-opacity:1;fill-rule:nonzero;stroke:none"
         id="text126"><tspan
           x="0 8.8959999 17.792"
           y="0"
           sodipodi:role="line"
           id="tspan128">100</tspan></text>
<text
         transform="matrix(1,0,0,-1,217.12,47.52)"
         style="font-variant:normal;font-weight:normal;font-size:16px;font-family:Helvetica;-inkscape-font-specification:Helvetica;writing-mode:lr-tb;fill:#000000;fill-opacity:1;fill-rule:nonzero;stroke:none"
         id="text130"><tspan
           x="0 8.8959999 17.792"
           y="0"
           sodipodi:role="line"
           id="tspan132">150</tspan></text>
<text
         transform="matrix(1,0,0,-1,261.99,47.52)"
         style="font-variant:normal;font-weight:normal;font-size:16px;font-family:Helvetica;-inkscape-font-specification:Helvetica;writing-mode:lr-tb;fill:#000000;fill-opacity:1;fill-rule:nonzero;stroke:none"
         id="text134"><tspan
           x="0 8.8959999 17.792"
           y="0"
           sodipodi:role="line"
           id="tspan136">200</tspan></text>
<text
         transform="matrix(1,0,0,-1,306.87,47.52)"
         style="font-variant:normal;font-weight:normal;font-size:16px;font-family:Helvetica;-inkscape-font-specification:Helvetica;writing-mode:lr-tb;fill:#000000;fill-opacity:1;fill-rule:nonzero;stroke:none"
         id="text138"><tspan
           x="0 8.8959999 17.792"
           y="0"
           sodipodi:role="line"
           id="tspan140">250</tspan></text>
<text
         transform="matrix(1,0,0,-1,351.74,47.52)"
         style="font-variant:normal;font-weight:normal;font-size:16px;font-family:Helvetica;-inkscape-font-specification:Helvetica;writing-mode:lr-tb;fill:#000000;fill-opacity:1;fill-rule:nonzero;stroke:none"
         id="text142"><tspan
           x="0 8.8959999 17.792"
           y="0"
           sodipodi:role="line"
           id="tspan144">300</tspan></text>
<text
         transform="matrix(1,0,0,-1,396.62,47.52)"
         style="font-variant:normal;font-weight:normal;font-size:16px;font-family:Helvetica;-inkscape-font-specification:Helvetica;writing-mode:lr-tb;fill:#000000;fill-opacity:1;fill-rule:nonzero;stroke:none"
         id="text146"><tspan
           x="0 8.8959999 17.792"
           y="0"
           sodipodi:role="line"
           id="tspan148">350</tspan></text>
<path
         d="m 59.04,107.65 0,108.85"
         style="fill:none;stroke:#aaaaaa;stroke-width:0.75;stroke-linecap:round;stroke-linejoin:round;stroke-miterlimit:10;stroke-dasharray:0, 3;stroke-dashoffset:0;stroke-opacity:1"
         id="path150"
         inkscape:connector-curvature="0" /><path
         d="m 59.04,107.65 387.72,0"
         style="fill:none;stroke:#aaaaaa;stroke-width:0.75;stroke-linecap:round;stroke-linejoin:round;stroke-miterlimit:10;stroke-dasharray:0, 3;stroke-dashoffset:0;stroke-opacity:1"
         id="path152"
         inkscape:connector-curvature="0" /><path
         d="m 59.04,143.94 387.72,0"
         style="fill:none;stroke:#aaaaaa;stroke-width:0.75;stroke-linecap:round;stroke-linejoin:round;stroke-miterlimit:10;stroke-dasharray:0, 3;stroke-dashoffset:0;stroke-opacity:1"
         id="path154"
         inkscape:connector-curvature="0" /><path
         d="m 59.04,180.22 387.72,0"
         style="fill:none;stroke:#aaaaaa;stroke-width:0.75;stroke-linecap:round;stroke-linejoin:round;stroke-miterlimit:10;stroke-dasharray:0, 3;stroke-dashoffset:0;stroke-opacity:1"
         id="path156"
         inkscape:connector-curvature="0" /><path
         d="m 59.04,216.5 387.72,0"
         style="fill:none;stroke:#aaaaaa;stroke-width:0.75;stroke-linecap:round;stroke-linejoin:round;stroke-miterlimit:10;stroke-dasharray:0, 3;stroke-dashoffset:0;stroke-opacity:1"
         id="path158"
         inkscape:connector-curvature="0" /><text
         transform="matrix(0,1,1,0,41.76,91.86)"
         style="font-variant:normal;font-weight:normal;font-size:16px;font-family:Helvetica;-inkscape-font-specification:Helvetica;writing-mode:lr-tb;fill:#000000;fill-opacity:1;fill-rule:nonzero;stroke:none"
         id="text160"><tspan
           x="0 9.3439999 18.24 22.688"
           y="0"
           sodipodi:role="line"
           id="tspan162">−1.0</tspan></text>
<text
         transform="matrix(0,1,1,0,41.76,169.1)"
         style="font-variant:normal;font-weight:normal;font-size:16px;font-family:Helvetica;-inkscape-font-specification:Helvetica;writing-mode:lr-tb;fill:#000000;fill-opacity:1;fill-rule:nonzero;stroke:none"
         id="text164"><tspan
           x="0 8.8959999 13.344"
           y="0"
           sodipodi:role="line"
           id="tspan166">0.0</tspan></text>
<text
         transform="matrix(0,1,1,0,41.76,205.38)"
         style="font-variant:normal;font-weight:normal;font-size:16px;font-family:Helvetica;-inkscape-font-specification:Helvetica;writing-mode:lr-tb;fill:#000000;fill-opacity:1;fill-rule:nonzero;stroke:none"
         id="text168"><tspan
           x="0 8.8959999 13.344"
           y="0"
           sodipodi:role="line"
           id="tspan170">0.5</tspan></text>
</g><g
       id="g172"
       inkscape:export-xdpi="350"
       inkscape:export-ydpi="350"><g
         id="g174"
         clip-path="url(#clipPath176)"><path
           d="m 112.87,231.87 c 0,2.97 2.43,5.4 5.4,5.4 2.97,0 5.41,-2.43 5.41,-5.4 0,-2.97 -2.44,-5.4 -5.41,-5.4 -2.97,0 -5.4,2.43 -5.4,5.4"
           style="fill:#ff0000;fill-opacity:1;fill-rule:nonzero;stroke:none"
           id="path180"
           inkscape:connector-curvature="0" /><path
           d="m 157.75,198.03 c 0,2.97 2.43,5.4 5.4,5.4 2.97,0 5.4,-2.43 5.4,-5.4 0,-2.97 -2.43,-5.4 -5.4,-5.4 -2.97,0 -5.4,2.43 -5.4,5.4"
           style="fill:#bebebe;fill-opacity:1;fill-rule:nonzero;stroke:none"
           id="path182"
           inkscape:connector-curvature="0" /><path
           d="m 202.62,188.53 c 0,2.97 2.43,5.4 5.4,5.4 2.97,0 5.4,-2.43 5.4,-5.4 0,-2.97 -2.43,-5.4 -5.4,-5.4 -2.97,0 -5.4,2.43 -5.4,5.4"
           style="fill:#bebebe;fill-opacity:1;fill-rule:nonzero;stroke:none"
           id="path184"
           inkscape:connector-curvature="0" /><path
           d="m 247.5,166.09 c 0,2.97 2.43,5.4 5.4,5.4 2.97,0 5.4,-2.43 5.4,-5.4 0,-2.97 -2.43,-5.4 -5.4,-5.4 -2.97,0 -5.4,2.43 -5.4,5.4"
           style="fill:#bebebe;fill-opacity:1;fill-rule:nonzero;stroke:none"
           id="path186"
           inkscape:connector-curvature="0" /><path
           d="m 292.38,148.17 c 0,2.97 2.42,5.4 5.39,5.4 2.98,0 5.4,-2.43 5.4,-5.4 0,-2.97 -2.42,-5.4 -5.4,-5.4 -2.97,0 -5.39,2.43 -5.39,5.4"
           style="fill:#bebebe;fill-opacity:1;fill-rule:nonzero;stroke:none"
           id="path188"
           inkscape:connector-curvature="0" /><path
           d="m 337.25,115.22 c 0,2.97 2.43,5.4 5.4,5.4 2.97,0 5.4,-2.43 5.4,-5.4 0,-2.97 -2.43,-5.4 -5.4,-5.4 -2.97,0 -5.4,2.43 -5.4,5.4"
           style="fill:#ff0000;fill-opacity:1;fill-rule:nonzero;stroke:none"
           id="path190"
           inkscape:connector-curvature="0" /><path
           d="m 382.13,79.53 c 0,2.97 2.42,5.4 5.39,5.4 2.98,0 5.4,-2.43 5.4,-5.4 0,-2.97 -2.42,-5.4 -5.4,-5.4 -2.97,0 -5.39,2.43 -5.39,5.4"
           style="fill:#ff0000;fill-opacity:1;fill-rule:nonzero;stroke:none"
           id="path192"
           inkscape:connector-curvature="0" /><path
           d="m 427,84.65 c 0,2.97 2.43,5.4 5.4,5.4 2.97,0 5.4,-2.43 5.4,-5.4 0,-2.97 -2.43,-5.4 -5.4,-5.4 -2.97,0 -5.4,2.43 -5.4,5.4"
           style="fill:#bebebe;fill-opacity:1;fill-rule:nonzero;stroke:none"
           id="path194"
           inkscape:connector-curvature="0" /><path
           d="m 59.04,175.69 387.72,0"
           style="fill:none;stroke:#00ffff;stroke-width:0.75;stroke-linecap:round;stroke-linejoin:round;stroke-miterlimit:10;stroke-dasharray:none;stroke-opacity:1"
           id="path196"
           inkscape:connector-curvature="0" /></g></g></g></svg>