<?xml version="1.0" encoding="UTF-8" standalone="no"?>
<!-- Created with Inkscape (http://www.inkscape.org/) -->

<svg
   xmlns:dc="http://purl.org/dc/elements/1.1/"
   xmlns:cc="http://creativecommons.org/ns#"
   xmlns:rdf="http://www.w3.org/1999/02/22-rdf-syntax-ns#"
   xmlns:svg="http://www.w3.org/2000/svg"
   xmlns="http://www.w3.org/2000/svg"
   xmlns:sodipodi="http://sodipodi.sourceforge.net/DTD/sodipodi-0.dtd"
   xmlns:inkscape="http://www.inkscape.org/namespaces/inkscape"
   id="svg2"
   version="1.1"
   inkscape:version="0.91 r13725"
   xml:space="preserve"
   width="630.24567"
   height="465.17361"
   viewBox="0 0 630.24567 465.17362"
   sodipodi:docname="MoranI_scatter_plot.svg"><metadata
     id="metadata8"><rdf:RDF><cc:Work
         rdf:about=""><dc:format>image/svg+xml</dc:format><dc:type
           rdf:resource="http://purl.org/dc/dcmitype/StillImage" /><dc:title></dc:title></cc:Work></rdf:RDF></metadata><defs
     id="defs6"><clipPath
       clipPathUnits="userSpaceOnUse"
       id="clipPath16"><path
         d="m 0,1.2207e-4 720,0 0,539.99999793 -720,0 L 0,1.2207e-4 Z"
         id="path18"
         inkscape:connector-curvature="0"
         style="clip-rule:evenodd" /></clipPath><clipPath
       clipPathUnits="userSpaceOnUse"
       id="clipPath146"><path
         d="M -9.155e-6,540 720,540 720,6.104e-6 -1.2207e-4,0"
         id="path148"
         inkscape:connector-curvature="0"
         style="clip-rule:evenodd" /></clipPath><clipPath
       clipPathUnits="userSpaceOnUse"
       id="clipPath156"><path
         d="M -9.155e-6,540 720,540 720,6.104e-6 -1.2207e-4,0"
         id="path158"
         inkscape:connector-curvature="0"
         style="clip-rule:evenodd" /></clipPath></defs><sodipodi:namedview
     pagecolor="#ffffff"
     bordercolor="#666666"
     borderopacity="1"
     objecttolerance="10"
     gridtolerance="10"
     guidetolerance="10"
     inkscape:pageopacity="0"
     inkscape:pageshadow="2"
     inkscape:window-width="1141"
     inkscape:window-height="629"
     id="namedview4"
     showgrid="false"
     fit-margin-top="0"
     fit-margin-left="0"
     fit-margin-right="0"
     fit-margin-bottom="0"
     inkscape:zoom="0.30297619"
     inkscape:cx="500.40366"
     inkscape:cy="465.00675"
     inkscape:window-x="0"
     inkscape:window-y="0"
     inkscape:window-maximized="0"
     inkscape:current-layer="g10" /><g
     id="g10"
     inkscape:groupmode="layer"
     inkscape:label="MoranI_scatter_plot"
     transform="matrix(1.25,0,0,-1.25,-244.12183,592.50994)"><text
       transform="matrix(1,0,0,-1,457.66,271.37)"
       style="font-variant:normal;font-weight:normal;font-size:12px;font-family:'Architects Daughter';-inkscape-font-specification:'Architects Daughter';writing-mode:lr-tb;fill:#404040;fill-opacity:1;fill-rule:nonzero;stroke:none"
       id="text22"
       inkscape:export-xdpi="350"
       inkscape:export-ydpi="350"><tspan
         x="0 9.3719997 11.28 19.188 26.615999 34.307999 40.307999 47.736 53.736 65.736 73.643997 81.084 88.751999 95.940002 98.363998 105.072 110.952"
         y="0"
         sodipodi:role="line"
         id="tspan24">Slope = Moran’s I</tspan></text>
<path
       d="M 277.75,147.63 596.5,147.62"
       style="fill:none;stroke:#000000;stroke-width:0.14;stroke-linecap:round;stroke-linejoin:round;stroke-miterlimit:10;stroke-dasharray:none;stroke-opacity:1"
       id="path26"
       inkscape:connector-curvature="0"
       inkscape:export-xdpi="350"
       inkscape:export-ydpi="350" /><path
       d="m 277.75,147.63 0,-6"
       style="fill:none;stroke:#000000;stroke-width:0.14;stroke-linecap:round;stroke-linejoin:round;stroke-miterlimit:10;stroke-dasharray:none;stroke-opacity:1"
       id="path28"
       inkscape:connector-curvature="0"
       inkscape:export-xdpi="350"
       inkscape:export-ydpi="350" /><path
       d="m 341.5,147.63 0,-6"
       style="fill:none;stroke:#000000;stroke-width:0.14;stroke-linecap:round;stroke-linejoin:round;stroke-miterlimit:10;stroke-dasharray:none;stroke-opacity:1"
       id="path30"
       inkscape:connector-curvature="0"
       inkscape:export-xdpi="350"
       inkscape:export-ydpi="350" /><path
       d="m 405.25,147.63 0,-6"
       style="fill:none;stroke:#000000;stroke-width:0.14;stroke-linecap:round;stroke-linejoin:round;stroke-miterlimit:10;stroke-dasharray:none;stroke-opacity:1"
       id="path32"
       inkscape:connector-curvature="0"
       inkscape:export-xdpi="350"
       inkscape:export-ydpi="350" /><path
       d="m 469,147.63 0,-6"
       style="fill:none;stroke:#000000;stroke-width:0.14;stroke-linecap:round;stroke-linejoin:round;stroke-miterlimit:10;stroke-dasharray:none;stroke-opacity:1"
       id="path34"
       inkscape:connector-curvature="0"
       inkscape:export-xdpi="350"
       inkscape:export-ydpi="350" /><path
       d="m 532.75,147.63 0,-6"
       style="fill:none;stroke:#000000;stroke-width:0.14;stroke-linecap:round;stroke-linejoin:round;stroke-miterlimit:10;stroke-dasharray:none;stroke-opacity:1"
       id="path36"
       inkscape:connector-curvature="0"
       inkscape:export-xdpi="350"
       inkscape:export-ydpi="350" /><path
       d="m 596.5,147.63 0,-6"
       style="fill:none;stroke:#000000;stroke-width:0.14;stroke-linecap:round;stroke-linejoin:round;stroke-miterlimit:10;stroke-dasharray:none;stroke-opacity:1"
       id="path38"
       inkscape:connector-curvature="0"
       inkscape:export-xdpi="350"
       inkscape:export-ydpi="350" /><text
       transform="matrix(1,0,0,-1,262.92,127.37)"
       style="font-variant:normal;font-weight:normal;font-size:12px;font-family:Calibri;-inkscape-font-specification:Calibri;writing-mode:lr-tb;fill:#404040;fill-opacity:1;fill-rule:nonzero;stroke:none"
       id="text40"
       inkscape:export-xdpi="350"
       inkscape:export-ydpi="350"><tspan
         x="0 6.0840001 12.228 15.228 21.312 27.455999"
         y="0"
         sodipodi:role="line"
         id="tspan42">14,000</tspan></text>
<text
       transform="matrix(1,0,0,-1,326.69,127.37)"
       style="font-variant:normal;font-weight:normal;font-size:12px;font-family:Calibri;-inkscape-font-specification:Calibri;writing-mode:lr-tb;fill:#404040;fill-opacity:1;fill-rule:nonzero;stroke:none"
       id="text44"
       inkscape:export-xdpi="350"
       inkscape:export-ydpi="350"><tspan
         x="0 6.0840001 12.228 15.228 21.312 27.455999"
         y="0"
         sodipodi:role="line"
         id="tspan46">16,000</tspan></text>
<text
       transform="matrix(1,0,0,-1,390.43,127.37)"
       style="font-variant:normal;font-weight:normal;font-size:12px;font-family:Calibri;-inkscape-font-specification:Calibri;writing-mode:lr-tb;fill:#404040;fill-opacity:1;fill-rule:nonzero;stroke:none"
       id="text48"
       inkscape:export-xdpi="350"
       inkscape:export-ydpi="350"><tspan
         x="0 6.0840001 12.228 15.228 21.312 27.455999"
         y="0"
         sodipodi:role="line"
         id="tspan50">18,000</tspan></text>
<text
       transform="matrix(1,0,0,-1,454.2,127.37)"
       style="font-variant:normal;font-weight:normal;font-size:12px;font-family:Calibri;-inkscape-font-specification:Calibri;writing-mode:lr-tb;fill:#404040;fill-opacity:1;fill-rule:nonzero;stroke:none"
       id="text52"
       inkscape:export-xdpi="350"
       inkscape:export-ydpi="350"><tspan
         x="0 6.0840001 12.228 15.228 21.312 27.455999"
         y="0"
         sodipodi:role="line"
         id="tspan54">20,000</tspan></text>
<text
       transform="matrix(1,0,0,-1,517.97,127.37)"
       style="font-variant:normal;font-weight:normal;font-size:12px;font-family:Calibri;-inkscape-font-specification:Calibri;writing-mode:lr-tb;fill:#404040;fill-opacity:1;fill-rule:nonzero;stroke:none"
       id="text56"
       inkscape:export-xdpi="350"
       inkscape:export-ydpi="350"><tspan
         x="0 6.0840001 12.228 15.228 21.312 27.455999"
         y="0"
         sodipodi:role="line"
         id="tspan58">22,000</tspan></text>
<text
       transform="matrix(1,0,0,-1,581.71,127.37)"
       style="font-variant:normal;font-weight:normal;font-size:12px;font-family:Calibri;-inkscape-font-specification:Calibri;writing-mode:lr-tb;fill:#404040;fill-opacity:1;fill-rule:nonzero;stroke:none"
       id="text60"
       inkscape:export-xdpi="350"
       inkscape:export-ydpi="350"><tspan
         x="0 6.132 12.264 15.264 21.396 27.528"
         y="0"
         sodipodi:role="line"
         id="tspan62">24,000</tspan></text>
<path
       d="m 268.75,190.25 0,225.38"
       style="fill:none;stroke:#000000;stroke-width:0.14;stroke-linecap:round;stroke-linejoin:round;stroke-miterlimit:10;stroke-dasharray:none;stroke-opacity:1"
       id="path64"
       inkscape:connector-curvature="0"
       inkscape:export-xdpi="350"
       inkscape:export-ydpi="350" /><path
       d="m 268.75,190.25 -6.75,0"
       style="fill:none;stroke:#000000;stroke-width:0.14;stroke-linecap:round;stroke-linejoin:round;stroke-miterlimit:10;stroke-dasharray:none;stroke-opacity:1"
       id="path66"
       inkscape:connector-curvature="0"
       inkscape:export-xdpi="350"
       inkscape:export-ydpi="350" /><path
       d="M 268.75,246.88 262,246.87"
       style="fill:none;stroke:#000000;stroke-width:0.14;stroke-linecap:round;stroke-linejoin:round;stroke-miterlimit:10;stroke-dasharray:none;stroke-opacity:1"
       id="path68"
       inkscape:connector-curvature="0"
       inkscape:export-xdpi="350"
       inkscape:export-ydpi="350" /><path
       d="M 268.75,302.88 262,302.87"
       style="fill:none;stroke:#000000;stroke-width:0.14;stroke-linecap:round;stroke-linejoin:round;stroke-miterlimit:10;stroke-dasharray:none;stroke-opacity:1"
       id="path70"
       inkscape:connector-curvature="0"
       inkscape:export-xdpi="350"
       inkscape:export-ydpi="350" /><path
       d="m 268.75,359.63 -6.75,0"
       style="fill:none;stroke:#000000;stroke-width:0.14;stroke-linecap:round;stroke-linejoin:round;stroke-miterlimit:10;stroke-dasharray:none;stroke-opacity:1"
       id="path72"
       inkscape:connector-curvature="0"
       inkscape:export-xdpi="350"
       inkscape:export-ydpi="350" /><path
       d="M 268.75,415.63 262,415.62"
       style="fill:none;stroke:#000000;stroke-width:0.14;stroke-linecap:round;stroke-linejoin:round;stroke-miterlimit:10;stroke-dasharray:none;stroke-opacity:1"
       id="path74"
       inkscape:connector-curvature="0"
       inkscape:export-xdpi="350"
       inkscape:export-ydpi="350" /><text
       transform="matrix(1,0,0,-1,228.98,186.19)"
       style="font-variant:normal;font-weight:normal;font-size:12px;font-family:Calibri;-inkscape-font-specification:Calibri;writing-mode:lr-tb;fill:#404040;fill-opacity:1;fill-rule:nonzero;stroke:none"
       id="text76"
       inkscape:export-xdpi="350"
       inkscape:export-ydpi="350"><tspan
         x="0 6.0840001 12.228 15.228 21.312 27.455999"
         y="0"
         sodipodi:role="line"
         id="tspan78">16,000</tspan></text>
<text
       transform="matrix(1,0,0,-1,228.91,242.9)"
       style="font-variant:normal;font-weight:normal;font-size:12px;font-family:Calibri;-inkscape-font-specification:Calibri;writing-mode:lr-tb;fill:#404040;fill-opacity:1;fill-rule:nonzero;stroke:none"
       id="text80"
       inkscape:export-xdpi="350"
       inkscape:export-ydpi="350"><tspan
         x="0 6.0840001 12.228 15.228 21.312 27.455999"
         y="0"
         sodipodi:role="line"
         id="tspan82">17,000</tspan></text>
<text
       transform="matrix(1,0,0,-1,228.91,298.92)"
       style="font-variant:normal;font-weight:normal;font-size:12px;font-family:Calibri;-inkscape-font-specification:Calibri;writing-mode:lr-tb;fill:#404040;fill-opacity:1;fill-rule:nonzero;stroke:none"
       id="text84"
       inkscape:export-xdpi="350"
       inkscape:export-ydpi="350"><tspan
         x="0 6.0840001 12.228 15.228 21.312 27.455999"
         y="0"
         sodipodi:role="line"
         id="tspan86">18,000</tspan></text>
<text
       transform="matrix(1,0,0,-1,228.91,355.56)"
       style="font-variant:normal;font-weight:normal;font-size:12px;font-family:Calibri;-inkscape-font-specification:Calibri;writing-mode:lr-tb;fill:#404040;fill-opacity:1;fill-rule:nonzero;stroke:none"
       id="text88"
       inkscape:export-xdpi="350"
       inkscape:export-ydpi="350"><tspan
         x="0 6.0840001 12.228 15.228 21.312 27.455999"
         y="0"
         sodipodi:role="line"
         id="tspan90">19,000</tspan></text>
<text
       transform="matrix(1,0,0,-1,228.91,411.55)"
       style="font-variant:normal;font-weight:normal;font-size:12.02400017px;font-family:Calibri;-inkscape-font-specification:Calibri;writing-mode:lr-tb;fill:#404040;fill-opacity:1;fill-rule:nonzero;stroke:none"
       id="text92"
       inkscape:export-xdpi="350"
       inkscape:export-ydpi="350"><tspan
         x="0 6.096168 12.228408 15.234408 21.330576 27.450792"
         y="0"
         sodipodi:role="line"
         id="tspan94">20,000</tspan></text>
<path
       d="m 268.75,147.63 338.25,0 0,304.5 -338.25,0 0,-304.5 z"
       style="fill:none;stroke:#000000;stroke-width:0.14;stroke-linecap:round;stroke-linejoin:round;stroke-miterlimit:10;stroke-dasharray:none;stroke-opacity:1"
       id="path96"
       inkscape:connector-curvature="0"
       inkscape:export-xdpi="350"
       inkscape:export-ydpi="350" /><text
       transform="matrix(1,0,0,-1,411.62,102.89)"
       style="font-variant:normal;font-weight:normal;font-size:10.56000042px;font-family:'Architects Daughter';-inkscape-font-specification:'Architects Daughter';writing-mode:lr-tb;fill:#404040;fill-opacity:1;fill-rule:nonzero;stroke:none"
       id="text98"
       inkscape:export-xdpi="350"
       inkscape:export-ydpi="350"><tspan
         x="0 1.66848 8.0150404 15.69216 22.630079 32.968319 39.684479 44.605438 48.554878 55.90464"
         y="0"
         sodipodi:role="line"
         id="tspan100">Income ($)</tspan></text>
<text
       transform="matrix(1,0,0,-1,194.98,463.61)"
       style="font-variant:normal;font-weight:normal;font-size:10.58399963px;font-family:'Architects Daughter';-inkscape-font-specification:'Architects Daughter';writing-mode:lr-tb;fill:#404040;fill-opacity:1;fill-rule:nonzero;stroke:none"
       id="text102"
       inkscape:export-xdpi="350"
       inkscape:export-ydpi="350"><tspan
         x="0 8.0544243 14.881104 16.913233 23.86692 30.354912 37.679039 44.632729 51.226559 53.269272 59.513832 66.351097 71.272659 75.209908 85.539886 92.36657 99.097992 105.34255 110.01009 114.81523 116.84736 123.18718 130.88174 137.83543 148.15483 154.98151 159.79723 163.73448 171.10094"
         y="0"
         sodipodi:role="line"
         id="tspan104">Neighboring (mean) income ($)</tspan></text>
<path
       d="M 268.75,220.63 607,424.5"
       style="fill:none;stroke:#ffc000;stroke-width:2.25;stroke-linecap:butt;stroke-linejoin:round;stroke-miterlimit:10;stroke-dasharray:none;stroke-opacity:1"
       id="path106"
       inkscape:connector-curvature="0"
       inkscape:export-xdpi="350"
       inkscape:export-ydpi="350" /><path
       d="m 368.75,411.25 c 0,2.42 2.18,4.38 4.88,4.38 2.69,0 4.87,-1.96 4.87,-4.38 0,-2.42 -2.18,-4.38 -4.87,-4.38 -2.7,0 -4.88,1.96 -4.88,4.38 z"
       style="fill:#4f81bd;fill-opacity:1;fill-rule:evenodd;stroke:none"
       id="path108"
       inkscape:connector-curvature="0"
       inkscape:export-xdpi="350"
       inkscape:export-ydpi="350" /><path
       d="m 478.75,438.25 c 0,2.42 2.18,4.38 4.88,4.38 2.69,0 4.87,-1.96 4.87,-4.38 0,-2.42 -2.18,-4.38 -4.87,-4.38 -2.7,0 -4.88,1.96 -4.88,4.38 z"
       style="fill:#4f81bd;fill-opacity:1;fill-rule:evenodd;stroke:none"
       id="path110"
       inkscape:connector-curvature="0"
       inkscape:export-xdpi="350"
       inkscape:export-ydpi="350" /><path
       d="m 506.13,440.63 c 0,2.41 2.15,4.37 4.81,4.37 2.66,0 4.81,-1.96 4.81,-4.37 0,-2.42 -2.15,-4.38 -4.81,-4.38 -2.66,0 -4.81,1.96 -4.81,4.38 z"
       style="fill:#4f81bd;fill-opacity:1;fill-rule:evenodd;stroke:none"
       id="path112"
       inkscape:connector-curvature="0"
       inkscape:export-xdpi="350"
       inkscape:export-ydpi="350" /><path
       d="m 426.38,366.13 c 0,2.41 2.18,4.37 4.87,4.37 2.69,0 4.88,-1.96 4.88,-4.37 0,-2.42 -2.19,-4.38 -4.88,-4.38 -2.69,0 -4.87,1.96 -4.87,4.38 z"
       style="fill:#4f81bd;fill-opacity:1;fill-rule:evenodd;stroke:none"
       id="path114"
       inkscape:connector-curvature="0"
       inkscape:export-xdpi="350"
       inkscape:export-ydpi="350" /><path
       d="m 466.75,365.25 c 0,2.42 2.18,4.38 4.88,4.38 2.69,0 4.87,-1.96 4.87,-4.38 0,-2.42 -2.18,-4.38 -4.87,-4.38 -2.7,0 -4.88,1.96 -4.88,4.38 z"
       style="fill:#4f81bd;fill-opacity:1;fill-rule:evenodd;stroke:none"
       id="path116"
       inkscape:connector-curvature="0"
       inkscape:export-xdpi="350"
       inkscape:export-ydpi="350" /><path
       d="m 591.5,376.88 c 0,2.41 2.15,4.37 4.81,4.37 2.66,0 4.82,-1.96 4.82,-4.37 0,-2.42 -2.16,-4.38 -4.82,-4.38 -2.66,0 -4.81,1.96 -4.81,4.38 z"
       style="fill:#4f81bd;fill-opacity:1;fill-rule:evenodd;stroke:none"
       id="path118"
       inkscape:connector-curvature="0"
       inkscape:export-xdpi="350"
       inkscape:export-ydpi="350" /><path
       d="m 489.25,339 c 0,2.42 2.18,4.38 4.88,4.38 2.69,0 4.87,-1.96 4.87,-4.38 0,-2.42 -2.18,-4.38 -4.87,-4.38 -2.7,0 -4.88,1.96 -4.88,4.38 z"
       style="fill:#4f81bd;fill-opacity:1;fill-rule:evenodd;stroke:none"
       id="path120"
       inkscape:connector-curvature="0"
       inkscape:export-xdpi="350"
       inkscape:export-ydpi="350" /><path
       d="m 385.13,332.25 c 0,2.42 2.18,4.38 4.87,4.38 2.69,0 4.88,-1.96 4.88,-4.38 0,-2.42 -2.19,-4.38 -4.88,-4.38 -2.69,0 -4.87,1.96 -4.87,4.38 z"
       style="fill:#4f81bd;fill-opacity:1;fill-rule:evenodd;stroke:none"
       id="path122"
       inkscape:connector-curvature="0"
       inkscape:export-xdpi="350"
       inkscape:export-ydpi="350" /><path
       d="m 419.88,308.63 c 0,2.41 2.18,4.37 4.87,4.37 2.69,0 4.88,-1.96 4.88,-4.37 0,-2.42 -2.19,-4.38 -4.88,-4.38 -2.69,0 -4.87,1.96 -4.87,4.38 z"
       style="fill:#4f81bd;fill-opacity:1;fill-rule:evenodd;stroke:none"
       id="path124"
       inkscape:connector-curvature="0"
       inkscape:export-xdpi="350"
       inkscape:export-ydpi="350" /><path
       d="m 331,270.88 c 0,2.41 2.18,4.37 4.88,4.37 2.69,0 4.87,-1.96 4.87,-4.37 0,-2.42 -2.18,-4.38 -4.87,-4.38 -2.7,0 -4.88,1.96 -4.88,4.38 z"
       style="fill:#4f81bd;fill-opacity:1;fill-rule:evenodd;stroke:none"
       id="path126"
       inkscape:connector-curvature="0"
       inkscape:export-xdpi="350"
       inkscape:export-ydpi="350" /><path
       d="m 278.75,276.19 c 0,2.38 2.18,4.31 4.88,4.31 2.69,0 4.87,-1.93 4.87,-4.31 0,-2.38 -2.18,-4.31 -4.87,-4.31 -2.7,0 -4.88,1.93 -4.88,4.31 z"
       style="fill:#4f81bd;fill-opacity:1;fill-rule:evenodd;stroke:none"
       id="path128"
       inkscape:connector-curvature="0"
       inkscape:export-xdpi="350"
       inkscape:export-ydpi="350" /><path
       d="m 461.13,188.13 c 0,2.41 2.15,4.37 4.81,4.37 2.66,0 4.81,-1.96 4.81,-4.37 0,-2.42 -2.15,-4.38 -4.81,-4.38 -2.66,0 -4.81,1.96 -4.81,4.38 z"
       style="fill:#4f81bd;fill-opacity:1;fill-rule:evenodd;stroke:none"
       id="path130"
       inkscape:connector-curvature="0"
       inkscape:export-xdpi="350"
       inkscape:export-ydpi="350" /><path
       d="m 395.88,192.5 c 0,2.42 2.18,4.38 4.87,4.38 2.69,0 4.88,-1.96 4.88,-4.38 0,-2.42 -2.19,-4.38 -4.88,-4.38 -2.69,0 -4.87,1.96 -4.87,4.38 z"
       style="fill:#4f81bd;fill-opacity:1;fill-rule:evenodd;stroke:none"
       id="path132"
       inkscape:connector-curvature="0"
       inkscape:export-xdpi="350"
       inkscape:export-ydpi="350" /><path
       d="m 322.38,219.25 c 0,2.42 2.18,4.38 4.87,4.38 2.69,0 4.88,-1.96 4.88,-4.38 0,-2.42 -2.19,-4.38 -4.88,-4.38 -2.69,0 -4.87,1.96 -4.87,4.38 z"
       style="fill:#4f81bd;fill-opacity:1;fill-rule:evenodd;stroke:none"
       id="path134"
       inkscape:connector-curvature="0"
       inkscape:export-xdpi="350"
       inkscape:export-ydpi="350" /><path
       d="m 287.88,197.25 c 0,2.42 2.18,4.38 4.87,4.38 2.69,0 4.88,-1.96 4.88,-4.38 0,-2.42 -2.19,-4.38 -4.88,-4.38 -2.69,0 -4.87,1.96 -4.87,4.38 z"
       style="fill:#4f81bd;fill-opacity:1;fill-rule:evenodd;stroke:none"
       id="path136"
       inkscape:connector-curvature="0"
       inkscape:export-xdpi="350"
       inkscape:export-ydpi="350" /><path
       d="m 308.88,159.13 c 0,2.41 2.18,4.37 4.87,4.37 2.69,0 4.88,-1.96 4.88,-4.37 0,-2.42 -2.19,-4.38 -4.88,-4.38 -2.69,0 -4.87,1.96 -4.87,4.38 z"
       style="fill:#4f81bd;fill-opacity:1;fill-rule:evenodd;stroke:none"
       id="path138"
       inkscape:connector-curvature="0"
       inkscape:export-xdpi="350"
       inkscape:export-ydpi="350" /><path
       d="m 393.16,292.45 1.01,-2.32 1.03,-2.26 0.71,-1.56 -2.04,-0.94 -0.73,1.57 -1.03,2.29 -1.01,2.32 2.06,0.9 z m 3.71,-8.16 0.39,-0.8 1.05,-2.13 1.05,-2.09 0.52,-0.97 -1.99,-1.06 -0.54,1.02 -1.06,2.1 -1.06,2.15 -0.39,0.81 2.03,0.97 z m 4.06,-7.97 0.57,-1.07 2.17,-3.85 0.55,-0.92 -1.93,-1.15 -0.58,0.97 -2.2,3.9 -0.56,1.06 1.98,1.06 z m 4.44,-7.77 0.49,-0.82 2.23,-3.5 0.88,-1.31 -1.86,-1.26 -0.92,1.36 -2.26,3.55 -0.49,0.83 1.93,1.15 z m 4.86,-7.5 0.1,-0.15 2.27,-3.17 1.59,-2.07 -1.79,-1.36 -1.62,2.12 -2.31,3.22 -0.1,0.15 1.86,1.26 z m 5.33,-7.13 1.64,-2.02 2.33,-2.68 0.35,-0.38 -1.65,-1.53 -0.4,0.44 -2.37,2.73 -1.65,2.02 1.75,1.42 z m 5.85,-6.73 0.46,-0.49 2.34,-2.38 1.95,-1.82 -1.54,-1.64 -2.01,1.88 -2.39,2.43 -0.46,0.49 1.65,1.53 z m 6.4,-6.16 1.13,-0.99 2.37,-1.92 1.69,-1.27 -1.36,-1.8 -1.75,1.32 -2.43,1.98 -1.13,0.99 1.48,1.69 z m 6.98,-5.46 1.25,-0.87 2.37,-1.5 2.02,-1.16 -1.12,-1.95 -2.1,1.21 -2.45,1.55 -1.25,0.87 1.28,1.85 z m 7.59,-4.57 0.75,-0.39 2.35,-1.1 2.33,-0.97 0.6,-0.22 -0.78,-2.11 -0.68,0.25 -2.43,1.01 -2.43,1.15 -0.75,0.39 1.04,1.99 z m 8.1,-3.42 1.97,-0.62 2.28,-0.6 2.17,-0.47 -0.48,-2.2 -2.26,0.49 -2.39,0.63 -1.97,0.62 0.68,2.15 z m 8.59,-2.06 0.19,-0.03 2.23,-0.27 2.2,-0.15 1.94,-0.04 -0.05,-2.25 -2.05,0.05 -2.31,0.16 -2.33,0.28 -0.2,0.03 0.38,2.22 z m 8.76,-0.45 0.18,0 2.11,0.17 2.09,0.25 2.04,0.35 0.05,0.01 0.49,-2.19 -0.16,-0.04 -2.15,-0.37 -2.19,-0.26 -2.23,-0.16 -0.18,-0.01 -0.05,2.25 z m 8.61,1.27 1.78,0.49 1.94,0.62 1.88,0.72 0.64,0.28 0.9,-2.07 -0.74,-0.32 -1.99,-0.75 -2.03,-0.65 -1.78,-0.49 -0.6,2.17 z m 8.24,3.02 0.99,0.48 1.75,0.96 1.68,1.04 1.26,0.85 1.26,-1.86 -1.34,-0.91 -1.78,-1.09 -1.84,-1.01 -0.99,-0.48 -0.99,2.02 z m 7.45,4.63 0.19,0.15 1.52,1.25 1.46,1.31 1.41,1.39 0.26,0.29 1.66,-1.52 -0.34,-0.37 -1.48,-1.46 -1.54,-1.38 -1.6,-1.32 -0.19,-0.14 -1.35,1.8 z m 6.31,6.03 0.87,1.03 1.19,1.56 1.14,1.63 0.69,1.1 1.9,-1.2 -0.75,-1.19 -1.19,-1.71 -1.26,-1.64 -0.87,-1.03 -1.72,1.45 z m 5,7.21 0.23,0.4 0.9,1.77 0.82,1.82 0.75,1.86 0.03,0.09 2.12,-0.73 -0.07,-0.2 -0.78,-1.95 -0.86,-1.92 -0.96,-1.85 -0.22,-0.4 -1.96,1.11 z m 3.43,8.03 0.49,1.66 0.48,1.97 0.4,2.01 0.11,0.77 2.23,-0.32 -0.14,-0.89 -0.41,-2.1 -0.51,-2.08 -0.49,-1.66 -2.16,0.64 z m -2.74,1.76 5.73,7.88 4.04,-8.87 c 0.25,-0.56 0,-1.23 -0.56,-1.49 -0.57,-0.26 -1.23,-0.01 -1.49,0.56 l -3.24,7.11 1.93,-0.2 -4.59,-6.32 c -0.37,-0.5 -1.07,-0.61 -1.57,-0.24 -0.51,0.36 -0.62,1.07 -0.25,1.57 z"
       style="fill:#bfbfbf;fill-opacity:1;fill-rule:nonzero;stroke:none"
       id="path140"
       inkscape:connector-curvature="0"
       inkscape:export-xdpi="350"
       inkscape:export-ydpi="350" /><g
       id="g142"
       inkscape:export-xdpi="350"
       inkscape:export-ydpi="350"><g
         id="g144"
         clip-path="url(#clipPath146)"><path
           d="m 506.28,369.87 c -0.06,0.08 -0.08,0.17 -0.08,0.28 0.01,0.11 0.02,0.23 0.05,0.34 0.03,0.11 0.06,0.21 0.1,0.31 0.03,0.09 0.06,0.15 0.07,0.19 0.24,-0.28 0.5,-0.42 0.8,-0.44 0.3,-0.02 0.6,0.04 0.92,0.2 0.32,0.16 0.65,0.38 0.97,0.68 0.33,0.3 0.63,0.63 0.92,0.98 0.29,0.36 0.55,0.73 0.78,1.11 0.23,0.38 0.41,0.73 0.54,1.05 0.13,0.33 0.2,0.6 0.22,0.84 0.01,0.23 -0.06,0.37 -0.21,0.43 l -6.41,-1.43 c -0.08,-0.03 -0.18,-0.05 -0.31,-0.06 -0.13,-0.02 -0.25,-0.02 -0.38,-0.02 -0.13,0 -0.24,0.02 -0.35,0.06 -0.11,0.03 -0.19,0.09 -0.24,0.17 -0.21,0.3 -0.29,0.65 -0.24,1.06 0.05,0.4 0.19,0.82 0.4,1.25 0.22,0.44 0.49,0.88 0.81,1.31 0.33,0.44 0.66,0.85 0.99,1.22 0.33,0.37 0.64,0.7 0.94,0.98 0.3,0.28 0.52,0.48 0.68,0.6 0.08,0.1 0.18,0.19 0.31,0.26 0.12,0.08 0.24,0.13 0.36,0.15 0.13,0.02 0.24,0.01 0.34,-0.03 0.1,-0.04 0.16,-0.13 0.19,-0.26 0.03,-0.12 -0.02,-0.28 -0.14,-0.48 -0.12,-0.19 -0.29,-0.41 -0.5,-0.65 -0.21,-0.24 -0.45,-0.49 -0.72,-0.77 -0.27,-0.27 -0.55,-0.55 -0.82,-0.83 -0.28,-0.28 -0.54,-0.56 -0.78,-0.84 -0.24,-0.27 -0.45,-0.53 -0.6,-0.78 -0.16,-0.25 -0.25,-0.48 -0.28,-0.68 -0.03,-0.21 0.02,-0.38 0.16,-0.52 0.19,0.06 0.48,0.14 0.87,0.25 0.39,0.11 0.83,0.22 1.32,0.35 0.49,0.12 0.99,0.24 1.52,0.37 0.53,0.12 1.03,0.23 1.5,0.31 0.47,0.08 0.88,0.14 1.24,0.17 0.36,0.03 0.61,0.02 0.75,-0.04 0.3,-0.13 0.52,-0.31 0.63,-0.55 0.12,-0.24 0.17,-0.51 0.15,-0.82 -0.02,-0.3 -0.1,-0.63 -0.24,-0.99 -0.14,-0.35 -0.31,-0.71 -0.52,-1.07 -0.2,-0.37 -0.43,-0.72 -0.69,-1.07 -0.25,-0.35 -0.5,-0.67 -0.75,-0.96 -0.25,-0.29 -0.49,-0.55 -0.72,-0.76 -0.22,-0.22 -0.42,-0.38 -0.58,-0.47 -0.08,-0.08 -0.2,-0.16 -0.35,-0.25 -0.15,-0.08 -0.33,-0.16 -0.52,-0.23 -0.19,-0.08 -0.39,-0.14 -0.6,-0.19 -0.21,-0.05 -0.42,-0.08 -0.61,-0.08 -0.2,-0.01 -0.37,0.02 -0.53,0.07 -0.16,0.05 -0.28,0.15 -0.36,0.28 z m 3.15,12.15 c -0.03,0.14 -0.02,0.26 0.02,0.37 0.05,0.11 0.1,0.2 0.18,0.27 0.07,0.08 0.15,0.12 0.25,0.14 0.09,0.03 0.19,0.02 0.28,-0.02 l 5.51,-7.62 c 0.08,-0.12 0.1,-0.23 0.07,-0.33 -0.04,-0.1 -0.1,-0.18 -0.19,-0.24 -0.09,-0.07 -0.19,-0.11 -0.32,-0.14 -0.12,-0.03 -0.23,-0.02 -0.34,0.02 l -5.46,7.55 z m 5.38,-4.6 c -0.36,0.53 -0.59,1.07 -0.7,1.63 -0.1,0.56 -0.11,1.1 -0.02,1.61 0.09,0.52 0.27,0.99 0.52,1.43 0.25,0.44 0.55,0.8 0.91,1.1 0.38,0.35 0.81,0.59 1.27,0.71 0.47,0.12 0.93,0.14 1.38,0.06 0.45,-0.09 0.89,-0.27 1.3,-0.54 0.41,-0.28 0.76,-0.65 1.04,-1.11 0.3,-0.57 0.47,-1.12 0.51,-1.64 0.04,-0.53 -0.03,-1.03 -0.2,-1.5 -0.18,-0.48 -0.45,-0.92 -0.81,-1.34 -0.37,-0.41 -0.8,-0.79 -1.31,-1.13 -0.76,-0.52 -1.46,-0.74 -2.09,-0.65 -0.64,0.09 -1.24,0.55 -1.8,1.37 z m 1.03,0.28 c 0.29,-0.37 0.62,-0.58 0.98,-0.62 0.36,-0.04 0.72,0.03 1.08,0.22 0.36,0.19 0.7,0.46 1.02,0.83 0.31,0.36 0.56,0.76 0.75,1.19 0.19,0.43 0.29,0.88 0.31,1.33 0.02,0.46 -0.08,0.87 -0.32,1.24 -0.1,0.17 -0.26,0.35 -0.46,0.54 -0.21,0.19 -0.45,0.34 -0.73,0.45 -0.28,0.11 -0.59,0.17 -0.94,0.16 -0.36,0 -0.74,-0.11 -1.14,-0.32 -0.13,-0.1 -0.28,-0.23 -0.45,-0.41 -0.16,-0.17 -0.32,-0.38 -0.46,-0.62 -0.14,-0.24 -0.26,-0.51 -0.36,-0.81 -0.09,-0.3 -0.13,-0.62 -0.13,-0.95 0,-0.34 0.07,-0.7 0.2,-1.07 0.12,-0.38 0.34,-0.77 0.65,-1.16 z m 3.2,7.42 c 0,0.04 0.04,0.11 0.1,0.2 0.06,0.08 0.13,0.16 0.23,0.22 0.09,0.06 0.2,0.09 0.33,0.09 0.12,0 0.25,-0.06 0.38,-0.19 0.67,0.91 1.32,1.6 1.93,2.06 0.61,0.46 1.17,0.75 1.68,0.88 0.5,0.12 0.95,0.09 1.33,-0.08 0.39,-0.18 0.7,-0.46 0.92,-0.85 0.23,-0.39 0.37,-0.86 0.41,-1.42 0.05,-0.55 -0.01,-1.14 -0.18,-1.77 -0.16,-0.63 -0.45,-1.28 -0.86,-1.93 -0.4,-0.66 -0.95,-1.29 -1.63,-1.89 0.07,-0.08 0.17,-0.23 0.31,-0.44 0.14,-0.2 0.3,-0.44 0.49,-0.7 0.18,-0.27 0.37,-0.55 0.57,-0.84 0.2,-0.29 0.4,-0.57 0.59,-0.83 0.19,-0.27 0.36,-0.5 0.51,-0.71 0.15,-0.21 0.27,-0.36 0.34,-0.45 0.13,-0.13 0.2,-0.26 0.22,-0.39 0.02,-0.13 0,-0.25 -0.05,-0.37 -0.05,-0.11 -0.14,-0.22 -0.25,-0.32 -0.11,-0.1 -0.24,-0.19 -0.38,-0.27 l -6.99,10 z m 3.82,1.88 c -0.25,-0.18 -0.51,-0.4 -0.78,-0.66 -0.27,-0.27 -0.48,-0.56 -0.65,-0.87 -0.17,-0.31 -0.26,-0.64 -0.28,-0.99 -0.01,-0.35 0.11,-0.69 0.37,-1.03 l 1.55,-2.23 c 0.65,0.57 1.15,1.15 1.51,1.74 0.35,0.59 0.59,1.14 0.71,1.67 0.13,0.53 0.15,1 0.06,1.43 -0.09,0.42 -0.24,0.75 -0.47,0.99 -0.23,0.23 -0.52,0.36 -0.87,0.37 -0.35,0.01 -0.74,-0.13 -1.15,-0.42 z m 5.19,-1.6 c -0.42,0.48 -0.73,1.03 -0.93,1.65 -0.21,0.63 -0.3,1.25 -0.26,1.87 0.03,0.62 0.19,1.21 0.46,1.76 0.28,0.56 0.69,1.01 1.24,1.36 0.21,0.16 0.5,0.28 0.85,0.37 0.36,0.09 0.71,0.12 1.08,0.1 0.36,-0.02 0.7,-0.1 1.01,-0.24 0.31,-0.15 0.53,-0.37 0.67,-0.68 0.09,-0.13 0.1,-0.29 0.02,-0.47 -0.08,-0.19 -0.23,-0.38 -0.43,-0.6 -0.2,-0.21 -0.45,-0.43 -0.74,-0.67 -0.3,-0.23 -0.62,-0.48 -0.96,-0.72 -0.33,-0.25 -0.67,-0.5 -1.02,-0.75 -0.35,-0.25 -0.68,-0.5 -0.97,-0.74 0.15,-0.62 0.38,-1.07 0.67,-1.34 0.29,-0.27 0.62,-0.4 0.97,-0.4 0.36,-0.01 0.73,0.1 1.1,0.31 0.38,0.22 0.74,0.5 1.07,0.84 0.34,0.34 0.64,0.72 0.89,1.15 0.26,0.42 0.44,0.85 0.55,1.27 0.04,0.03 0.1,0.05 0.18,0.07 0.08,0.01 0.16,0.02 0.25,0.02 0.08,-0.01 0.17,-0.02 0.24,-0.04 0.08,-0.02 0.13,-0.05 0.15,-0.08 0.03,-0.39 -0.05,-0.81 -0.23,-1.25 -0.18,-0.45 -0.43,-0.88 -0.75,-1.29 -0.32,-0.42 -0.69,-0.8 -1.12,-1.13 -0.43,-0.34 -0.87,-0.6 -1.33,-0.77 -0.46,-0.17 -0.92,-0.23 -1.38,-0.19 -0.47,0.04 -0.9,0.24 -1.28,0.59 z m 2.86,5.74 c -0.19,0.22 -0.42,0.34 -0.66,0.35 -0.25,0.01 -0.49,-0.04 -0.73,-0.15 -0.25,-0.11 -0.48,-0.28 -0.69,-0.49 -0.22,-0.21 -0.4,-0.44 -0.55,-0.67 -0.15,-0.23 -0.25,-0.46 -0.3,-0.67 -0.06,-0.22 -0.05,-0.39 0.03,-0.52 l 2.9,2.15 z m 8.68,2.87 c -0.02,0.03 -0.02,0.09 0,0.18 0.01,0.09 0.04,0.14 0.07,0.16 0.29,0.28 0.54,0.51 0.76,0.71 0.22,0.2 0.42,0.38 0.61,0.54 0.19,0.17 0.36,0.32 0.54,0.46 0.17,0.15 0.34,0.3 0.52,0.46 0.18,0.16 0.37,0.34 0.57,0.53 0.2,0.19 0.43,0.42 0.69,0.68 0.18,0.13 0.34,0.15 0.48,0.07 0.14,-0.09 0.25,-0.22 0.33,-0.41 -0.46,-0.31 -0.84,-0.62 -1.15,-0.92 -0.3,-0.31 -0.59,-0.6 -0.87,-0.9 -0.27,-0.3 -0.56,-0.59 -0.86,-0.89 -0.3,-0.29 -0.67,-0.59 -1.11,-0.89 -0.1,-0.06 -0.19,-0.08 -0.28,-0.06 -0.09,0.03 -0.19,0.12 -0.3,0.28 z m -1.06,1.93 c -0.01,0.01 0.05,0.07 0.17,0.18 0.12,0.1 0.27,0.23 0.45,0.39 0.19,0.16 0.4,0.34 0.63,0.54 0.24,0.21 0.48,0.41 0.73,0.63 0.25,0.21 0.49,0.42 0.73,0.63 0.24,0.21 0.46,0.4 0.65,0.58 0.1,0.13 0.2,0.19 0.29,0.2 0.1,0.01 0.18,-0.02 0.24,-0.09 0.07,-0.07 0.11,-0.16 0.14,-0.27 0.02,-0.11 0.01,-0.22 -0.03,-0.32 l -3.2,-2.88 c -0.04,-0.03 -0.09,-0.06 -0.15,-0.11 -0.06,-0.04 -0.12,-0.08 -0.2,-0.12 -0.07,-0.03 -0.14,-0.05 -0.2,-0.05 -0.07,-0.01 -0.14,0.02 -0.2,0.09 l -0.05,0.6 z"
           style="fill:#404040;fill-opacity:1;fill-rule:nonzero;stroke:none"
           id="path150"
           inkscape:connector-curvature="0" /></g></g><g
       id="g152"
       inkscape:export-xdpi="350"
       inkscape:export-ydpi="350"><g
         id="g154"
         clip-path="url(#clipPath156)"><path
           d="m 549.76,401.53 c -0.22,0.38 -0.43,0.81 -0.64,1.29 -0.2,0.48 -0.37,0.98 -0.5,1.5 -0.14,0.52 -0.23,1.05 -0.28,1.59 -0.06,0.54 -0.04,1.05 0.04,1.54 0.08,0.5 0.23,0.95 0.45,1.36 0.23,0.42 0.55,0.77 0.97,1.05 0.55,0.38 1.1,0.59 1.67,0.64 0.56,0.06 1.1,-0.02 1.63,-0.21 0.52,-0.2 1.01,-0.5 1.48,-0.9 0.46,-0.39 0.87,-0.85 1.22,-1.37 0.46,-0.68 0.76,-1.35 0.9,-2.01 0.14,-0.67 0.15,-1.31 0.01,-1.92 -0.13,-0.61 -0.4,-1.19 -0.8,-1.73 -0.4,-0.54 -0.9,-1.02 -1.52,-1.43 -0.3,-0.21 -0.66,-0.38 -1.07,-0.52 -0.41,-0.14 -0.83,-0.2 -1.27,-0.19 -0.44,0.01 -0.86,0.11 -1.26,0.31 -0.41,0.19 -0.75,0.53 -1.03,1 z m 0.85,0.73 c 0.26,-0.38 0.53,-0.66 0.81,-0.83 0.29,-0.16 0.58,-0.26 0.88,-0.27 0.29,-0.01 0.59,0.05 0.9,0.16 0.3,0.12 0.59,0.27 0.88,0.47 0.96,0.75 1.51,1.59 1.65,2.52 0.13,0.93 -0.11,1.98 -0.74,3.16 -0.71,1.08 -1.48,1.75 -2.31,2.01 -0.82,0.25 -1.69,0.03 -2.58,-0.66 -0.32,-0.25 -0.54,-0.55 -0.68,-0.92 -0.13,-0.36 -0.2,-0.76 -0.2,-1.18 0,-0.43 0.04,-0.87 0.14,-1.32 0.1,-0.45 0.22,-0.87 0.36,-1.28 0.15,-0.41 0.3,-0.77 0.46,-1.1 0.16,-0.33 0.3,-0.58 0.43,-0.76 z m 8.77,2.13 c -0.17,-0.09 -0.3,-0.09 -0.39,-0.01 -0.08,0.08 -0.13,0.19 -0.14,0.33 -0.02,0.14 0,0.28 0.05,0.43 0.06,0.15 0.14,0.25 0.25,0.28 0.16,0.12 0.3,0.16 0.41,0.13 0.11,-0.03 0.21,-0.11 0.3,-0.24 0.07,-0.09 0.09,-0.19 0.08,-0.27 -0.01,-0.09 -0.04,-0.17 -0.1,-0.25 -0.06,-0.08 -0.13,-0.15 -0.21,-0.22 -0.09,-0.07 -0.17,-0.13 -0.25,-0.18 z m 1.24,1.48 c 0.5,0.49 0.92,1.01 1.26,1.55 0.34,0.55 0.61,1.08 0.8,1.6 0.19,0.52 0.31,1 0.36,1.45 0.06,0.45 0.04,0.83 -0.03,1.14 -0.07,0.31 -0.2,0.53 -0.39,0.66 -0.19,0.12 -0.44,0.12 -0.73,-0.02 -0.3,-0.13 -0.64,-0.42 -1.03,-0.85 -0.39,-0.43 -0.83,-1.05 -1.31,-1.86 l -0.87,0.33 c 0.1,0.2 0.23,0.45 0.39,0.75 0.16,0.3 0.31,0.63 0.48,0.98 0.16,0.35 0.32,0.71 0.48,1.08 0.15,0.36 0.28,0.72 0.39,1.06 0.11,0.33 0.19,0.64 0.24,0.93 0.04,0.28 0.03,0.5 -0.02,0.67 -0.06,0.17 -0.18,0.27 -0.36,0.3 -0.18,0.02 -0.44,-0.04 -0.78,-0.19 -0.37,-0.26 -0.69,-0.53 -0.94,-0.83 -0.25,-0.29 -0.49,-0.59 -0.71,-0.89 -0.22,-0.3 -0.45,-0.6 -0.7,-0.89 -0.25,-0.29 -0.55,-0.56 -0.92,-0.81 -0.04,0.05 -0.08,0.11 -0.13,0.19 -0.05,0.08 -0.09,0.17 -0.12,0.26 -0.04,0.09 -0.06,0.18 -0.06,0.27 -0.01,0.09 0.02,0.18 0.07,0.25 0.3,0.34 0.6,0.7 0.9,1.07 0.31,0.37 0.62,0.72 0.93,1.05 0.31,0.33 0.62,0.62 0.92,0.89 0.3,0.27 0.6,0.48 0.9,0.63 0.29,0.16 0.57,0.24 0.85,0.25 0.27,0.01 0.53,-0.07 0.78,-0.25 0.17,-0.26 0.27,-0.54 0.3,-0.86 0.03,-0.32 0.03,-0.65 -0.01,-0.99 -0.04,-0.34 -0.1,-0.67 -0.18,-0.99 -0.08,-0.32 -0.14,-0.6 -0.18,-0.84 0.61,0.36 1.11,0.56 1.51,0.58 0.41,0.02 0.72,-0.09 0.95,-0.31 0.23,-0.23 0.38,-0.55 0.45,-0.97 0.07,-0.42 0.07,-0.88 0.01,-1.39 -0.05,-0.5 -0.17,-1.03 -0.34,-1.57 -0.18,-0.54 -0.39,-1.05 -0.64,-1.53 -0.26,-0.47 -0.54,-0.89 -0.85,-1.24 -0.32,-0.36 -0.66,-0.6 -1.01,-0.73 -0.1,-0.07 -0.21,-0.11 -0.34,-0.12 -0.12,-0.01 -0.23,0.06 -0.32,0.19 z m 5.97,13.96 c -0.43,-0.29 -0.81,-0.58 -1.13,-0.87 -0.32,-0.28 -0.64,-0.56 -0.95,-0.84 -0.3,-0.27 -0.62,-0.55 -0.96,-0.82 -0.33,-0.28 -0.73,-0.55 -1.18,-0.82 -0.05,-0.01 -0.11,0 -0.18,0.03 -0.07,0.03 -0.13,0.07 -0.2,0.11 -0.06,0.04 -0.11,0.09 -0.16,0.14 -0.05,0.05 -0.09,0.09 -0.11,0.13 -0.05,0.07 -0.07,0.13 -0.08,0.2 0,0.06 0.03,0.15 0.09,0.24 0.58,0.37 1.1,0.74 1.55,1.12 0.45,0.38 0.88,0.76 1.3,1.15 0.42,0.39 0.85,0.78 1.28,1.16 0.44,0.39 0.93,0.77 1.48,1.14 0.13,0.09 0.25,0.12 0.37,0.09 0.12,-0.02 0.22,-0.1 0.3,-0.24 -0.06,-0.43 -0.09,-0.92 -0.08,-1.47 0,-0.55 0.04,-1.12 0.11,-1.72 0.07,-0.6 0.17,-1.21 0.3,-1.83 0.13,-0.62 0.29,-1.22 0.49,-1.79 0.2,-0.57 0.42,-1.09 0.68,-1.58 0.26,-0.48 0.56,-0.89 0.89,-1.23 -0.18,-0.22 -0.34,-0.38 -0.47,-0.48 -0.14,-0.1 -0.26,-0.16 -0.35,-0.18 -0.1,-0.03 -0.18,-0.03 -0.23,0 -0.06,0.02 -0.09,0.05 -0.12,0.08 -0.29,0.33 -0.55,0.74 -0.78,1.21 -0.23,0.47 -0.44,0.97 -0.62,1.49 -0.19,0.53 -0.35,1.07 -0.48,1.63 -0.14,0.55 -0.26,1.08 -0.35,1.58 -0.1,0.5 -0.18,0.96 -0.25,1.37 -0.06,0.41 -0.12,0.75 -0.16,1 z m 6.84,4.66 c -0.43,-0.29 -0.81,-0.58 -1.13,-0.87 -0.32,-0.28 -0.63,-0.56 -0.94,-0.84 -0.31,-0.27 -0.63,-0.55 -0.96,-0.82 -0.34,-0.28 -0.73,-0.55 -1.19,-0.82 -0.05,-0.01 -0.11,0 -0.18,0.03 -0.07,0.03 -0.13,0.07 -0.19,0.11 -0.06,0.04 -0.12,0.09 -0.17,0.14 -0.05,0.05 -0.08,0.09 -0.11,0.13 -0.04,0.07 -0.07,0.13 -0.07,0.2 0,0.06 0.03,0.14 0.08,0.24 0.58,0.37 1.1,0.74 1.55,1.12 0.45,0.38 0.89,0.76 1.31,1.15 0.42,0.39 0.85,0.78 1.28,1.16 0.43,0.39 0.92,0.77 1.47,1.14 0.13,0.09 0.26,0.12 0.38,0.09 0.12,-0.02 0.22,-0.1 0.29,-0.24 -0.06,-0.43 -0.08,-0.92 -0.08,-1.47 0.01,-0.55 0.04,-1.12 0.11,-1.72 0.07,-0.6 0.17,-1.21 0.3,-1.83 0.13,-0.63 0.29,-1.22 0.49,-1.79 0.2,-0.57 0.43,-1.1 0.69,-1.58 0.26,-0.49 0.55,-0.89 0.88,-1.23 -0.17,-0.22 -0.33,-0.38 -0.47,-0.48 -0.13,-0.1 -0.25,-0.16 -0.35,-0.18 -0.1,-0.03 -0.17,-0.03 -0.23,0 -0.05,0.02 -0.09,0.05 -0.11,0.08 -0.29,0.33 -0.55,0.74 -0.79,1.21 -0.23,0.47 -0.43,0.97 -0.62,1.49 -0.18,0.53 -0.34,1.07 -0.48,1.63 -0.13,0.55 -0.25,1.08 -0.35,1.58 -0.09,0.5 -0.17,0.96 -0.24,1.37 -0.07,0.41 -0.12,0.75 -0.17,1 z"
           style="fill:#404040;fill-opacity:1;fill-rule:nonzero;stroke:none"
           id="path160"
           inkscape:connector-curvature="0" /></g></g><path
       d="m 653.3,342.34 0.06,1.04 0.09,1.11 0.07,0.85 1,-0.08 -0.07,-0.86 -0.09,-1.08 -0.06,-1.04 -1,0.06 z m 0.32,4 0.05,0.5 0.27,2.49 1,-0.11 -0.28,-2.48 -0.05,-0.5 -0.99,0.1 z m 0.44,3.99 0.2,1.69 0.15,1.29 0.99,-0.12 -0.15,-1.29 -0.2,-1.69 -0.99,0.12 z m 0.46,3.97 0.06,0.51 0.27,2.47 1,-0.11 -0.27,-2.47 -0.06,-0.51 -1,0.11 z m 0.44,3.97 0.23,2.47 0.04,0.51 1,-0.08 -0.04,-0.52 -0.24,-2.48 -0.99,0.1 z m 0.35,3.97 0.13,1.59 0.07,1.39 1,-0.05 -0.08,-1.41 -0.12,-1.6 -1,0.08 z m 0.26,3.98 0.04,0.76 0.06,2.23 1,-0.03 -0.06,-2.25 -0.04,-0.76 -1,0.05 z m 0.13,3.97 -0.02,3 1,0.01 0.02,-3 -1,-0.01 z m -0.06,3.98 -0.11,2.4 -0.06,0.57 1,0.09 0.05,-0.61 0.12,-2.41 -1,-0.04 z m -0.26,3.97 -0.15,1.62 -0.18,1.34 0.99,0.13 0.18,-1.38 0.15,-1.62 -0.99,-0.09 z m -0.48,3.93 -0.14,0.83 -0.3,1.55 -0.12,0.53 0.97,0.23 0.13,-0.57 0.31,-1.58 0.13,-0.83 -0.98,-0.16 z m -0.79,3.89 0,0.03 -0.41,1.51 -0.4,1.31 0.96,0.29 0.41,-1.34 0.41,-1.55 0.01,-0.03 -0.98,-0.22 z m -1.13,3.78 -0.25,0.73 -0.58,1.44 -0.26,0.57 0.91,0.41 0.28,-0.6 0.59,-1.49 0.26,-0.73 -0.95,-0.33 z m -1.49,3.64 -0.67,1.34 -0.73,1.28 0.87,0.49 0.75,-1.32 0.67,-1.35 -0.89,-0.44 z m -1.92,3.44 -0.36,0.56 -0.91,1.28 -0.45,0.56 0.79,0.62 0.47,-0.6 0.94,-1.32 0.36,-0.56 -0.84,-0.54 z m -2.33,3.16 -0.98,1.12 -1.04,1.05 0.71,0.7 1.08,-1.09 0.98,-1.12 -0.75,-0.66 z m -2.74,2.83 -0.6,0.55 -1.31,1.06 -0.36,0.26 0.59,0.81 0.4,-0.3 1.35,-1.09 0.61,-0.55 -0.68,-0.74 z m -3.08,2.46 -0.22,0.16 -1.49,0.96 -0.78,0.44 0.49,0.87 0.83,-0.47 1.53,-0.99 0.23,-0.16 -0.59,-0.81 z m -3.34,2.04 -1.62,0.82 -1.06,0.47 0.4,0.91 1.11,-0.49 1.62,-0.81 -0.45,-0.9 z m -3.58,1.67 -1.69,0.65 -1.11,0.37 0.32,0.95 1.14,-0.38 1.7,-0.65 -0.36,-0.94 z m -3.72,1.33 -2.04,0.57 -0.84,0.2 0.23,0.97 0.88,-0.21 2.04,-0.57 -0.27,-0.96 z m -3.85,1 -0.38,0.1 -2.31,0.44 -0.22,0.03 0.16,0.99 0.24,-0.04 2.36,-0.45 0.38,-0.09 -0.23,-0.98 z m -3.89,0.73 -1.22,0.18 -1.74,0.21 0.12,0.99 1.77,-0.21 1.22,-0.19 -0.15,-0.98 z m -3.94,0.49 -2.49,0.21 -0.48,0.02 0.05,1 0.51,-0.03 2.5,-0.2 -0.09,-1 z m -3.97,0.28 -1.3,0.06 -1.68,0.03 0.02,1 1.71,-0.03 1.3,-0.06 -0.05,-1 z m -3.98,0.11 -0.23,0 -2.76,-0.03 -0.01,1 2.79,0.03 0.23,0 -0.02,-1 z m -3.97,-0.06 -2.47,-0.1 -0.52,-0.04 -0.06,1 0.54,0.04 2.47,0.1 0.04,-1 z m -3.98,-0.2 -1.79,-0.12 -1.19,-0.11 -0.09,1 1.22,0.11 1.78,0.12 0.07,-1 z m -3.98,-0.32 -1.24,-0.11 -1.73,-0.2 -0.11,0.99 1.74,0.2 1.25,0.12 0.09,-1 z m 2.27,-3.16 -7.15,3.13 6.25,4.68 c 0.22,0.16 0.53,0.12 0.7,-0.1 0.16,-0.22 0.12,-0.54 -0.1,-0.7 l -5.56,-4.16 -0.1,0.85 6.36,-2.79 c 0.25,-0.11 0.37,-0.4 0.26,-0.66 -0.11,-0.25 -0.41,-0.36 -0.66,-0.25 z"
       style="fill:#bfbfbf;fill-opacity:1;fill-rule:nonzero;stroke:none"
       id="path162"
       inkscape:connector-curvature="0"
       inkscape:export-xdpi="350"
       inkscape:export-ydpi="350" /><text
       transform="matrix(1,0,0,-1,622.25,321.94)"
       style="font-variant:normal;font-weight:normal;font-size:12px;font-family:'Architects Daughter';-inkscape-font-specification:'Architects Daughter';writing-mode:lr-tb;fill:#404040;fill-opacity:1;fill-rule:nonzero;stroke:none"
       id="text164"
       inkscape:export-xdpi="350"
       inkscape:export-ydpi="350"><tspan
         x="0 9.6120005 16.799999 22.799999 32.652 41.400002 50.771999"
         y="0"
         sodipodi:role="line"
         id="tspan166">An OLS </tspan></text>
<text
       transform="matrix(1,0,0,-1,622.25,307.54)"
       style="font-variant:normal;font-weight:normal;font-size:12px;font-family:'Architects Daughter';-inkscape-font-specification:'Architects Daughter';writing-mode:lr-tb;fill:#404040;fill-opacity:1;fill-rule:nonzero;stroke:none"
       id="text168"
       inkscape:export-xdpi="350"
       inkscape:export-ydpi="350"><tspan
         x="0 6.7199998 14.4 22.308001 29.028 36.708 43.428001 50.147999 52.416 60.335999 67.524002"
         y="0"
         sodipodi:role="line"
         id="tspan170">regression </tspan></text>
<text
       transform="matrix(1,0,0,-1,622.25,293.14)"
       style="font-variant:normal;font-weight:normal;font-size:12px;font-family:'Architects Daughter';-inkscape-font-specification:'Architects Daughter';writing-mode:lr-tb;fill:#404040;fill-opacity:1;fill-rule:nonzero;stroke:none"
       id="text172"
       inkscape:export-xdpi="350"
       inkscape:export-ydpi="350"><tspan
         x="0 1.944 4.2119999 11.4 19.08 25.08 27.348 34.080002 40.080002 48.827999 51.096001 57.228001 63.228001 69.335999 77.244003"
         y="0"
         sodipodi:role="line"
         id="tspan174">line is fit to </tspan></text>
<text
       transform="matrix(1,0,0,-1,622.25,278.71)"
       style="font-variant:normal;font-weight:normal;font-size:12.02400017px;font-family:'Architects Daughter';-inkscape-font-specification:'Architects Daughter';writing-mode:lr-tb;fill:#404040;fill-opacity:1;fill-rule:nonzero;stroke:none"
       id="text176"
       inkscape:export-xdpi="350"
       inkscape:export-ydpi="350"><tspan
         x="0 6.0841441 13.527 21.234385 27.246384 34.917698 42.56496 47.999809"
         y="0"
         sodipodi:role="line"
         id="tspan178">the data</tspan></text>
</g></svg>