<?xml version="1.0" encoding="UTF-8" standalone="no"?>
<!-- Created with Inkscape (http://www.inkscape.org/) -->

<svg
   xmlns:dc="http://purl.org/dc/elements/1.1/"
   xmlns:cc="http://creativecommons.org/ns#"
   xmlns:rdf="http://www.w3.org/1999/02/22-rdf-syntax-ns#"
   xmlns:svg="http://www.w3.org/2000/svg"
   xmlns="http://www.w3.org/2000/svg"
   xmlns:sodipodi="http://sodipodi.sourceforge.net/DTD/sodipodi-0.dtd"
   xmlns:inkscape="http://www.inkscape.org/namespaces/inkscape"
   id="svg2"
   version="1.1"
   inkscape:version="0.91 r13725"
   xml:space="preserve"
   width="160"
   height="115"
   viewBox="0 0 160 115"
   sodipodi:docname="Ellipsoid.svg"><metadata
     id="metadata8"><rdf:RDF><cc:Work
         rdf:about=""><dc:format>image/svg+xml</dc:format><dc:type
           rdf:resource="http://purl.org/dc/dcmitype/StillImage" /><dc:title></dc:title></cc:Work></rdf:RDF></metadata><defs
     id="defs6"><clipPath
       clipPathUnits="userSpaceOnUse"
       id="clipPath16"><path
         d="m 0,0 144,0 0,122.4 -144,0 L 0,0 Z"
         id="path18"
         inkscape:connector-curvature="0" /></clipPath><clipPath
       clipPathUnits="userSpaceOnUse"
       id="clipPath32"><path
         d="m 0,0 144,0 0,122.4 -144,0 L 0,0 Z"
         id="path34"
         inkscape:connector-curvature="0" /></clipPath><clipPath
       clipPathUnits="userSpaceOnUse"
       id="clipPath44"><path
         d="m 0,0 144,0 0,122.4 -144,0 L 0,0 Z"
         id="path46"
         inkscape:connector-curvature="0" /></clipPath></defs><sodipodi:namedview
     pagecolor="#ffffff"
     bordercolor="#666666"
     borderopacity="1"
     objecttolerance="10"
     gridtolerance="10"
     guidetolerance="10"
     inkscape:pageopacity="0"
     inkscape:pageshadow="2"
     inkscape:window-width="1660"
     inkscape:window-height="840"
     id="namedview4"
     showgrid="false"
     fit-margin-top="0"
     fit-margin-left="0"
     fit-margin-right="0"
     fit-margin-bottom="0"
     inkscape:zoom="2.7157395"
     inkscape:cx="-21.560147"
     inkscape:cy="77.993224"
     inkscape:window-x="0"
     inkscape:window-y="0"
     inkscape:window-maximized="0"
     inkscape:current-layer="g10" /><g
     id="g10"
     inkscape:groupmode="layer"
     inkscape:label="Ellipsoid"
     transform="matrix(1.25,0,0,-1.25,-13.75,137.76562)"><g
       id="g12"><g
         id="g14"
         clip-path="url(#clipPath16)"><g
           id="g20"
           transform="translate(12,64.2125)"><path
             d="M 0,0 C 0,24.853 28.206,45 63,45 97.794,45 126,24.853 126,0 126,-24.853 97.794,-45 63,-45 28.206,-45 0,-24.853 0,0"
             style="fill:#ffffff;fill-opacity:1;fill-rule:evenodd;stroke:none"
             id="path22"
             inkscape:connector-curvature="0" /></g><g
           id="g24"
           transform="translate(12,64.2125)"><path
             d="M 0,0 C 0,24.853 28.206,45 63,45 97.794,45 126,24.853 126,0 126,-24.853 97.794,-45 63,-45 28.206,-45 0,-24.853 0,0 Z"
             style="fill:none;stroke:#808080;stroke-width:2;stroke-linecap:butt;stroke-linejoin:round;stroke-miterlimit:10;stroke-dasharray:none;stroke-opacity:1"
             id="path26"
             inkscape:connector-curvature="0" /></g></g></g><g
       id="g28"><g
         id="g30"
         clip-path="url(#clipPath32)"><g
           id="g36"
           transform="translate(75,109.2125)"><path
             d="M 0,0 0,-45"
             style="fill:none;stroke:#808080;stroke-width:0.75;stroke-linecap:butt;stroke-linejoin:round;stroke-miterlimit:10;stroke-dasharray:2.25, 0.75;stroke-dashoffset:0;stroke-opacity:1"
             id="path38"
             inkscape:connector-curvature="0" /></g></g></g><g
       id="g40"><g
         id="g42"
         clip-path="url(#clipPath44)"><g
           id="g48"
           transform="translate(75,64.2125)"><path
             d="M 0,0 63,0"
             style="fill:none;stroke:#808080;stroke-width:0.75;stroke-linecap:butt;stroke-linejoin:round;stroke-miterlimit:10;stroke-dasharray:2.25, 0.75;stroke-dashoffset:0;stroke-opacity:1"
             id="path50"
             inkscape:connector-curvature="0" /></g></g></g><text
       transform="matrix(1,0,0,-1,77.355,51.3442)"
       style="font-variant:normal;font-weight:normal;font-stretch:normal;font-size:10.02000046px;font-family:Calibri;-inkscape-font-specification:Calibri;writing-mode:lr-tb;fill:#000000;fill-opacity:1;fill-rule:nonzero;stroke:none"
       id="text52"><tspan
         x="0 4.6192198 9.5991602 17.575081 19.849621 22.915739 30.891661 35.691238 38.096039 43.376579 46.853519"
         y="0"
         sodipodi:role="line"
         id="tspan54">Semi-major </tspan><tspan
         x="-51.94368 -47.324459 -42.344521 -34.368599 -32.094059 -29.027941 -21.052019 -18.777479 -13.49694 -8.2164001 -4.73946"
         y="-26.783461"
         sodipodi:role="line"
         id="tspan56">Semi-minor </tspan></text>
</g></svg>