<?xml version="1.0" encoding="UTF-8" standalone="no"?>
<!-- Created with Inkscape (http://www.inkscape.org/) -->

<svg
   xmlns:dc="http://purl.org/dc/elements/1.1/"
   xmlns:cc="http://creativecommons.org/ns#"
   xmlns:rdf="http://www.w3.org/1999/02/22-rdf-syntax-ns#"
   xmlns:svg="http://www.w3.org/2000/svg"
   xmlns="http://www.w3.org/2000/svg"
   xmlns:sodipodi="http://sodipodi.sourceforge.net/DTD/sodipodi-0.dtd"
   xmlns:inkscape="http://www.inkscape.org/namespaces/inkscape"
   id="svg2"
   version="1.1"
   inkscape:version="0.91 r13725"
   xml:space="preserve"
   width="287.40375"
   height="271.78415"
   viewBox="0 0 287.40374 271.78415"
   sodipodi:docname="HR90.svg"
   inkscape:export-filename="D:\mgimond\GitHub\ES214\img\HR90.png"
   inkscape:export-xdpi="350"
   inkscape:export-ydpi="350"><metadata
     id="metadata8"><rdf:RDF><cc:Work
         rdf:about=""><dc:format>image/svg+xml</dc:format><dc:type
           rdf:resource="http://purl.org/dc/dcmitype/StillImage" /><dc:title></dc:title></cc:Work></rdf:RDF></metadata><defs
     id="defs6"><clipPath
       clipPathUnits="userSpaceOnUse"
       id="clipPath16"><path
         d="m 54.00071,738.00308 0,-683.96098 504.00659,0 0,683.96098 -504.00659,0 z"
         id="path18"
         inkscape:connector-curvature="0"
         style="clip-rule:evenodd" /></clipPath><clipPath
       clipPathUnits="userSpaceOnUse"
       id="clipPath158"><path
         d="M 0,792 0,0 612,0 612,792 0,792 Z"
         id="path160"
         inkscape:connector-curvature="0"
         style="clip-rule:evenodd" /></clipPath><clipPath
       clipPathUnits="userSpaceOnUse"
       id="clipPath168"><path
         d="M 0,792 0,0 612,0 612,792 0,792 Z"
         id="path170"
         inkscape:connector-curvature="0"
         style="clip-rule:evenodd" /></clipPath><clipPath
       clipPathUnits="userSpaceOnUse"
       id="clipPath184"><path
         d="M 0,792 0,0 612,0 612,792 0,792 Z"
         id="path186"
         inkscape:connector-curvature="0"
         style="clip-rule:evenodd" /></clipPath></defs><sodipodi:namedview
     pagecolor="#ffffff"
     bordercolor="#666666"
     borderopacity="1"
     objecttolerance="10"
     gridtolerance="10"
     guidetolerance="10"
     inkscape:pageopacity="0"
     inkscape:pageshadow="2"
     inkscape:window-width="1227"
     inkscape:window-height="783"
     id="namedview4"
     showgrid="false"
     inkscape:zoom="2.2665045"
     inkscape:cx="143.70188"
     inkscape:cy="135.89207"
     inkscape:window-x="190"
     inkscape:window-y="360"
     inkscape:window-maximized="0"
     inkscape:current-layer="g10"
     fit-margin-top="0"
     fit-margin-left="0"
     fit-margin-right="0"
     fit-margin-bottom="0" /><g
     id="g10"
     inkscape:groupmode="layer"
     inkscape:label="HR90"
     transform="matrix(1.25,0,0,-1.25,-252.90331,575.72365)"><g
       id="g12"><g
         id="g14"
         clip-path="url(#clipPath16)"><path
           d="m 263.76345,451.21944 0,0.95995 0.96001,1.6799 1.20002,1.19993 0.24,1.19993 0.96001,0.71996 0.24001,0 14.40019,-0.47997 0,-0.71996 0.96001,-0.47997 0,-1.43992 0.96001,-1.19993 0.24,-1.67991 -0.24,-1.43991 0.24,-0.95995 0.24001,-0.71996 0.72001,-0.47997 0.72001,-0.95995 0,-0.23998 -0.24001,-1.19993 -1.92002,-2.39987 -7.2001,0.47998 0,-1.43992 -6.48008,0.47997 -1.44002,0 0.48001,7.43958 -1.68003,0.23998 0,1.43992 -3.36004,0 z"
           style="fill:#a63121;fill-opacity:1;fill-rule:evenodd;stroke:#6e6e6e;stroke-width:0.48001;stroke-linecap:round;stroke-linejoin:round;stroke-miterlimit:10;stroke-dasharray:none;stroke-opacity:1"
           id="path20"
           inkscape:connector-curvature="0" /><path
           d="m 263.76345,451.21944 -0.24,-0.95994 -0.48001,-0.71996 0,-0.95995 -3.60005,0 0,0.95995 -0.48,0 0,0.47997 -1.92003,0.23999 -0.24,-1.67991 -0.96001,-1.19993 -5.76008,0.23999 0.72001,9.83943 16.32021,-0.47997 -0.96001,-0.71996 -0.24,-1.19993 -1.20002,-1.19993 -0.96001,-1.6799 0,-0.95995 z"
           style="fill:#cf705f;fill-opacity:1;fill-rule:evenodd;stroke:#6e6e6e;stroke-width:0.48001;stroke-linecap:round;stroke-linejoin:round;stroke-miterlimit:10;stroke-dasharray:none;stroke-opacity:1"
           id="path22"
           inkscape:connector-curvature="0" /><path
           d="m 251.28329,437.06025 -0.24001,-4.79973 -12.00015,4.55974 0,0.71996 4.56006,-0.47997 0,0.95994 3.60004,-1.6799 0,1.43992 -2.88003,2.39986 -5.28007,-0.71996 1.20001,18.47895 6.00008,-0.23999 4.56006,-0.23999 -0.72001,-9.83943 5.76008,-0.23999 -0.72001,-0.71996 0,-0.47997 -0.72001,-0.47997 -0.48001,-0.47998 0,-1.19993 0.72001,-1.19993 0.24,-1.19993 0,-0.71996 0.48001,-0.95995 -0.48001,-0.95994 -0.48,0 -0.48001,-0.95995 -1.68002,0.23999 -0.48001,-0.23999 -0.24,-0.71996 -0.24,-0.23998 z"
           style="fill:#ba4e3d;fill-opacity:1;fill-rule:evenodd;stroke:#6e6e6e;stroke-width:0.48001;stroke-linecap:round;stroke-linejoin:round;stroke-miterlimit:10;stroke-dasharray:none;stroke-opacity:1"
           id="path24"
           inkscape:connector-curvature="0" /><path
           d="m 255.84335,447.37966 0.96001,1.19993 0.24,1.67991 1.92003,-0.23999 0,-0.47997 0.48,0 0,-0.95995 3.60005,0 0,0.95995 0.48001,0.71996 0.24,0.95994 3.36004,0 0,-1.43992 1.68003,-0.23998 -0.48001,-7.43958 -1.68002,0 -0.24001,-4.55974 -11.04014,0.47997 -0.24,-0.71996 -0.72001,-0.23998 -0.48001,0 -0.48,0.23998 -1.44002,-0.47997 -0.72001,0.23999 0.24,0.23998 0.24,0.71996 0.48001,0.23999 1.68002,-0.23999 0.48001,0.95995 0.48,0 0.48001,0.95994 -0.48001,0.95995 0,0.71996 -0.24,1.19993 -0.72001,1.19993 0,1.19993 0.48001,0.47998 0.72001,0.47997 0,0.47997 0.72001,0.71996 z"
           style="fill:#ffe0e0;fill-opacity:1;fill-rule:evenodd;stroke:#6e6e6e;stroke-width:0.48001;stroke-linecap:round;stroke-linejoin:round;stroke-miterlimit:10;stroke-dasharray:none;stroke-opacity:1"
           id="path26"
           inkscape:connector-curvature="0" /><path
           d="m 370.32484,432.26052 0.48001,0.47997 -0.24,1.91989 0.48,0.23999 0.24001,1.19993 0.48,3.35981 -0.24,0.95995 -0.72001,1.91989 0.24,3.59979 0.72001,0.23999 -0.24,0.95994 1.20002,-0.47997 0.48,0.71996 0.24001,0.71996 0.48,0.23998 0.96001,-0.47997 0.24001,0.47997 0.72001,-0.95994 2.16002,-0.47997 0.72001,-0.71996 0.72001,0.23998 0.48001,-0.23998 0.72001,-0.71996 2.16003,-0.47997 0.48,0 0.72001,-0.47998 0,0.23999 2.16003,-0.71996 0.24,0.71996 0.72001,-4.31975 -0.48,-1.67991 -0.48001,-0.71996 -0.48,0 -0.24001,0.23999 -0.72001,0 -0.24,0.71996 -0.72001,0 0.24,0.23998 -0.72001,0.47998 -0.72001,0 -0.48,-0.95995 -0.24001,0.23999 -1.20001,0.47997 -0.72001,-0.71996 0,-0.47997 -0.72001,0 -0.24,-1.19993 -0.72001,-0.23999 -7.6801,-7.91955 -0.24001,3.35981 z"
           style="fill:#a63121;fill-opacity:1;fill-rule:evenodd;stroke:#6e6e6e;stroke-width:0.48001;stroke-linecap:round;stroke-linejoin:round;stroke-miterlimit:10;stroke-dasharray:none;stroke-opacity:1"
           id="path28"
           inkscape:connector-curvature="0" /><path
           d="m 303.12397,444.9798 -0.48001,-0.47998 -0.24,-1.19993 -0.72001,-1.19993 -0.72001,-0.23999 -0.72001,-0.95994 -0.72001,-1.19993 0.24,-0.47998 -0.48,-0.47997 0,-0.71996 -0.48001,-0.47997 -0.96001,-0.23999 -3.36005,-0.47997 -0.72001,-0.71996 -1.20001,-0.23998 -0.96002,-0.71996 -0.72,0 0.24,0.95994 -1.20002,0 0,1.43992 -1.92002,0.23999 0,1.43991 -0.96002,0 0,0.71996 -2.16002,0.23999 0,2.39986 -1.44002,0 1.92002,2.39987 0.24001,1.19993 14.88019,-0.95995 2.64004,-0.23998 z"
           style="fill:#8f0a0a;fill-opacity:1;fill-rule:evenodd;stroke:#6e6e6e;stroke-width:0.48001;stroke-linecap:round;stroke-linejoin:round;stroke-miterlimit:10;stroke-dasharray:none;stroke-opacity:1"
           id="path30"
           inkscape:connector-curvature="0" /><path
           d="m 291.60381,435.14036 0.96002,0.71996 1.20001,0.23998 0.72001,0.71996 3.36005,0.47997 0.96001,0.23999 0.48001,0.47997 0,0.71996 0.48,0.47997 -0.24,0.47998 0.72001,1.19993 0.72001,0.95994 0.72001,0.23999 0.72001,1.19993 0.24,1.19993 0.48001,0.47998 6.24008,-0.71996 2.40003,0 -0.24,-2.63985 0.24,-0.71996 0.72001,-1.19993 -0.24001,-0.71996 -1.92002,0 0,-1.91989 -1.20002,-0.95995 -0.24,-5.51968 -5.04007,0 0,0.95994 -14.16018,0.47998 0.48001,0.47997 -0.24001,0.47997 0.96002,1.19993 0.24,0 0.48,0.95995 z"
           style="fill:#f2b8b1;fill-opacity:1;fill-rule:evenodd;stroke:#6e6e6e;stroke-width:0.48001;stroke-linecap:round;stroke-linejoin:round;stroke-miterlimit:10;stroke-dasharray:none;stroke-opacity:1"
           id="path32"
           inkscape:connector-curvature="0" /><path
           d="m 308.88404,430.58062 0.24,5.51968 1.20002,0.95995 0,1.91989 1.92002,0 0.24001,0.71996 -0.72001,1.19993 -0.24,0.71996 0.24,2.63985 7.9201,-0.71996 3.84005,-0.47997 0,-2.39987 -0.48,0 0,-0.47997 -0.48001,0 0,-0.47997 -1.20002,0 0,-0.47998 -0.96001,0 0,-0.47997 -0.72001,-0.23998 0.24,-2.63985 -0.96001,-1.19994 0,-0.47997 -0.48,-0.23998 -0.48001,0.23998 -0.24,-0.23998 -0.48001,-1.19994 0.48001,-0.47997 0,-0.47997 -0.72001,-0.47997 -0.72001,-0.95995 -1.92003,-0.71996 -0.48,-0.95994 0,-1.19993 -0.96002,-0.23999 -0.72001,-1.43992 -0.48,-1.6799 0.24,-0.23999 0,-0.23999 0,-0.23998 -3.12004,0.71996 0,6.47963 z"
           style="fill:#8f0a0a;fill-opacity:1;fill-rule:evenodd;stroke:#6e6e6e;stroke-width:0.48001;stroke-linecap:round;stroke-linejoin:round;stroke-miterlimit:10;stroke-dasharray:none;stroke-opacity:1"
           id="path34"
           inkscape:connector-curvature="0" /><path
           d="m 330.72433,429.38069 -3.36005,0 0,1.43991 -10.32013,0.47998 0.72001,0.47997 0,0.47997 -0.48001,0.47997 0.48001,1.19994 0.24,0.23998 0.48001,-0.23998 0.48,0.23998 0,0.47997 0.96001,1.19994 -0.24,2.63985 0.72001,0.23998 0,0.47997 0.96001,0 0,0.47998 1.20002,0 0,0.47997 0.48001,0 0,0.47997 0.48,0 0,2.39987 8.88012,-0.71996 0.24,0 0.72001,-0.23999 0.72001,-1.19993 0,-1.19993 0.48001,-1.19993 0,-1.67991 0.48,-0.47997 0,-1.19993 0.96002,-0.71996 0.24,-0.71996 -0.48001,-1.19993 -0.24,-0.23999 -0.24,-1.19993 -0.72001,-1.43992 -0.48001,-0.47997 -3.36004,0.23999 z"
           style="fill:#a63121;fill-opacity:1;fill-rule:evenodd;stroke:#6e6e6e;stroke-width:0.48001;stroke-linecap:round;stroke-linejoin:round;stroke-miterlimit:10;stroke-dasharray:none;stroke-opacity:1"
           id="path36"
           inkscape:connector-curvature="0" /><path
           d="m 336.2444,433.70044 -0.24,0.71996 -0.96002,0.71996 0,1.19993 -0.48,0.47997 0,1.67991 -0.48001,1.19993 0,1.19993 -0.72001,1.19993 -0.72001,0.23999 5.28007,-0.71996 13.20017,-0.95995 -0.96001,-1.43992 0,-1.19993 0.72001,-0.95994 0,-0.47997 0.72001,-0.47998 0.96001,-2.15987 -0.48,-0.71996 -0.72001,-0.71996 0,-0.71996 -0.72001,-0.23999 -0.24001,-0.23998 -0.48,0.23998 -0.72001,-0.47997 -1.20002,0.23999 -0.24,0.71996 -1.20002,0 -0.24,0.47997 -0.96001,0.47997 -0.24001,0.47997 -0.96001,0.23999 -1.92002,1.43992 -0.48001,0.23998 -0.48001,-0.47997 -0.72001,0.23999 -0.96001,0 -0.48,0.23998 -0.48001,0 -0.96001,-0.47997 -0.48001,0 -0.24,-0.23999 -0.72001,-0.95994 z"
           style="fill:#ba4e3d;fill-opacity:1;fill-rule:evenodd;stroke:#6e6e6e;stroke-width:0.48001;stroke-linecap:round;stroke-linejoin:round;stroke-miterlimit:10;stroke-dasharray:none;stroke-opacity:1"
           id="path38"
           inkscape:connector-curvature="0" /><path
           d="m 283.44371,442.57993 -0.48001,-0.71996 -0.24,0 -0.96001,-1.43991 -0.48001,-2.39987 0.24,-0.23998 -0.24,-0.47998 0.24,-0.23998 -1.20001,-0.47997 0.24,-0.47998 -0.24,-0.47997 0.24,-0.95995 -0.72001,0 0.24,-0.23998 -0.48,-0.95995 0.24,-0.71996 -0.48001,-0.23998 -0.48,-1.67991 -0.72001,-1.19993 -0.96001,-0.95994 -7.92011,0.47997 0.48001,12.95926 6.48008,-0.47997 0,1.43992 7.2001,-0.47998 z"
           style="fill:#8f0a0a;fill-opacity:1;fill-rule:evenodd;stroke:#6e6e6e;stroke-width:0.48001;stroke-linecap:round;stroke-linejoin:round;stroke-miterlimit:10;stroke-dasharray:none;stroke-opacity:1"
           id="path40"
           inkscape:connector-curvature="0" /><path
           d="m 289.68379,432.02054 -0.48001,-1.19994 1.44002,-1.91989 0.48001,-1.43991 -0.24,-0.95995 0.24,-1.19993 0.48,-0.23999 -0.24,-0.47997 0.72001,-0.95995 0.72001,-0.23998 0.24,-0.71996 1.44002,-1.19993 -14.16018,0.71996 0,-0.95995 -0.48001,-0.47997 -0.96001,1.19993 -1.68002,0.95995 -0.48001,0.71995 -0.48001,1.67991 0.48001,0.71996 -0.24,0.23998 0.24,0.71996 0,0.95995 0.48001,0.71996 0.96001,0.95994 0.72001,1.19993 0.48,1.67991 0.48001,0.23998 -0.24,0.71996 0.48,0.95995 -0.24,0.23998 0.72001,0 -0.24,0.95995 0.24,0.47997 -0.24,0.47998 1.20001,0.47997 -0.24,0.23998 0.24,0.47998 -0.24,0.23998 0.48001,2.39987 0.96001,1.43991 0.24,0 0.48001,0.71996 1.44002,0 0,-2.39986 2.16002,-0.23999 0,-0.71996 0.96002,0 0,-1.43991 1.92002,-0.23999 0,-1.43992 1.20002,0 -0.24,-0.95994 0.72,0 -0.48,-0.95995 -0.24,0 -0.96002,-1.19993 0.24001,-0.47997 -0.48001,-0.47997 z"
           style="fill:#ba4e3d;fill-opacity:1;fill-rule:evenodd;stroke:#6e6e6e;stroke-width:0.48001;stroke-linecap:round;stroke-linejoin:round;stroke-miterlimit:10;stroke-dasharray:none;stroke-opacity:1"
           id="path42"
           inkscape:connector-curvature="0" /><path
           d="m 348.00455,431.30058 1.20002,-0.23999 0.72001,0.47997 0.48,-0.23998 0.24001,0.23998 0.72001,0.23999 0,0.71996 0.72001,0.71996 0.48,0.71996 -0.96001,2.15987 -0.72001,0.47998 0,0.47997 -0.72001,0.95994 0,1.19993 0.96001,1.43992 3.36005,-0.23998 3.60004,-0.47998 0,-15.35912 0,-1.19993 -1.92002,-0.95995 -0.48001,-1.43991 -0.72001,-0.47998 -0.24,-0.47997 0,-1.19993 0.48001,-0.47997 0.48,0 0.24001,-0.71996 -0.24001,-0.47998 -0.48,0 -0.48001,-0.47997 -0.24,-0.47997 -0.48001,-0.47997 0,-0.71996 -0.48001,-0.23999 -0.48,0.23999 -0.72001,-0.95995 -0.48001,0 -1.20001,0 -1.20002,0.95995 -0.72001,1.43992 -0.24,0.95994 -0.48001,0.23999 0.24001,0.71996 0.48,0.23998 0.24,0.71996 -0.96001,0 0,11.99932 z"
           style="fill:#8f0a0a;fill-opacity:1;fill-rule:evenodd;stroke:#6e6e6e;stroke-width:0.48001;stroke-linecap:round;stroke-linejoin:round;stroke-miterlimit:10;stroke-dasharray:none;stroke-opacity:1"
           id="path44"
           inkscape:connector-curvature="0" /><path
           d="m 370.56485,424.34097 -3.12004,0.23999 -6.48009,0 0,-0.23999 -2.88004,0.23999 0,15.35912 1.44002,0 5.76008,-0.47997 -0.48001,-1.19993 0.48001,-1.19993 0.72001,-0.47997 -0.24001,-2.15988 0.72001,-1.91989 0.48001,-0.23999 3.36004,0 0.24001,-3.35981 0,-2.63985 0,-1.91989 z"
           style="fill:#cf705f;fill-opacity:1;fill-rule:evenodd;stroke:#6e6e6e;stroke-width:0.48001;stroke-linecap:round;stroke-linejoin:round;stroke-miterlimit:10;stroke-dasharray:none;stroke-opacity:1"
           id="path46"
           inkscape:connector-curvature="0" /><path
           d="m 381.84499,423.62101 -0.24,1.19994 0.48001,1.19993 -11.52015,0.23998 0,2.63985 7.6801,7.91955 0.72001,0.23999 0.24,1.19993 0.72001,0 0,0.47997 0.72001,0.71996 1.20001,-0.47997 0.24001,-0.23999 0.48,0.95995 0.72001,0 0.72001,-0.47998 -0.24,-0.23998 0.72001,0 0.24,-0.71996 0.72001,0 0.24001,-0.23999 0.48,0 0.48001,0.71996 1.68002,-3.35981 -0.72001,-2.63985 1.20002,-0.95994 0.24,-3.83978 0.24,-4.79973 -2.64003,0 -0.24001,0.23999 -0.24,0.23998 -2.16003,0.47998 -2.16003,-0.47998 z"
           style="fill:#8f0a0a;fill-opacity:1;fill-rule:evenodd;stroke:#6e6e6e;stroke-width:0.48001;stroke-linecap:round;stroke-linejoin:round;stroke-miterlimit:10;stroke-dasharray:none;stroke-opacity:1"
           id="path48"
           inkscape:connector-curvature="0" /><path
           d="m 269.76353,442.09996 -0.48001,-12.95926 -0.24,-5.99966 -0.48001,0.95995 -1.92002,-0.23999 -1.92003,2.87984 -5.52007,1.91989 1.44002,2.39986 2.16003,0 0.96001,1.91989 -4.56006,-1.43992 -0.96001,1.19993 -3.12004,-0.47997 0.48,-1.6799 2.40004,-0.23999 0.72,-3.35981 -7.6801,5.2797 0.24001,4.79973 0.72001,-0.23999 1.44002,0.47997 0.48,-0.23998 0.48001,0 0.72001,0.23998 0.24,0.71996 11.04014,-0.47997 0.24001,4.55974 1.68002,0 1.44002,0 z m -0.72001,-19.1989 -0.24,-3.5998 -7.2001,6.23965 1.92003,0 2.88003,-2.63985 1.68003,0.23998 -0.48001,0.47997 1.44002,-0.71995 z"
           style="fill:#cf705f;fill-opacity:1;fill-rule:evenodd;stroke:#6e6e6e;stroke-width:0.48001;stroke-linecap:round;stroke-linejoin:round;stroke-miterlimit:10;stroke-dasharray:none;stroke-opacity:1"
           id="path50"
           inkscape:connector-curvature="0" /><path
           d="m 345.12451,415.94145 -0.72,0.47998 -0.48001,-0.23999 -0.24,1.91989 -0.72001,0.47997 -0.24001,1.19993 -0.72001,0.47998 -0.24,0 -0.48001,0.71996 -0.96001,0.95994 -0.72001,0.23999 -0.24,0.47997 -1.44002,1.19993 -0.24,-0.23999 -0.96002,0.47998 -0.72,-0.47998 -1.20002,0.23999 -0.24,1.43992 0,0.71996 -0.24001,0.47997 0,1.43992 -0.24,1.19993 0.48001,0.47997 0.72001,1.43992 0.24,1.19993 0.24,0.23999 0.48001,1.19993 0.72001,0.95994 0.24,0.23999 0.48001,0 0.96001,0.47997 0.48001,0 0.48,-0.23998 0.96001,0 0.72001,-0.23999 0.48001,0.47997 0.48001,-0.23998 1.92002,-1.43992 0.96001,-0.23999 0.24001,-0.47997 0.96001,-0.47997 0.24,-0.47997 1.20002,0 0.24,-0.71996 0,-11.99932 0.96001,0 -0.24,-0.71996 -0.48,-0.23998 -0.24001,-0.71996 -0.72001,0 -0.72001,-0.71996 -0.72001,0 -0.72001,-0.95995 z"
           style="fill:#a63121;fill-opacity:1;fill-rule:evenodd;stroke:#6e6e6e;stroke-width:0.48001;stroke-linecap:round;stroke-linejoin:round;stroke-miterlimit:10;stroke-dasharray:none;stroke-opacity:1"
           id="path52"
           inkscape:connector-curvature="0" /><path
           d="m 228.24299,458.899 2.40003,-0.23998 9.60012,-0.71996 -1.20001,-18.47895 -1.68002,1.43992 -5.04007,-2.39986 -5.52007,0 1.44002,20.39883 z m -1.44002,-20.87881 5.28007,0 2.64003,-0.23998 0.24,-0.23999 -0.24,-0.23999 -6.24008,0.47998 -1.68002,-0.23999 0,0.47997 z m 12.24016,-0.47997 0,-0.71996 -3.60005,0.95995 3.60005,-0.23999 z"
           style="fill:#ffe0e0;fill-opacity:1;fill-rule:evenodd;stroke:#6e6e6e;stroke-width:0.48001;stroke-linecap:round;stroke-linejoin:round;stroke-miterlimit:10;stroke-dasharray:none;stroke-opacity:1"
           id="path54"
           inkscape:connector-curvature="0" /><path
           d="m 228.24299,458.899 -1.44002,-20.39883 -12.24016,-1.67991 8.1601,3.5998 -2.40003,1.91989 0.96001,2.39986 -0.96001,0 -1.92002,-4.55974 -1.44002,4.07977 -1.44002,-0.23999 -1.20002,0.23999 -0.72001,1.43992 -0.48,0.47997 0.24,0.47997 -0.48001,1.19993 0,1.91989 -0.96001,0.71996 0,1.67991 0.48001,1.19993 -0.24,1.19993 0,0.71996 0.72,0.71996 0,0.95994 0.96002,0.47997 0.72001,1.19994 0.72001,0 1.44002,0.95994 11.52015,-0.71996 z m -2.88004,-21.35878 0.24,0.47997 1.20002,0 0,-0.47997 -1.44002,0 z"
           style="fill:#ffe0e0;fill-opacity:1;fill-rule:evenodd;stroke:#6e6e6e;stroke-width:0.48001;stroke-linecap:round;stroke-linejoin:round;stroke-miterlimit:10;stroke-dasharray:none;stroke-opacity:1"
           id="path56"
           inkscape:connector-curvature="0" /><path
           d="m 203.52266,460.33892 13.20018,-0.71996 -1.44002,-0.95994 -0.72001,0 -0.72001,-1.19994 -0.96002,-0.47997 0,-0.95994 -0.72,-0.71996 0,-0.71996 0.24,-1.19993 -0.48001,-1.19993 0,-1.67991 0.96001,-0.71996 0,-1.91989 0.48001,-1.19993 -0.24,-0.47997 0.48,-0.47997 0.72001,-1.43992 1.20002,-0.23999 0.24,-3.35981 -3.60004,-3.59979 -4.80007,-0.71996 0.72001,2.63985 1.92003,0.95994 0,0.71996 -2.16003,1.19993 -0.72001,1.67991 0.96001,0.71996 0.96001,2.39986 -0.24,1.6799 -0.48,0.71996 -1.20002,0.71996 -1.92003,1.43992 -0.48,1.43992 -1.92003,2.39986 -0.24,0.95995 1.20002,2.63985 -0.24001,1.6799 z m 22.08029,-22.31873 -0.24,-0.47997 -12.48017,-1.6799 -0.72,0 -0.72001,0.47997 0.24,0.23999 2.64003,-0.23999 1.92003,0.47997 2.64003,0.47997 3.60005,0.23999 3.12004,0.47997 z"
           style="fill:#cf705f;fill-opacity:1;fill-rule:evenodd;stroke:#6e6e6e;stroke-width:0.48001;stroke-linecap:round;stroke-linejoin:round;stroke-miterlimit:10;stroke-dasharray:none;stroke-opacity:1"
           id="path58"
           inkscape:connector-curvature="0" /><path
           d="m 331.92434,414.02156 0,-1.43992 -0.72001,-0.95994 -0.48,-2.63985 -0.48001,-0.23999 -0.96001,0 -0.48001,0 -4.32006,2.39987 -2.88003,5.99965 -9.60013,6.23965 0,0.23998 0,0.23999 -0.24,0.23999 0.48,1.6799 0.72001,1.43992 0.96002,0.23999 0,1.19993 0.48,0.95994 1.92003,0.71996 0.72001,0.95995 10.32013,-0.47998 0,-1.43991 3.36005,0 -0.72001,-13.19925 0.72001,0 0,-2.15988 1.20001,0 z"
           style="fill:#a63121;fill-opacity:1;fill-rule:evenodd;stroke:#6e6e6e;stroke-width:0.48001;stroke-linecap:round;stroke-linejoin:round;stroke-miterlimit:10;stroke-dasharray:none;stroke-opacity:1"
           id="path60"
           inkscape:connector-curvature="0" /><path
           d="m 294.48385,421.46114 -1.44002,1.19993 -0.24,0.71996 -0.72001,0.23998 -0.72001,0.95995 0.24,0.47997 -0.48,0.23999 -0.24,1.19993 0.24,0.95995 -0.48001,1.43991 -1.44002,1.91989 0.48001,1.19994 14.16018,-0.47998 0,-0.95994 5.04007,0 0,-6.47963 -2.16003,-0.47998 -2.64003,0.95995 -3.60005,-1.19993 -0.48001,-3.35981 -2.16002,0.71996 -0.48001,-0.47997 -0.72001,0.71996 -1.44002,-0.47998 0,0.71996 -0.72001,0.23999 z"
           style="fill:#f2b8b1;fill-opacity:1;fill-rule:evenodd;stroke:#6e6e6e;stroke-width:0.48001;stroke-linecap:round;stroke-linejoin:round;stroke-miterlimit:10;stroke-dasharray:none;stroke-opacity:1"
           id="path62"
           inkscape:connector-curvature="0" /><path
           d="m 345.12451,415.94145 0.24001,-0.71996 -0.48001,-1.19993 -0.48,-0.47997 -0.72001,0.23999 -0.48001,-0.23999 -0.24,0.47997 -11.04015,0 -1.20001,0 0,2.15988 -0.72001,0 0.72001,13.19925 3.36004,-0.23999 0.24,-1.19993 0,-1.43992 0.24001,-0.47997 0,-0.71996 0.24,-1.43992 1.20002,-0.23999 0.72,0.47998 0.96002,-0.47998 0.24,0.23999 1.44002,-1.19993 0.24,-0.47997 0.72001,-0.23999 0.96001,-0.95994 0.48001,-0.71996 0.24,0 0.72001,-0.47998 0.24001,-1.19993 0.72001,-0.47997 0.24,-1.91989 0.48001,0.23999 0.72,-0.47998 z"
           style="fill:#ba4e3d;fill-opacity:1;fill-rule:evenodd;stroke:#6e6e6e;stroke-width:0.48001;stroke-linecap:round;stroke-linejoin:round;stroke-miterlimit:10;stroke-dasharray:none;stroke-opacity:1"
           id="path64"
           inkscape:connector-curvature="0" /><path
           d="m 386.40505,406.342 0,4.55974 -1.20001,1.6799 -0.72001,1.43992 -0.48001,2.15988 0.48001,1.19993 -0.24,0.71996 -2.40004,2.15988 -0.48,0.71996 0.48,2.39986 0,0.23998 2.16003,0.47998 2.16003,-0.47998 0.24,-0.23998 0.24001,-0.23999 2.64003,0 -0.24,4.79973 4.08005,-11.51934 -0.48,-2.87984 2.16002,-3.35981 0.24001,-2.39986 -0.48001,-0.23999 -0.48001,0.23999 -0.24,-0.47997 -0.96001,-0.47998 -0.48001,0.47998 0,-0.95995 -6.00008,0 z"
           style="fill:#e09284;fill-opacity:1;fill-rule:evenodd;stroke:#6e6e6e;stroke-width:0.48001;stroke-linecap:round;stroke-linejoin:round;stroke-miterlimit:10;stroke-dasharray:none;stroke-opacity:1"
           id="path66"
           inkscape:connector-curvature="0" /><path
           d="m 279.84366,420.74118 0.24,-1.67991 0,-0.95994 0,-1.19993 -0.72001,-0.47997 0.24001,-1.19994 -0.48001,-1.19993 -0.48,0.23999 -0.72001,-0.47997 -1.20002,0 -2.88004,-2.15988 -0.24,-0.23999 -4.56006,-0.47997 -1.20002,3.35981 0,2.87983 0.72001,0.47998 -0.48,-2.87984 1.20001,-3.59979 1.68002,0.23998 0.24001,3.83978 -2.40003,4.07977 0.24,3.5998 0,0.23998 0.24,5.99966 7.92011,-0.47997 -0.48001,-0.71996 0,-0.95995 -0.24,-0.71996 0.24,-0.23998 -0.48001,-0.71996 0.48001,-1.67991 0.48001,-0.71995 1.68002,-0.95995 0.96001,-1.19993 z"
           style="fill:#e09284;fill-opacity:1;fill-rule:evenodd;stroke:#6e6e6e;stroke-width:0.48001;stroke-linecap:round;stroke-linejoin:round;stroke-miterlimit:10;stroke-dasharray:none;stroke-opacity:1"
           id="path68"
           inkscape:connector-curvature="0" /><path
           d="m 370.56485,424.34097 0,1.91989 11.52015,-0.23998 -0.48001,-1.19993 0.24,-1.19994 0,-0.23998 -0.48,-2.39986 0.48,-0.71996 2.40004,-2.15988 0.24,-0.71996 -0.48001,-1.19993 0.48001,-2.15988 -6.72009,-0.23998 -1.44002,-1.19994 -1.68002,-0.23998 -1.20001,-1.43992 -1.44002,-0.23999 -1.20002,-0.95994 -0.24,0.23999 0,14.39917 z"
           style="fill:#ffe0e0;fill-opacity:1;fill-rule:evenodd;stroke:#6e6e6e;stroke-width:0.48001;stroke-linecap:round;stroke-linejoin:round;stroke-miterlimit:10;stroke-dasharray:none;stroke-opacity:1"
           id="path70"
           inkscape:connector-curvature="0" /><path
           d="m 359.5247,417.14138 -0.72001,0 -0.72001,0 -0.96001,0.47998 -1.20001,0 -0.24001,0.71996 -0.48,0 -0.48001,0.47997 0,1.19993 0.24,0.47997 0.72001,0.47998 0.48001,1.43991 1.92002,0.95995 0,1.19993 2.88004,-0.23999 0,0.23999 6.48009,0 0.24,-0.47997 -0.24,-0.71996 -0.48001,-0.23999 -0.24,-0.71996 -1.44002,-1.43991 -0.96001,-0.47998 -1.44002,-2.15987 -0.48001,-0.23999 -0.48001,0 -0.72001,-0.95995 -1.68002,0 z"
           style="fill:#f2b8b1;fill-opacity:1;fill-rule:evenodd;stroke:#6e6e6e;stroke-width:0.48001;stroke-linecap:round;stroke-linejoin:round;stroke-miterlimit:10;stroke-dasharray:none;stroke-opacity:1"
           id="path72"
           inkscape:connector-curvature="0" /><path
           d="m 370.56485,424.34097 0,-14.39917 -0.48001,0.95994 -0.72001,0.23999 0,0.47997 -0.48,0.23999 -0.48001,1.91989 -3.84005,0.71995 -0.48001,-0.23998 -0.72001,0 -1.68002,1.19993 -0.96001,0 -0.72001,0.23999 -0.48001,1.43991 1.68002,0 0.72001,0.95995 0.48001,0 0.48001,0.23999 1.44002,2.15987 0.96001,0.47998 1.44002,1.43991 0.24,0.71996 0.48001,0.23999 0.24,0.71996 -0.24,0.47997 3.12004,-0.23999 z"
           style="fill:#a63121;fill-opacity:1;fill-rule:evenodd;stroke:#6e6e6e;stroke-width:0.48001;stroke-linecap:round;stroke-linejoin:round;stroke-miterlimit:10;stroke-dasharray:none;stroke-opacity:1"
           id="path74"
           inkscape:connector-curvature="0" /><path
           d="m 279.84366,420.74118 0.48001,0.47997 0,0.95995 14.16018,-0.71996 0.72001,-0.23999 0,-0.71996 1.44002,0.47998 0.72001,-0.71996 0.48001,0.47997 0,-1.19993 2.88003,-0.47998 -0.24,-1.19993 -3.60005,0.71996 -12.24016,-5.99966 -2.16002,1.19994 -1.92003,-2.15988 -6.96009,-0.23999 0.24,0.23999 2.88004,2.15988 1.20002,0 0.72001,0.47997 0.48,-0.23999 0.48001,1.19993 -0.24001,1.19994 0.72001,0.47997 0,1.19993 0,0.95994 -0.24,1.67991 z"
           style="fill:#f2b8b1;fill-opacity:1;fill-rule:evenodd;stroke:#6e6e6e;stroke-width:0.48001;stroke-linecap:round;stroke-linejoin:round;stroke-miterlimit:10;stroke-dasharray:none;stroke-opacity:1"
           id="path76"
           inkscape:connector-curvature="0" /><path
           d="m 359.2847,401.78226 -4.56006,-0.23999 0,2.15988 -2.88004,0 -0.24,0.95995 0.24,9.35946 0.48001,0 0.72001,0.95995 0.48,-0.23999 0.48001,0.23999 0,0.71996 0.48001,0.47997 0.24,0.47997 0.48001,0.47997 0.48,0 0.24001,0.47998 1.20001,0 0.96001,-0.47998 0.72001,0 0.72001,0 0.48001,-1.43991 0.72001,-0.23999 0.96001,0 1.68002,-1.19993 0.72001,0 0.48001,0.23998 3.84005,-0.71995 0.48001,-1.91989 0.48,-0.23999 0,-0.47997 0.72001,-0.23999 0.48001,-0.95994 -0.48001,-8.63951 0,-0.71996 -0.48001,-0.47997 -0.48,-0.47998 -0.96001,0.23999 -0.96002,-0.47997 -1.68002,0.47997 0,0.71996 0.48001,0.23999 -0.72001,0.95994 -6.00008,0 z"
           style="fill:#e09284;fill-opacity:1;fill-rule:evenodd;stroke:#6e6e6e;stroke-width:0.48001;stroke-linecap:round;stroke-linejoin:round;stroke-miterlimit:10;stroke-dasharray:none;stroke-opacity:1"
           id="path78"
           inkscape:connector-curvature="0" /><path
           d="m 343.6845,413.78158 0.72001,-0.23999 0.48,0.47997 0.48001,1.19993 -0.24001,0.71996 0.72001,0.95995 0.72001,0 0.72001,0.71996 0.72001,0 0.48001,-0.23999 0.24,-0.95994 0.72001,-1.43992 1.20002,-0.95995 1.20001,0 -0.24,-9.35946 -2.88004,0 0,0.47997 -0.48,0 0,0.23999 -2.64004,0.23998 0,0.23999 -2.40003,0 -0.48001,0.23998 -0.24,0.47998 0,0.71996 0.48001,0.47997 -0.24001,1.43992 0.24001,0.47997 0.48,0 -0.48,0.71996 0.48,0 -0.24,1.19993 0.24,0.95994 0.24001,0.47998 0,0.71996 z"
           style="fill:#a63121;fill-opacity:1;fill-rule:evenodd;stroke:#6e6e6e;stroke-width:0.48001;stroke-linecap:round;stroke-linejoin:round;stroke-miterlimit:10;stroke-dasharray:none;stroke-opacity:1"
           id="path80"
           inkscape:connector-curvature="0" /><path
           d="m 388.80509,398.18247 -0.24001,-0.47998 -6.96009,-1.6799 0,0.23999 0.48001,0 -0.24001,0.71995 -0.24,0.47998 -1.92002,0 0,1.91989 -0.96002,0.23998 -0.24,1.91989 -1.92002,0 0,1.43992 -0.72001,-0.23998 -0.48001,0.23998 -0.48001,-0.47997 -0.96001,0.23999 -0.24,-0.23999 -0.96001,0 -2.64004,-1.19993 0.48001,8.63951 0.24,-0.23999 1.20002,0.95994 1.44002,0.23999 1.20001,1.43992 1.68002,0.23998 1.44002,1.19994 6.72009,0.23998 0.72001,-1.43992 1.20001,-1.6799 0,-4.55974 0,-4.55974 0.72001,-1.19993 0.96002,-2.15988 0.72001,-0.23998 z"
           style="fill:#ba4e3d;fill-opacity:1;fill-rule:evenodd;stroke:#6e6e6e;stroke-width:0.48001;stroke-linecap:round;stroke-linejoin:round;stroke-miterlimit:10;stroke-dasharray:none;stroke-opacity:1"
           id="path82"
           inkscape:connector-curvature="0" /><path
           d="m 343.20449,405.86203 -0.24,-0.71996 -0.72001,-0.95995 0,-0.71996 -0.48001,-0.23998 0,-1.43992 -1.20002,-1.43992 0,-1.19993 -1.20001,-0.71996 -0.24,-0.71996 0,-0.23998 -0.72001,-0.47998 -0.72001,-0.47997 -1.92003,0.47997 -1.92002,3.35981 -4.32006,3.11982 -0.72001,5.2797 0.48001,0 0.96001,0 0.48001,0.23999 0.48,2.63985 0.72001,0.95994 0,1.43992 11.04015,0 0.24,-0.47997 0.48001,0.23999 0,-0.71996 -0.24001,-0.47998 -0.24,-0.95994 0.24,-1.19993 -0.48,0 0.48,-0.71996 -0.48,0 -0.24001,-0.47997 0.24001,-1.43992 -0.48001,-0.47997 0,-0.71996 0.24,-0.47998 0.48001,-0.23998 z"
           style="fill:#8f0a0a;fill-opacity:1;fill-rule:evenodd;stroke:#6e6e6e;stroke-width:0.48001;stroke-linecap:round;stroke-linejoin:round;stroke-miterlimit:10;stroke-dasharray:none;stroke-opacity:1"
           id="path84"
           inkscape:connector-curvature="0" /><path
           d="m 398.88522,399.62238 -1.20002,-0.47997 0,-5.51968 -8.1601,0 0,4.79972 -0.48001,0 -0.24,-0.23998 -0.72001,0.23998 -0.96002,2.15988 -0.72001,1.19993 0,4.55974 6.00008,0 0,0.95995 0.48001,-0.47998 0.96001,0.47998 0.24,0.47997 0.48001,-0.23999 0.48001,0.23999 3.84005,-8.15954 z"
           style="fill:#f2b8b1;fill-opacity:1;fill-rule:evenodd;stroke:#6e6e6e;stroke-width:0.48001;stroke-linecap:round;stroke-linejoin:round;stroke-miterlimit:10;stroke-dasharray:none;stroke-opacity:1"
           id="path86"
           inkscape:connector-curvature="0" /><path
           d="m 359.2847,401.78226 0,-9.35947 -4.08005,0 0,-5.75967 -1.44002,-0.71996 -0.48001,0 -0.24,-0.47997 -2.64004,0.71996 -0.72001,0 -0.48,-0.71996 -0.72001,-0.23998 -1.44002,5.03971 -7.20009,0.95994 -1.20002,3.11982 -1.92003,1.19994 0.96002,0.95994 0.72001,0.47997 0.72001,0.47998 0,0.23998 0.24,0.71996 1.20001,0.71996 0,1.19993 1.20002,1.43992 0,1.43992 0.48001,0.23998 0,0.71996 0.72001,0.95995 0.24,0.71996 2.40003,0 0,-0.23999 2.64004,-0.23998 0,-0.23999 0.48,0 0,-0.47997 2.88004,0 0.24,-0.95995 2.88004,0 0,-2.15988 4.56006,0.23999 z"
           style="fill:#ba4e3d;fill-opacity:1;fill-rule:evenodd;stroke:#6e6e6e;stroke-width:0.48001;stroke-linecap:round;stroke-linejoin:round;stroke-miterlimit:10;stroke-dasharray:none;stroke-opacity:1"
           id="path88"
           inkscape:connector-curvature="0" /><path
           d="m 355.20465,386.66312 0,5.75967 4.08005,0 0,9.35947 6.00008,0 0.72001,-0.95994 -0.48001,-0.23999 0,-0.71996 1.68002,-0.47997 0.96002,0.47997 0.96001,-0.23999 0.48,0.47998 0.48001,0.47997 0,0.71996 2.64004,1.19993 0.96001,0 0.24,0.23999 0.96001,-0.23999 0.48001,0.47997 0.48001,-0.23998 0.72001,0.23998 0,-1.43992 1.92002,0 0.24,-1.91989 0.96002,-0.23998 0,-1.91989 1.92002,0 0.24,-0.47998 0.24001,-0.71995 -0.48001,0 0,-0.23999 0,-0.71996 0.96001,-0.95995 0,-7.91954 -0.48,0 0,-3.35981 -9.12012,0 -10.80014,0.23998 -0.72001,0.71996 -0.48001,-0.23998 -0.48,1.19993 -1.20002,0.47997 -0.48001,0.23999 -0.48,0.47997 -0.96002,0.23999 -2.16002,0.23998 z"
           style="fill:#cf705f;fill-opacity:1;fill-rule:evenodd;stroke:#6e6e6e;stroke-width:0.48001;stroke-linecap:round;stroke-linejoin:round;stroke-miterlimit:10;stroke-dasharray:none;stroke-opacity:1"
           id="path90"
           inkscape:connector-curvature="0" /><path
           d="m 402.48526,371.06401 -0.48,0.71996 -0.72001,2.63985 -0.96001,1.19993 0.24,1.43992 -0.48001,0.95995 -1.20001,0.23998 -0.72001,-0.95994 -1.68002,0 -0.96002,0.71996 -0.24,0.47997 -3.84005,0.47997 -0.24,0.47997 0,0.47998 0,0.47997 0.48,0.47997 0.24001,1.67991 -0.24001,0.71995 -0.48,0.47998 -0.24001,0.23998 -0.24,0.71996 -0.48001,0.71996 -0.96001,0.47997 -0.72001,0.71996 -0.24,0.95995 -1.20002,0.23998 -0.72001,2.15988 0,0.71996 -0.48,0.23999 -0.96001,0.23998 -0.24001,0.47998 -1.20001,0 0,0.95994 -0.48001,0.47997 0,0.71996 -0.48001,0.47997 -0.96001,0.95995 0,0.71996 6.96009,1.6799 0.24001,0.47998 0.24,0.23998 0.48001,0 0,-4.79972 8.1601,0 0,5.51968 1.20002,0.47997 0.48,-2.87983 9.60013,-19.67888 -1.44002,0 -0.72001,0 -3.36004,0 -0.24001,-6.23964 -0.72001,0.23998 z m 7.92011,5.99966 -0.96001,1.19993 -1.68003,2.63985 -2.16002,4.07977 -0.72001,1.91989 0.48,-0.23999 1.20002,-2.39986 3.84005,-7.19959 z"
           style="fill:#e09284;fill-opacity:1;fill-rule:evenodd;stroke:#6e6e6e;stroke-width:0.48001;stroke-linecap:round;stroke-linejoin:round;stroke-miterlimit:10;stroke-dasharray:none;stroke-opacity:1"
           id="path92"
           inkscape:connector-curvature="0" /><path
           d="m 389.7651,377.06367 -7.6801,-0.23999 0,-6.47963 0.24,-0.23998 -0.24,-0.47998 -0.24001,-7.91954 -3.84005,-0.23999 -0.24,0.71996 -1.92002,0 0,-0.47997 -3.12004,0 0.24,21.35878 9.12012,0 0,3.35981 0.48,0 0,7.91954 0.48001,-0.47997 0,-0.71996 0.48001,-0.47997 0,-0.95994 1.20001,0 0.24001,-0.47998 0.96001,-0.23998 0.48,-0.23999 0,-0.71996 0.72001,-2.15988 1.20002,-0.23998 0.24,-0.95995 0.72001,-0.71996 0.96001,-0.47997 0.48001,-0.71996 0.24,-0.71996 0.24001,-0.23998 0.48,-0.47998 0.24001,-0.71995 -0.24001,-1.67991 -0.48,-0.47997 0,-0.47997 -1.44002,-1.19994 0,-1.6799 z"
           style="fill:#e09284;fill-opacity:1;fill-rule:evenodd;stroke:#6e6e6e;stroke-width:0.48001;stroke-linecap:round;stroke-linejoin:round;stroke-miterlimit:10;stroke-dasharray:none;stroke-opacity:1"
           id="path94"
           inkscape:connector-curvature="0" /><path
           d="m 363.36475,372.9839 -4.56006,0 0,0.95995 -6.96009,0.23998 -1.20001,4.07977 1.20001,0 0,2.63985 -3.36004,4.31976 0.72001,0.23998 0.48,0.71996 0.72001,0 2.64004,-0.71996 0.24,0.47997 0.48001,0 1.44002,0.71996 2.16002,-0.23998 0.96002,-0.23999 0.48,-0.47997 0.48001,-0.23999 1.20002,-0.47997 0.48,-1.19993 0.48001,0.23998 0.72001,-0.71996 1.20001,-2.39986 1.20002,-1.43992 0.72001,-0.23998 1.20001,-1.67991 -0.96001,-1.43991 -0.72001,-0.23999 -0.72001,-0.95995 -0.72001,-1.91989 z"
           style="fill:#ffe0e0;fill-opacity:1;fill-rule:evenodd;stroke:#6e6e6e;stroke-width:0.48001;stroke-linecap:round;stroke-linejoin:round;stroke-miterlimit:10;stroke-dasharray:none;stroke-opacity:1"
           id="path96"
           inkscape:connector-curvature="0" /><path
           d="m 372.96488,383.06333 -0.24,-21.35878 0,-1.43992 -0.72001,0 -0.48001,0.71996 -1.20002,0 -0.72001,-0.47997 0.24001,5.75967 0,1.6799 -0.24001,0.23999 -1.20001,0 -0.24,0.71996 -0.48001,-0.23999 -0.72001,0.95994 -2.16003,0.23999 -0.24,0.71996 -1.44002,1.91989 0.24,0.47997 0.72001,1.91989 0.72001,0.95995 0.72001,0.23999 0.96001,1.43991 -1.20001,1.67991 -0.72001,0.23998 -1.20002,1.43992 -1.20001,2.39986 10.80014,-0.23998 z"
           style="fill:#e09284;fill-opacity:1;fill-rule:evenodd;stroke:#6e6e6e;stroke-width:0.48001;stroke-linecap:round;stroke-linejoin:round;stroke-miterlimit:10;stroke-dasharray:none;stroke-opacity:1"
           id="path98"
           inkscape:connector-curvature="0" /><path
           d="m 389.7651,377.06367 0,1.6799 1.44002,1.19994 0,-0.47998 0.24,-0.47997 3.84005,-0.47997 0.24,-0.47997 0.96002,-0.71996 1.68002,0 0.72001,0.95994 1.20001,-0.23998 0.48001,-0.95995 -0.24,-1.43992 0.96001,-1.19993 0.72001,-2.63985 0.48,-0.71996 -10.32013,-0.23998 0.24,0.95994 -4.08005,0 0,2.39986 0.96001,0.47998 0.48001,2.39986 z"
           style="fill:#f2b8b1;fill-opacity:1;fill-rule:evenodd;stroke:#6e6e6e;stroke-width:0.48001;stroke-linecap:round;stroke-linejoin:round;stroke-miterlimit:10;stroke-dasharray:none;stroke-opacity:1"
           id="path100"
           inkscape:connector-curvature="0" /><path
           d="m 402.48526,371.06401 0.72001,-0.71996 0.72001,-0.23998 0.48001,-0.71996 0,-1.19993 0.24,0 0,-0.47998 1.20002,-0.47997 0.48001,-0.95994 -0.72001,-0.95995 -0.24001,-0.95994 0.24001,-0.47998 0.24,-0.23998 0.48001,-2.15988 -24.48033,0.23999 0.24001,7.91954 0.24,0.47998 -0.24,0.23998 0,6.47963 7.6801,0.23999 -0.48001,-2.39986 -0.96001,-0.47998 0,-2.39986 4.08005,0 -0.24,-0.95994 10.32013,0.23998 z"
           style="fill:#e09284;fill-opacity:1;fill-rule:evenodd;stroke:#6e6e6e;stroke-width:0.48001;stroke-linecap:round;stroke-linejoin:round;stroke-miterlimit:10;stroke-dasharray:none;stroke-opacity:1"
           id="path102"
           inkscape:connector-curvature="0" /><path
           d="m 369.84484,366.26429 -6.24008,0 0,-1.19993 -12.96017,-0.23999 1.20001,9.35946 6.96009,-0.23998 0,-0.95995 4.56006,0 -0.24,-0.47997 1.44002,-1.91989 0.24,-0.71996 2.16003,-0.23999 0.72001,-0.95994 0.48001,0.23999 0.24,-0.71996 1.20001,0 0.24001,-0.23999 0,-1.6799 z"
           style="fill:#ffe0e0;fill-opacity:1;fill-rule:evenodd;stroke:#6e6e6e;stroke-width:0.48001;stroke-linecap:round;stroke-linejoin:round;stroke-miterlimit:10;stroke-dasharray:none;stroke-opacity:1"
           id="path104"
           inkscape:connector-curvature="0" /><path
           d="m 408.96535,377.06367 0.48001,-1.6799 -1.92003,1.6799 1.44002,0 z m -2.64003,-33.59808 0,9.11948 0.24,0 -0.24,8.39952 0,0.47997 -0.48001,2.15988 -0.24,0.23998 -0.24001,0.47998 0.24001,0.95994 0.72001,0.95995 -0.48001,0.95994 -1.20002,0.47997 0,0.47998 -0.24,0 0,1.19993 -0.48001,0.71996 -0.72001,0.23998 -0.72001,0.71996 0.72001,-0.23998 0.24001,6.23964 3.36004,0 3.36005,-13.43923 7.9201,-18.47895 -0.72001,-1.6799 -11.04014,0 z m 4.32005,33.59808 4.56006,-6.9596 1.68002,-4.31976 -1.92002,-1.91989 -0.96001,0.23999 1.20001,4.55974 -0.72001,1.91989 -1.68002,0.47997 -0.96001,-0.95994 -2.88004,1.19993 -0.24,2.39986 1.68002,0.47997 -0.48001,1.19994 3.36005,-2.87984 -2.64004,4.55974 z m 1.20002,-7.19959 0.96001,0.71996 1.44002,-0.95995 -1.68002,-5.03971 0,-4.55974 1.92002,-5.2797 -3.60005,8.39952 0.96002,6.71962 z"
           style="fill:#ffe0e0;fill-opacity:1;fill-rule:evenodd;stroke:#6e6e6e;stroke-width:0.48001;stroke-linecap:round;stroke-linejoin:round;stroke-miterlimit:10;stroke-dasharray:none;stroke-opacity:1"
           id="path106"
           inkscape:connector-curvature="0" /><path
           d="m 367.92481,355.70489 -16.56021,0.23999 -4.08006,0 3.36005,8.87949 12.96017,0.23999 0,1.19993 6.24008,0 -0.24001,-5.75967 0,-1.67991 -1.44001,0 -0.24001,-3.11982 z"
           style="fill:#ffe0e0;fill-opacity:1;fill-rule:evenodd;stroke:#6e6e6e;stroke-width:0.48001;stroke-linecap:round;stroke-linejoin:round;stroke-miterlimit:10;stroke-dasharray:none;stroke-opacity:1"
           id="path108"
           inkscape:connector-curvature="0" /><path
           d="m 384.72503,337.22594 -15.3602,0 0,18.47895 -1.44002,0 0.24001,3.11982 1.44001,0 0,1.67991 0.72001,0.47997 1.20002,0 0.48001,-0.71996 0.72001,0 0,1.43992 3.12004,0 0,0.47997 1.92002,0 0.24,-0.71996 3.84005,0.23999 0,-2.87984 2.88004,-0.23999 1.44002,-2.39986 0,-1.6799 2.16003,0 0,-2.15988 3.12004,0 0,-0.95994 -0.96001,-1.19994 -0.96001,0.71996 -0.48001,0.23999 -0.24,0.23999 -0.72001,0 0,-0.23999 0.72001,-0.47997 0.48,-0.95995 0.96001,-0.23999 2.40004,-3.59979 0.48,-1.19993 0.72001,-0.47997 0.96001,0 0.72001,-0.71996 0.72001,-1.43992 0.48001,-0.47997 0.24,-1.19993 0.48001,-0.47998 0.24,-1.43992 0.48001,-0.47997 -0.24,-0.71996 -13.20018,0 z"
           style="fill:#cf705f;fill-opacity:1;fill-rule:evenodd;stroke:#6e6e6e;stroke-width:0.48001;stroke-linecap:round;stroke-linejoin:round;stroke-miterlimit:10;stroke-dasharray:none;stroke-opacity:1"
           id="path110"
           inkscape:connector-curvature="0" /><path
           d="m 397.92521,337.22594 0.24,0.71996 -0.48001,0.47997 -0.24,1.43992 -0.48001,0.47998 -0.24,1.19993 -0.48001,0.47997 -0.72001,1.43992 -0.72001,0.71996 -0.96001,0 -0.72001,0.47997 -0.48,1.19993 -2.40004,3.59979 -0.96001,0.23999 -0.48,0.95995 -0.72001,0.47997 0,0.23999 0.72001,0 0.24,-0.23999 0.48001,-0.23999 0.96001,-0.71996 0.96001,1.19994 0,0.95994 -3.12004,0 0,2.15988 -2.16003,0 0,1.6799 -1.44002,2.39986 -2.88004,0.23999 0,2.87984 24.48033,-0.23999 0,-0.47997 0.24,-8.39952 -0.24,0 0,-9.11948 -0.24001,-3.35981 0.24001,0 0,-2.87984 -8.40011,0 z"
           style="fill:#f2b8b1;fill-opacity:1;fill-rule:evenodd;stroke:#6e6e6e;stroke-width:0.48001;stroke-linecap:round;stroke-linejoin:round;stroke-miterlimit:10;stroke-dasharray:none;stroke-opacity:1"
           id="path112"
           inkscape:connector-curvature="0" /><path
           d="m 347.28454,355.94488 4.08006,0 0,-5.03972 -0.24001,-0.71996 -1.44002,1.43992 0.72001,-1.43992 -0.96001,-1.19993 1.92003,-0.23998 -2.64004,-0.95995 5.04007,-2.15988 -1.92003,-0.95994 -0.72001,-4.55974 -0.96001,-0.47997 -3.60005,4.31975 1.92003,-3.83978 -0.24,-1.19993 -3.12005,5.99966 2.16003,11.03937 z"
           style="fill:#e09284;fill-opacity:1;fill-rule:evenodd;stroke:#6e6e6e;stroke-width:0.48001;stroke-linecap:round;stroke-linejoin:round;stroke-miterlimit:10;stroke-dasharray:none;stroke-opacity:1"
           id="path114"
           inkscape:connector-curvature="0" /><path
           d="m 369.36483,337.22594 -15.3602,0.23999 4.56006,5.03971 0.24,4.07977 -1.92002,1.19993 -0.72001,-4.07977 -0.72001,0.23999 -0.96001,3.59979 -3.12004,3.35981 0,5.03972 16.56021,-0.23999 1.44002,0 0,-18.47895 z"
           style="fill:#ba4e3d;fill-opacity:1;fill-rule:evenodd;stroke:#6e6e6e;stroke-width:0.48001;stroke-linecap:round;stroke-linejoin:round;stroke-miterlimit:10;stroke-dasharray:none;stroke-opacity:1"
           id="path116"
           inkscape:connector-curvature="0" /><path
           d="m 412.32539,334.34611 -3.12004,0 0,2.63985 -2.88003,0.23998 0,2.87984 -0.24001,0 0.24001,3.35981 11.04014,0 0.96001,0.71996 2.64004,-4.79973 1.20001,-5.2797 -9.84013,0.23999 z"
           style="fill:#f2b8b1;fill-opacity:1;fill-rule:evenodd;stroke:#6e6e6e;stroke-width:0.48001;stroke-linecap:round;stroke-linejoin:round;stroke-miterlimit:10;stroke-dasharray:none;stroke-opacity:1"
           id="path118"
           inkscape:connector-curvature="0" /><path
           d="m 369.36483,326.42656 0,10.79938 15.3602,0 0,-10.55939 -8.88011,0 0,-0.23999 -6.48009,0 z"
           style="fill:#8f0a0a;fill-opacity:1;fill-rule:evenodd;stroke:#6e6e6e;stroke-width:0.48001;stroke-linecap:round;stroke-linejoin:round;stroke-miterlimit:10;stroke-dasharray:none;stroke-opacity:1"
           id="path120"
           inkscape:connector-curvature="0" /><path
           d="m 403.92528,322.10681 -6.96009,0 0,-3.11983 -3.12004,0 0,-3.11982 -1.92002,0 0,0.23999 -0.24001,-0.23999 -6.96009,0 0,10.79939 0,10.55939 13.20018,0 -0.48001,-2.39986 -1.20002,-0.47997 -0.48,-0.95995 0.24,-1.43992 0.96001,-0.95994 0.72001,-0.71996 0.24001,-0.95995 0.48,-0.47997 0.24,-0.47997 1.68003,-0.23999 0.72001,-0.71996 0,-0.95994 0.24,-1.19993 1.20001,-0.23999 0,-1.43992 1.44002,-1.43991 z"
           style="fill:#cf705f;fill-opacity:1;fill-rule:evenodd;stroke:#6e6e6e;stroke-width:0.48001;stroke-linecap:round;stroke-linejoin:round;stroke-miterlimit:10;stroke-dasharray:none;stroke-opacity:1"
           id="path122"
           inkscape:connector-curvature="0" /><path
           d="m 369.36483,322.10681 -6.24008,0 0.24,6.23964 -9.84013,0.23999 -3.84005,2.87983 1.44002,1.19993 -0.72001,-0.47997 -0.48,1.19993 6.00008,-1.6799 -0.72001,1.19993 2.64003,0.23999 -4.56006,-0.23999 -1.92002,0.71996 2.16002,0.71996 0.48001,0.95994 -2.40003,-0.95994 2.88004,1.91989 -0.48001,1.19993 15.3602,-0.23999 0,-10.79938 0,-4.31975 z"
           style="fill:#f2b8b1;fill-opacity:1;fill-rule:evenodd;stroke:#6e6e6e;stroke-width:0.48001;stroke-linecap:round;stroke-linejoin:round;stroke-miterlimit:10;stroke-dasharray:none;stroke-opacity:1"
           id="path124"
           inkscape:connector-curvature="0" /><path
           d="m 412.32539,321.86682 -0.24,-2.63985 -6.24008,-5.99966 0.72001,6.47963 -1.44002,1.67991 -1.20002,0.71996 -1.44002,1.43991 0,1.43992 -1.20001,0.23999 -0.24,1.19993 0,0.95994 -0.72001,0.71996 -1.68003,0.23999 -0.24,0.47997 -0.48,0.47997 -0.24001,0.95995 -0.72001,0.71996 -0.96001,0.95994 -0.24,1.43992 0.48,0.95995 1.20002,0.47997 0.48001,2.39986 8.40011,0 2.88003,-0.23998 0,-2.63985 3.12004,0 0.24001,-9.35947 -0.24001,0 0,-3.11982 z"
           style="fill:#ba4e3d;fill-opacity:1;fill-rule:evenodd;stroke:#6e6e6e;stroke-width:0.48001;stroke-linecap:round;stroke-linejoin:round;stroke-miterlimit:10;stroke-dasharray:none;stroke-opacity:1"
           id="path126"
           inkscape:connector-curvature="0" /><path
           d="m 412.32539,321.86682 0,3.11982 0.24001,0 -0.24001,9.35947 9.84013,-0.23999 3.84005,-10.07942 -1.68002,0 0,-0.95995 -0.96001,0.23999 0.96001,-1.19993 0,-0.23999 -12.00016,0 z"
           style="fill:#a63121;fill-opacity:1;fill-rule:evenodd;stroke:#6e6e6e;stroke-width:0.48001;stroke-linecap:round;stroke-linejoin:round;stroke-miterlimit:10;stroke-dasharray:none;stroke-opacity:1"
           id="path128"
           inkscape:connector-curvature="0" /><path
           d="m 362.88475,314.90722 -0.72001,0.71996 0.72001,-0.71996 0,-1.67991 -3.12004,0 -1.20002,1.67991 0.96001,-1.91989 -0.48,0 -3.84005,10.31941 -0.72001,0.71996 0.48,-1.67991 -1.68002,2.15988 1.20002,1.91989 -0.96002,2.15988 9.84013,-0.23999 -0.24,-6.23964 6.24008,0 0,-6.23965 -6.48008,0.23999 0,-1.19993 z"
           style="fill:#f2b8b1;fill-opacity:1;fill-rule:evenodd;stroke:#6e6e6e;stroke-width:0.48001;stroke-linecap:round;stroke-linejoin:round;stroke-miterlimit:10;stroke-dasharray:none;stroke-opacity:1"
           id="path130"
           inkscape:connector-curvature="0" /><path
           d="m 384.72503,315.86716 -12.96017,0 -0.48,0 -1.92003,0 0,6.23965 0,4.31975 6.48009,0 0,0.23999 8.88011,0 0,-10.79939 z"
           style="fill:#a63121;fill-opacity:1;fill-rule:evenodd;stroke:#6e6e6e;stroke-width:0.48001;stroke-linecap:round;stroke-linejoin:round;stroke-miterlimit:10;stroke-dasharray:none;stroke-opacity:1"
           id="path132"
           inkscape:connector-curvature="0" /><path
           d="m 426.00557,324.0267 1.44002,-2.87984 -0.96001,1.19993 -2.16003,0.71996 0,0.95995 1.68002,0 z m -1.68002,-1.91989 2.16003,-0.23999 2.40003,-3.35981 1.92003,-4.55974 -0.96002,0 -0.72001,0 0,-0.71996 -23.2803,0 6.24008,5.99966 0.24,2.63985 12.00016,0 0,0.23999 z"
           style="fill:#e09284;fill-opacity:1;fill-rule:evenodd;stroke:#6e6e6e;stroke-width:0.48001;stroke-linecap:round;stroke-linejoin:round;stroke-miterlimit:10;stroke-dasharray:none;stroke-opacity:1"
           id="path134"
           inkscape:connector-curvature="0" /><path
           d="m 405.84531,313.22731 -1.44002,-6.71961 -15.3602,0.23998 -0.24,0.47997 -0.72001,0 -0.24001,-0.71995 -3.12004,0 0,9.35946 6.96009,0 0.24001,0.23999 0,-0.23999 1.92002,0 0,3.11982 3.12004,0 0,3.11983 6.96009,0 1.20002,-0.71996 1.44002,-1.67991 -0.72001,-6.47963 z"
           style="fill:#ffe0e0;fill-opacity:1;fill-rule:evenodd;stroke:#6e6e6e;stroke-width:0.48001;stroke-linecap:round;stroke-linejoin:round;stroke-miterlimit:10;stroke-dasharray:none;stroke-opacity:1"
           id="path136"
           inkscape:connector-curvature="0" /><path
           d="m 369.36483,315.86716 1.92003,0 -0.72001,-1.91989 -4.32006,-1.19993 -3.36004,2.15988 0,1.19993 6.48008,-0.23999 z m 15.3602,-9.35946 -15.8402,0.23998 0.48,3.35981 -1.44002,1.91989 3.36005,1.43992 0.48,2.39986 12.96017,0 0,-9.35946 z m -24.96032,6.71961 3.12004,0 0,1.67991 2.64003,-3.11983 0.48001,-4.31975 -4.08006,2.15988 -2.16002,3.59979 z m -0.24001,-0.23998 0.72001,-1.43992 -1.20001,1.43992 0.48,0 z"
           style="fill:#ffe0e0;fill-opacity:1;fill-rule:evenodd;stroke:#6e6e6e;stroke-width:0.48001;stroke-linecap:round;stroke-linejoin:round;stroke-miterlimit:10;stroke-dasharray:none;stroke-opacity:1"
           id="path138"
           inkscape:connector-curvature="0" /><path
           d="m 406.08531,291.38856 -0.24,21.83875 23.2803,0 0,0.71996 0.72001,0 2.16003,-6.23964 -0.96001,-16.55906 -3.60005,0.23999 -0.72001,0.23998 -20.64027,-0.23998 z"
           style="fill:#cf705f;fill-opacity:1;fill-rule:evenodd;stroke:#6e6e6e;stroke-width:0.48001;stroke-linecap:round;stroke-linejoin:round;stroke-miterlimit:10;stroke-dasharray:none;stroke-opacity:1"
           id="path140"
           inkscape:connector-curvature="0" /><path
           d="m 406.08531,291.38856 0,-2.63985 -12.24016,-0.23999 0,9.11948 -9.36012,0 0.24,8.8795 3.12004,0 0.24001,0.71995 0.72001,0 0.24,-0.47997 15.3602,-0.23998 1.44002,6.71961 0.24,-21.83875 z"
           style="fill:#8f0a0a;fill-opacity:1;fill-rule:evenodd;stroke:#6e6e6e;stroke-width:0.48001;stroke-linecap:round;stroke-linejoin:round;stroke-miterlimit:10;stroke-dasharray:none;stroke-opacity:1"
           id="path142"
           inkscape:connector-curvature="0" /><path
           d="m 384.48503,297.6282 0,-3.11982 -2.88004,0 0,-3.59979 -5.04006,0 0,0.47997 -0.96002,0 -0.48,3.83978 -2.40003,0.95994 -0.96002,1.67991 1.44002,0.71996 1.20002,3.59979 3.60004,2.39986 -3.84005,-1.43991 -1.44001,-4.07977 -2.64004,-0.95995 -1.68002,6.71962 0.48001,1.91989 15.8402,-0.23998 -0.24,-8.8795 z m -16.80022,2.63985 0.96001,-2.87983 -0.96001,-0.23999 -0.96001,5.2797 -1.68002,1.43992 1.92002,0.23998 0.72001,-3.83978 z"
           style="fill:#e09284;fill-opacity:1;fill-rule:evenodd;stroke:#6e6e6e;stroke-width:0.48001;stroke-linecap:round;stroke-linejoin:round;stroke-miterlimit:10;stroke-dasharray:none;stroke-opacity:1"
           id="path144"
           inkscape:connector-curvature="0" /><path
           d="m 406.32532,279.14926 0,-6.23965 -12.24017,0 -8.64011,3.83978 -5.76007,0.47998 0.24,2.63985 -2.64003,3.83978 -0.72001,5.99965 -0.96002,1.67991 0.96002,0 0,-0.47997 5.04006,0 0,3.59979 2.88004,0 0,3.11982 9.36012,0 0,-9.11948 12.24016,0.23999 0.24001,-9.59945 z"
           style="fill:#cf705f;fill-opacity:1;fill-rule:evenodd;stroke:#6e6e6e;stroke-width:0.48001;stroke-linecap:round;stroke-linejoin:round;stroke-miterlimit:10;stroke-dasharray:none;stroke-opacity:1"
           id="path146"
           inkscape:connector-curvature="0" /><path
           d="m 406.32532,279.14926 -0.24001,9.59945 0,2.63985 20.64027,0.23998 0.72001,-0.23998 3.60005,-0.23999 -1.20002,-11.99931 -5.52007,-0.23999 0,-0.47997 -12.00016,0 0,0.71996 -6.00007,0 z"
           style="fill:#cf705f;fill-opacity:1;fill-rule:evenodd;stroke:#6e6e6e;stroke-width:0.48001;stroke-linecap:round;stroke-linejoin:round;stroke-miterlimit:10;stroke-dasharray:none;stroke-opacity:1"
           id="path148"
           inkscape:connector-curvature="0" /><path
           d="m 406.32532,272.90961 0,6.23965 6.00007,0 0,-0.71996 12.00016,0 0,0.47997 5.52007,0.23999 -2.16003,-7.67957 -3.36004,-5.03971 -0.96001,-4.31975 0.96001,-3.11982 -3.60005,-5.2797 0,-2.15988 -4.32005,0.71996 -4.32006,-2.15988 -5.28007,1.19993 -0.24,6.47963 -0.48001,0 0.24001,15.11914 z"
           style="fill:#8f0a0a;fill-opacity:1;fill-rule:evenodd;stroke:#6e6e6e;stroke-width:0.48001;stroke-linecap:round;stroke-linejoin:round;stroke-miterlimit:10;stroke-dasharray:none;stroke-opacity:1"
           id="path150"
           inkscape:connector-curvature="0" /><path
           d="m 394.08515,272.90961 12.24017,0 -0.24001,-15.11914 0.48001,0 0.24,-6.47963 -3.84005,-1.91989 -4.56006,0.23999 -0.96001,0.95995 -0.96001,3.59979 1.20001,1.91989 4.32006,-3.83978 1.92002,-0.23999 0.96002,1.43992 -1.92003,2.63985 -5.28007,2.63985 -3.60005,9.83944 1.92003,1.19993 -1.92003,3.11982 z m 31.92042,-15.59911 -3.36004,-6.9596 -7.2001,-6.9596 7.4401,8.87949 0.72001,1.91989 -1.20001,0.95995 3.60004,2.15987 z"
           style="fill:#ba4e3d;fill-opacity:1;fill-rule:evenodd;stroke:#6e6e6e;stroke-width:0.48001;stroke-linecap:round;stroke-linejoin:round;stroke-miterlimit:10;stroke-dasharray:none;stroke-opacity:1"
           id="path152"
           inkscape:connector-curvature="0" /></g></g><g
       id="g164"><g
         id="g166"
         clip-path="url(#clipPath168)"><path
           d="m 218.16285,377.78363 0,14.87915 30.0004,0 0,-14.87915 -30.0004,0 z"
           style="fill:#ffe0e0;fill-opacity:1;fill-rule:evenodd;stroke:#6e6e6e;stroke-width:0.48001;stroke-linecap:round;stroke-linejoin:round;stroke-miterlimit:10;stroke-dasharray:none;stroke-opacity:1"
           id="path172"
           inkscape:connector-curvature="0" /><text
           transform="matrix(1,0,0,-0.99992963,253.68332,381.14344)"
           style="font-variant:normal;font-weight:normal;font-size:10.80014038px;font-family:Arial;-inkscape-font-specification:ArialMT;writing-mode:lr-tb;fill:#000000;fill-opacity:1;fill-rule:nonzero;stroke:none"
           id="text174"><tspan
             x="0 5.9996939 9.1195307 15.119224 18.239061 21.838856 24.958691 30.958385 34.07822"
             y="0"
             sodipodi:role="line"
             id="tspan176">3.6 - 6.1</tspan></text>
<path
           d="m 218.16285,357.38479 0,14.87915 30.0004,0 0,-14.87915 -30.0004,0 z"
           style="fill:#f2b8b1;fill-opacity:1;fill-rule:evenodd;stroke:#6e6e6e;stroke-width:0.48001;stroke-linecap:round;stroke-linejoin:round;stroke-miterlimit:10;stroke-dasharray:none;stroke-opacity:1"
           id="path178"
           inkscape:connector-curvature="0" /></g></g><g
       id="g180"><g
         id="g182"
         clip-path="url(#clipPath184)"><text
           transform="matrix(1,0,0,-0.99992963,253.68332,360.7446)"
           style="font-variant:normal;font-weight:normal;font-size:10.80014038px;font-family:Arial;-inkscape-font-specification:ArialMT;writing-mode:lr-tb;fill:#000000;fill-opacity:1;fill-rule:nonzero;stroke:none"
           id="text188"><tspan
             x="0 5.9996939 9.1195307 15.119224 18.239061 21.838856 24.958691 30.958385 34.07822"
             y="0"
             sodipodi:role="line"
             id="tspan190">6.2 - 7.4</tspan></text>
<path
           d="m 218.16285,336.98596 0,15.11913 30.0004,0 0,-15.11913 -30.0004,0 z"
           style="fill:#e09284;fill-opacity:1;fill-rule:evenodd;stroke:#6e6e6e;stroke-width:0.48001;stroke-linecap:round;stroke-linejoin:round;stroke-miterlimit:10;stroke-dasharray:none;stroke-opacity:1"
           id="path192"
           inkscape:connector-curvature="0" /><text
           transform="matrix(1,0,0,-0.99992963,253.68332,340.34577)"
           style="font-variant:normal;font-weight:normal;font-size:10.80014038px;font-family:Arial;-inkscape-font-specification:ArialMT;writing-mode:lr-tb;fill:#000000;fill-opacity:1;fill-rule:nonzero;stroke:none"
           id="text194"><tspan
             x="0 5.9996939 9.1195307 15.119224 18.239061 21.838856 24.958691 30.958385 34.07822"
             y="0"
             sodipodi:role="line"
             id="tspan196">7.5 - 8.8</tspan></text>
<path
           d="m 218.16285,316.58712 0,15.11914 30.0004,0 0,-15.11914 -30.0004,0 z"
           style="fill:#cf705f;fill-opacity:1;fill-rule:evenodd;stroke:#6e6e6e;stroke-width:0.48001;stroke-linecap:round;stroke-linejoin:round;stroke-miterlimit:10;stroke-dasharray:none;stroke-opacity:1"
           id="path198"
           inkscape:connector-curvature="0" /><text
           transform="matrix(1,0,0,-0.99992963,253.68332,319.94693)"
           style="font-variant:normal;font-weight:normal;font-size:10.80014038px;font-family:Arial;-inkscape-font-specification:ArialMT;writing-mode:lr-tb;fill:#000000;fill-opacity:1;fill-rule:nonzero;stroke:none"
           id="text200"><tspan
             x="0 5.9996939 9.1195307 15.119224 18.239061 21.838856 24.958691 30.238447 36.478123 39.357979"
             y="0"
             sodipodi:role="line"
             id="tspan202">8.9 - 11.0</tspan></text>
<path
           d="m 218.16285,296.18828 0,15.11914 30.0004,0 0,-15.11914 -30.0004,0 z"
           style="fill:#ba4e3d;fill-opacity:1;fill-rule:evenodd;stroke:#6e6e6e;stroke-width:0.48001;stroke-linecap:round;stroke-linejoin:round;stroke-miterlimit:10;stroke-dasharray:none;stroke-opacity:1"
           id="path204"
           inkscape:connector-curvature="0" /><text
           transform="matrix(1,0,0,-0.99992963,253.68332,299.78808)"
           style="font-variant:normal;font-weight:normal;font-size:10.80014038px;font-family:Arial;-inkscape-font-specification:ArialMT;writing-mode:lr-tb;fill:#000000;fill-opacity:1;fill-rule:nonzero;stroke:none"
           id="text206"><tspan
             x="0 5.2797565 11.27945 14.399286 20.398981 23.518816 27.118612 30.238447 36.478123 42.477814 45.597652"
             y="0"
             sodipodi:role="line"
             id="tspan208">11.1 - 13.5</tspan></text>
<path
           d="m 218.16285,276.02943 0,14.87916 30.0004,0 0,-14.87916 -30.0004,0 z"
           style="fill:#a63121;fill-opacity:1;fill-rule:evenodd;stroke:#6e6e6e;stroke-width:0.48001;stroke-linecap:round;stroke-linejoin:round;stroke-miterlimit:10;stroke-dasharray:none;stroke-opacity:1"
           id="path210"
           inkscape:connector-curvature="0" /><text
           transform="matrix(1,0,0,-0.99992963,253.68332,279.38924)"
           style="font-variant:normal;font-weight:normal;font-size:10.80014038px;font-family:Arial;-inkscape-font-specification:ArialMT;writing-mode:lr-tb;fill:#000000;fill-opacity:1;fill-rule:nonzero;stroke:none"
           id="text212"><tspan
             x="0 5.9996939 11.999388 15.119224 21.358896 24.238754 28.078527 30.958385 37.198059 43.19775 46.317589"
             y="0"
             sodipodi:role="line"
             id="tspan214">13.6 - 20.7</tspan></text>
<path
           d="m 218.16285,255.6306 0,14.87915 30.0004,0 0,-14.87915 -30.0004,0 z"
           style="fill:#8f0a0a;fill-opacity:1;fill-rule:evenodd;stroke:#6e6e6e;stroke-width:0.48001;stroke-linecap:round;stroke-linejoin:round;stroke-miterlimit:10;stroke-dasharray:none;stroke-opacity:1"
           id="path216"
           inkscape:connector-curvature="0" /><text
           transform="matrix(1,0,0,-0.99992963,253.68332,258.99041)"
           style="font-variant:normal;font-weight:normal;font-size:10.80014038px;font-family:Arial;-inkscape-font-specification:ArialMT;writing-mode:lr-tb;fill:#000000;fill-opacity:1;fill-rule:nonzero;stroke:none"
           id="text218"><tspan
             x="0 5.9996939 11.999388 15.119224 21.358896 24.238754 28.078527 30.958385 37.198059 43.19775 46.317589"
             y="0"
             sodipodi:role="line"
             id="tspan220">20.8 - 28.3</tspan></text>
</g></g></g></svg>