<?xml version="1.0" encoding="UTF-8" standalone="no"?>
<!-- Created with Inkscape (http://www.inkscape.org/) -->

<svg
   xmlns:dc="http://purl.org/dc/elements/1.1/"
   xmlns:cc="http://creativecommons.org/ns#"
   xmlns:rdf="http://www.w3.org/1999/02/22-rdf-syntax-ns#"
   xmlns:svg="http://www.w3.org/2000/svg"
   xmlns="http://www.w3.org/2000/svg"
   xmlns:sodipodi="http://sodipodi.sourceforge.net/DTD/sodipodi-0.dtd"
   xmlns:inkscape="http://www.inkscape.org/namespaces/inkscape"
   id="svg2"
   version="1.1"
   inkscape:version="0.92.3 (2405546, 2018-03-11)"
   xml:space="preserve"
   width="163.01955"
   height="169.24057"
   viewBox="0 0 163.01955 169.24057"
   sodipodi:docname="Datum_local.svg"><metadata
     id="metadata8"><rdf:RDF><cc:Work
         rdf:about=""><dc:format>image/svg+xml</dc:format><dc:type
           rdf:resource="http://purl.org/dc/dcmitype/StillImage" /><dc:title /></cc:Work></rdf:RDF></metadata><defs
     id="defs6"><clipPath
       clipPathUnits="userSpaceOnUse"
       id="clipPath16"><path
         d="M 0,0 144,0 144,144 0,144 0,0 Z"
         id="path18"
         inkscape:connector-curvature="0" /></clipPath><clipPath
       clipPathUnits="userSpaceOnUse"
       id="clipPath28"><path
         d="M 0,0 144,0 144,144 0,144 0,0 Z"
         id="path30"
         inkscape:connector-curvature="0" /></clipPath><clipPath
       clipPathUnits="userSpaceOnUse"
       id="clipPath40"><path
         d="M 0,0 144,0 144,144 0,144 0,0 Z"
         id="path42"
         inkscape:connector-curvature="0" /></clipPath><clipPath
       clipPathUnits="userSpaceOnUse"
       id="clipPath52"><path
         d="M 0,0 144,0 144,144 0,144 0,0 Z"
         id="path54"
         inkscape:connector-curvature="0" /></clipPath></defs><sodipodi:namedview
     pagecolor="#ffffff"
     bordercolor="#666666"
     borderopacity="1"
     objecttolerance="10"
     gridtolerance="10"
     guidetolerance="10"
     inkscape:pageopacity="0"
     inkscape:pageshadow="2"
     inkscape:window-width="1681"
     inkscape:window-height="823"
     id="namedview4"
     showgrid="false"
     fit-margin-top="0"
     fit-margin-left="0"
     fit-margin-right="0"
     fit-margin-bottom="0"
     inkscape:zoom="1.5922289"
     inkscape:cx="-47.522443"
     inkscape:cy="156.25169"
     inkscape:window-x="0"
     inkscape:window-y="0"
     inkscape:window-maximized="0"
     inkscape:current-layer="g10" /><g
     id="g10"
     inkscape:groupmode="layer"
     inkscape:label="Datum_local"
     transform="matrix(1.25,0,0,-1.25,-7.841249,172.57452)"><g
   id="g12"><g
     id="g14"
     clip-path="url(#clipPath16)"><g
       id="g20"
       transform="translate(36.5158,97.4849)"><path
         d="m 0,0 c 1.123,1.097 3.199,3.147 5.2,4.381 2.001,1.235 4.824,2.088 6.803,3.026 1.98,0.937 3.479,1.988 5.073,2.6 1.593,0.611 1.977,0.759 4.489,1.067 2.512,0.308 7.795,0.503 10.581,0.779 2.786,0.276 3.542,0.934 6.136,0.877 2.593,-0.057 4.782,0.298 9.427,-1.218 4.645,-1.516 14.492,-5.954 18.441,-7.878 3.949,-1.925 3.616,-1.625 5.254,-3.67 1.638,-2.045 3.383,-6.087 4.573,-8.599 1.191,-2.513 2.154,-4.669 2.569,-6.477 0.415,-1.807 -0.204,-2.542 -0.079,-4.367 0.126,-1.824 0.695,-5.304 0.832,-6.578 0.136,-1.275 -0.187,0.54 -0.012,-1.068 0.175,-1.607 1.182,-6.08 1.062,-8.578 -0.12,-2.498 -1.103,-4.745 -1.78,-6.409 -0.678,-1.664 -1.578,-2.616 -2.284,-3.575 -0.707,-0.958 -1.244,-1.255 -1.956,-2.176 -0.713,-0.921 -0.872,-1.889 -2.321,-3.349 -1.449,-1.46 -3.969,-4.193 -6.373,-5.409 -2.403,-1.216 -6.277,-1.279 -8.048,-1.888 -1.771,-0.61 -1.225,-1.369 -2.576,-1.77 -1.35,-0.401 -3.608,-0.52 -5.528,-0.637 -1.919,-0.117 -4.512,0.171 -5.989,-0.066 -1.477,-0.236 -2.067,-0.821 -2.873,-1.355 -0.806,-0.535 -1.132,-1.469 -1.962,-1.854 -0.83,-0.384 -2.146,-0.386 -3.019,-0.453 -0.874,-0.068 -1.714,0.086 -2.223,0.048 -0.51,-0.038 -0.385,-0.094 -0.833,-0.276 -0.447,-0.182 -1.131,-0.381 -1.852,-0.817 -0.722,-0.436 -1.907,-1.388 -2.479,-1.8 -0.572,-0.411 -0.559,-0.54 -0.954,-0.667 -0.394,-0.127 -0.229,-0.339 -1.415,-0.095 -1.185,0.243 -4.409,1.246 -5.698,1.558 -1.288,0.311 -0.628,0.035 -2.034,0.311 -1.407,0.277 -4.72,0.647 -6.403,1.349 -1.682,0.702 -2.859,2.174 -3.693,2.862 -0.834,0.688 -0.698,0.896 -1.312,1.265 -0.613,0.37 -2.369,0.951 -2.369,0.951 -1.682,0.702 -5.887,2.206 -7.726,3.261 -1.839,1.054 -2.035,1.454 -3.31,3.064 -1.276,1.611 -3.26,4.656 -4.343,6.6 -1.083,1.944 -1.67,3.483 -2.156,5.062 -0.486,1.58 -0.522,2.662 -0.759,4.414 -0.237,1.752 -0.599,3.614 -0.662,6.097 -0.062,2.484 0.121,6.729 0.286,8.802 0.166,2.073 0.274,2.022 0.705,3.637 0.432,1.616 1.173,4.456 1.884,6.056 0.711,1.6 1.647,2.612 2.381,3.544 0.734,0.932 1.304,1.451 2.023,2.049 0.719,0.597 1.544,0.965 2.29,1.537 0.746,0.571 1.608,1.285 2.187,1.89 0.579,0.606 0.796,1.074 1.288,1.742 0.492,0.668 0.414,1.103 1.537,2.2"
         style="fill:#4f81bd;fill-opacity:1;fill-rule:evenodd;stroke:none"
         id="path22"
         inkscape:connector-curvature="0" /></g></g></g><g
   id="g24"><g
     id="g26"
     clip-path="url(#clipPath28)"><g
       id="g32"
       transform="translate(21.2948,69.5811)"><path
         d="m 0,0 c 0,22.654 23.079,41.019 51.549,41.019 28.47,0 51.549,-18.365 51.549,-41.019 0,-22.654 -23.079,-41.019 -51.549,-41.019 C 23.079,-41.019 0,-22.654 0,0 Z"
         style="fill:none;stroke:#ff0000;stroke-width:2;stroke-linecap:butt;stroke-linejoin:round;stroke-miterlimit:10;stroke-dasharray:none;stroke-opacity:1"
         id="path34"
         inkscape:connector-curvature="0" /></g></g></g><g
   id="g36"><g
     id="g38"
     clip-path="url(#clipPath40)"><g
       id="g44"
       transform="translate(12,63.8132)"><path
         d="M 0,0 0.139,0.112 0.363,0.391 0.614,0.67 0.976,1.033 1.339,1.452 1.757,1.899 2.231,2.374 2.678,2.849 3.124,3.38 3.598,3.855 4.016,4.301 4.435,4.748 4.797,5.139 5.104,5.503 5.355,5.754 5.522,5.949 4.992,6.564 4.267,7.29 3.514,8.184 2.705,9.078 1.952,9.916 1.311,10.642 0.809,11.201 0.558,11.48 4.658,15.251 5.104,14.664 5.718,13.91 6.359,13.072 7.084,12.15 7.754,11.284 8.367,10.53 8.841,9.916 9.204,9.497 l 0.335,0.419 0.53,0.642 0.641,0.754 0.725,0.894 0.753,0.894 0.697,0.838 0.614,0.726 0.474,0.587 3.821,-3.576 -0.139,-0.167 -0.223,-0.224 -0.307,-0.279 -0.307,-0.363 -0.39,-0.391 L 16.009,9.832 15.563,9.385 15.117,8.938 14.643,8.491 14.252,8.072 13.834,7.653 13.443,7.262 13.081,6.927 12.802,6.62 12.579,6.368 12.411,6.201 12.607,5.977 12.885,5.698 13.22,5.335 13.555,4.944 13.973,4.497 14.392,4.022 14.838,3.519 15.312,3.045 15.758,2.542 16.204,2.095 16.623,1.62 16.958,1.201 17.292,0.866 17.571,0.531 17.766,0.307 17.906,0.196 13.862,-3.659 13.443,-3.128 12.83,-2.402 12.105,-1.536 11.324,-0.531 10.515,0.447 9.762,1.341 9.148,2.123 8.73,2.626 8.395,2.207 7.809,1.48 7.028,0.531 6.248,-0.531 5.411,-1.592 4.63,-2.514 4.044,-3.296 3.709,-3.715 0,0 Z"
         style="fill:#a8a8a8;fill-opacity:1;fill-rule:evenodd;stroke:none"
         id="path46"
         inkscape:connector-curvature="0" /></g></g></g><g
   id="g48"><g
     id="g50"
     clip-path="url(#clipPath52)"><g
       id="g56"
       transform="translate(34.8369,122.2146)"><path
         d="M 0,0 17.849,-24.416"
         style="fill:none;stroke:#000000;stroke-width:2.25;stroke-linecap:butt;stroke-linejoin:round;stroke-miterlimit:10;stroke-dasharray:none;stroke-opacity:1"
         id="path58"
         inkscape:connector-curvature="0" /></g><g
       id="g60"
       transform="translate(51.8812,105.5713)"><path
         d="m 0,0 0.804,-7.773 -7.162,3.126"
         style="fill:none;stroke:#000000;stroke-width:2.25;stroke-linecap:round;stroke-linejoin:miter;stroke-miterlimit:10;stroke-dasharray:none;stroke-opacity:1"
         id="path62"
         inkscape:connector-curvature="0" /></g></g></g><g
   aria-label="Geoid "
   transform="matrix(1,0,0,-1,6.0088,129.6621)"
   style="font-variant:normal;font-weight:normal;font-stretch:normal;line-height:0%;font-family:'Architects Daughter';-inkscape-font-specification:ArchitectsDaughter;writing-mode:lr-tb;fill:#000000;fill-opacity:1;fill-rule:nonzero;stroke:none"
   id="text64"><path
     d="m 7.055098,-0.53818362 q -0.5968946,0.27398439 -1.3063184,0.47947268 -0.7045313,0.20059571 -1.3650294,0.20059571 -0.8513086,0 -1.5607325,-0.23484376 Q 2.1135938,-0.32780275 1.6145509,-0.79749027 1.1106153,-1.2720704 0.8366309,-1.9814942 0.56264651,-2.6958107 0.56264651,-3.6498634 q 0,-1.7466505 1.01765629,-2.7545217 1.0225489,-1.0127637 2.8034474,-1.0127637 0.6213575,0 1.2671778,0.15167 0.6507129,0.1467773 1.3992774,0.5039355 v 1.1497559 H 6.962139 Q 6.8104691,-5.7292092 6.5218069,-5.9200198 6.2331448,-6.1108304 5.9542679,-6.2380374 5.6166799,-6.3897073 5.186133,-6.4875589 4.7604787,-6.590303 4.2174025,-6.590303 q -1.2231446,0 -1.937461,0.7877051 -0.7094239,0.7828125 -0.7094239,2.123379 0,1.4139551 0.743672,2.2016602 0.7436719,0.78281257 2.0255274,0.78281257 0.4696875,0 0.9344825,-0.092959 0.4696875,-0.092959 0.8219531,-0.23973639 V -2.8132326 H 4.1440139 V -3.6645412 H 7.055098 Z"
     style="font-size:10.02000046px;line-height:1.25"
     id="path41" /><path
     d="m 14.116928,-2.6370997 h -4.026592 q 0,0.5039355 0.15167,0.8806641 0.15167,0.3718359 0.415869,0.6115723 0.254414,0.23484373 0.601787,0.35226561 0.352266,0.11742188 0.773028,0.11742188 0.557754,0 1.1204,-0.22016603 0.567539,-0.22505856 0.807276,-0.44033206 h 0.04892 v 1.00297857 q -0.464795,0.19570314 -0.94916,0.32780275 -0.484365,0.13209962 -1.017656,0.13209962 -1.360137,0 -2.1233791,-0.73388676 Q 9.1558537,-1.345459 9.1558537,-2.7007032 q 0,-1.3405665 0.7289942,-2.1282716 0.7338871,-0.7877051 1.9276761,-0.7877051 1.105722,0 1.702617,0.6458203 0.601787,0.6458203 0.601787,1.8347169 z M 13.221586,-3.341631 q -0.0049,-0.7241016 -0.366943,-1.1204005 -0.357158,-0.3962988 -1.091045,-0.3962988 -0.738779,0 -1.179111,0.4354395 -0.43544,0.4354394 -0.494151,1.0812598 z"
     style="font-size:10.02000046px;line-height:1.25"
     id="path43" /><path
     d="m 20.683042,-2.7300587 q 0,1.3356739 -0.684961,2.10870125 -0.684961,0.77302738 -1.834717,0.77302738 -1.159541,0 -1.844502,-0.77302738 -0.680069,-0.77302735 -0.680069,-2.10870125 0,-1.3356739 0.680069,-2.1087013 0.684961,-0.7779199 1.844502,-0.7779199 1.149756,0 1.834717,0.7779199 0.684961,0.7730274 0.684961,2.1087013 z m -0.94916,0 q 0,-1.0616895 -0.41587,-1.5754102 -0.415869,-0.5186134 -1.154648,-0.5186134 -0.748565,0 -1.164434,0.5186134 -0.410976,0.5137207 -0.410976,1.5754102 0,1.0274414 0.415869,1.5607325 0.415869,0.52839844 1.159541,0.52839844 0.733887,0 1.149756,-0.52350584 0.420762,-0.5283985 0.420762,-1.5656251 z"
     style="font-size:10.02000046px;line-height:1.25"
     id="path45" /><path
     d="m 23.616788,-6.3799222 h -1.037227 v -0.9540527 h 1.037227 z M 23.558077,0 h -0.919805 v -5.46501 h 0.919805 z"
     style="font-size:10.02000046px;line-height:1.25"
     id="path47" /><path
     d="m 28.985003,0 h -0.919805 v -0.57243167 q -0.396299,0.34248049 -0.826846,0.53329104 -0.430547,0.19081056 -0.934482,0.19081056 -0.978516,0 -1.55584,-0.75345707 -0.572432,-0.75345706 -0.572432,-2.08913096 0,-0.6947461 0.195703,-1.2378223 0.200596,-0.5430762 0.538184,-0.9246973 0.332695,-0.371836 0.773027,-0.5675391 0.445225,-0.1957031 0.919805,-0.1957031 0.430547,0 0.763242,0.092959 0.332696,0.088067 0.699639,0.278877 v -2.3680079 h 0.919805 z m -0.919805,-1.345459 v -3.1361428 q -0.371836,-0.1663476 -0.665391,-0.2299511 -0.293554,-0.063604 -0.640928,-0.063604 -0.773027,0 -1.203574,0.5381837 -0.430547,0.5381836 -0.430547,1.5264844 0,0.9736231 0.332696,1.4824512 0.332695,0.5039356 1.066582,0.5039356 0.391406,0 0.792597,-0.17124024 0.401192,-0.17613286 0.748565,-0.45011716 z"
     style="font-size:10.02000046px;line-height:1.25"
     id="path49" /></g>
<g
   id="g68"
   transform="translate(109.5728,18)"><path
     d="M 0,0 -6.457,14.241"
     style="fill:none;stroke:#000000;stroke-width:2.25;stroke-linecap:butt;stroke-linejoin:round;stroke-miterlimit:10;stroke-dasharray:none;stroke-opacity:1"
     id="path70"
     inkscape:connector-curvature="0" /></g><g
   id="g72"
   transform="translate(102.3166,24.4676)"><path
     d="M 0,0 0.799,7.774 7.172,3.252"
     style="fill:none;stroke:#000000;stroke-width:2.25;stroke-linecap:round;stroke-linejoin:miter;stroke-miterlimit:10;stroke-dasharray:none;stroke-opacity:1"
     id="path74"
     inkscape:connector-curvature="0" /></g><g
   aria-label="Ellipsoid "
   transform="matrix(1,0,0,-1,97.3902,7.2153)"
   style="font-variant:normal;font-weight:normal;font-stretch:normal;line-height:0%;font-family:'Architects Daughter';-inkscape-font-specification:ArchitectsDaughter;writing-mode:lr-tb;fill:#000000;fill-opacity:1;fill-rule:nonzero;stroke:none"
   id="text76"><path
     d="M 5.778135,0 H 0.97851567 V -7.2850492 H 5.778135 v 0.8610938 H 1.9472462 v 1.996172 H 5.778135 v 0.8610938 H 1.9472462 v 2.70559581 H 5.778135 Z"
     style="font-size:10.02000046px;line-height:1.25"
     id="path52" /><path
     d="M 9.209437,0 H 8.2896322 V -7.6128519 H 9.209437 Z"
     style="font-size:10.02000046px;line-height:1.25"
     id="path55" /><path
     d="M 10.832677,0 H 9.9128722 v -7.6128519 h 0.9198048 z"
     style="font-size:10.02000046px;line-height:1.25"
     id="path57" /><path
     d="m 12.514627,-6.3799222 h -1.037226 v -0.9540527 h 1.037226 z M 12.455916,0 h -0.919804 v -5.46501 h 0.919804 z"
     style="font-size:10.02000046px;line-height:1.25"
     id="path59" /><path
     d="m 18.259572,-2.7985548 q 0,0.6653906 -0.190811,1.218252 -0.19081,0.5479688 -0.538184,0.92958988 -0.32291,0.3620508 -0.763242,0.56264651 -0.435439,0.19570313 -0.924697,0.19570313 -0.425654,0 -0.773027,-0.09295898 -0.342481,-0.09295899 -0.699639,-0.28866213 V 2.0157423 H 13.450167 V -5.46501 h 0.919805 v 0.5724317 q 0.366943,-0.3082325 0.821953,-0.5137208 0.459902,-0.2103808 0.978516,-0.2103808 0.988301,0 1.536269,0.7485644 0.552862,0.743672 0.552862,2.0695607 z m -0.949161,0.024463 q 0,-0.9883009 -0.337587,-1.4775587 -0.337588,-0.4892578 -1.037227,-0.4892578 -0.396299,0 -0.79749,0.1712402 -0.401192,0.1712403 -0.768135,0.4501172 v 3.0970021 q 0.391406,0.17613285 0.670283,0.23973636 0.28377,0.0636035 0.640928,0.0636035 0.768135,0 1.198682,-0.51861328 0.430546,-0.5186133 0.430546,-1.5362696 z"
     style="font-size:10.02000046px;line-height:1.25"
     id="path61" /><path
     d="m 23.536785,-1.5754102 q 0,0.74856446 -0.621357,1.22803714 -0.616465,0.47947268 -1.68794,0.47947268 -0.606679,0 -1.115508,-0.14188478 -0.503935,-0.14677735 -0.846416,-0.31801759 V -1.3601368 h 0.04893 q 0.43544,0.3278028 0.968731,0.5235059 0.533291,0.19081056 1.022549,0.19081056 0.606679,0 0.94916,-0.19570314 0.34248,-0.19570312 0.34248,-0.61646482 0,-0.3229102 -0.185918,-0.4892579 -0.185918,-0.1663476 -0.714316,-0.2837695 -0.195703,-0.044033 -0.513721,-0.1027442 -0.313125,-0.058711 -0.572432,-0.127207 -0.719209,-0.1908106 -1.022548,-0.5577539 -0.298448,-0.371836 -0.298448,-0.9100196 0,-0.3375879 0.136992,-0.6360352 0.141885,-0.2984473 0.425655,-0.533291 0.273984,-0.2299512 0.694746,-0.3620508 0.425654,-0.1369922 0.94916,-0.1369922 0.489258,0 0.988301,0.1223144 0.503935,0.1174219 0.836631,0.2886622 v 0.9834082 h -0.04893 q -0.352266,-0.2593067 -0.856201,-0.4354395 -0.503936,-0.1810254 -0.988301,-0.1810254 -0.503936,0 -0.851309,0.1957032 -0.347373,0.1908105 -0.347373,0.5724316 0,0.3375879 0.210381,0.5088282 0.205488,0.1712402 0.665391,0.2788769 0.254414,0.058711 0.567539,0.1174219 0.318018,0.058711 0.528398,0.1076367 0.640928,0.1467774 0.988301,0.5039356 0.347373,0.3620508 0.347373,0.9589454 z"
     style="font-size:10.02000046px;line-height:1.25"
     id="path63" /><path
     d="m 29.931502,-2.7300587 q 0,1.3356739 -0.68496,2.10870125 -0.684961,0.77302738 -1.834717,0.77302738 -1.159541,0 -1.844502,-0.77302738 -0.680069,-0.77302735 -0.680069,-2.10870125 0,-1.3356739 0.680069,-2.1087013 0.684961,-0.7779199 1.844502,-0.7779199 1.149756,0 1.834717,0.7779199 0.68496,0.7730274 0.68496,2.1087013 z m -0.94916,0 q 0,-1.0616895 -0.415869,-1.5754102 -0.415869,-0.5186134 -1.154648,-0.5186134 -0.748565,0 -1.164434,0.5186134 -0.410977,0.5137207 -0.410977,1.5754102 0,1.0274414 0.41587,1.5607325 0.415869,0.52839844 1.159541,0.52839844 0.733886,0 1.149756,-0.52350584 0.420761,-0.5283985 0.420761,-1.5656251 z"
     style="font-size:10.02000046px;line-height:1.25"
     id="path65" /><path
     d="m 32.865249,-6.3799222 h -1.037227 v -0.9540527 h 1.037227 z M 32.806538,0 h -0.919805 v -5.46501 h 0.919805 z"
     style="font-size:10.02000046px;line-height:1.25"
     id="path67" /><path
     d="m 38.233463,0 h -0.919804 v -0.57243167 q -0.396299,0.34248049 -0.826846,0.53329104 -0.430547,0.19081056 -0.934483,0.19081056 -0.978515,0 -1.555839,-0.75345707 -0.572432,-0.75345706 -0.572432,-2.08913096 0,-0.6947461 0.195703,-1.2378223 0.200596,-0.5430762 0.538184,-0.9246973 0.332695,-0.371836 0.773027,-0.5675391 0.445225,-0.1957031 0.919805,-0.1957031 0.430547,0 0.763242,0.092959 0.332695,0.088067 0.699639,0.278877 v -2.3680079 h 0.919804 z m -0.919804,-1.345459 v -3.1361428 q -0.371836,-0.1663476 -0.665391,-0.2299511 -0.293555,-0.063604 -0.640928,-0.063604 -0.773027,0 -1.203574,0.5381837 -0.430547,0.5381836 -0.430547,1.5264844 0,0.9736231 0.332695,1.4824512 0.332696,0.5039356 1.066582,0.5039356 0.391407,0 0.792598,-0.17124024 0.401192,-0.17613286 0.748565,-0.45011716 z"
     style="font-size:10.02000046px;line-height:1.25"
     id="path69" /></g>
</g></svg>