<?xml version="1.0" encoding="UTF-8" standalone="no"?>
<svg
   xmlns:dc="http://purl.org/dc/elements/1.1/"
   xmlns:cc="http://creativecommons.org/ns#"
   xmlns:rdf="http://www.w3.org/1999/02/22-rdf-syntax-ns#"
   xmlns:svg="http://www.w3.org/2000/svg"
   xmlns="http://www.w3.org/2000/svg"
   xmlns:sodipodi="http://sodipodi.sourceforge.net/DTD/sodipodi-0.dtd"
   xmlns:inkscape="http://www.inkscape.org/namespaces/inkscape"
   version="1.0"
   width="83.57592mm"
   height="46.690357mm"
   id="svg3336"
   inkscape:version="0.92.3 (2405546, 2018-03-11)"
   viewBox="0 0 83.575922 46.690357"
   sodipodi:docname="Directory_full.svg">
  <metadata
     id="metadata3454">
    <rdf:RDF>
      <cc:Work
         rdf:about="">
        <dc:format>image/svg+xml</dc:format>
        <dc:type
           rdf:resource="http://purl.org/dc/dcmitype/StillImage" />
        <dc:title />
      </cc:Work>
    </rdf:RDF>
  </metadata>
  <sodipodi:namedview
     pagecolor="#ffffff"
     bordercolor="#666666"
     borderopacity="1"
     objecttolerance="10"
     gridtolerance="10"
     guidetolerance="10"
     inkscape:pageopacity="0"
     inkscape:pageshadow="2"
     inkscape:window-width="1920"
     inkscape:window-height="1046"
     id="namedview3452"
     inkscape:document-units="mm"
     showgrid="false"
     inkscape:zoom="5.1498296"
     inkscape:cx="79.522409"
     inkscape:cy="136.31449"
     inkscape:window-x="-11"
     inkscape:window-y="-11"
     inkscape:window-maximized="1"
     inkscape:current-layer="svg3336"
     fit-margin-top="0"
     fit-margin-left="0"
     fit-margin-right="0"
     fit-margin-bottom="0" />
  <defs
     id="defs3338">
    <clipPath
       clipPathUnits="userSpaceOnUse"
       id="clipEmfPath1">
      <path
         d="m 9.60383,0.15006 360.14317,0 0,270.10794 -360.14317,0 z"
         id="path3341"
         inkscape:connector-curvature="0" />
    </clipPath>
    <pattern
       id="EMFhbasepattern"
       patternUnits="userSpaceOnUse"
       width="6"
       height="6"
       x="0"
       y="0" />
  </defs>
  <text
     xml:space="preserve"
     style="font-style:normal;font-variant:normal;font-weight:400;line-height:0%;font-family:Calibri;text-align:start;letter-spacing:0px;word-spacing:0px;text-anchor:start;fill:#000000;fill-opacity:1;stroke:none"
     x="39.085697"
     y="30.703415"
     id="text3346"><tspan
       sodipodi:role="line"
       x="39.085697"
       y="30.703415"
       id="tspan3348"
       style="font-size:2.83986092px;line-height:1.25"><tspan
         dx="0"
         dy="0"
         style="font-style:normal;font-variant:normal;font-weight:400;font-size:2.83986115px;font-family:Calibri;fill:#000000"
         id="tspan3350">HW05/</tspan></tspan></text>
  <text
     xml:space="preserve"
     style="font-style:normal;font-variant:normal;font-weight:400;line-height:0%;font-family:Calibri;text-align:start;letter-spacing:0px;word-spacing:0px;text-anchor:start;fill:#000000;fill-opacity:1;stroke:none"
     x="20.423506"
     y="46.185616"
     id="text3352"><tspan
       sodipodi:role="line"
       x="20.423506"
       y="46.185616"
       id="tspan3354"
       style="font-size:2.83986092px;line-height:1.25"><tspan
         dx="0"
         dy="0"
         style="font-style:normal;font-variant:normal;font-weight:400;font-size:2.83986115px;font-family:Calibri;fill:#000000"
         id="tspan3356">Map.mxd</tspan></tspan></text>
  <text
     xml:space="preserve"
     style="font-style:normal;font-variant:normal;font-weight:400;line-height:0%;font-family:Calibri;text-align:start;letter-spacing:0px;word-spacing:0px;text-anchor:start;fill:#000000;fill-opacity:1;stroke:none"
     x="46.200558"
     y="46.185589"
     id="text3358"><tspan
       sodipodi:role="line"
       x="46.200558"
       y="46.185589"
       id="tspan3360"
       style="font-size:2.83986092px;line-height:1.25"><tspan
         dx="0"
         dy="0"
         style="font-style:normal;font-variant:normal;font-weight:400;font-size:2.83986115px;font-family:Calibri;fill:#000000"
         id="tspan3362">Roads.shp</tspan></tspan></text>
  <text
     xml:space="preserve"
     style="font-style:normal;font-variant:normal;font-weight:400;line-height:0%;font-family:Calibri;text-align:start;letter-spacing:0px;word-spacing:0px;text-anchor:start;fill:#000000;fill-opacity:1;stroke:none"
     x="72.625542"
     y="46.185616"
     id="text3364"><tspan
       sodipodi:role="line"
       x="72.625542"
       y="46.185616"
       id="tspan3366"
       style="font-size:2.83986092px;line-height:1.25"><tspan
         dx="0"
         dy="0"
         style="font-style:normal;font-variant:normal;font-weight:400;font-size:2.83986115px;font-family:Calibri;fill:#000000"
         id="tspan3368">Cities.shp</tspan></tspan></text>
  <path
     style="fill:#7f7f7f;fill-opacity:1;fill-rule:nonzero;stroke:#7f7f7f;stroke-width:0.00264689px;stroke-linecap:butt;stroke-linejoin:round;stroke-miterlimit:4;stroke-dasharray:none;stroke-opacity:1"
     d="m 44.455537,37.71732 -18.480475,0 c -0.09804,0 -0.177462,0.07931 -0.177462,0.177236 l 0,4.026182 0.352157,0 0,-4.026182 -0.174695,0.177518 18.480475,0 z m -19.867541,2.173111 1.387066,2.379698 1.38684,-2.379698 c 0.05024,-0.08213 0.02117,-0.1905 -0.0635,-0.240735 -0.08467,-0.0477 -0.193322,-0.02117 -0.240736,0.0635 l -1.236218,2.117513 0.30432,0 -1.233395,-2.117513 c -0.05029,-0.08467 -0.158807,-0.111196 -0.240849,-0.0635 -0.08472,0.05023 -0.11382,0.158609 -0.06353,0.240735 z"
     id="path3370"
     inkscape:connector-curvature="0" />
  <path
     style="fill:#7f7f7f;fill-opacity:1;fill-rule:nonzero;stroke:#7f7f7f;stroke-width:0.00264689px;stroke-linecap:butt;stroke-linejoin:round;stroke-miterlimit:4;stroke-dasharray:none;stroke-opacity:1"
     d="m 44.455537,37.71732 7.718214,0 c 0.09793,0 0.177517,0.07931 0.177517,0.177236 l 0,4.026182 -0.352213,0 0,-4.026182 0.174696,0.177518 -7.718214,0 z m 9.107876,2.173111 -1.389662,2.379698 -1.38684,-2.379698 c -0.05024,-0.08213 -0.02117,-0.1905 0.0635,-0.240735 0.08467,-0.0477 0.193322,-0.02117 0.240735,0.0635 l 1.236134,2.117513 -0.304236,0 1.233311,-2.117513 c 0.05024,-0.08467 0.158891,-0.111196 0.243558,-0.0635 0.08213,0.05023 0.111195,0.158609 0.0635,0.240735 z"
     id="path3372"
     inkscape:connector-curvature="0" />
  <path
     style="fill:#7f7f7f;fill-opacity:1;fill-rule:nonzero;stroke:#7f7f7f;stroke-width:0.00264689px;stroke-linecap:butt;stroke-linejoin:round;stroke-miterlimit:4;stroke-dasharray:none;stroke-opacity:1"
     d="m 44.455537,37.71732 35.28314,0 c 0.09793,0 0.177236,0.07931 0.177236,0.177236 l 0,4.026182 -0.351931,0 0,-4.026182 0.174695,0.177518 -35.28314,0 z m 36.67252,2.173111 -1.38938,2.379698 -1.387122,-2.379698 c -0.05024,-0.08213 -0.02117,-0.1905 0.0635,-0.240735 0.08467,-0.0477 0.193322,-0.02117 0.241018,0.0635 l 1.236133,2.117513 -0.304518,0 1.233312,-2.117513 c 0.05052,-0.08467 0.158891,-0.111196 0.243557,-0.0635 0.08213,0.05023 0.111196,0.158609 0.0635,0.240735 z"
     id="path3374"
     inkscape:connector-curvature="0" />
  <text
     xml:space="preserve"
     style="font-style:normal;font-variant:normal;font-weight:400;line-height:0%;font-family:Calibri;text-align:start;letter-spacing:0px;word-spacing:0px;text-anchor:start;fill:#000000;fill-opacity:1;stroke:none"
     x="41.996078"
     y="9.1211729"
     id="text3376"><tspan
       sodipodi:role="line"
       x="41.996078"
       y="9.1211729"
       id="tspan3378"
       style="font-size:2.83986092px;line-height:1.25"><tspan
         dx="0"
         dy="0"
         style="font-style:normal;font-variant:normal;font-weight:400;font-size:2.83986115px;font-family:Calibri;fill:#000000"
         id="tspan3380">D:</tspan></tspan></text>
  <text
     xml:space="preserve"
     style="font-style:normal;font-variant:normal;font-weight:400;line-height:0%;font-family:Calibri;text-align:start;letter-spacing:0px;word-spacing:0px;text-anchor:start;fill:#000000;fill-opacity:1;stroke:none"
     x="36.717392"
     y="18.181059"
     id="text3382"><tspan
       sodipodi:role="line"
       x="36.717392"
       y="18.181059"
       id="tspan3384"
       style="font-size:2.83986092px;line-height:1.25"><tspan
         dx="0"
         dy="0"
         style="font-style:normal;font-variant:normal;font-weight:400;font-size:2.83986115px;font-family:Calibri;fill:#000000"
         id="tspan3386">Username/</tspan></tspan></text>
  <path
     style="fill:none;stroke:#7f7f7f;stroke-width:0.08734732px;stroke-linecap:butt;stroke-linejoin:round;stroke-miterlimit:4;stroke-dasharray:none;stroke-opacity:1"
     d="m 43.232668,10.414691 0,2.305445 0,0 0,2.308098"
     id="path3388"
     inkscape:connector-curvature="0" />
  <path
     style="fill:none;stroke:#7f7f7f;stroke-width:0.08734732px;stroke-linecap:butt;stroke-linejoin:round;stroke-miterlimit:4;stroke-dasharray:none;stroke-opacity:1"
     d="m 43.232668,19.474984 0,7.313281"
     id="path3390"
     inkscape:connector-curvature="0" />
  <path
     style="fill:none;stroke:#7f7f7f;stroke-width:0.08734732px;stroke-linecap:butt;stroke-linejoin:round;stroke-miterlimit:4;stroke-dasharray:none;stroke-opacity:1"
     d="m 43.232668,32.773069 0,5.121487"
     id="path3392"
     inkscape:connector-curvature="0" />
  <path
     style="fill:#ff0000;fill-opacity:1;fill-rule:nonzero;stroke:#ff0000;stroke-width:0.00937874px;stroke-linecap:butt;stroke-linejoin:round;stroke-miterlimit:4;stroke-dasharray:none;stroke-opacity:1"
     clip-path="url(#clipEmfPath1)"
     d="m 77.9373,171.115 -2.9449,-0.347 -2.7105,-0.525 -2.5322,-0.694 -2.3541,-0.863 -2.1759,-1.022 -2.007,-1.173 -1.8382,-1.331 -1.6695,-1.464 -1.5005,-1.594 -1.3506,-1.735 -1.2005,-1.848 -1.0222,-1.969 -0.9004,-2.101 -0.7409,-2.204 -0.6003,-2.307 -0.4501,-2.41 -0.3095,-2.505 -0.1782,-2.588 -0.0282,-2.673 0.1032,-2.748 0.2345,-2.823 0.3751,-2.87 0.4971,-2.935 0.6284,-2.992 0.7503,-3.03 0.8722,-3.066 0.9941,-3.105 1.1067,-3.123 1.2286,-3.142 1.3318,-3.17 1.4443,-3.16 1.5569,-3.161 1.66,-3.1701 1.7726,-3.1419 1.857,-3.1231 1.9602,-3.1137 2.0539,-3.0669 2.1477,-3.0481 2.2322,-3.0012 2.3259,-2.9355 2.4103,-2.8981 2.4854,-2.8417 2.5698,-2.7574 2.6448,-2.6917 2.7292,-2.6166 2.7855,-2.5323 2.8605,-2.4385 2.9262,-2.3353 2.992,-2.2321 3.067,-2.129 3.104,-2.0164 3.17,-1.8851 3.217,-1.7632 3.282,-1.6319 3.33,-1.4913 3.358,-1.3411 3.413,-1.1911 3.461,-1.0317 3.498,-0.8722 3.527,-0.7034 3.554,-0.5252 3.602,-0.3376 3.611,-0.1595 2.419,0.0188 0.01,-1.2474 -2.476,-0.0188 -3.686,0.1595 -3.658,0.3564 -3.629,0.5252 -3.583,0.7221 -3.555,0.891 -3.498,1.0504 -3.47,1.2099 -3.414,1.3599 -3.367,1.51 -3.32,1.6507 -3.273,1.7819 -3.208,1.9227 -3.142,2.0351 -3.085,2.1478 -3.0295,2.2509 -2.9636,2.3728 -2.8793,2.4572 -2.823,2.551 -2.748,2.6542 -2.6635,2.7105 -2.6073,2.7948 -2.5042,2.8606 -2.4291,2.9167 -2.3446,2.9731 -2.2509,3.02 -2.1665,3.0668 -2.0727,3.1044 -1.9789,3.1325 -1.8758,3.1606 -1.7819,3.17 -1.6695,3.1982 -1.5756,3.1984 -1.4631,3.198 -1.3505,3.189 -1.2286,3.179 -1.1255,3.161 -1.0129,3.142 -0.8722,3.104 -0.7691,3.086 -0.6283,3.029 -0.5159,2.992 -0.3751,2.926 -0.2345,2.879 -0.1031,2.804 0.0281,2.748 0.1782,2.664 0.3282,2.579 0.469,2.485 0.619,2.401 0.7784,2.298 0.9379,2.176 1.0973,2.082 1.2567,1.941 1.4256,1.811 1.5944,1.688 1.7538,1.538 1.9414,1.388 2.1009,1.229 2.279,1.059 2.4572,0.901 2.6261,0.712 2.8042,0.544 2.9449,0.347 z m 67.4147,-131.4429 8.469,-4.8582 -8.394,-4.9801 c -0.3,-0.1689 -0.676,-0.0751 -0.854,0.2251 -0.178,0.2907 -0.084,0.6752 0.216,0.8534 l 7.465,4.4362 0.01,-1.0786 -7.531,4.3142 c -0.3,0.1688 -0.404,0.5534 -0.235,0.8535 0.169,0.3001 0.554,0.4033 0.854,0.2345 z"
     id="path3400"
     inkscape:connector-curvature="0"
     transform="matrix(0.28222222,0,0,0.28222222,-2.2567556,-2.3565419)" />
  <path
     style="fill:#ff0000;fill-opacity:1;fill-rule:nonzero;stroke:#ff0000;stroke-width:0.00264689px;stroke-linecap:butt;stroke-linejoin:round;stroke-miterlimit:4;stroke-dasharray:none;stroke-opacity:1"
     d="m 47.989242,7.5401734 0.666891,0 0.653909,0.01854 0.63246,0.03968 0.622018,0.06088 0.600851,0.08207 0.585046,0.103237 0.561058,0.124403 0.537351,0.145571 0.510822,0.166736 0.481754,0.187932 0.455224,0.206474 0.420794,0.230265 0.383822,0.248807 0.352213,0.272627 0.312138,0.291169 0.272627,0.3123346 0.233115,0.336155 0.1905,0.352044 0.145627,0.375835 0.100471,0.399683 0.0556,0.423503 0.0054,0.442045 -0.04516,0.471141 -0.09793,0.497615 -0.153529,0.521433 -0.217029,0.547907 -0.272626,0.577031 -0.158609,0.293793 -0.177518,0.304405 -0.19304,0.309683 -0.209127,0.320266 -0.224931,0.322918 -0.243557,0.330878 -0.262185,0.333502 -0.277989,0.346738 -0.296333,0.349391 -0.08467,0.09528 0.264725,0.235571 0.08721,-0.103209 0.301696,-0.357349 0.283351,-0.346739 0.267264,-0.344085 0.24892,-0.338808 0.230294,-0.330849 0.214206,-0.325571 0.198685,-0.320294 0.182598,-0.31496 0.169333,-0.309683 0.283351,-0.598198 0.222391,-0.579685 0.163971,-0.553183 0.103294,-0.529393 0.04487,-0.508197 -0.0054,-0.489684 -0.06604,-0.460559 -0.113736,-0.442016 -0.164253,-0.412919 -0.211667,-0.3891 -0.254,-0.3652516 -0.299152,-0.336157 -0.338949,-0.312335 -0.373098,-0.291169 -0.410351,-0.262043 -0.44196,-0.240849 -0.471029,-0.217057 -0.50292,-0.193237 -0.526909,-0.172043 -0.553155,-0.150876 -0.577145,-0.124404 -0.595489,-0.105861 -0.616655,-0.08469 -0.63246,-0.06088 -0.648547,-0.03971 -0.661811,-0.01854 -0.666891,0 z m 6.299482,8.1206616 -0.534811,2.702475 2.615353,-0.865547 c 0.09257,-0.03175 0.142805,-0.132334 0.111196,-0.224987 -0.02935,-0.09263 -0.129822,-0.140265 -0.222391,-0.111168 l -2.32664,0.770241 0.227471,0.201168 0.476673,-2.403376 c 0.01835,-0.09528 -0.04516,-0.187932 -0.140264,-0.209099 -0.09539,-0.01854 -0.18796,0.04499 -0.206587,0.140293 z"
     id="path3402"
     inkscape:connector-curvature="0" />
  <path
     style="fill:#ff0000;fill-opacity:1;fill-rule:nonzero;stroke:#ff0000;stroke-width:0.00264689px;stroke-linecap:butt;stroke-linejoin:round;stroke-miterlimit:4;stroke-dasharray:none;stroke-opacity:1"
     d="m 52.647602,19.244719 0.646006,0.0027 0.584765,0.02644 0.531989,0.05294 0.479213,0.07676 0.426156,0.103237 0.373097,0.127056 0.325685,0.148224 0.275167,0.169389 -0.02371,-0.01589 0.243558,0.206474 -0.01863,-0.01854 0.198684,0.22764 -0.01863,-0.02382 0.153529,0.254085 -0.01326,-0.0291 0.105834,0.277905 -0.0079,-0.02644 0.0635,0.301724 -0.0025,-0.02647 0.01835,0.325571 -0.02371,0.328225 -0.0635,0.354668 -0.103293,0.378517 -0.142805,0.404989 -0.18542,0.42878 -0.222391,0.455281 -0.261902,0.476419 -0.301696,0.50292 -0.336408,0.52674 -0.373098,0.545253 -0.407529,0.569017 -0.444782,0.587586 -0.476391,0.611576 -0.510823,0.62992 -0.545253,0.656449 -0.574322,0.672253 -0.606214,0.69342 -0.404988,0.455224 0.264724,0.233116 0.407529,-0.458047 0.606213,-0.69342 0.579685,-0.677615 0.545253,-0.658989 0.516184,-0.635282 0.481754,-0.614116 0.449862,-0.598311 0.412891,-0.574322 0.37846,-0.555809 0.341489,-0.532017 0.307058,-0.516128 0.267264,-0.489684 0.233116,-0.471141 0.1905,-0.449975 0.153529,-0.431434 0.108373,-0.410266 0.06886,-0.391753 0.02399,-0.370557 -0.01863,-0.325572 c 0,-0.01058 -0.0025,-0.01854 -0.0025,-0.02647 l -0.0635,-0.301752 c -0.0028,-0.01058 -0.0054,-0.01851 -0.0082,-0.02647 l -0.105833,-0.277904 c -0.0051,-0.01058 -0.0079,-0.02119 -0.01326,-0.02912 l -0.153529,-0.254085 c -0.0051,-0.008 -0.01298,-0.01589 -0.01834,-0.02385 l -0.198685,-0.227612 c -0.0051,-0.008 -0.01326,-0.01324 -0.01834,-0.01854 L 56.496339,19.66827 c -0.0079,-0.008 -0.0158,-0.01324 -0.02399,-0.01589 l -0.312137,-0.190584 -0.357294,-0.164084 -0.404989,-0.132363 -0.452684,-0.108514 -0.50038,-0.08204 -0.550333,-0.05295 -0.598312,-0.02647 -0.645724,-0.0027 z m -1.19888,9.115806 -0.545254,2.70002 2.617612,-0.855134 c 0.09257,-0.03161 0.143086,-0.132362 0.113735,-0.224931 -0.03161,-0.09257 -0.12954,-0.142804 -0.222109,-0.111195 l -2.332002,0.759742 0.230293,0.203764 0.481754,-2.403404 0,0 c 0.02117,-0.09539 -0.04233,-0.18796 -0.137725,-0.206305 -0.09511,-0.02117 -0.18796,0.04233 -0.206304,0.137443 z"
     id="path3404"
     inkscape:connector-curvature="0" />
  <path
     style="fill:#ff0000;fill-opacity:1;fill-rule:nonzero;stroke:#ff0000;stroke-width:0.00264689px;stroke-linecap:butt;stroke-linejoin:round;stroke-miterlimit:4;stroke-dasharray:none;stroke-opacity:1"
     d="m 51.3189,31.785574 0.648546,-0.0051 0.595489,0.0079 0.545253,0.01834 0.497558,0.03189 0.452685,0.04233 0.410351,0.0556 0.362655,0.06604 0.32004,0.07959 0.277989,0.09257 0.238196,0.100471 0.195862,0.111196 0.158891,0.12192 -0.02117,-0.01863 0.142805,0.145627 -0.02117,-0.02371 0.108656,0.161431 -0.01326,-0.02653 0.07676,0.171874 -0.01044,-0.03161 0.04487,0.185137 -0.0054,-0.02625 0.01609,0.200942 -0.01326,0.18542 -0.03979,0.206304 -0.0635,0.227754 -0.08749,0.240735 -0.113736,0.256823 -0.132362,0.275448 -0.156069,0.290972 -0.177518,0.307057 -0.195862,0.320323 -0.214207,0.336126 -0.230293,0.352214 -0.505742,0.749017 -0.354471,0.521265 0.290971,0.198684 0.357293,-0.521546 0.505742,-0.75438 0.235374,-0.357294 0.214489,-0.341489 0.201224,-0.325402 0.182598,-0.317782 0.161431,-0.301696 0.143087,-0.291253 0.119097,-0.277707 0.09793,-0.267546 0.06886,-0.254 0.04487,-0.24892 0.01326,-0.238196 -0.0158,-0.201224 c 0,-0.0079 -0.0028,-0.01834 -0.0054,-0.02625 l -0.04516,-0.18542 c -0.0025,-0.01044 -0.0051,-0.02117 -0.01044,-0.03161 l -0.07676,-0.172155 c -0.0025,-0.0079 -0.0079,-0.01863 -0.01326,-0.02653 l -0.108655,-0.161431 c -0.0051,-0.0079 -0.01298,-0.0158 -0.02117,-0.02371 l -0.142805,-0.145627 c -0.0054,-0.0079 -0.01326,-0.01326 -0.02117,-0.01863 l -0.195862,-0.145627 -0.232834,-0.12954 -0.264724,-0.111196 -0.299156,-0.09793 -0.341489,-0.08467 -0.383822,-0.0714 -0.420793,-0.0556 -0.463127,-0.04233 -0.508282,-0.03189 -0.555978,-0.01863 -0.600851,-0.0079 -0.648264,0.0054 z m 2.879795,3.372273 -0.195862,2.747433 2.488071,-1.183075 c 0.08749,-0.04233 0.127,-0.145627 0.08467,-0.235656 -0.04233,-0.08749 -0.148167,-0.12446 -0.235374,-0.08213 l -2.215444,1.050996 0.251178,0.171873 0.174695,-2.445737 0,0 c 0.0082,-0.09511 -0.06604,-0.179776 -0.161431,-0.18796 -0.09793,-0.0051 -0.182598,0.06632 -0.1905,0.164253 z"
     id="path3406"
     inkscape:connector-curvature="0" />
  <path
     style="fill:#ff0000;fill-opacity:1;fill-rule:nonzero;stroke:#ff0000;stroke-width:0.00264689px;stroke-linecap:butt;stroke-linejoin:round;stroke-miterlimit:4;stroke-dasharray:none;stroke-opacity:1"
     d="m 57.967773,30.973056 0.682978,-0.01044 0.704144,-0.0028 0.722489,0 0.741116,0.0054 1.519484,0.03443 1.556173,0.0714 1.577623,0.113735 1.575082,0.164254 0.778086,0.100471 0.775547,0.114018 0.762282,0.134902 0.749018,0.150707 0.741116,0.166793 0.717409,0.182598 0.701322,0.204046 0.675075,0.227471 0.653627,0.243558 0.62738,0.267265 0.595489,0.288713 0.56642,0.312138 0.531989,0.336126 0.492478,0.360116 0.455224,0.386362 0.418253,0.412891 0.373098,0.43942 0.325685,0.465949 0.277988,0.492196 0.08975,0.206586 0.323145,-0.143086 -0.105837,-0.235433 -0.296615,-0.524086 -0.346851,-0.492478 -0.394265,-0.460587 -0.434058,-0.428695 -0.476391,-0.402449 -0.513644,-0.375638 -0.547794,-0.346851 -0.582224,-0.317782 -0.611576,-0.298874 -0.643184,-0.272626 -0.664351,-0.24892 -0.69088,-0.230294 -0.712047,-0.206304 -0.727851,-0.18796 -0.746478,-0.166793 -0.75946,-0.150989 -0.773006,-0.134902 -0.780909,-0.119098 -0.788811,-0.100754 -1.585243,-0.163971 -1.582984,-0.113735 -1.566898,-0.07169 -1.524564,-0.03415 -0.743938,-0.0054 -0.725029,0 -0.709507,0.0025 -0.682977,0.01072 z m 18.459591,4.499751 2.231249,1.617133 0.307058,-2.736709 c 0.01326,-0.09793 -0.05814,-0.18542 -0.153529,-0.195862 -0.09793,-0.01072 -0.18542,0.05814 -0.195862,0.156069 l -0.275167,2.435013 0.277707,-0.121637 -1.985152,-1.439898 c -0.07676,-0.0556 -0.18796,-0.03979 -0.246097,0.03979 -0.0556,0.07931 -0.03979,0.18796 0.03979,0.246098 z"
     id="path3408"
     inkscape:connector-curvature="0" />
  <text
     xml:space="preserve"
     style="font-style:normal;font-variant:normal;font-weight:normal;font-stretch:normal;font-size:4.23333311px;line-height:0%;font-family:Arial;-inkscape-font-specification:'Arial, Normal';font-variant-ligatures:normal;font-variant-caps:normal;font-variant-numeric:normal;font-feature-settings:normal;text-align:start;letter-spacing:0px;word-spacing:0px;writing-mode:lr-tb;text-anchor:start;fill:#000000;fill-opacity:1;stroke:none"
     x="0.75382698"
     y="3.5544732"
     id="text3410"
     transform="scale(0.99898353,1.0010175)"><tspan
       sodipodi:role="line"
       x="0.75382698"
       y="3.5544732"
       id="tspan3412"
       style="font-style:normal;font-variant:normal;font-weight:normal;font-stretch:normal;font-size:4.23333311px;line-height:1.25;font-family:Arial;-inkscape-font-specification:'Arial, Normal';font-variant-ligatures:normal;font-variant-caps:normal;font-variant-numeric:normal;font-feature-settings:normal;text-align:start;writing-mode:lr-tb;text-anchor:start"><tspan
         dx="0"
         dy="0"
         style="font-style:normal;font-variant:normal;font-weight:normal;font-stretch:normal;font-size:4.23333311px;font-family:Arial;-inkscape-font-specification:'Arial, Normal';font-variant-ligatures:normal;font-variant-caps:normal;font-variant-numeric:normal;font-feature-settings:normal;text-align:start;writing-mode:lr-tb;text-anchor:start;fill:#ff0000"
         id="tspan3414">The map </tspan></tspan></text>
  <text
     xml:space="preserve"
     style="font-style:normal;font-variant:normal;font-weight:normal;font-stretch:normal;font-size:4.23333311px;line-height:0%;font-family:Arial;-inkscape-font-specification:'Arial, Normal';font-variant-ligatures:normal;font-variant-caps:normal;font-variant-numeric:normal;font-feature-settings:normal;text-align:start;letter-spacing:0px;word-spacing:0px;writing-mode:lr-tb;text-anchor:start;fill:#000000;fill-opacity:1;stroke:none"
     x="0.75382698"
     y="7.4246502"
     id="text3416"
     transform="scale(0.99898353,1.0010175)"><tspan
       sodipodi:role="line"
       x="0.75382698"
       y="7.4246502"
       id="tspan3418"
       style="font-style:normal;font-variant:normal;font-weight:normal;font-stretch:normal;font-size:4.23333311px;line-height:1.25;font-family:Arial;-inkscape-font-specification:'Arial, Normal';font-variant-ligatures:normal;font-variant-caps:normal;font-variant-numeric:normal;font-feature-settings:normal;text-align:start;writing-mode:lr-tb;text-anchor:start"><tspan
         dx="0"
         dy="0"
         style="font-style:normal;font-variant:normal;font-weight:normal;font-stretch:normal;font-size:4.23333311px;font-family:Arial;-inkscape-font-specification:'Arial, Normal';font-variant-ligatures:normal;font-variant-caps:normal;font-variant-numeric:normal;font-feature-settings:normal;text-align:start;writing-mode:lr-tb;text-anchor:start;fill:#ff0000"
         id="tspan3420">document </tspan></tspan></text>
  <text
     xml:space="preserve"
     style="font-style:normal;font-variant:normal;font-weight:normal;font-stretch:normal;font-size:4.23333311px;line-height:0%;font-family:Arial;-inkscape-font-specification:'Arial, Normal';font-variant-ligatures:normal;font-variant-caps:normal;font-variant-numeric:normal;font-feature-settings:normal;text-align:start;letter-spacing:0px;word-spacing:0px;writing-mode:lr-tb;text-anchor:start;fill:#000000;fill-opacity:1;stroke:none"
     x="0.75382698"
     y="11.294826"
     id="text3422"
     transform="scale(0.99898353,1.0010175)"><tspan
       sodipodi:role="line"
       x="0.75382698"
       y="11.294826"
       id="tspan3424"
       style="font-style:normal;font-variant:normal;font-weight:normal;font-stretch:normal;font-size:4.23333311px;line-height:1.25;font-family:Arial;-inkscape-font-specification:'Arial, Normal';font-variant-ligatures:normal;font-variant-caps:normal;font-variant-numeric:normal;font-feature-settings:normal;text-align:start;writing-mode:lr-tb;text-anchor:start"><tspan
         dx="0"
         dy="0"
         style="font-style:normal;font-variant:normal;font-weight:normal;font-stretch:normal;font-size:4.23333311px;font-family:Arial;-inkscape-font-specification:'Arial, Normal';font-variant-ligatures:normal;font-variant-caps:normal;font-variant-numeric:normal;font-feature-settings:normal;text-align:start;writing-mode:lr-tb;text-anchor:start;fill:#ff0000"
         id="tspan3426">looks for </tspan></tspan></text>
  <text
     xml:space="preserve"
     style="font-style:normal;font-variant:normal;font-weight:normal;font-stretch:normal;font-size:4.23333311px;line-height:0%;font-family:Arial;-inkscape-font-specification:'Arial, Normal';font-variant-ligatures:normal;font-variant-caps:normal;font-variant-numeric:normal;font-feature-settings:normal;text-align:start;letter-spacing:0px;word-spacing:0px;writing-mode:lr-tb;text-anchor:start;fill:#000000;fill-opacity:1;stroke:none"
     x="0.75382698"
     y="15.165006"
     id="text3428"
     transform="scale(0.99898353,1.0010175)"><tspan
       sodipodi:role="line"
       x="0.75382698"
       y="15.165006"
       id="tspan3430"
       style="font-style:normal;font-variant:normal;font-weight:normal;font-stretch:normal;font-size:4.23333311px;line-height:1.25;font-family:Arial;-inkscape-font-specification:'Arial, Normal';font-variant-ligatures:normal;font-variant-caps:normal;font-variant-numeric:normal;font-feature-settings:normal;text-align:start;writing-mode:lr-tb;text-anchor:start"><tspan
         dx="0"
         dy="0"
         style="font-style:normal;font-variant:normal;font-weight:normal;font-stretch:normal;font-size:4.23333311px;font-family:Arial;-inkscape-font-specification:'Arial, Normal';font-variant-ligatures:normal;font-variant-caps:normal;font-variant-numeric:normal;font-feature-settings:normal;text-align:start;writing-mode:lr-tb;text-anchor:start;fill:#ff0000"
         id="tspan3432">files </tspan></tspan></text>
  <text
     xml:space="preserve"
     style="font-style:normal;font-variant:normal;font-weight:normal;font-stretch:normal;font-size:4.23333311px;line-height:0%;font-family:Arial;-inkscape-font-specification:'Arial, Normal';font-variant-ligatures:normal;font-variant-caps:normal;font-variant-numeric:normal;font-feature-settings:normal;text-align:start;letter-spacing:0px;word-spacing:0px;writing-mode:lr-tb;text-anchor:start;fill:#000000;fill-opacity:1;stroke:none"
     x="0.75382698"
     y="19.035181"
     id="text3434"
     transform="scale(0.99898353,1.0010175)"><tspan
       sodipodi:role="line"
       x="0.75382698"
       y="19.035181"
       id="tspan3436"
       style="font-style:normal;font-variant:normal;font-weight:normal;font-stretch:normal;font-size:4.23333311px;line-height:1.25;font-family:Arial;-inkscape-font-specification:'Arial, Normal';font-variant-ligatures:normal;font-variant-caps:normal;font-variant-numeric:normal;font-feature-settings:normal;text-align:start;writing-mode:lr-tb;text-anchor:start"><tspan
         dx="0"
         dy="0"
         style="font-style:normal;font-variant:normal;font-weight:normal;font-stretch:normal;font-size:4.23333311px;font-family:Arial;-inkscape-font-specification:'Arial, Normal';font-variant-ligatures:normal;font-variant-caps:normal;font-variant-numeric:normal;font-feature-settings:normal;text-align:start;writing-mode:lr-tb;text-anchor:start;fill:#ff0000"
         id="tspan3438">starting at </tspan></tspan></text>
  <text
     xml:space="preserve"
     style="font-style:normal;font-variant:normal;font-weight:normal;font-stretch:normal;font-size:4.23333311px;line-height:0%;font-family:Arial;-inkscape-font-specification:'Arial, Normal';font-variant-ligatures:normal;font-variant-caps:normal;font-variant-numeric:normal;font-feature-settings:normal;text-align:start;letter-spacing:0px;word-spacing:0px;writing-mode:lr-tb;text-anchor:start;fill:#000000;fill-opacity:1;stroke:none"
     x="0.75382698"
     y="22.905361"
     id="text3440"
     transform="scale(0.99898353,1.0010175)"><tspan
       sodipodi:role="line"
       x="0.75382698"
       y="22.905361"
       id="tspan3442"
       style="font-style:normal;font-variant:normal;font-weight:normal;font-stretch:normal;font-size:4.23333311px;line-height:1.25;font-family:Arial;-inkscape-font-specification:'Arial, Normal';font-variant-ligatures:normal;font-variant-caps:normal;font-variant-numeric:normal;font-feature-settings:normal;text-align:start;writing-mode:lr-tb;text-anchor:start"><tspan
         dx="0"
         dy="0"
         style="font-style:normal;font-variant:normal;font-weight:normal;font-stretch:normal;font-size:4.23333311px;font-family:Arial;-inkscape-font-specification:'Arial, Normal';font-variant-ligatures:normal;font-variant-caps:normal;font-variant-numeric:normal;font-feature-settings:normal;text-align:start;writing-mode:lr-tb;text-anchor:start;fill:#ff0000"
         id="tspan3444">the root </tspan></tspan></text>
  <text
     xml:space="preserve"
     style="font-style:normal;font-variant:normal;font-weight:normal;font-stretch:normal;font-size:4.23333311px;line-height:0%;font-family:Arial;-inkscape-font-specification:'Arial, Normal';font-variant-ligatures:normal;font-variant-caps:normal;font-variant-numeric:normal;font-feature-settings:normal;text-align:start;letter-spacing:0px;word-spacing:0px;writing-mode:lr-tb;text-anchor:start;fill:#000000;fill-opacity:1;stroke:none"
     x="0.75382698"
     y="26.775541"
     id="text3446"
     transform="scale(0.99898353,1.0010175)"><tspan
       sodipodi:role="line"
       x="0.75382698"
       y="26.775541"
       id="tspan3448"
       style="font-style:normal;font-variant:normal;font-weight:normal;font-stretch:normal;font-size:4.23333311px;line-height:1.25;font-family:Arial;-inkscape-font-specification:'Arial, Normal';font-variant-ligatures:normal;font-variant-caps:normal;font-variant-numeric:normal;font-feature-settings:normal;text-align:start;writing-mode:lr-tb;text-anchor:start"><tspan
         dx="0"
         dy="0"
         style="font-style:normal;font-variant:normal;font-weight:normal;font-stretch:normal;font-size:4.23333311px;font-family:Arial;-inkscape-font-specification:'Arial, Normal';font-variant-ligatures:normal;font-variant-caps:normal;font-variant-numeric:normal;font-feature-settings:normal;text-align:start;writing-mode:lr-tb;text-anchor:start;fill:#ff0000"
         id="tspan3450">level</tspan></tspan></text>
</svg>
