<?xml version="1.0" encoding="UTF-8" standalone="no"?>
<!-- Created with Inkscape (http://www.inkscape.org/) -->

<svg
   xmlns:dc="http://purl.org/dc/elements/1.1/"
   xmlns:cc="http://creativecommons.org/ns#"
   xmlns:rdf="http://www.w3.org/1999/02/22-rdf-syntax-ns#"
   xmlns:svg="http://www.w3.org/2000/svg"
   xmlns="http://www.w3.org/2000/svg"
   xmlns:sodipodi="http://sodipodi.sourceforge.net/DTD/sodipodi-0.dtd"
   xmlns:inkscape="http://www.inkscape.org/namespaces/inkscape"
   id="svg2"
   version="1.1"
   inkscape:version="0.91 r13725"
   xml:space="preserve"
   width="477.62088"
   height="260.6655"
   viewBox="0 0 477.62088 260.6655"
   sodipodi:docname="L_function.svg"
   inkscape:export-filename="D:\mgimond\GitHub\ES214\img\L_function.png"
   inkscape:export-xdpi="150"
   inkscape:export-ydpi="150"><metadata
     id="metadata8"><rdf:RDF><cc:Work
         rdf:about=""><dc:format>image/svg+xml</dc:format><dc:type
           rdf:resource="http://purl.org/dc/dcmitype/StillImage" /><dc:title /></cc:Work></rdf:RDF></metadata><defs
     id="defs6"><clipPath
       clipPathUnits="userSpaceOnUse"
       id="clipPath16"><path
         d="m 0,9.155e-6 432,0 0,288.000000845 -432,0 L 0,9.155e-6 Z"
         id="path18"
         inkscape:connector-curvature="0"
         style="clip-rule:evenodd" /></clipPath><clipPath
       clipPathUnits="userSpaceOnUse"
       id="clipPath38"><path
         d="M 0,0 432,0 432,288 0,288 0,0 Z"
         id="path40"
         inkscape:connector-curvature="0"
         style="clip-rule:evenodd" /></clipPath><clipPath
       clipPathUnits="userSpaceOnUse"
       id="clipPath50"><path
         d="M 0,0 432,0 432,288 0,288 0,0 Z"
         id="path52"
         inkscape:connector-curvature="0"
         style="clip-rule:evenodd" /></clipPath><clipPath
       clipPathUnits="userSpaceOnUse"
       id="clipPath58"><path
         d="M 0,0 432,0 432,288 0,288 0,0 Z"
         id="path60"
         inkscape:connector-curvature="0"
         style="clip-rule:evenodd" /></clipPath><clipPath
       clipPathUnits="userSpaceOnUse"
       id="clipPath70"><path
         d="M 0,0 432,0 432,288 0,288 0,0 Z"
         id="path72"
         inkscape:connector-curvature="0"
         style="clip-rule:evenodd" /></clipPath><clipPath
       clipPathUnits="userSpaceOnUse"
       id="clipPath78"><path
         d="M 0,0 432,0 432,288 0,288 0,0 Z"
         id="path80"
         inkscape:connector-curvature="0"
         style="clip-rule:evenodd" /></clipPath><clipPath
       clipPathUnits="userSpaceOnUse"
       id="clipPath90"><path
         d="M 0,0 432,0 432,288 0,288 0,0 Z"
         id="path92"
         inkscape:connector-curvature="0"
         style="clip-rule:evenodd" /></clipPath><clipPath
       clipPathUnits="userSpaceOnUse"
       id="clipPath98"><path
         d="M 0,0 432,0 432,288 0,288 0,0 Z"
         id="path100"
         inkscape:connector-curvature="0"
         style="clip-rule:evenodd" /></clipPath><clipPath
       clipPathUnits="userSpaceOnUse"
       id="clipPath110"><path
         d="M 0,0 432,0 432,288 0,288 0,0 Z"
         id="path112"
         inkscape:connector-curvature="0"
         style="clip-rule:evenodd" /></clipPath><clipPath
       clipPathUnits="userSpaceOnUse"
       id="clipPath118"><path
         d="M 0,0 432,0 432,288 0,288 0,0 Z"
         id="path120"
         inkscape:connector-curvature="0"
         style="clip-rule:evenodd" /></clipPath><clipPath
       clipPathUnits="userSpaceOnUse"
       id="clipPath130"><path
         d="M 0,0 432,0 432,288 0,288 0,0 Z"
         id="path132"
         inkscape:connector-curvature="0"
         style="clip-rule:evenodd" /></clipPath><clipPath
       clipPathUnits="userSpaceOnUse"
       id="clipPath150"><path
         d="M 0,0 432,0 432,288 0,288 0,0 Z"
         id="path152"
         inkscape:connector-curvature="0"
         style="clip-rule:evenodd" /></clipPath><clipPath
       clipPathUnits="userSpaceOnUse"
       id="clipPath162"><path
         d="M 0,0 432,0 432,288 0,288 0,0 Z"
         id="path164"
         inkscape:connector-curvature="0"
         style="clip-rule:evenodd" /></clipPath><clipPath
       clipPathUnits="userSpaceOnUse"
       id="clipPath174"><path
         d="M 0,0 432,0 432,288 0,288 0,0 Z"
         id="path176"
         inkscape:connector-curvature="0"
         style="clip-rule:evenodd" /></clipPath><clipPath
       clipPathUnits="userSpaceOnUse"
       id="clipPath184"><path
         d="M 0,0 432,0 432,288 0,288 0,0 Z"
         id="path186"
         inkscape:connector-curvature="0"
         style="clip-rule:evenodd" /></clipPath><clipPath
       clipPathUnits="userSpaceOnUse"
       id="clipPath196"><path
         d="M 0,0 432,0 432,288 0,288 0,0 Z"
         id="path198"
         inkscape:connector-curvature="0"
         style="clip-rule:evenodd" /></clipPath><clipPath
       clipPathUnits="userSpaceOnUse"
       id="clipPath208"><path
         d="M 0,0 432,0 432,288 0,288 0,0 Z"
         id="path210"
         inkscape:connector-curvature="0"
         style="clip-rule:evenodd" /></clipPath><clipPath
       clipPathUnits="userSpaceOnUse"
       id="clipPath218"><path
         d="M 0,0 432,0 432,288 0,288 0,0 Z"
         id="path220"
         inkscape:connector-curvature="0"
         style="clip-rule:evenodd" /></clipPath><clipPath
       clipPathUnits="userSpaceOnUse"
       id="clipPath230"><path
         d="M 0,0 432,0 432,288 0,288 0,0 Z"
         id="path232"
         inkscape:connector-curvature="0"
         style="clip-rule:evenodd" /></clipPath><clipPath
       clipPathUnits="userSpaceOnUse"
       id="clipPath240"><path
         d="M 0,0 432,0 432,288 0,288 0,0 Z"
         id="path242"
         inkscape:connector-curvature="0"
         style="clip-rule:evenodd" /></clipPath><clipPath
       clipPathUnits="userSpaceOnUse"
       id="clipPath252"><path
         d="M 0,0 432,0 432,288 0,288 0,0 Z"
         id="path254"
         inkscape:connector-curvature="0"
         style="clip-rule:evenodd" /></clipPath><clipPath
       clipPathUnits="userSpaceOnUse"
       id="clipPath262"><path
         d="M 0,0 432,0 432,288 0,288 0,0 Z"
         id="path264"
         inkscape:connector-curvature="0"
         style="clip-rule:evenodd" /></clipPath><clipPath
       clipPathUnits="userSpaceOnUse"
       id="clipPath274"><path
         d="M 0,0 432,0 432,288 0,288 0,0 Z"
         id="path276"
         inkscape:connector-curvature="0"
         style="clip-rule:evenodd" /></clipPath><clipPath
       clipPathUnits="userSpaceOnUse"
       id="clipPath282"><path
         d="M 0,0 432,0 432,288 0,288 0,0 Z"
         id="path284"
         inkscape:connector-curvature="0"
         style="clip-rule:evenodd" /></clipPath><clipPath
       clipPathUnits="userSpaceOnUse"
       id="clipPath294"><path
         d="M 0,0 432,0 432,288 0,288 0,0 Z"
         id="path296"
         inkscape:connector-curvature="0"
         style="clip-rule:evenodd" /></clipPath></defs><sodipodi:namedview
     pagecolor="#ffffff"
     bordercolor="#666666"
     borderopacity="1"
     objecttolerance="10"
     gridtolerance="10"
     guidetolerance="10"
     inkscape:pageopacity="0"
     inkscape:pageshadow="2"
     inkscape:window-width="1328"
     inkscape:window-height="687"
     id="namedview4"
     showgrid="false"
     inkscape:zoom="1.6786299"
     inkscape:cx="202.70735"
     inkscape:cy="143.25824"
     inkscape:window-x="1468"
     inkscape:window-y="124"
     inkscape:window-maximized="0"
     inkscape:current-layer="g10" /><g
     id="g10"
     inkscape:groupmode="layer"
     inkscape:label="L_function"
     transform="matrix(1.25,0,0,-1.25,-16.291625,316.29125)"><path
       d="M 90.223,74.605 344.85,74.604"
       style="fill:none;stroke:#000000;stroke-width:0.14;stroke-linecap:round;stroke-linejoin:round;stroke-miterlimit:10;stroke-dasharray:none;stroke-opacity:1"
       id="path22"
       inkscape:connector-curvature="0" /><path
       d="m 90.223,74.605 0,-3.876"
       style="fill:none;stroke:#000000;stroke-width:0.14;stroke-linecap:round;stroke-linejoin:round;stroke-miterlimit:10;stroke-dasharray:none;stroke-opacity:1"
       id="path24"
       inkscape:connector-curvature="0" /><path
       d="m 154.1,74.605 0,-3.876"
       style="fill:none;stroke:#000000;stroke-width:0.14;stroke-linecap:round;stroke-linejoin:round;stroke-miterlimit:10;stroke-dasharray:none;stroke-opacity:1"
       id="path26"
       inkscape:connector-curvature="0" /><path
       d="m 217.47,74.605 0,-3.876"
       style="fill:none;stroke:#000000;stroke-width:0.14;stroke-linecap:round;stroke-linejoin:round;stroke-miterlimit:10;stroke-dasharray:none;stroke-opacity:1"
       id="path28"
       inkscape:connector-curvature="0" /><path
       d="m 281.35,74.605 0,-3.876"
       style="fill:none;stroke:#000000;stroke-width:0.14;stroke-linecap:round;stroke-linejoin:round;stroke-miterlimit:10;stroke-dasharray:none;stroke-opacity:1"
       id="path30"
       inkscape:connector-curvature="0" /><path
       d="m 344.85,74.605 0,-3.876"
       style="fill:none;stroke:#000000;stroke-width:0.14;stroke-linecap:round;stroke-linejoin:round;stroke-miterlimit:10;stroke-dasharray:none;stroke-opacity:1"
       id="path32"
       inkscape:connector-curvature="0" /><g
       id="g34"><g
         id="g36"
         clip-path="url(#clipPath38)"><text
           transform="matrix(1,0,0,-1,85.74,58.08)"
           style="font-variant:normal;font-weight:normal;font-size:10.02000046px;font-family:Arial;-inkscape-font-specification:Arial;writing-mode:lr-tb;fill:#000000;fill-opacity:1;fill-rule:nonzero;stroke:none"
           id="text42"><tspan
             x="0"
             y="0"
             id="tspan44">0</tspan></text>
</g></g><g
       id="g46"><g
         id="g48"
         clip-path="url(#clipPath50)" /></g><g
       id="g54"><g
         id="g56"
         clip-path="url(#clipPath58)"><text
           transform="matrix(1,0,0,-1,148.02,58.08)"
           style="font-variant:normal;font-weight:normal;font-size:10.02000046px;font-family:Arial;-inkscape-font-specification:Arial;writing-mode:lr-tb;fill:#000000;fill-opacity:1;fill-rule:nonzero;stroke:none"
           id="text62"><tspan
             x="0 5.5799999"
             y="0"
             sodipodi:role="line"
             id="tspan64">10</tspan></text>
</g></g><g
       id="g66"><g
         id="g68"
         clip-path="url(#clipPath70)" /></g><g
       id="g74"><g
         id="g76"
         clip-path="url(#clipPath78)"><text
           transform="matrix(1,0,0,-1,211.4,58.08)"
           style="font-variant:normal;font-weight:normal;font-size:10.02000046px;font-family:Arial;-inkscape-font-specification:Arial;writing-mode:lr-tb;fill:#000000;fill-opacity:1;fill-rule:nonzero;stroke:none"
           id="text82"><tspan
             x="0 5.5799999"
             y="0"
             sodipodi:role="line"
             id="tspan84">20</tspan></text>
</g></g><g
       id="g86"><g
         id="g88"
         clip-path="url(#clipPath90)" /></g><g
       id="g94"><g
         id="g96"
         clip-path="url(#clipPath98)"><text
           transform="matrix(1,0,0,-1,275.28,58.08)"
           style="font-variant:normal;font-weight:normal;font-size:10.02000046px;font-family:Arial;-inkscape-font-specification:Arial;writing-mode:lr-tb;fill:#000000;fill-opacity:1;fill-rule:nonzero;stroke:none"
           id="text102"><tspan
             x="0 5.5799999"
             y="0"
             sodipodi:role="line"
             id="tspan104">30</tspan></text>
</g></g><g
       id="g106"><g
         id="g108"
         clip-path="url(#clipPath110)" /></g><g
       id="g114"><g
         id="g116"
         clip-path="url(#clipPath118)"><text
           transform="matrix(1,0,0,-1,338.8,58.08)"
           style="font-variant:normal;font-weight:normal;font-size:10.02000046px;font-family:Arial;-inkscape-font-specification:Arial;writing-mode:lr-tb;fill:#000000;fill-opacity:1;fill-rule:nonzero;stroke:none"
           id="text122"><tspan
             x="0 5.5799999"
             y="0"
             sodipodi:role="line"
             id="tspan124">40</tspan></text>
</g></g><g
       id="g126"><g
         id="g128"
         clip-path="url(#clipPath130)" /></g><path
       d="m 80.223,111.48 0,118.62"
       style="fill:none;stroke:#000000;stroke-width:0.14;stroke-linecap:round;stroke-linejoin:round;stroke-miterlimit:10;stroke-dasharray:none;stroke-opacity:1"
       id="path134"
       inkscape:connector-curvature="0" /><path
       d="m 80.223,111.48 -3.5,0"
       style="fill:none;stroke:#000000;stroke-width:0.14;stroke-linecap:round;stroke-linejoin:round;stroke-miterlimit:10;stroke-dasharray:none;stroke-opacity:1"
       id="path136"
       inkscape:connector-curvature="0" /><path
       d="m 80.223,151.1 -3.5,0"
       style="fill:none;stroke:#000000;stroke-width:0.14;stroke-linecap:round;stroke-linejoin:round;stroke-miterlimit:10;stroke-dasharray:none;stroke-opacity:1"
       id="path138"
       inkscape:connector-curvature="0" /><path
       d="m 80.223,190.85 -3.5,0"
       style="fill:none;stroke:#000000;stroke-width:0.14;stroke-linecap:round;stroke-linejoin:round;stroke-miterlimit:10;stroke-dasharray:none;stroke-opacity:1"
       id="path140"
       inkscape:connector-curvature="0" /><path
       d="m 80.223,230.1 -3.5,0"
       style="fill:none;stroke:#000000;stroke-width:0.14;stroke-linecap:round;stroke-linejoin:round;stroke-miterlimit:10;stroke-dasharray:none;stroke-opacity:1"
       id="path142"
       inkscape:connector-curvature="0" /><path
       d="m 49.352,104.33 25.623,0 0,12.117 -25.623,0 0,-12.117 z"
       style="fill:none;stroke:#ffffff;stroke-width:0.75;stroke-linecap:butt;stroke-linejoin:miter;stroke-miterlimit:8;stroke-dasharray:none;stroke-opacity:1"
       id="path144"
       inkscape:connector-curvature="0" /><g
       id="g146"><g
         id="g148"
         clip-path="url(#clipPath150)"><text
           transform="matrix(1,0,0,-1,49.36,106.68)"
           style="font-variant:normal;font-weight:normal;font-size:10.02000046px;font-family:Arial;-inkscape-font-specification:Arial;writing-mode:lr-tb;fill:#000000;fill-opacity:1;fill-rule:nonzero;stroke:none"
           id="text154"><tspan
             x="0"
             y="0"
             id="tspan156">-</tspan></text>
</g></g><g
       id="g158"><g
         id="g160"
         clip-path="url(#clipPath162)"><text
           transform="matrix(1,0,0,-1,52.72,106.68)"
           style="font-variant:normal;font-weight:normal;font-size:10.02000046px;font-family:Arial;-inkscape-font-specification:Arial;writing-mode:lr-tb;fill:#000000;fill-opacity:1;fill-rule:nonzero;stroke:none"
           id="text166"><tspan
             x="0 5.5711198 11.14224 16.6833"
             y="0"
             sodipodi:role="line"
             id="tspan168">4000</tspan></text>
</g></g><g
       id="g170"><g
         id="g172"
         clip-path="url(#clipPath174)" /></g><path
       d="m 49.352,143.96 25.623,0 0,12.117 -25.623,0 0,-12.117 z"
       style="fill:none;stroke:#ffffff;stroke-width:0.75;stroke-linecap:butt;stroke-linejoin:miter;stroke-miterlimit:8;stroke-dasharray:none;stroke-opacity:1"
       id="path178"
       inkscape:connector-curvature="0" /><g
       id="g180"><g
         id="g182"
         clip-path="url(#clipPath184)"><text
           transform="matrix(1,0,0,-1,49.36,146.32)"
           style="font-variant:normal;font-weight:normal;font-size:10.02000046px;font-family:Arial;-inkscape-font-specification:Arial;writing-mode:lr-tb;fill:#000000;fill-opacity:1;fill-rule:nonzero;stroke:none"
           id="text188"><tspan
             x="0"
             y="0"
             id="tspan190">-</tspan></text>
</g></g><g
       id="g192"><g
         id="g194"
         clip-path="url(#clipPath196)"><text
           transform="matrix(1,0,0,-1,52.72,146.32)"
           style="font-variant:normal;font-weight:normal;font-size:10.02000046px;font-family:Arial;-inkscape-font-specification:Arial;writing-mode:lr-tb;fill:#000000;fill-opacity:1;fill-rule:nonzero;stroke:none"
           id="text200"><tspan
             x="0 5.5711198 11.14224 16.6833"
             y="0"
             sodipodi:role="line"
             id="tspan202">2000</tspan></text>
</g></g><g
       id="g204"><g
         id="g206"
         clip-path="url(#clipPath208)" /></g><path
       d="m 57.493,183.71 5.5537,0 0,12.117 -5.5537,0 0,-12.117 z"
       style="fill:none;stroke:#ffffff;stroke-width:0.75;stroke-linecap:butt;stroke-linejoin:miter;stroke-miterlimit:8;stroke-dasharray:none;stroke-opacity:1"
       id="path212"
       inkscape:connector-curvature="0" /><g
       id="g214"><g
         id="g216"
         clip-path="url(#clipPath218)"><text
           transform="matrix(1,0,0,-1,57.5,186.08)"
           style="font-variant:normal;font-weight:normal;font-size:10.02000046px;font-family:Arial;-inkscape-font-specification:Arial;writing-mode:lr-tb;fill:#000000;fill-opacity:1;fill-rule:nonzero;stroke:none"
           id="text222"><tspan
             x="0"
             y="0"
             id="tspan224">0</tspan></text>
</g></g><g
       id="g226"><g
         id="g228"
         clip-path="url(#clipPath230)" /></g><path
       d="m 50.677,222.96 22.215,0 0,12.117 -22.215,0 0,-12.117 z"
       style="fill:none;stroke:#ffffff;stroke-width:0.75;stroke-linecap:butt;stroke-linejoin:miter;stroke-miterlimit:8;stroke-dasharray:none;stroke-opacity:1"
       id="path234"
       inkscape:connector-curvature="0" /><g
       id="g236"><g
         id="g238"
         clip-path="url(#clipPath240)"><text
           transform="matrix(1,0,0,-1,50.68,225.34)"
           style="font-variant:normal;font-weight:normal;font-size:10.02000046px;font-family:Arial;-inkscape-font-specification:Arial;writing-mode:lr-tb;fill:#000000;fill-opacity:1;fill-rule:nonzero;stroke:none"
           id="text244"><tspan
             x="0 5.5711198 11.14224 16.6833"
             y="0"
             sodipodi:role="line"
             id="tspan246">2000</tspan></text>
</g></g><g
       id="g248"><g
         id="g250"
         clip-path="url(#clipPath252)" /></g><path
       d="m 80.223,74.604 265,0 0,170.13 -265,0 0,-170.13 z"
       style="fill:none;stroke:#000000;stroke-width:0.14;stroke-linecap:round;stroke-linejoin:round;stroke-miterlimit:8;stroke-dasharray:none;stroke-opacity:1"
       id="path256"
       inkscape:connector-curvature="0" /><g
       id="g258"><g
         id="g260"
         clip-path="url(#clipPath262)"><text
           transform="matrix(1,0,0,-1,27.92,153.54)"
           style="font-variant:normal;font-weight:normal;font-size:10.02000046px;font-family:Arial;-inkscape-font-specification:Arial;writing-mode:lr-tb;fill:#000000;fill-opacity:1;fill-rule:nonzero;stroke:none"
           id="text266"><tspan
             x="0"
             y="0"
             id="tspan268">L</tspan></text>
</g></g><g
       id="g270"><g
         id="g272"
         clip-path="url(#clipPath274)" /></g><g
       id="g278"><g
         id="g280"
         clip-path="url(#clipPath282)"><text
           transform="matrix(1,0,0,-1,28.66,161.26)"
           style="font-variant:normal;font-weight:normal;font-size:10.03999996px;font-family:Arial;-inkscape-font-specification:Arial;writing-mode:lr-tb;fill:#000000;fill-opacity:1;fill-rule:nonzero;stroke:none"
           id="text286"><tspan
             x="0"
             y="0"
             id="tspan288">^</tspan></text>
</g></g><g
       id="g290"><g
         id="g292"
         clip-path="url(#clipPath294)" /></g><path
       d="m 90.223,190.79 0.396,-1.58 0.794,-1.59 0.396,-1.58 0.397,-1.19 0.397,-1.59 0.396,-1.58 0.793,-1.59 0.397,-1.19 0.397,-1.58 0.396,-1.59 0.397,-1.59 0.793,-1.18 0.397,-1.59 0.397,-1.59 0.396,-1.58 0.794,-1.19 0.396,-1.59 0.397,-1.58 0.396,-1.59 0.397,-1.19 0.798,-1.58 0.39,-1.59 0.4,-1.58 0.4,-1.19 0.39,-1.59 0.8,-1.58 0.39,-1.19 0.4,-1.59 0.4,-1.58 0.39,-1.59 0.8,-1.19 0.39,-1.58 0.4,-1.59 0.4,-1.58 0.39,-1.19 0.79,-1.59 0.4,-1.58 0.4,-1.59 0.39,-1.19 0.4,-1.58 0.79,-1.59 0.4,-1.58 0.4,-1.19 0.39,-1.59 0.8,-1.58 0.39,-1.59 0.4,-1.19 0.4,-1.58 0.39,-1.59 0.8,-1.58 0.39,-1.19 0.4,-1.59 0.4,-1.58 0.39,-1.59 0.8,-1.19 0.39,-1.58 0.4,-1.59 0.4,-1.58 0.39,-1.19 0.8,-1.59 0.39,-1.58 0.4,-1.589 0.4,-1.19 0.39,-1.585 0.8,-1.585 0.39,-1.586 0.4,-1.189 0.4,-1.585 0.39,-1.586 0.8,-1.585 0.39,-1.189 0.4,-1.586 0.4,-1.585 0.39,-1.585 0.8,50.735 0.39,-1.59 0.4,-1.19 0.4,-1.58 0.79,-1.59 0.4,-1.58 0.39,-1.19 0.4,-1.59 0.4,24.97 0.79,-1.58 0.4,-1.19 0.39,14.27 0.4,-1.59 0.4,-1.58 0.79,-1.59 0.4,-1.19 0.39,-1.58 0.4,-1.59 0.4,-1.58 0.79,-1.19 0.4,-1.59 0.39,19.42 0.4,-1.19 0.4,9.52 0.79,-1.59 0.4,-1.19 0.39,8.72 0.4,-1.58 0.4,-1.59 0.79,-1.19 0.4,-1.58 0.39,-1.59 0.4,11.5 0.79,-1.19 0.4,-1.59 0.4,7.14 0.39,-1.19 0.4,-1.59 0.79,-1.58 0.4,6.73 0.4,-1.19 0.39,-1.58 0.4,-1.59 0.79,-1.58 0.4,-1.19 0.4,-1.59 0.39,-1.58 0.4,-1.59 0.79,-1.19 0.4,-1.58 0.4,-1.59 0.39,-1.58 0.4,-1.19 0.79,-1.59 0.4,-1.58 0.4,-1.59 0.39,7.93 0.4,-1.59 0.79,-1.58 0.4,-1.59 0.4,-1.19 0.39,-1.58 0.8,-1.59 0.39,10.31 0.4,-1.59 0.4,-1.19 0.39,-1.58 0.8,-1.59 0.39,-1.58 0.4,5.55 0.4,-1.19 0.39,-1.59 0.8,5.15 0.39,-1.18 0.4,-1.59 0.39,-1.59 0.4,-1.58 0.79,7.53 0.4,14.67 0.4,6.34 0.39,4.36 0.4,12.68 0.79,-1.59 0.4,-1.58 0.4,3.96 0.39,-1.58 0.4,-1.19 0.79,-1.59 0.4,-1.58 0.4,3.56 0.39,-1.18 0.8,-1.59 0.39,4.36 0.4,-1.59 0.4,-1.58 0.39,-1.19 0.8,-1.58 0.39,7.53 0.4,3.96 0.4,-1.59 0.39,-1.19 0.8,-1.58 0.39,-1.59 0.4,-1.58 0.4,-1.19 0.39,-1.59 0.8,-1.58 0.39,-1.59 0.4,-1.19 0.4,-1.58 0.39,-1.59 0.8,5.16 0.39,-1.59 0.4,-1.58 0.4,-1.19 0.39,-1.59 0.8,-1.58 0.39,-1.59 0.4,3.96 0.4,3.17 0.39,-1.18 0.8,-1.59 0.39,-1.59 0.4,-1.58 0.4,12.29 0.79,-1.59 0.4,-1.58 0.39,-1.59 0.4,-1.19 0.4,-1.58 0.79,-1.59 0.4,2.77 0.39,-1.58 0.4,-1.19 0.4,-1.59 0.79,-1.58 0.4,-1.59 0.39,-1.19 0.4,8.72 0.4,-1.58 0.79,3.57 0.4,2.77 0.39,-1.19 0.4,-1.58 0.4,-1.59 0.79,3.96 0.4,-1.58 0.39,9.11 0.4,2.38 0.4,-1.58 0.79,-1.19 0.4,7.53 0.39,-1.59 0.4,3.17 0.79,-1.58 0.4,-1.59 0.4,1.99 0.39,-1.19 0.4,-1.59 0.79,-1.58 0.4,5.94 0.4,-1.58 0.39,-1.19 0.4,-1.59 0.79,-1.58 0.4,-1.59 0.4,-1.19 0.39,-1.58 0.4,-1.59 0.79,-1.59 0.4,2.78 0.4,-1.59 0.39,-1.58 0.4,-1.19 0.79,3.57 0.4,-1.59 0.4,3.57 0.39,-1.59 0.4,-1.58 0.79,-1.19 0.4,-1.59 0.4,-1.58 0.39,-1.59 0.8,2.78 0.39,2.77 0.4,-1.19 0.39,-1.58 0.4,-1.59 0.79,1.98 0.4,1.98 0.4,-1.58 0.39,1.98 0.4,5.15 0.79,-1.19 0.4,-1.58 0.4,-1.59 0.39,-1.58 0.4,-1.19 0.79,-1.59 0.4,5.16 0.4,2.37 0.39,-1.58 0.4,-1.59 0.79,-1.19 0.4,1.59 0.4,-1.19 0.39,2.78 0.4,-1.19 0.79,-1.59 0.4,-1.58 0.4,1.98 0.39,-1.59 0.8,1.98 0.39,-1.19 0.4,2.78 0.4,-1.59 0.39,6.35 0.8,-1.59 0.39,2.38 0.4,-1.19 0.4,-1.59 0.39,-1.58 0.8,-1.59 0.39,-1.19 0.4,-1.58 0.4,-1.59 0.39,-1.58 0.8,1.98 0.39,-1.19 0.4,1.98 0.4,3.97 0.39,-1.59 0.8,2.77 0.39,4.36 0.4,2.78 0.4,-1.59 0.39,-1.58 0.8,-1.59 0.39,-1.19 0.4,-1.58 0.4,-1.59 0.39,-1.58 0.8,3.17 0.39,-1.19 0.4,5.15 0.4,-1.58 0.79,-1.19 0.4,-1.59 0.39,1.19 0.4,-1.58 0.4,-1.19 0.79,1.98 0.4,-1.19 0.39,-1.59 0.4,-1.58 0.4,5.55 0.79,-1.19 0.4,-1.59 0.39,-1.58 0.4,1.98 0.4,5.15 0.79,-1.58 0.4,5.15 0.39,-1.59 0.4,-1.58 0.4,1.98 0.79,-1.59 0.4,-1.18 0.39,-1.59 0.4,-1.59 0.4,1.99 0.79,-1.59 0.4,8.72 0.39,1.59 0.4,1.58 0.79,2.78 0.4,2.37 0.4,1.99 0.39,-1.59 0.4,1.59 0.79,-1.59 0.4,-1.58 0.4,-1.59 0.39,-1.19 0.4,-1.58 0.79,1.58 0.4,-1.58 0.4,1.58 0.39,6.74 0.4,1.58 0.79,-1.58 0.4,-1.59 0.4,-1.19 0.39,-1.58 0.4,-1.59 0.79,-1.58 0.4,-1.19 0.4,1.19 0.39,-1.59 0.4,-1.19 0.79,-1.58 0.4,-1.59 0.39,-1.58 0.4,-1.19 0.79,-1.59 0.4,-1.58 0.4,-1.59 0.39,2.38 0.4,-1.59 0.79,-1.58 0.4,-1.59 0.4,1.59 0.39,0.79 0.4,-1.58 0.79,-1.59 0.4,1.59 0.4,1.19 0.39,1.18 0.4,1.99 0.79,0.79 0.4,1.98 0.4,-1.58 0.39,-1.59 0.4,5.15 0.79,2.38 0.4,1.59 0.4,-1.59 0.39,-1.58 0.4,-1.59 0.79,-1.19 0.4,-1.58 0.4,5.94 0.39,2.78 0.8,1.18 0.39,-1.58 0.4,1.58 0.4,-1.58 0.39,-1.59 0.8,1.19 0.39,2.78 0.4,-1.59 0.4,-1.19 0.39,1.59 0.8,-1.59 0.39,3.17 0.4,1.19 0.4,-1.58 0.39,-1.19 0.8,-1.59 0.39,1.98 0.4,-1.58 0.4,-1.19 0.39,1.59 0.8,-1.59 0.39,-1.59 0.4,-1.58 0.4,-1.19 0.39,-1.59 0.8,-1.58 0.39,-1.59 0.4,-1.19 0.4,2.38 0.39,-1.58 0.8,2.77 0.39,2.38 0.4,-1.59 0.4,-1.58 0.79,2.38 0.4,-1.59 0.39,-1.19 0.4,2.38 0.4,1.19 0.79,5.15 0.4,-1.58 0.39,-1.59 0.4,3.97 0.4,-1.59 0.79,2.38 0.4,-1.59 0.39,1.59 0.4,-1.59 0.4,1.59 0.79,-1.59 0.4,-1.19 0.39,-1.58 0.4,1.19 0.4,-1.59 0.79,-1.58 0.4,1.58 0.39,-1.58 0.4,-1.59 0.4,-1.58 0.79,3.96 0.4,-1.59 0.39,-1.19 0.4,3.97 0.79,-1.59 0.4,-1.58 0.4,-1.19 0.39,4.36 0.4,0.39 0.79,1.59 0.4,1.59 0.4,0.79 0.39,1.98 0.4,1.19 0.79,0.79 0.4,1.19 0.4,-1.58 0.39,-1.59 0.4,-1.19 0.79,-1.58 0.4,2.77 0.39,1.19 0.4,-1.59 0.4,-1.58 0.79,-1.59 0.4,-1.19 0.39,-1.58 0.4,-1.59 0.4,1.59 0.79,-1.59 0.4,-1.58 0.39,3.17 0.4,-1.59 0.79,1.98 0.4,0.8 0.4,-1.59 0.39,1.19 0.4,-1.58 0.79,-1.59 0.4,3.96 0.4,2.38 0.39,1.59 0.4,-1.59 0.79,3.97 0.4,3.96 0.4,-1.59"
       style="fill:none;stroke:#000000;stroke-width:0.62;stroke-linecap:round;stroke-linejoin:round;stroke-miterlimit:8;stroke-dasharray:none;stroke-opacity:1"
       id="path298"
       inkscape:connector-curvature="0" /><path
       d="m 93.375,190.85 0.396,0 0.397,0 0.397,0 0.397,0 0,0 m 1.586,0 0.397,0 0.397,0 0.793,0 0,0 m 1.587,0 0.798,0 0.39,0 0.4,0 0,0 m 1.59,0 0.39,0 0.4,0 0.4,0 0.39,0 0,0 m 1.59,0 0.4,0 0.39,0 0.8,0 0,0 m 1.58,0 0.8,0 0.39,0 0.4,0 0,0 m 1.59,0 0.39,0 0.4,0 0.4,0 0.39,0 m 1.59,0 0.4,0 0.79,0 0.4,0 0,0 m 1.58,0 0.4,0 0.4,0 0.39,0 0.4,0 0,0 m 1.59,0 0.39,0 0.4,0 0.4,0 0.39,0 m 1.59,0 0.4,0 0.79,0 0.4,0 0,0 m 1.59,0 0.39,0 0.4,0 0.4,0 0.39,0 0,0 m 1.59,0 0.4,0 0.39,0 0.8,0 0,0 m 1.58,0 0.8,0 0.39,0 0.4,0 0,0 m 1.59,0 0.39,0 0.4,0 0.4,0 0.39,0 0,0 m 1.59,0 0.4,0 0.79,0 0.4,0 0,0 m 1.58,0 0.4,0 0.4,0 0.39,0 0.4,0 0,0 m 1.59,0 0.39,0 0.4,0 0.4,0 0.39,0 m 1.59,0 0.4,0 0.79,0 0.4,0 0,0 m 1.58,0 0.4,0 0.4,0 0.39,0 0.4,0 0,0 m 1.59,0 0.39,0 0.4,0 0.8,0 0,0 m 1.58,0 0.8,0 0.39,0 0.4,0 0,0 m 1.59,0 0.39,0 0.4,0 0.4,0 0.39,0 0,0 m 1.59,0 0.4,0 0.39,0 0.8,0 0,0 m 1.58,0 0.4,0 0.4,0 0.39,0 0.4,0 0,0 m 1.59,0 0.39,0 0.4,0 0.4,0 0.39,0 m 1.59,0 0.4,0 0.79,0 0.4,0 0,0 m 1.58,0 0.4,0 0.4,0 0.39,0 0.4,0 0,0 m 1.59,0 0.39,0 0.4,0 0.4,0 0.39,0 m 1.59,0 0.79,0 0.4,0 0.4,0 0,0 m 1.58,0 0.4,0 0.4,0 0.4,0 0.39,0 0,0 m 1.59,0 0.4,0 0.39,0 0.8,0 0,0 m 1.58,0 0.8,0 0.39,0 0.4,0 0,0 m 1.59,0 0.39,0 0.4,0 0.4,0 0.39,0 m 1.59,0 0.4,0 0.79,0 0.4,0 0,0 m 1.58,0 0.4,0 0.4,0 0.39,0 0.4,0 0,0 m 1.59,0 0.39,0 0.4,0 0.4,0 0.39,0 m 1.59,0 0.4,0 0.79,0 0.4,0 0,0 m 1.58,0 0.4,0 0.4,0 0.39,0 0.4,0 0,0 m 1.59,0 0.39,0 0.4,0 0.79,0 0,0 m 1.59,0 0.8,0 0.39,0 0.4,0 0,0 m 1.59,0 0.39,0 0.4,0 0.4,0 0.39,0 0,0 m 1.59,0 0.4,0 0.79,0 0.4,0 0,0 m 1.58,0 0.4,0 0.4,0 0.39,0 0.4,0 0,0 m 1.59,0 0.39,0 0.4,0 0.4,0 0.39,0 m 1.59,0 0.4,0 0.79,0 0.4,0 0,0 m 1.58,0 0.4,0 0.4,0 0.39,0 0.4,0 0,0 m 1.59,0 0.39,0 0.4,0 0.79,0 0,0 m 1.59,0 0.79,0 0.4,0 0.4,0 0,0 m 1.58,0 0.4,0 0.4,0 0.39,0 0.4,0 0,0 m 1.59,0 0.4,0 0.39,0 0.8,0 0,0 m 1.58,0 0.8,0 0.39,0 0.4,0 0,0 m 1.59,0 0.39,0 0.4,0 0.4,0 0.39,0 m 1.59,0 0.4,0 0.79,0 0.4,0 0,0 m 1.58,0 0.4,0 0.4,0 0.39,0 0.4,0 0,0 m 1.59,0 0.39,0 0.4,0 0.4,0 0.39,0 m 1.59,0 0.79,0 0.4,0 0.4,0 0,0 m 1.58,0 0.4,0 0.4,0 0.39,0 0.4,0 0,0 m 1.59,0 0.39,0 0.4,0 0.79,0 0,0 m 1.59,0 0.79,0 0.4,0 0.4,0 0,0 m 1.59,0 0.39,0 0.4,0 0.4,0 0.39,0 m 1.59,0 0.4,0 0.79,0 0.4,0 0,0 m 1.58,0 0.4,0 0.4,0 0.39,0 0.4,0 0,0 m 1.59,0 0.39,0 0.4,0 0.4,0 0.39,0 m 1.59,0 0.4,0 0.79,0 0.4,0 0,0 m 1.58,0 0.4,0 0.4,0 0.39,0 0.4,0 0,0 m 1.59,0 0.39,0 0.4,0 0.79,0 0,0 m 1.59,0 0.79,0 0.4,0"
       style="fill:none;stroke:#ff0000;stroke-width:0.38;stroke-linecap:round;stroke-linejoin:round;stroke-miterlimit:8;stroke-dasharray:none;stroke-opacity:1"
       id="path300"
       inkscape:connector-curvature="0" /><path
       d="m 309.18,190.85 0.4,0 0.4,0 0.39,0 0.4,0 0,0 m 1.58,0 0.4,0 0.4,0 0.79,0 0,0 m 1.59,0 0.39,0 0.4,0 0.4,0 0.39,0 0,0 m 1.59,0 0.39,0 0.4,0 0.4,0 0.39,0 m 1.59,0 0.4,0 0.79,0 0.39,0 0,0 m 1.59,0 0.4,0 0.39,0 0.4,0 0.4,0 0,0 m 1.58,0 0.4,0 0.39,0 0.8,0 0,0 m 1.58,0 0.8,0 0.39,0 0.4,0 0,0 m 1.58,0 0.4,0"
       style="fill:none;stroke:#ff0000;stroke-width:0.38;stroke-linecap:round;stroke-linejoin:round;stroke-miterlimit:8;stroke-dasharray:none;stroke-opacity:1"
       id="path302"
       inkscape:connector-curvature="0" /></g></svg>